<svg width="1626" height="48" viewBox="0 0 1626 48" fill="none" xmlns="http://www.w3.org/2000/svg">
<rect x="40" width="1328" height="48" fill="black"/>
<path d="M0.558 19.022C0.558 18.914 0.588 18.824 0.648 18.752C0.72 18.68 0.822 18.644 0.954 18.644H11.52C11.652 18.644 11.748 18.68 11.808 18.752C11.88 18.824 11.916 18.914 11.916 19.022V20.93C11.916 21.134 11.796 21.236 11.556 21.236H8.28C8.148 21.236 8.082 21.296 8.082 21.416V31.64C8.082 31.88 7.974 32 7.758 32H4.734C4.53 32 4.428 31.886 4.428 31.658V21.488C4.428 21.392 4.416 21.326 4.392 21.29C4.368 21.254 4.32 21.236 4.248 21.236H0.936C0.684 21.236 0.558 21.134 0.558 20.93V19.022ZM17.4665 26.492C17.3945 26.492 17.3345 26.516 17.2865 26.564C17.2385 26.6 17.2145 26.654 17.2145 26.726V31.532C17.2145 31.7 17.1725 31.82 17.0885 31.892C17.0045 31.964 16.8665 32 16.6745 32H14.0105C13.8425 32 13.7285 31.97 13.6685 31.91C13.6085 31.838 13.5785 31.73 13.5785 31.586V19.022C13.5785 18.902 13.6025 18.812 13.6505 18.752C13.7105 18.68 13.7885 18.644 13.8845 18.644H16.9085C17.0045 18.644 17.0765 18.674 17.1245 18.734C17.1845 18.794 17.2145 18.878 17.2145 18.986V23.378C17.2145 23.606 17.3105 23.72 17.5025 23.72H21.0845C21.2765 23.72 21.3725 23.606 21.3725 23.378V18.986C21.3725 18.878 21.3965 18.794 21.4445 18.734C21.5045 18.674 21.5825 18.644 21.6785 18.644H24.7025C24.7985 18.644 24.8705 18.68 24.9185 18.752C24.9785 18.812 25.0085 18.902 25.0085 19.022V31.586C25.0085 31.73 24.9785 31.838 24.9185 31.91C24.8585 31.97 24.7445 32 24.5765 32H21.9125C21.7205 32 21.5825 31.964 21.4985 31.892C21.4145 31.82 21.3725 31.7 21.3725 31.532V26.726C21.3725 26.654 21.3485 26.6 21.3005 26.564C21.2645 26.516 21.2045 26.492 21.1205 26.492H17.4665ZM27.2015 19.022C27.2015 18.77 27.3035 18.644 27.5075 18.644H36.9215C37.1135 18.644 37.2095 18.758 37.2095 18.986V20.858C37.2095 20.99 37.1735 21.098 37.1015 21.182C37.0295 21.254 36.9215 21.29 36.7775 21.29H31.2155C30.9635 21.29 30.8375 21.398 30.8375 21.614V23.648C30.8375 23.756 30.8615 23.84 30.9095 23.9C30.9695 23.96 31.0415 23.99 31.1255 23.99H34.6355C34.8635 23.99 34.9775 24.098 34.9775 24.314V26.312C34.9775 26.492 34.8815 26.582 34.6895 26.582H31.1075C30.9275 26.582 30.8375 26.666 30.8375 26.834V29.12C30.8375 29.204 30.8495 29.264 30.8735 29.3C30.9095 29.336 30.9635 29.354 31.0355 29.354H37.0295C37.1495 29.354 37.2395 29.378 37.2995 29.426C37.3595 29.474 37.3895 29.552 37.3895 29.66V31.64C37.3895 31.88 37.2635 32 37.0115 32H27.6335C27.4775 32 27.3635 31.97 27.2915 31.91C27.2315 31.838 27.2015 31.73 27.2015 31.586V19.022ZM42.5053 32C42.4093 32 42.3313 31.97 42.2713 31.91C42.2233 31.85 42.1993 31.766 42.1993 31.658C42.1993 31.574 42.2173 31.49 42.2533 31.406L46.6813 19.022C46.7293 18.878 46.7893 18.782 46.8613 18.734C46.9333 18.674 47.0413 18.644 47.1853 18.644H50.3173C50.6053 18.644 50.8093 18.794 50.9293 19.094L55.3033 31.442C55.3153 31.478 55.3213 31.538 55.3213 31.622C55.3213 31.73 55.2973 31.82 55.2493 31.892C55.2133 31.964 55.1533 32 55.0693 32H51.9553C51.7633 32 51.6373 31.904 51.5773 31.712L50.7853 29.372C50.7493 29.3 50.7133 29.252 50.6773 29.228C50.6533 29.192 50.5993 29.174 50.5153 29.174H46.4293C46.2973 29.174 46.2133 29.24 46.1773 29.372L45.3313 31.748C45.2713 31.916 45.1393 32 44.9353 32H42.5053ZM49.7053 26.438C49.8253 26.438 49.8853 26.378 49.8853 26.258C49.8853 26.186 49.8793 26.132 49.8673 26.096L48.5713 22.478C48.5593 22.406 48.5233 22.37 48.4633 22.37C48.4153 22.37 48.3793 22.406 48.3553 22.478L47.0413 26.096C47.0173 26.144 47.0053 26.204 47.0053 26.276C47.0053 26.384 47.0773 26.438 47.2213 26.438H49.7053ZM61.8612 18.464C62.8092 18.464 63.6792 18.638 64.4712 18.986C65.2632 19.334 65.9112 19.82 66.4152 20.444C66.9192 21.056 67.2432 21.746 67.3872 22.514L67.4232 22.82C67.4232 22.916 67.4052 22.982 67.3692 23.018C67.3332 23.042 67.2672 23.06 67.1712 23.072L64.3632 23.27C64.2552 23.27 64.1832 23.252 64.1472 23.216C64.1232 23.168 64.0932 23.078 64.0572 22.946C63.7812 21.626 63.0792 20.966 61.9512 20.966C60.2592 20.966 59.4132 22.388 59.4132 25.232C59.4132 26.744 59.6232 27.842 60.0432 28.526C60.4632 29.198 61.0992 29.534 61.9512 29.534C62.6232 29.534 63.1932 29.366 63.6612 29.03C64.1412 28.682 64.5372 28.118 64.8492 27.338C64.8852 27.242 64.9752 27.194 65.1192 27.194C65.1912 27.194 65.2512 27.2 65.2992 27.212L67.3332 27.608C67.4052 27.632 67.4592 27.668 67.4952 27.716C67.5432 27.764 67.5672 27.848 67.5672 27.968C67.5672 28.04 67.5612 28.1 67.5492 28.148C67.4532 28.628 67.1832 29.18 66.7392 29.804C66.3072 30.428 65.6772 30.98 64.8492 31.46C64.0332 31.94 63.0312 32.18 61.8432 32.18C60.5952 32.18 59.4972 31.886 58.5492 31.298C57.6132 30.698 56.8872 29.87 56.3712 28.814C55.8672 27.758 55.6152 26.546 55.6152 25.178C55.6152 23.822 55.8672 22.64 56.3712 21.632C56.8872 20.612 57.6132 19.832 58.5492 19.292C59.4852 18.74 60.5892 18.464 61.8612 18.464ZM68.6732 19.022C68.6732 18.914 68.7032 18.824 68.7632 18.752C68.8352 18.68 68.9372 18.644 69.0692 18.644H79.6352C79.7672 18.644 79.8632 18.68 79.9232 18.752C79.9952 18.824 80.0312 18.914 80.0312 19.022V20.93C80.0312 21.134 79.9112 21.236 79.6712 21.236H76.3952C76.2632 21.236 76.1972 21.296 76.1972 21.416V31.64C76.1972 31.88 76.0892 32 75.8732 32H72.8492C72.6452 32 72.5432 31.886 72.5432 31.658V21.488C72.5432 21.392 72.5312 21.326 72.5072 21.29C72.4832 21.254 72.4352 21.236 72.3632 21.236H69.0512C68.7992 21.236 68.6732 21.134 68.6732 20.93V19.022ZM85.0237 18.644C85.2277 18.644 85.3297 18.758 85.3297 18.986V31.514C85.3297 31.694 85.2877 31.82 85.2037 31.892C85.1197 31.964 84.9817 32 84.7897 32H82.1257C81.9577 32 81.8437 31.97 81.7837 31.91C81.7237 31.838 81.6937 31.73 81.6937 31.586V19.022C81.6937 18.902 81.7177 18.812 81.7657 18.752C81.8257 18.68 81.9037 18.644 81.9997 18.644H85.0237ZM93.4161 32.18C92.1321 32.18 91.0101 31.904 90.0501 31.352C89.1021 30.8 88.3701 30.014 87.8541 28.994C87.3381 27.962 87.0801 26.75 87.0801 25.358C87.0801 23.966 87.3381 22.754 87.8541 21.722C88.3821 20.678 89.1201 19.874 90.0681 19.31C91.0281 18.746 92.1441 18.464 93.4161 18.464C94.6761 18.464 95.7801 18.746 96.7281 19.31C97.6881 19.874 98.4261 20.678 98.9421 21.722C99.4701 22.754 99.7341 23.966 99.7341 25.358C99.7341 26.738 99.4761 27.944 98.9601 28.976C98.4441 29.996 97.7061 30.788 96.7461 31.352C95.7981 31.904 94.6881 32.18 93.4161 32.18ZM93.4341 29.66C94.3101 29.66 94.9401 29.33 95.3241 28.67C95.7201 28.01 95.9181 26.924 95.9181 25.412C95.9181 23.852 95.7141 22.724 95.3061 22.028C94.9101 21.32 94.2801 20.966 93.4161 20.966C92.5401 20.966 91.8981 21.32 91.4901 22.028C91.0941 22.724 90.8961 23.852 90.8961 25.412C90.8961 26.924 91.0941 28.01 91.4901 28.67C91.8861 29.33 92.5341 29.66 93.4341 29.66ZM112.736 18.644C112.916 18.644 113.006 18.74 113.006 18.932V31.694C113.006 31.79 112.97 31.868 112.898 31.928C112.826 31.976 112.736 32 112.628 32H110.45C110.354 32 110.27 31.988 110.198 31.964C110.138 31.928 110.066 31.856 109.982 31.748L104.654 24.404C104.606 24.332 104.564 24.302 104.528 24.314C104.492 24.314 104.474 24.35 104.474 24.422V31.64V31.694C104.474 31.802 104.444 31.88 104.384 31.928C104.324 31.976 104.222 32 104.078 32H101.9C101.636 32 101.504 31.886 101.504 31.658V19.022C101.504 18.89 101.528 18.794 101.576 18.734C101.636 18.674 101.732 18.644 101.864 18.644H104.438C104.582 18.644 104.684 18.662 104.744 18.698C104.816 18.734 104.9 18.812 104.996 18.932L109.784 25.682C109.856 25.778 109.922 25.826 109.982 25.826C110.042 25.826 110.072 25.754 110.072 25.61V18.986C110.072 18.758 110.192 18.644 110.432 18.644H112.736ZM122.992 22.01C122.692 21.686 122.356 21.434 121.984 21.254C121.624 21.062 121.126 20.966 120.49 20.966C119.818 20.966 119.308 21.08 118.96 21.308C118.624 21.524 118.456 21.8 118.456 22.136C118.456 22.364 118.552 22.58 118.744 22.784C118.936 22.988 119.272 23.15 119.752 23.27L122.668 24.062C123.748 24.35 124.558 24.83 125.098 25.502C125.638 26.174 125.908 26.978 125.908 27.914C125.908 28.778 125.68 29.534 125.224 30.182C124.78 30.818 124.138 31.31 123.298 31.658C122.458 32.006 121.474 32.18 120.346 32.18C119.074 32.18 117.916 31.97 116.872 31.55C115.84 31.118 115.108 30.542 114.676 29.822C114.616 29.702 114.586 29.612 114.586 29.552C114.586 29.456 114.652 29.36 114.784 29.264L116.404 28.148C116.536 28.064 116.65 28.022 116.746 28.022C116.866 28.022 116.962 28.07 117.034 28.166C117.466 28.718 117.898 29.108 118.33 29.336C118.774 29.564 119.356 29.678 120.076 29.678C120.808 29.678 121.384 29.57 121.804 29.354C122.236 29.138 122.452 28.826 122.452 28.418C122.452 27.866 122.014 27.47 121.138 27.23L118.402 26.51C117.346 26.234 116.518 25.748 115.918 25.052C115.318 24.344 115.018 23.534 115.018 22.622C115.018 21.842 115.24 21.14 115.684 20.516C116.128 19.88 116.752 19.382 117.556 19.022C118.372 18.65 119.314 18.464 120.382 18.464C121.414 18.464 122.374 18.638 123.262 18.986C124.15 19.334 124.81 19.796 125.242 20.372C125.326 20.516 125.368 20.618 125.368 20.678C125.368 20.738 125.326 20.804 125.242 20.876L123.478 22.154C123.43 22.202 123.376 22.226 123.316 22.226C123.244 22.226 123.136 22.154 122.992 22.01ZM299.194 18.968C299.194 18.872 299.224 18.794 299.284 18.734C299.356 18.674 299.446 18.644 299.554 18.644H309.886C310.126 18.644 310.246 18.752 310.246 18.968V20.642C310.246 20.822 310.138 20.912 309.922 20.912H306.556C306.424 20.912 306.358 20.972 306.358 21.092V31.658C306.358 31.886 306.256 32 306.052 32H303.478C303.298 32 303.208 31.898 303.208 31.694V21.146C303.208 21.062 303.19 21.002 303.154 20.966C303.13 20.93 303.082 20.912 303.01 20.912H299.536C299.308 20.912 299.194 20.822 299.194 20.642V18.968ZM315.496 26.294C315.424 26.294 315.364 26.318 315.316 26.366C315.28 26.414 315.262 26.468 315.262 26.528V31.586C315.262 31.73 315.22 31.838 315.136 31.91C315.064 31.97 314.944 32 314.776 32H312.508C312.364 32 312.262 31.97 312.202 31.91C312.142 31.85 312.112 31.754 312.112 31.622V18.986C312.112 18.758 312.208 18.644 312.4 18.644H314.974C315.166 18.644 315.262 18.752 315.262 18.968V23.576C315.262 23.78 315.352 23.882 315.532 23.882H319.69C319.882 23.882 319.978 23.786 319.978 23.594V18.968C319.978 18.752 320.068 18.644 320.248 18.644H322.822C323.026 18.644 323.128 18.758 323.128 18.986V31.622C323.128 31.874 322.996 32 322.732 32H320.446C320.278 32 320.158 31.97 320.086 31.91C320.014 31.85 319.978 31.742 319.978 31.586V26.528C319.978 26.456 319.954 26.402 319.906 26.366C319.87 26.318 319.81 26.294 319.726 26.294H315.496ZM325.629 18.986C325.629 18.758 325.725 18.644 325.917 18.644H334.989C335.169 18.644 335.259 18.746 335.259 18.95L335.241 20.57C335.241 20.822 335.115 20.948 334.863 20.948H329.121C328.893 20.948 328.779 21.044 328.779 21.236V23.846C328.779 24.05 328.869 24.152 329.049 24.152H332.865C333.069 24.152 333.171 24.248 333.171 24.44V26.168C333.171 26.336 333.075 26.42 332.883 26.42H329.031C328.863 26.42 328.779 26.492 328.779 26.636V29.462C328.779 29.546 328.791 29.606 328.815 29.642C328.851 29.678 328.905 29.696 328.977 29.696H335.133C335.349 29.696 335.457 29.786 335.457 29.966V31.676C335.457 31.892 335.337 32 335.097 32H326.025C325.881 32 325.779 31.97 325.719 31.91C325.659 31.85 325.629 31.754 325.629 31.622V18.986ZM340.719 32C340.539 32 340.449 31.898 340.449 31.694C340.449 31.598 340.461 31.526 340.485 31.478L344.967 19.004C345.015 18.872 345.069 18.782 345.129 18.734C345.201 18.674 345.303 18.644 345.435 18.644H348.135C348.267 18.644 348.381 18.68 348.477 18.752C348.573 18.824 348.639 18.92 348.675 19.04L353.121 31.514C353.145 31.586 353.157 31.64 353.157 31.676C353.157 31.772 353.133 31.85 353.085 31.91C353.049 31.97 352.989 32 352.905 32H350.259C350.079 32 349.965 31.916 349.917 31.748L348.981 29.12C348.957 29.048 348.927 29 348.891 28.976C348.867 28.94 348.819 28.922 348.747 28.922H344.355C344.235 28.922 344.157 28.982 344.121 29.102L343.167 31.766C343.095 31.922 342.969 32 342.789 32H340.719ZM348.009 26.528C348.129 26.528 348.189 26.48 348.189 26.384C348.189 26.312 348.183 26.258 348.171 26.222L346.659 22.01C346.623 21.938 346.581 21.902 346.533 21.902C346.497 21.902 346.461 21.944 346.425 22.028L344.895 26.222C344.871 26.294 344.859 26.348 344.859 26.384C344.859 26.48 344.925 26.528 345.057 26.528H348.009ZM359.757 18.464C360.669 18.464 361.509 18.638 362.277 18.986C363.045 19.334 363.675 19.808 364.167 20.408C364.671 21.008 364.989 21.68 365.121 22.424C365.145 22.508 365.157 22.604 365.157 22.712C365.157 22.784 365.139 22.832 365.103 22.856C365.067 22.88 365.013 22.898 364.941 22.91L362.511 23.072C362.403 23.072 362.331 23.054 362.295 23.018C362.271 22.982 362.247 22.91 362.223 22.802C362.091 22.142 361.827 21.62 361.431 21.236C361.035 20.852 360.507 20.66 359.847 20.66C357.927 20.66 356.967 22.196 356.967 25.268C356.967 26.864 357.207 28.028 357.687 28.76C358.167 29.492 358.899 29.858 359.883 29.858C360.603 29.858 361.209 29.678 361.701 29.318C362.205 28.958 362.613 28.37 362.925 27.554C362.961 27.47 363.039 27.428 363.159 27.428C363.231 27.428 363.285 27.434 363.321 27.446L365.085 27.824C365.253 27.884 365.319 28.034 365.283 28.274C365.163 28.79 364.881 29.348 364.437 29.948C364.005 30.548 363.393 31.07 362.601 31.514C361.809 31.958 360.861 32.18 359.757 32.18C358.521 32.18 357.441 31.892 356.517 31.316C355.605 30.728 354.903 29.912 354.411 28.868C353.919 27.812 353.673 26.594 353.673 25.214C353.673 23.846 353.919 22.652 354.411 21.632C354.903 20.612 355.605 19.832 356.517 19.292C357.441 18.74 358.521 18.464 359.757 18.464ZM366.518 18.968C366.518 18.872 366.548 18.794 366.608 18.734C366.68 18.674 366.77 18.644 366.878 18.644H377.21C377.45 18.644 377.57 18.752 377.57 18.968V20.642C377.57 20.822 377.462 20.912 377.246 20.912H373.88C373.748 20.912 373.682 20.972 373.682 21.092V31.658C373.682 31.886 373.58 32 373.376 32H370.802C370.622 32 370.532 31.898 370.532 31.694V21.146C370.532 21.062 370.514 21.002 370.478 20.966C370.454 20.93 370.406 20.912 370.334 20.912H366.86C366.632 20.912 366.518 20.822 366.518 20.642V18.968ZM382.298 18.644C382.49 18.644 382.586 18.752 382.586 18.968V31.568C382.586 31.724 382.55 31.838 382.478 31.91C382.406 31.97 382.28 32 382.1 32H379.832C379.688 32 379.586 31.97 379.526 31.91C379.466 31.85 379.436 31.754 379.436 31.622V18.986C379.436 18.758 379.532 18.644 379.724 18.644H382.298ZM390.838 32.18C389.578 32.18 388.48 31.91 387.544 31.37C386.62 30.818 385.906 30.032 385.402 29.012C384.91 27.992 384.664 26.78 384.664 25.376C384.664 23.96 384.916 22.736 385.42 21.704C385.924 20.66 386.638 19.862 387.562 19.31C388.498 18.746 389.59 18.464 390.838 18.464C392.074 18.464 393.154 18.746 394.078 19.31C395.002 19.862 395.716 20.66 396.22 21.704C396.724 22.736 396.976 23.954 396.976 25.358C396.976 26.75 396.724 27.962 396.22 28.994C395.728 30.014 395.02 30.8 394.096 31.352C393.172 31.904 392.086 32.18 390.838 32.18ZM390.838 29.966C391.834 29.966 392.554 29.606 392.998 28.886C393.454 28.166 393.682 27.002 393.682 25.394C393.682 23.75 393.448 22.55 392.98 21.794C392.524 21.038 391.81 20.66 390.838 20.66C389.842 20.66 389.11 21.038 388.642 21.794C388.186 22.55 387.958 23.75 387.958 25.394C387.958 27.002 388.186 28.166 388.642 28.886C389.098 29.606 389.83 29.966 390.838 29.966ZM409.961 18.644C410.117 18.644 410.195 18.734 410.195 18.914V31.712C410.195 31.796 410.159 31.868 410.087 31.928C410.027 31.976 409.949 32 409.853 32H408.035C407.927 32 407.843 31.988 407.783 31.964C407.723 31.94 407.657 31.88 407.585 31.784L401.843 23.72C401.795 23.66 401.747 23.636 401.699 23.648C401.663 23.66 401.645 23.696 401.645 23.756V31.676V31.73C401.645 31.826 401.615 31.898 401.555 31.946C401.507 31.982 401.417 32 401.285 32H399.413C399.173 32 399.053 31.898 399.053 31.694V18.986C399.053 18.758 399.161 18.644 399.377 18.644H401.555C401.699 18.644 401.801 18.662 401.861 18.698C401.921 18.722 401.993 18.794 402.077 18.914L407.369 26.456C407.441 26.552 407.501 26.6 407.549 26.6C407.609 26.6 407.639 26.534 407.639 26.402V18.968C407.639 18.752 407.747 18.644 407.963 18.644H409.961ZM420.379 21.794C420.067 21.446 419.707 21.176 419.299 20.984C418.903 20.78 418.381 20.678 417.733 20.678C417.001 20.678 416.443 20.81 416.059 21.074C415.675 21.338 415.483 21.686 415.483 22.118C415.483 22.742 415.969 23.198 416.941 23.486L419.785 24.296C420.853 24.596 421.645 25.07 422.161 25.718C422.689 26.366 422.953 27.146 422.953 28.058C422.953 28.898 422.737 29.63 422.305 30.254C421.873 30.866 421.249 31.34 420.433 31.676C419.629 32.012 418.681 32.18 417.589 32.18C416.365 32.18 415.261 31.976 414.277 31.568C413.293 31.148 412.573 30.578 412.117 29.858C412.069 29.774 412.045 29.696 412.045 29.624C412.045 29.528 412.105 29.426 412.225 29.318L413.611 28.364C413.731 28.292 413.839 28.256 413.935 28.256C414.043 28.256 414.133 28.304 414.205 28.4C414.649 28.976 415.099 29.384 415.555 29.624C416.011 29.864 416.617 29.984 417.373 29.984C418.177 29.984 418.807 29.858 419.263 29.606C419.719 29.354 419.947 28.976 419.947 28.472C419.947 28.148 419.833 27.872 419.605 27.644C419.377 27.416 418.993 27.218 418.453 27.05L415.735 26.276C414.703 25.988 413.905 25.508 413.341 24.836C412.777 24.152 412.495 23.378 412.495 22.514C412.495 21.746 412.705 21.056 413.125 20.444C413.557 19.832 414.163 19.352 414.943 19.004C415.723 18.644 416.623 18.464 417.643 18.464C418.651 18.464 419.575 18.638 420.415 18.986C421.255 19.322 421.897 19.778 422.341 20.354C422.413 20.45 422.449 20.534 422.449 20.606C422.449 20.678 422.413 20.744 422.341 20.804L420.829 21.92C420.757 21.968 420.703 21.992 420.667 21.992C420.607 21.992 420.511 21.926 420.379 21.794ZM600.026 18.968C600.026 18.872 600.056 18.794 600.116 18.734C600.188 18.674 600.278 18.644 600.386 18.644H610.718C610.958 18.644 611.078 18.752 611.078 18.968V20.642C611.078 20.822 610.97 20.912 610.754 20.912H607.388C607.256 20.912 607.19 20.972 607.19 21.092V31.658C607.19 31.886 607.088 32 606.884 32H604.31C604.13 32 604.04 31.898 604.04 31.694V21.146C604.04 21.062 604.022 21.002 603.986 20.966C603.962 20.93 603.914 20.912 603.842 20.912H600.368C600.14 20.912 600.026 20.822 600.026 20.642V18.968ZM616.328 26.294C616.256 26.294 616.196 26.318 616.148 26.366C616.112 26.414 616.094 26.468 616.094 26.528V31.586C616.094 31.73 616.052 31.838 615.968 31.91C615.896 31.97 615.776 32 615.608 32H613.34C613.196 32 613.094 31.97 613.034 31.91C612.974 31.85 612.944 31.754 612.944 31.622V18.986C612.944 18.758 613.04 18.644 613.232 18.644H615.806C615.998 18.644 616.094 18.752 616.094 18.968V23.576C616.094 23.78 616.184 23.882 616.364 23.882H620.522C620.714 23.882 620.81 23.786 620.81 23.594V18.968C620.81 18.752 620.9 18.644 621.08 18.644H623.654C623.858 18.644 623.96 18.758 623.96 18.986V31.622C623.96 31.874 623.828 32 623.564 32H621.278C621.11 32 620.99 31.97 620.918 31.91C620.846 31.85 620.81 31.742 620.81 31.586V26.528C620.81 26.456 620.786 26.402 620.738 26.366C620.702 26.318 620.642 26.294 620.558 26.294H616.328ZM626.461 18.986C626.461 18.758 626.557 18.644 626.749 18.644H635.821C636.001 18.644 636.091 18.746 636.091 18.95L636.073 20.57C636.073 20.822 635.947 20.948 635.695 20.948H629.953C629.725 20.948 629.611 21.044 629.611 21.236V23.846C629.611 24.05 629.701 24.152 629.881 24.152H633.697C633.901 24.152 634.003 24.248 634.003 24.44V26.168C634.003 26.336 633.907 26.42 633.715 26.42H629.863C629.695 26.42 629.611 26.492 629.611 26.636V29.462C629.611 29.546 629.623 29.606 629.647 29.642C629.683 29.678 629.737 29.696 629.809 29.696H635.965C636.181 29.696 636.289 29.786 636.289 29.966V31.676C636.289 31.892 636.169 32 635.929 32H626.857C626.713 32 626.611 31.97 626.551 31.91C626.491 31.85 626.461 31.754 626.461 31.622V18.986ZM641.552 32C641.372 32 641.281 31.898 641.281 31.694C641.281 31.598 641.293 31.526 641.318 31.478L645.8 19.004C645.848 18.872 645.902 18.782 645.962 18.734C646.034 18.674 646.136 18.644 646.268 18.644H648.968C649.1 18.644 649.214 18.68 649.31 18.752C649.406 18.824 649.472 18.92 649.508 19.04L653.954 31.514C653.978 31.586 653.99 31.64 653.99 31.676C653.99 31.772 653.966 31.85 653.918 31.91C653.882 31.97 653.822 32 653.738 32H651.092C650.912 32 650.798 31.916 650.75 31.748L649.814 29.12C649.79 29.048 649.76 29 649.724 28.976C649.7 28.94 649.652 28.922 649.58 28.922H645.188C645.068 28.922 644.99 28.982 644.954 29.102L644 31.766C643.928 31.922 643.802 32 643.622 32H641.552ZM648.842 26.528C648.962 26.528 649.022 26.48 649.022 26.384C649.022 26.312 649.016 26.258 649.004 26.222L647.492 22.01C647.456 21.938 647.414 21.902 647.366 21.902C647.33 21.902 647.294 21.944 647.258 22.028L645.728 26.222C645.704 26.294 645.692 26.348 645.692 26.384C645.692 26.48 645.758 26.528 645.89 26.528H648.842ZM660.589 18.464C661.501 18.464 662.341 18.638 663.109 18.986C663.877 19.334 664.507 19.808 664.999 20.408C665.503 21.008 665.821 21.68 665.953 22.424C665.977 22.508 665.989 22.604 665.989 22.712C665.989 22.784 665.971 22.832 665.935 22.856C665.899 22.88 665.845 22.898 665.773 22.91L663.343 23.072C663.235 23.072 663.163 23.054 663.127 23.018C663.103 22.982 663.079 22.91 663.055 22.802C662.923 22.142 662.659 21.62 662.263 21.236C661.867 20.852 661.339 20.66 660.679 20.66C658.759 20.66 657.799 22.196 657.799 25.268C657.799 26.864 658.039 28.028 658.519 28.76C658.999 29.492 659.731 29.858 660.715 29.858C661.435 29.858 662.041 29.678 662.533 29.318C663.037 28.958 663.445 28.37 663.757 27.554C663.793 27.47 663.871 27.428 663.991 27.428C664.063 27.428 664.117 27.434 664.153 27.446L665.917 27.824C666.085 27.884 666.151 28.034 666.115 28.274C665.995 28.79 665.713 29.348 665.269 29.948C664.837 30.548 664.225 31.07 663.433 31.514C662.641 31.958 661.693 32.18 660.589 32.18C659.353 32.18 658.273 31.892 657.349 31.316C656.437 30.728 655.735 29.912 655.243 28.868C654.751 27.812 654.505 26.594 654.505 25.214C654.505 23.846 654.751 22.652 655.243 21.632C655.735 20.612 656.437 19.832 657.349 19.292C658.273 18.74 659.353 18.464 660.589 18.464ZM667.35 18.968C667.35 18.872 667.38 18.794 667.44 18.734C667.512 18.674 667.602 18.644 667.71 18.644H678.042C678.282 18.644 678.402 18.752 678.402 18.968V20.642C678.402 20.822 678.294 20.912 678.078 20.912H674.712C674.58 20.912 674.514 20.972 674.514 21.092V31.658C674.514 31.886 674.412 32 674.208 32H671.634C671.454 32 671.364 31.898 671.364 31.694V21.146C671.364 21.062 671.346 21.002 671.31 20.966C671.286 20.93 671.238 20.912 671.166 20.912H667.692C667.464 20.912 667.35 20.822 667.35 20.642V18.968ZM683.13 18.644C683.322 18.644 683.418 18.752 683.418 18.968V31.568C683.418 31.724 683.382 31.838 683.31 31.91C683.238 31.97 683.112 32 682.932 32H680.664C680.52 32 680.418 31.97 680.358 31.91C680.298 31.85 680.268 31.754 680.268 31.622V18.986C680.268 18.758 680.364 18.644 680.556 18.644H683.13ZM691.67 32.18C690.41 32.18 689.312 31.91 688.376 31.37C687.452 30.818 686.738 30.032 686.234 29.012C685.742 27.992 685.496 26.78 685.496 25.376C685.496 23.96 685.748 22.736 686.252 21.704C686.756 20.66 687.47 19.862 688.394 19.31C689.33 18.746 690.422 18.464 691.67 18.464C692.906 18.464 693.986 18.746 694.91 19.31C695.834 19.862 696.548 20.66 697.052 21.704C697.556 22.736 697.808 23.954 697.808 25.358C697.808 26.75 697.556 27.962 697.052 28.994C696.56 30.014 695.852 30.8 694.928 31.352C694.004 31.904 692.918 32.18 691.67 32.18ZM691.67 29.966C692.666 29.966 693.386 29.606 693.83 28.886C694.286 28.166 694.514 27.002 694.514 25.394C694.514 23.75 694.28 22.55 693.812 21.794C693.356 21.038 692.642 20.66 691.67 20.66C690.674 20.66 689.942 21.038 689.474 21.794C689.018 22.55 688.79 23.75 688.79 25.394C688.79 27.002 689.018 28.166 689.474 28.886C689.93 29.606 690.662 29.966 691.67 29.966ZM710.793 18.644C710.949 18.644 711.027 18.734 711.027 18.914V31.712C711.027 31.796 710.991 31.868 710.919 31.928C710.859 31.976 710.781 32 710.685 32H708.867C708.759 32 708.675 31.988 708.615 31.964C708.555 31.94 708.489 31.88 708.417 31.784L702.675 23.72C702.627 23.66 702.579 23.636 702.531 23.648C702.495 23.66 702.477 23.696 702.477 23.756V31.676V31.73C702.477 31.826 702.447 31.898 702.387 31.946C702.339 31.982 702.249 32 702.117 32H700.245C700.005 32 699.885 31.898 699.885 31.694V18.986C699.885 18.758 699.993 18.644 700.209 18.644H702.387C702.531 18.644 702.633 18.662 702.693 18.698C702.753 18.722 702.825 18.794 702.909 18.914L708.201 26.456C708.273 26.552 708.333 26.6 708.381 26.6C708.441 26.6 708.471 26.534 708.471 26.402V18.968C708.471 18.752 708.579 18.644 708.795 18.644H710.793ZM721.211 21.794C720.899 21.446 720.539 21.176 720.131 20.984C719.735 20.78 719.213 20.678 718.565 20.678C717.833 20.678 717.275 20.81 716.891 21.074C716.507 21.338 716.315 21.686 716.315 22.118C716.315 22.742 716.801 23.198 717.773 23.486L720.617 24.296C721.685 24.596 722.477 25.07 722.993 25.718C723.521 26.366 723.785 27.146 723.785 28.058C723.785 28.898 723.569 29.63 723.137 30.254C722.705 30.866 722.081 31.34 721.265 31.676C720.461 32.012 719.513 32.18 718.421 32.18C717.197 32.18 716.093 31.976 715.109 31.568C714.125 31.148 713.405 30.578 712.949 29.858C712.901 29.774 712.877 29.696 712.877 29.624C712.877 29.528 712.937 29.426 713.057 29.318L714.443 28.364C714.563 28.292 714.671 28.256 714.767 28.256C714.875 28.256 714.965 28.304 715.037 28.4C715.481 28.976 715.931 29.384 716.387 29.624C716.843 29.864 717.449 29.984 718.205 29.984C719.009 29.984 719.639 29.858 720.095 29.606C720.551 29.354 720.779 28.976 720.779 28.472C720.779 28.148 720.665 27.872 720.437 27.644C720.209 27.416 719.825 27.218 719.285 27.05L716.567 26.276C715.535 25.988 714.737 25.508 714.173 24.836C713.609 24.152 713.327 23.378 713.327 22.514C713.327 21.746 713.537 21.056 713.957 20.444C714.389 19.832 714.995 19.352 715.775 19.004C716.555 18.644 717.455 18.464 718.475 18.464C719.483 18.464 720.407 18.638 721.247 18.986C722.087 19.322 722.729 19.778 723.173 20.354C723.245 20.45 723.281 20.534 723.281 20.606C723.281 20.678 723.245 20.744 723.173 20.804L721.661 21.92C721.589 21.968 721.535 21.992 721.499 21.992C721.439 21.992 721.343 21.926 721.211 21.794ZM900.858 18.968C900.858 18.872 900.888 18.794 900.948 18.734C901.02 18.674 901.11 18.644 901.218 18.644H911.55C911.79 18.644 911.91 18.752 911.91 18.968V20.642C911.91 20.822 911.802 20.912 911.586 20.912H908.22C908.088 20.912 908.022 20.972 908.022 21.092V31.658C908.022 31.886 907.92 32 907.716 32H905.142C904.962 32 904.872 31.898 904.872 31.694V21.146C904.872 21.062 904.854 21.002 904.818 20.966C904.794 20.93 904.746 20.912 904.674 20.912H901.2C900.972 20.912 900.858 20.822 900.858 20.642V18.968ZM917.16 26.294C917.088 26.294 917.028 26.318 916.98 26.366C916.944 26.414 916.926 26.468 916.926 26.528V31.586C916.926 31.73 916.884 31.838 916.8 31.91C916.728 31.97 916.608 32 916.44 32H914.172C914.028 32 913.926 31.97 913.866 31.91C913.806 31.85 913.776 31.754 913.776 31.622V18.986C913.776 18.758 913.872 18.644 914.064 18.644H916.638C916.83 18.644 916.926 18.752 916.926 18.968V23.576C916.926 23.78 917.016 23.882 917.196 23.882H921.354C921.546 23.882 921.642 23.786 921.642 23.594V18.968C921.642 18.752 921.732 18.644 921.912 18.644H924.486C924.69 18.644 924.792 18.758 924.792 18.986V31.622C924.792 31.874 924.66 32 924.396 32H922.11C921.942 32 921.822 31.97 921.75 31.91C921.678 31.85 921.642 31.742 921.642 31.586V26.528C921.642 26.456 921.618 26.402 921.57 26.366C921.534 26.318 921.474 26.294 921.39 26.294H917.16ZM927.293 18.986C927.293 18.758 927.389 18.644 927.581 18.644H936.653C936.833 18.644 936.923 18.746 936.923 18.95L936.905 20.57C936.905 20.822 936.779 20.948 936.527 20.948H930.785C930.557 20.948 930.443 21.044 930.443 21.236V23.846C930.443 24.05 930.533 24.152 930.713 24.152H934.529C934.733 24.152 934.835 24.248 934.835 24.44V26.168C934.835 26.336 934.739 26.42 934.547 26.42H930.695C930.527 26.42 930.443 26.492 930.443 26.636V29.462C930.443 29.546 930.455 29.606 930.479 29.642C930.515 29.678 930.569 29.696 930.641 29.696H936.797C937.013 29.696 937.121 29.786 937.121 29.966V31.676C937.121 31.892 937.001 32 936.761 32H927.689C927.545 32 927.443 31.97 927.383 31.91C927.323 31.85 927.293 31.754 927.293 31.622V18.986ZM942.384 32C942.204 32 942.114 31.898 942.114 31.694C942.114 31.598 942.126 31.526 942.15 31.478L946.632 19.004C946.68 18.872 946.734 18.782 946.794 18.734C946.866 18.674 946.968 18.644 947.1 18.644H949.8C949.932 18.644 950.046 18.68 950.142 18.752C950.238 18.824 950.304 18.92 950.34 19.04L954.786 31.514C954.81 31.586 954.822 31.64 954.822 31.676C954.822 31.772 954.798 31.85 954.75 31.91C954.714 31.97 954.654 32 954.57 32H951.924C951.744 32 951.63 31.916 951.582 31.748L950.646 29.12C950.622 29.048 950.592 29 950.556 28.976C950.532 28.94 950.484 28.922 950.412 28.922H946.02C945.9 28.922 945.822 28.982 945.786 29.102L944.832 31.766C944.76 31.922 944.634 32 944.454 32H942.384ZM949.674 26.528C949.794 26.528 949.854 26.48 949.854 26.384C949.854 26.312 949.848 26.258 949.836 26.222L948.324 22.01C948.288 21.938 948.246 21.902 948.198 21.902C948.162 21.902 948.126 21.944 948.09 22.028L946.56 26.222C946.536 26.294 946.524 26.348 946.524 26.384C946.524 26.48 946.59 26.528 946.722 26.528H949.674ZM961.421 18.464C962.333 18.464 963.173 18.638 963.941 18.986C964.709 19.334 965.339 19.808 965.831 20.408C966.335 21.008 966.653 21.68 966.785 22.424C966.809 22.508 966.821 22.604 966.821 22.712C966.821 22.784 966.803 22.832 966.767 22.856C966.731 22.88 966.677 22.898 966.605 22.91L964.175 23.072C964.067 23.072 963.995 23.054 963.959 23.018C963.935 22.982 963.911 22.91 963.887 22.802C963.755 22.142 963.491 21.62 963.095 21.236C962.699 20.852 962.171 20.66 961.511 20.66C959.591 20.66 958.631 22.196 958.631 25.268C958.631 26.864 958.871 28.028 959.351 28.76C959.831 29.492 960.563 29.858 961.547 29.858C962.267 29.858 962.873 29.678 963.365 29.318C963.869 28.958 964.277 28.37 964.589 27.554C964.625 27.47 964.703 27.428 964.823 27.428C964.895 27.428 964.949 27.434 964.985 27.446L966.749 27.824C966.917 27.884 966.983 28.034 966.947 28.274C966.827 28.79 966.545 29.348 966.101 29.948C965.669 30.548 965.057 31.07 964.265 31.514C963.473 31.958 962.525 32.18 961.421 32.18C960.185 32.18 959.105 31.892 958.181 31.316C957.269 30.728 956.567 29.912 956.075 28.868C955.583 27.812 955.337 26.594 955.337 25.214C955.337 23.846 955.583 22.652 956.075 21.632C956.567 20.612 957.269 19.832 958.181 19.292C959.105 18.74 960.185 18.464 961.421 18.464ZM968.182 18.968C968.182 18.872 968.212 18.794 968.272 18.734C968.344 18.674 968.434 18.644 968.542 18.644H978.874C979.114 18.644 979.234 18.752 979.234 18.968V20.642C979.234 20.822 979.126 20.912 978.91 20.912H975.544C975.412 20.912 975.346 20.972 975.346 21.092V31.658C975.346 31.886 975.244 32 975.04 32H972.466C972.286 32 972.196 31.898 972.196 31.694V21.146C972.196 21.062 972.178 21.002 972.142 20.966C972.118 20.93 972.07 20.912 971.998 20.912H968.524C968.296 20.912 968.182 20.822 968.182 20.642V18.968ZM983.962 18.644C984.154 18.644 984.25 18.752 984.25 18.968V31.568C984.25 31.724 984.214 31.838 984.142 31.91C984.07 31.97 983.944 32 983.764 32H981.496C981.352 32 981.25 31.97 981.19 31.91C981.13 31.85 981.1 31.754 981.1 31.622V18.986C981.1 18.758 981.196 18.644 981.388 18.644H983.962ZM992.502 32.18C991.242 32.18 990.144 31.91 989.208 31.37C988.284 30.818 987.57 30.032 987.066 29.012C986.574 27.992 986.328 26.78 986.328 25.376C986.328 23.96 986.58 22.736 987.084 21.704C987.588 20.66 988.302 19.862 989.226 19.31C990.162 18.746 991.254 18.464 992.502 18.464C993.738 18.464 994.818 18.746 995.742 19.31C996.666 19.862 997.38 20.66 997.884 21.704C998.388 22.736 998.64 23.954 998.64 25.358C998.64 26.75 998.388 27.962 997.884 28.994C997.392 30.014 996.684 30.8 995.76 31.352C994.836 31.904 993.75 32.18 992.502 32.18ZM992.502 29.966C993.498 29.966 994.218 29.606 994.662 28.886C995.118 28.166 995.346 27.002 995.346 25.394C995.346 23.75 995.112 22.55 994.644 21.794C994.188 21.038 993.474 20.66 992.502 20.66C991.506 20.66 990.774 21.038 990.306 21.794C989.85 22.55 989.622 23.75 989.622 25.394C989.622 27.002 989.85 28.166 990.306 28.886C990.762 29.606 991.494 29.966 992.502 29.966ZM1011.63 18.644C1011.78 18.644 1011.86 18.734 1011.86 18.914V31.712C1011.86 31.796 1011.82 31.868 1011.75 31.928C1011.69 31.976 1011.61 32 1011.52 32H1009.7C1009.59 32 1009.51 31.988 1009.45 31.964C1009.39 31.94 1009.32 31.88 1009.25 31.784L1003.51 23.72C1003.46 23.66 1003.41 23.636 1003.36 23.648C1003.33 23.66 1003.31 23.696 1003.31 23.756V31.676V31.73C1003.31 31.826 1003.28 31.898 1003.22 31.946C1003.17 31.982 1003.08 32 1002.95 32H1001.08C1000.84 32 1000.72 31.898 1000.72 31.694V18.986C1000.72 18.758 1000.83 18.644 1001.04 18.644H1003.22C1003.36 18.644 1003.47 18.662 1003.53 18.698C1003.59 18.722 1003.66 18.794 1003.74 18.914L1009.03 26.456C1009.11 26.552 1009.17 26.6 1009.21 26.6C1009.27 26.6 1009.3 26.534 1009.3 26.402V18.968C1009.3 18.752 1009.41 18.644 1009.63 18.644H1011.63ZM1022.04 21.794C1021.73 21.446 1021.37 21.176 1020.96 20.984C1020.57 20.78 1020.05 20.678 1019.4 20.678C1018.67 20.678 1018.11 20.81 1017.72 21.074C1017.34 21.338 1017.15 21.686 1017.15 22.118C1017.15 22.742 1017.63 23.198 1018.61 23.486L1021.45 24.296C1022.52 24.596 1023.31 25.07 1023.83 25.718C1024.35 26.366 1024.62 27.146 1024.62 28.058C1024.62 28.898 1024.4 29.63 1023.97 30.254C1023.54 30.866 1022.91 31.34 1022.1 31.676C1021.29 32.012 1020.35 32.18 1019.25 32.18C1018.03 32.18 1016.93 31.976 1015.94 31.568C1014.96 31.148 1014.24 30.578 1013.78 29.858C1013.73 29.774 1013.71 29.696 1013.71 29.624C1013.71 29.528 1013.77 29.426 1013.89 29.318L1015.28 28.364C1015.4 28.292 1015.5 28.256 1015.6 28.256C1015.71 28.256 1015.8 28.304 1015.87 28.4C1016.31 28.976 1016.76 29.384 1017.22 29.624C1017.68 29.864 1018.28 29.984 1019.04 29.984C1019.84 29.984 1020.47 29.858 1020.93 29.606C1021.38 29.354 1021.61 28.976 1021.61 28.472C1021.61 28.148 1021.5 27.872 1021.27 27.644C1021.04 27.416 1020.66 27.218 1020.12 27.05L1017.4 26.276C1016.37 25.988 1015.57 25.508 1015.01 24.836C1014.44 24.152 1014.16 23.378 1014.16 22.514C1014.16 21.746 1014.37 21.056 1014.79 20.444C1015.22 19.832 1015.83 19.352 1016.61 19.004C1017.39 18.644 1018.29 18.464 1019.31 18.464C1020.32 18.464 1021.24 18.638 1022.08 18.986C1022.92 19.322 1023.56 19.778 1024.01 20.354C1024.08 20.45 1024.11 20.534 1024.11 20.606C1024.11 20.678 1024.08 20.744 1024.01 20.804L1022.49 21.92C1022.42 21.968 1022.37 21.992 1022.33 21.992C1022.27 21.992 1022.18 21.926 1022.04 21.794ZM1201.69 18.968C1201.69 18.872 1201.72 18.794 1201.78 18.734C1201.85 18.674 1201.94 18.644 1202.05 18.644H1212.38C1212.62 18.644 1212.74 18.752 1212.74 18.968V20.642C1212.74 20.822 1212.63 20.912 1212.42 20.912H1209.05C1208.92 20.912 1208.85 20.972 1208.85 21.092V31.658C1208.85 31.886 1208.75 32 1208.55 32H1205.97C1205.79 32 1205.7 31.898 1205.7 31.694V21.146C1205.7 21.062 1205.69 21.002 1205.65 20.966C1205.63 20.93 1205.58 20.912 1205.51 20.912H1202.03C1201.8 20.912 1201.69 20.822 1201.69 20.642V18.968ZM1217.99 26.294C1217.92 26.294 1217.86 26.318 1217.81 26.366C1217.78 26.414 1217.76 26.468 1217.76 26.528V31.586C1217.76 31.73 1217.72 31.838 1217.63 31.91C1217.56 31.97 1217.44 32 1217.27 32H1215C1214.86 32 1214.76 31.97 1214.7 31.91C1214.64 31.85 1214.61 31.754 1214.61 31.622V18.986C1214.61 18.758 1214.7 18.644 1214.9 18.644H1217.47C1217.66 18.644 1217.76 18.752 1217.76 18.968V23.576C1217.76 23.78 1217.85 23.882 1218.03 23.882H1222.19C1222.38 23.882 1222.47 23.786 1222.47 23.594V18.968C1222.47 18.752 1222.56 18.644 1222.74 18.644H1225.32C1225.52 18.644 1225.62 18.758 1225.62 18.986V31.622C1225.62 31.874 1225.49 32 1225.23 32H1222.94C1222.77 32 1222.65 31.97 1222.58 31.91C1222.51 31.85 1222.47 31.742 1222.47 31.586V26.528C1222.47 26.456 1222.45 26.402 1222.4 26.366C1222.37 26.318 1222.31 26.294 1222.22 26.294H1217.99ZM1228.13 18.986C1228.13 18.758 1228.22 18.644 1228.41 18.644H1237.49C1237.67 18.644 1237.76 18.746 1237.76 18.95L1237.74 20.57C1237.74 20.822 1237.61 20.948 1237.36 20.948H1231.62C1231.39 20.948 1231.28 21.044 1231.28 21.236V23.846C1231.28 24.05 1231.37 24.152 1231.55 24.152H1235.36C1235.57 24.152 1235.67 24.248 1235.67 24.44V26.168C1235.67 26.336 1235.57 26.42 1235.38 26.42H1231.53C1231.36 26.42 1231.28 26.492 1231.28 26.636V29.462C1231.28 29.546 1231.29 29.606 1231.31 29.642C1231.35 29.678 1231.4 29.696 1231.47 29.696H1237.63C1237.85 29.696 1237.95 29.786 1237.95 29.966V31.676C1237.95 31.892 1237.83 32 1237.59 32H1228.52C1228.38 32 1228.28 31.97 1228.22 31.91C1228.16 31.85 1228.13 31.754 1228.13 31.622V18.986ZM1243.22 32C1243.04 32 1242.95 31.898 1242.95 31.694C1242.95 31.598 1242.96 31.526 1242.98 31.478L1247.46 19.004C1247.51 18.872 1247.57 18.782 1247.63 18.734C1247.7 18.674 1247.8 18.644 1247.93 18.644H1250.63C1250.76 18.644 1250.88 18.68 1250.97 18.752C1251.07 18.824 1251.14 18.92 1251.17 19.04L1255.62 31.514C1255.64 31.586 1255.65 31.64 1255.65 31.676C1255.65 31.772 1255.63 31.85 1255.58 31.91C1255.55 31.97 1255.49 32 1255.4 32H1252.76C1252.58 32 1252.46 31.916 1252.41 31.748L1251.48 29.12C1251.45 29.048 1251.42 29 1251.39 28.976C1251.36 28.94 1251.32 28.922 1251.24 28.922H1246.85C1246.73 28.922 1246.65 28.982 1246.62 29.102L1245.66 31.766C1245.59 31.922 1245.47 32 1245.29 32H1243.22ZM1250.51 26.528C1250.63 26.528 1250.69 26.48 1250.69 26.384C1250.69 26.312 1250.68 26.258 1250.67 26.222L1249.16 22.01C1249.12 21.938 1249.08 21.902 1249.03 21.902C1248.99 21.902 1248.96 21.944 1248.92 22.028L1247.39 26.222C1247.37 26.294 1247.36 26.348 1247.36 26.384C1247.36 26.48 1247.42 26.528 1247.55 26.528H1250.51ZM1262.25 18.464C1263.16 18.464 1264 18.638 1264.77 18.986C1265.54 19.334 1266.17 19.808 1266.66 20.408C1267.17 21.008 1267.48 21.68 1267.62 22.424C1267.64 22.508 1267.65 22.604 1267.65 22.712C1267.65 22.784 1267.63 22.832 1267.6 22.856C1267.56 22.88 1267.51 22.898 1267.44 22.91L1265.01 23.072C1264.9 23.072 1264.83 23.054 1264.79 23.018C1264.77 22.982 1264.74 22.91 1264.72 22.802C1264.59 22.142 1264.32 21.62 1263.93 21.236C1263.53 20.852 1263 20.66 1262.34 20.66C1260.42 20.66 1259.46 22.196 1259.46 25.268C1259.46 26.864 1259.7 28.028 1260.18 28.76C1260.66 29.492 1261.39 29.858 1262.38 29.858C1263.1 29.858 1263.7 29.678 1264.2 29.318C1264.7 28.958 1265.11 28.37 1265.42 27.554C1265.46 27.47 1265.53 27.428 1265.65 27.428C1265.73 27.428 1265.78 27.434 1265.82 27.446L1267.58 27.824C1267.75 27.884 1267.81 28.034 1267.78 28.274C1267.66 28.79 1267.38 29.348 1266.93 29.948C1266.5 30.548 1265.89 31.07 1265.1 31.514C1264.3 31.958 1263.36 32.18 1262.25 32.18C1261.02 32.18 1259.94 31.892 1259.01 31.316C1258.1 30.728 1257.4 29.912 1256.91 28.868C1256.41 27.812 1256.17 26.594 1256.17 25.214C1256.17 23.846 1256.41 22.652 1256.91 21.632C1257.4 20.612 1258.1 19.832 1259.01 19.292C1259.94 18.74 1261.02 18.464 1262.25 18.464ZM1269.01 18.968C1269.01 18.872 1269.04 18.794 1269.1 18.734C1269.18 18.674 1269.27 18.644 1269.37 18.644H1279.71C1279.95 18.644 1280.07 18.752 1280.07 18.968V20.642C1280.07 20.822 1279.96 20.912 1279.74 20.912H1276.38C1276.24 20.912 1276.18 20.972 1276.18 21.092V31.658C1276.18 31.886 1276.08 32 1275.87 32H1273.3C1273.12 32 1273.03 31.898 1273.03 31.694V21.146C1273.03 21.062 1273.01 21.002 1272.97 20.966C1272.95 20.93 1272.9 20.912 1272.83 20.912H1269.36C1269.13 20.912 1269.01 20.822 1269.01 20.642V18.968ZM1284.79 18.644C1284.99 18.644 1285.08 18.752 1285.08 18.968V31.568C1285.08 31.724 1285.05 31.838 1284.97 31.91C1284.9 31.97 1284.78 32 1284.6 32H1282.33C1282.18 32 1282.08 31.97 1282.02 31.91C1281.96 31.85 1281.93 31.754 1281.93 31.622V18.986C1281.93 18.758 1282.03 18.644 1282.22 18.644H1284.79ZM1293.33 32.18C1292.07 32.18 1290.98 31.91 1290.04 31.37C1289.12 30.818 1288.4 30.032 1287.9 29.012C1287.41 27.992 1287.16 26.78 1287.16 25.376C1287.16 23.96 1287.41 22.736 1287.92 21.704C1288.42 20.66 1289.13 19.862 1290.06 19.31C1290.99 18.746 1292.09 18.464 1293.33 18.464C1294.57 18.464 1295.65 18.746 1296.57 19.31C1297.5 19.862 1298.21 20.66 1298.72 21.704C1299.22 22.736 1299.47 23.954 1299.47 25.358C1299.47 26.75 1299.22 27.962 1298.72 28.994C1298.22 30.014 1297.52 30.8 1296.59 31.352C1295.67 31.904 1294.58 32.18 1293.33 32.18ZM1293.33 29.966C1294.33 29.966 1295.05 29.606 1295.49 28.886C1295.95 28.166 1296.18 27.002 1296.18 25.394C1296.18 23.75 1295.94 22.55 1295.48 21.794C1295.02 21.038 1294.31 20.66 1293.33 20.66C1292.34 20.66 1291.61 21.038 1291.14 21.794C1290.68 22.55 1290.45 23.75 1290.45 25.394C1290.45 27.002 1290.68 28.166 1291.14 28.886C1291.59 29.606 1292.33 29.966 1293.33 29.966ZM1312.46 18.644C1312.61 18.644 1312.69 18.734 1312.69 18.914V31.712C1312.69 31.796 1312.66 31.868 1312.58 31.928C1312.52 31.976 1312.45 32 1312.35 32H1310.53C1310.42 32 1310.34 31.988 1310.28 31.964C1310.22 31.94 1310.15 31.88 1310.08 31.784L1304.34 23.72C1304.29 23.66 1304.24 23.636 1304.2 23.648C1304.16 23.66 1304.14 23.696 1304.14 23.756V31.676V31.73C1304.14 31.826 1304.11 31.898 1304.05 31.946C1304 31.982 1303.91 32 1303.78 32H1301.91C1301.67 32 1301.55 31.898 1301.55 31.694V18.986C1301.55 18.758 1301.66 18.644 1301.87 18.644H1304.05C1304.2 18.644 1304.3 18.662 1304.36 18.698C1304.42 18.722 1304.49 18.794 1304.57 18.914L1309.87 26.456C1309.94 26.552 1310 26.6 1310.05 26.6C1310.11 26.6 1310.14 26.534 1310.14 26.402V18.968C1310.14 18.752 1310.24 18.644 1310.46 18.644H1312.46ZM1322.88 21.794C1322.56 21.446 1322.2 21.176 1321.8 20.984C1321.4 20.78 1320.88 20.678 1320.23 20.678C1319.5 20.678 1318.94 20.81 1318.56 21.074C1318.17 21.338 1317.98 21.686 1317.98 22.118C1317.98 22.742 1318.47 23.198 1319.44 23.486L1322.28 24.296C1323.35 24.596 1324.14 25.07 1324.66 25.718C1325.19 26.366 1325.45 27.146 1325.45 28.058C1325.45 28.898 1325.23 29.63 1324.8 30.254C1324.37 30.866 1323.75 31.34 1322.93 31.676C1322.13 32.012 1321.18 32.18 1320.09 32.18C1318.86 32.18 1317.76 31.976 1316.77 31.568C1315.79 31.148 1315.07 30.578 1314.61 29.858C1314.57 29.774 1314.54 29.696 1314.54 29.624C1314.54 29.528 1314.6 29.426 1314.72 29.318L1316.11 28.364C1316.23 28.292 1316.34 28.256 1316.43 28.256C1316.54 28.256 1316.63 28.304 1316.7 28.4C1317.15 28.976 1317.6 29.384 1318.05 29.624C1318.51 29.864 1319.11 29.984 1319.87 29.984C1320.67 29.984 1321.3 29.858 1321.76 29.606C1322.22 29.354 1322.44 28.976 1322.44 28.472C1322.44 28.148 1322.33 27.872 1322.1 27.644C1321.87 27.416 1321.49 27.218 1320.95 27.05L1318.23 26.276C1317.2 25.988 1316.4 25.508 1315.84 24.836C1315.27 24.152 1314.99 23.378 1314.99 22.514C1314.99 21.746 1315.2 21.056 1315.62 20.444C1316.05 19.832 1316.66 19.352 1317.44 19.004C1318.22 18.644 1319.12 18.464 1320.14 18.464C1321.15 18.464 1322.07 18.638 1322.91 18.986C1323.75 19.322 1324.39 19.778 1324.84 20.354C1324.91 20.45 1324.95 20.534 1324.95 20.606C1324.95 20.678 1324.91 20.744 1324.84 20.804L1323.33 21.92C1323.25 21.968 1323.2 21.992 1323.16 21.992C1323.1 21.992 1323.01 21.926 1322.88 21.794Z" fill="#7000FF"/>
<path d="M139.886 27.86C139.886 28.124 139.73 28.256 139.418 28.256H135.188C135.044 28.256 134.942 28.232 134.882 28.184C134.834 28.124 134.81 28.028 134.81 27.896V26.582C134.81 26.366 134.9 26.258 135.08 26.258H139.616C139.7 26.258 139.766 26.282 139.814 26.33C139.862 26.378 139.886 26.444 139.886 26.528V27.86ZM290.302 27.86C290.302 28.124 290.146 28.256 289.834 28.256H285.604C285.46 28.256 285.358 28.232 285.298 28.184C285.25 28.124 285.226 28.028 285.226 27.896V26.582C285.226 26.366 285.316 26.258 285.496 26.258H290.032C290.116 26.258 290.182 26.282 290.23 26.33C290.278 26.378 290.302 26.444 290.302 26.528V27.86ZM440.718 27.86C440.718 28.124 440.562 28.256 440.25 28.256H436.02C435.876 28.256 435.774 28.232 435.714 28.184C435.666 28.124 435.642 28.028 435.642 27.896V26.582C435.642 26.366 435.732 26.258 435.912 26.258H440.448C440.532 26.258 440.598 26.282 440.646 26.33C440.694 26.378 440.718 26.444 440.718 26.528V27.86ZM591.134 27.86C591.134 28.124 590.978 28.256 590.666 28.256H586.436C586.292 28.256 586.19 28.232 586.13 28.184C586.082 28.124 586.058 28.028 586.058 27.896V26.582C586.058 26.366 586.148 26.258 586.328 26.258H590.864C590.948 26.258 591.014 26.282 591.062 26.33C591.11 26.378 591.134 26.444 591.134 26.528V27.86ZM741.55 27.86C741.55 28.124 741.394 28.256 741.082 28.256H736.852C736.708 28.256 736.606 28.232 736.546 28.184C736.498 28.124 736.474 28.028 736.474 27.896V26.582C736.474 26.366 736.564 26.258 736.744 26.258H741.28C741.364 26.258 741.43 26.282 741.478 26.33C741.526 26.378 741.55 26.444 741.55 26.528V27.86ZM891.966 27.86C891.966 28.124 891.81 28.256 891.498 28.256H887.268C887.124 28.256 887.022 28.232 886.962 28.184C886.914 28.124 886.89 28.028 886.89 27.896V26.582C886.89 26.366 886.98 26.258 887.16 26.258H891.696C891.78 26.258 891.846 26.282 891.894 26.33C891.942 26.378 891.966 26.444 891.966 26.528V27.86ZM1042.38 27.86C1042.38 28.124 1042.23 28.256 1041.91 28.256H1037.68C1037.54 28.256 1037.44 28.232 1037.38 28.184C1037.33 28.124 1037.31 28.028 1037.31 27.896V26.582C1037.31 26.366 1037.4 26.258 1037.58 26.258H1042.11C1042.2 26.258 1042.26 26.282 1042.31 26.33C1042.36 26.378 1042.38 26.444 1042.38 26.528V27.86ZM1192.8 27.86C1192.8 28.124 1192.64 28.256 1192.33 28.256H1188.1C1187.96 28.256 1187.85 28.232 1187.79 28.184C1187.75 28.124 1187.72 28.028 1187.72 27.896V26.582C1187.72 26.366 1187.81 26.258 1187.99 26.258H1192.53C1192.61 26.258 1192.68 26.282 1192.73 26.33C1192.77 26.378 1192.8 26.444 1192.8 26.528V27.86ZM1343.21 27.86C1343.21 28.124 1343.06 28.256 1342.75 28.256H1338.52C1338.37 28.256 1338.27 28.232 1338.21 28.184C1338.16 28.124 1338.14 28.028 1338.14 27.896V26.582C1338.14 26.366 1338.23 26.258 1338.41 26.258H1342.94C1343.03 26.258 1343.09 26.282 1343.14 26.33C1343.19 26.378 1343.21 26.444 1343.21 26.528V27.86Z" fill="white"/>
<path d="M148.778 18.968C148.778 18.872 148.808 18.794 148.868 18.734C148.94 18.674 149.03 18.644 149.138 18.644H159.47C159.71 18.644 159.83 18.752 159.83 18.968V20.642C159.83 20.822 159.722 20.912 159.506 20.912H156.14C156.008 20.912 155.942 20.972 155.942 21.092V31.658C155.942 31.886 155.84 32 155.636 32H153.062C152.882 32 152.792 31.898 152.792 31.694V21.146C152.792 21.062 152.774 21.002 152.738 20.966C152.714 20.93 152.666 20.912 152.594 20.912H149.12C148.892 20.912 148.778 20.822 148.778 20.642V18.968ZM165.08 26.294C165.008 26.294 164.948 26.318 164.9 26.366C164.864 26.414 164.846 26.468 164.846 26.528V31.586C164.846 31.73 164.804 31.838 164.72 31.91C164.648 31.97 164.528 32 164.36 32H162.092C161.948 32 161.846 31.97 161.786 31.91C161.726 31.85 161.696 31.754 161.696 31.622V18.986C161.696 18.758 161.792 18.644 161.984 18.644H164.558C164.75 18.644 164.846 18.752 164.846 18.968V23.576C164.846 23.78 164.936 23.882 165.116 23.882H169.274C169.466 23.882 169.562 23.786 169.562 23.594V18.968C169.562 18.752 169.652 18.644 169.832 18.644H172.406C172.61 18.644 172.712 18.758 172.712 18.986V31.622C172.712 31.874 172.58 32 172.316 32H170.03C169.862 32 169.742 31.97 169.67 31.91C169.598 31.85 169.562 31.742 169.562 31.586V26.528C169.562 26.456 169.538 26.402 169.49 26.366C169.454 26.318 169.394 26.294 169.31 26.294H165.08ZM175.213 18.986C175.213 18.758 175.309 18.644 175.501 18.644H184.573C184.753 18.644 184.843 18.746 184.843 18.95L184.825 20.57C184.825 20.822 184.699 20.948 184.447 20.948H178.705C178.477 20.948 178.363 21.044 178.363 21.236V23.846C178.363 24.05 178.453 24.152 178.633 24.152H182.449C182.653 24.152 182.755 24.248 182.755 24.44V26.168C182.755 26.336 182.659 26.42 182.467 26.42H178.615C178.447 26.42 178.363 26.492 178.363 26.636V29.462C178.363 29.546 178.375 29.606 178.399 29.642C178.435 29.678 178.489 29.696 178.561 29.696H184.717C184.933 29.696 185.041 29.786 185.041 29.966V31.676C185.041 31.892 184.921 32 184.681 32H175.609C175.465 32 175.363 31.97 175.303 31.91C175.243 31.85 175.213 31.754 175.213 31.622V18.986ZM190.303 32C190.123 32 190.033 31.898 190.033 31.694C190.033 31.598 190.045 31.526 190.069 31.478L194.551 19.004C194.599 18.872 194.653 18.782 194.713 18.734C194.785 18.674 194.887 18.644 195.019 18.644H197.719C197.851 18.644 197.965 18.68 198.061 18.752C198.157 18.824 198.223 18.92 198.259 19.04L202.705 31.514C202.729 31.586 202.741 31.64 202.741 31.676C202.741 31.772 202.717 31.85 202.669 31.91C202.633 31.97 202.573 32 202.489 32H199.843C199.663 32 199.549 31.916 199.501 31.748L198.565 29.12C198.541 29.048 198.511 29 198.475 28.976C198.451 28.94 198.403 28.922 198.331 28.922H193.939C193.819 28.922 193.741 28.982 193.705 29.102L192.751 31.766C192.679 31.922 192.553 32 192.373 32H190.303ZM197.593 26.528C197.713 26.528 197.773 26.48 197.773 26.384C197.773 26.312 197.767 26.258 197.755 26.222L196.243 22.01C196.207 21.938 196.165 21.902 196.117 21.902C196.081 21.902 196.045 21.944 196.009 22.028L194.479 26.222C194.455 26.294 194.443 26.348 194.443 26.384C194.443 26.48 194.509 26.528 194.641 26.528H197.593ZM209.341 18.464C210.253 18.464 211.093 18.638 211.861 18.986C212.629 19.334 213.259 19.808 213.751 20.408C214.255 21.008 214.573 21.68 214.705 22.424C214.729 22.508 214.741 22.604 214.741 22.712C214.741 22.784 214.723 22.832 214.687 22.856C214.651 22.88 214.597 22.898 214.525 22.91L212.095 23.072C211.987 23.072 211.915 23.054 211.879 23.018C211.855 22.982 211.831 22.91 211.807 22.802C211.675 22.142 211.411 21.62 211.015 21.236C210.619 20.852 210.091 20.66 209.431 20.66C207.511 20.66 206.551 22.196 206.551 25.268C206.551 26.864 206.791 28.028 207.271 28.76C207.751 29.492 208.483 29.858 209.467 29.858C210.187 29.858 210.793 29.678 211.285 29.318C211.789 28.958 212.197 28.37 212.509 27.554C212.545 27.47 212.623 27.428 212.743 27.428C212.815 27.428 212.869 27.434 212.905 27.446L214.669 27.824C214.837 27.884 214.903 28.034 214.867 28.274C214.747 28.79 214.465 29.348 214.021 29.948C213.589 30.548 212.977 31.07 212.185 31.514C211.393 31.958 210.445 32.18 209.341 32.18C208.105 32.18 207.025 31.892 206.101 31.316C205.189 30.728 204.487 29.912 203.995 28.868C203.503 27.812 203.257 26.594 203.257 25.214C203.257 23.846 203.503 22.652 203.995 21.632C204.487 20.612 205.189 19.832 206.101 19.292C207.025 18.74 208.105 18.464 209.341 18.464ZM216.102 18.968C216.102 18.872 216.132 18.794 216.192 18.734C216.264 18.674 216.354 18.644 216.462 18.644H226.794C227.034 18.644 227.154 18.752 227.154 18.968V20.642C227.154 20.822 227.046 20.912 226.83 20.912H223.464C223.332 20.912 223.266 20.972 223.266 21.092V31.658C223.266 31.886 223.164 32 222.96 32H220.386C220.206 32 220.116 31.898 220.116 31.694V21.146C220.116 21.062 220.098 21.002 220.062 20.966C220.038 20.93 219.99 20.912 219.918 20.912H216.444C216.216 20.912 216.102 20.822 216.102 20.642V18.968ZM231.882 18.644C232.074 18.644 232.17 18.752 232.17 18.968V31.568C232.17 31.724 232.134 31.838 232.062 31.91C231.99 31.97 231.864 32 231.684 32H229.416C229.272 32 229.17 31.97 229.11 31.91C229.05 31.85 229.02 31.754 229.02 31.622V18.986C229.02 18.758 229.116 18.644 229.308 18.644H231.882ZM240.422 32.18C239.162 32.18 238.064 31.91 237.128 31.37C236.204 30.818 235.49 30.032 234.986 29.012C234.494 27.992 234.248 26.78 234.248 25.376C234.248 23.96 234.5 22.736 235.004 21.704C235.508 20.66 236.222 19.862 237.146 19.31C238.082 18.746 239.174 18.464 240.422 18.464C241.658 18.464 242.738 18.746 243.662 19.31C244.586 19.862 245.3 20.66 245.804 21.704C246.308 22.736 246.56 23.954 246.56 25.358C246.56 26.75 246.308 27.962 245.804 28.994C245.312 30.014 244.604 30.8 243.68 31.352C242.756 31.904 241.67 32.18 240.422 32.18ZM240.422 29.966C241.418 29.966 242.138 29.606 242.582 28.886C243.038 28.166 243.266 27.002 243.266 25.394C243.266 23.75 243.032 22.55 242.564 21.794C242.108 21.038 241.394 20.66 240.422 20.66C239.426 20.66 238.694 21.038 238.226 21.794C237.77 22.55 237.542 23.75 237.542 25.394C237.542 27.002 237.77 28.166 238.226 28.886C238.682 29.606 239.414 29.966 240.422 29.966ZM259.545 18.644C259.701 18.644 259.779 18.734 259.779 18.914V31.712C259.779 31.796 259.743 31.868 259.671 31.928C259.611 31.976 259.533 32 259.437 32H257.619C257.511 32 257.427 31.988 257.367 31.964C257.307 31.94 257.241 31.88 257.169 31.784L251.427 23.72C251.379 23.66 251.331 23.636 251.283 23.648C251.247 23.66 251.229 23.696 251.229 23.756V31.676V31.73C251.229 31.826 251.199 31.898 251.139 31.946C251.091 31.982 251.001 32 250.869 32H248.997C248.757 32 248.637 31.898 248.637 31.694V18.986C248.637 18.758 248.745 18.644 248.961 18.644H251.139C251.283 18.644 251.385 18.662 251.445 18.698C251.505 18.722 251.577 18.794 251.661 18.914L256.953 26.456C257.025 26.552 257.085 26.6 257.133 26.6C257.193 26.6 257.223 26.534 257.223 26.402V18.968C257.223 18.752 257.331 18.644 257.547 18.644H259.545ZM269.963 21.794C269.651 21.446 269.291 21.176 268.883 20.984C268.487 20.78 267.965 20.678 267.317 20.678C266.585 20.678 266.027 20.81 265.643 21.074C265.259 21.338 265.067 21.686 265.067 22.118C265.067 22.742 265.553 23.198 266.525 23.486L269.369 24.296C270.437 24.596 271.229 25.07 271.745 25.718C272.273 26.366 272.537 27.146 272.537 28.058C272.537 28.898 272.321 29.63 271.889 30.254C271.457 30.866 270.833 31.34 270.017 31.676C269.213 32.012 268.265 32.18 267.173 32.18C265.949 32.18 264.845 31.976 263.861 31.568C262.877 31.148 262.157 30.578 261.701 29.858C261.653 29.774 261.629 29.696 261.629 29.624C261.629 29.528 261.689 29.426 261.809 29.318L263.195 28.364C263.315 28.292 263.423 28.256 263.519 28.256C263.627 28.256 263.717 28.304 263.789 28.4C264.233 28.976 264.683 29.384 265.139 29.624C265.595 29.864 266.201 29.984 266.957 29.984C267.761 29.984 268.391 29.858 268.847 29.606C269.303 29.354 269.531 28.976 269.531 28.472C269.531 28.148 269.417 27.872 269.189 27.644C268.961 27.416 268.577 27.218 268.037 27.05L265.319 26.276C264.287 25.988 263.489 25.508 262.925 24.836C262.361 24.152 262.079 23.378 262.079 22.514C262.079 21.746 262.289 21.056 262.709 20.444C263.141 19.832 263.747 19.352 264.527 19.004C265.307 18.644 266.207 18.464 267.227 18.464C268.235 18.464 269.159 18.638 269.999 18.986C270.839 19.322 271.481 19.778 271.925 20.354C271.997 20.45 272.033 20.534 272.033 20.606C272.033 20.678 271.997 20.744 271.925 20.804L270.413 21.92C270.341 21.968 270.287 21.992 270.251 21.992C270.191 21.992 270.095 21.926 269.963 21.794ZM449.61 18.968C449.61 18.872 449.64 18.794 449.7 18.734C449.772 18.674 449.862 18.644 449.97 18.644H460.302C460.542 18.644 460.662 18.752 460.662 18.968V20.642C460.662 20.822 460.554 20.912 460.338 20.912H456.972C456.84 20.912 456.774 20.972 456.774 21.092V31.658C456.774 31.886 456.672 32 456.468 32H453.894C453.714 32 453.624 31.898 453.624 31.694V21.146C453.624 21.062 453.606 21.002 453.57 20.966C453.546 20.93 453.498 20.912 453.426 20.912H449.952C449.724 20.912 449.61 20.822 449.61 20.642V18.968ZM465.912 26.294C465.84 26.294 465.78 26.318 465.732 26.366C465.696 26.414 465.678 26.468 465.678 26.528V31.586C465.678 31.73 465.636 31.838 465.552 31.91C465.48 31.97 465.36 32 465.192 32H462.924C462.78 32 462.678 31.97 462.618 31.91C462.558 31.85 462.528 31.754 462.528 31.622V18.986C462.528 18.758 462.624 18.644 462.816 18.644H465.39C465.582 18.644 465.678 18.752 465.678 18.968V23.576C465.678 23.78 465.768 23.882 465.948 23.882H470.106C470.298 23.882 470.394 23.786 470.394 23.594V18.968C470.394 18.752 470.484 18.644 470.664 18.644H473.238C473.442 18.644 473.544 18.758 473.544 18.986V31.622C473.544 31.874 473.412 32 473.148 32H470.862C470.694 32 470.574 31.97 470.502 31.91C470.43 31.85 470.394 31.742 470.394 31.586V26.528C470.394 26.456 470.37 26.402 470.322 26.366C470.286 26.318 470.226 26.294 470.142 26.294H465.912ZM476.045 18.986C476.045 18.758 476.141 18.644 476.333 18.644H485.405C485.585 18.644 485.675 18.746 485.675 18.95L485.657 20.57C485.657 20.822 485.531 20.948 485.279 20.948H479.537C479.309 20.948 479.195 21.044 479.195 21.236V23.846C479.195 24.05 479.285 24.152 479.465 24.152H483.281C483.485 24.152 483.587 24.248 483.587 24.44V26.168C483.587 26.336 483.491 26.42 483.299 26.42H479.447C479.279 26.42 479.195 26.492 479.195 26.636V29.462C479.195 29.546 479.207 29.606 479.231 29.642C479.267 29.678 479.321 29.696 479.393 29.696H485.549C485.765 29.696 485.873 29.786 485.873 29.966V31.676C485.873 31.892 485.753 32 485.513 32H476.441C476.297 32 476.195 31.97 476.135 31.91C476.075 31.85 476.045 31.754 476.045 31.622V18.986ZM491.135 32C490.955 32 490.865 31.898 490.865 31.694C490.865 31.598 490.877 31.526 490.901 31.478L495.383 19.004C495.431 18.872 495.485 18.782 495.545 18.734C495.617 18.674 495.719 18.644 495.851 18.644H498.551C498.683 18.644 498.797 18.68 498.893 18.752C498.989 18.824 499.055 18.92 499.091 19.04L503.537 31.514C503.561 31.586 503.573 31.64 503.573 31.676C503.573 31.772 503.549 31.85 503.501 31.91C503.465 31.97 503.405 32 503.321 32H500.675C500.495 32 500.381 31.916 500.333 31.748L499.397 29.12C499.373 29.048 499.343 29 499.307 28.976C499.283 28.94 499.235 28.922 499.163 28.922H494.771C494.651 28.922 494.573 28.982 494.537 29.102L493.583 31.766C493.511 31.922 493.385 32 493.205 32H491.135ZM498.425 26.528C498.545 26.528 498.605 26.48 498.605 26.384C498.605 26.312 498.599 26.258 498.587 26.222L497.075 22.01C497.039 21.938 496.997 21.902 496.949 21.902C496.913 21.902 496.877 21.944 496.841 22.028L495.311 26.222C495.287 26.294 495.275 26.348 495.275 26.384C495.275 26.48 495.341 26.528 495.473 26.528H498.425ZM510.173 18.464C511.085 18.464 511.925 18.638 512.693 18.986C513.461 19.334 514.091 19.808 514.583 20.408C515.087 21.008 515.405 21.68 515.537 22.424C515.561 22.508 515.573 22.604 515.573 22.712C515.573 22.784 515.555 22.832 515.519 22.856C515.483 22.88 515.429 22.898 515.357 22.91L512.927 23.072C512.819 23.072 512.747 23.054 512.711 23.018C512.687 22.982 512.663 22.91 512.639 22.802C512.507 22.142 512.243 21.62 511.847 21.236C511.451 20.852 510.923 20.66 510.263 20.66C508.343 20.66 507.383 22.196 507.383 25.268C507.383 26.864 507.623 28.028 508.103 28.76C508.583 29.492 509.315 29.858 510.299 29.858C511.019 29.858 511.625 29.678 512.117 29.318C512.621 28.958 513.029 28.37 513.341 27.554C513.377 27.47 513.455 27.428 513.575 27.428C513.647 27.428 513.701 27.434 513.737 27.446L515.501 27.824C515.669 27.884 515.735 28.034 515.699 28.274C515.579 28.79 515.297 29.348 514.853 29.948C514.421 30.548 513.809 31.07 513.017 31.514C512.225 31.958 511.277 32.18 510.173 32.18C508.937 32.18 507.857 31.892 506.933 31.316C506.021 30.728 505.319 29.912 504.827 28.868C504.335 27.812 504.089 26.594 504.089 25.214C504.089 23.846 504.335 22.652 504.827 21.632C505.319 20.612 506.021 19.832 506.933 19.292C507.857 18.74 508.937 18.464 510.173 18.464ZM516.934 18.968C516.934 18.872 516.964 18.794 517.024 18.734C517.096 18.674 517.186 18.644 517.294 18.644H527.626C527.866 18.644 527.986 18.752 527.986 18.968V20.642C527.986 20.822 527.878 20.912 527.662 20.912H524.296C524.164 20.912 524.098 20.972 524.098 21.092V31.658C524.098 31.886 523.996 32 523.792 32H521.218C521.038 32 520.948 31.898 520.948 31.694V21.146C520.948 21.062 520.93 21.002 520.894 20.966C520.87 20.93 520.822 20.912 520.75 20.912H517.276C517.048 20.912 516.934 20.822 516.934 20.642V18.968ZM532.714 18.644C532.906 18.644 533.002 18.752 533.002 18.968V31.568C533.002 31.724 532.966 31.838 532.894 31.91C532.822 31.97 532.696 32 532.516 32H530.248C530.104 32 530.002 31.97 529.942 31.91C529.882 31.85 529.852 31.754 529.852 31.622V18.986C529.852 18.758 529.948 18.644 530.14 18.644H532.714ZM541.254 32.18C539.994 32.18 538.896 31.91 537.96 31.37C537.036 30.818 536.322 30.032 535.818 29.012C535.326 27.992 535.08 26.78 535.08 25.376C535.08 23.96 535.332 22.736 535.836 21.704C536.34 20.66 537.054 19.862 537.978 19.31C538.914 18.746 540.006 18.464 541.254 18.464C542.49 18.464 543.57 18.746 544.494 19.31C545.418 19.862 546.132 20.66 546.636 21.704C547.14 22.736 547.392 23.954 547.392 25.358C547.392 26.75 547.14 27.962 546.636 28.994C546.144 30.014 545.436 30.8 544.512 31.352C543.588 31.904 542.502 32.18 541.254 32.18ZM541.254 29.966C542.25 29.966 542.97 29.606 543.414 28.886C543.87 28.166 544.098 27.002 544.098 25.394C544.098 23.75 543.864 22.55 543.396 21.794C542.94 21.038 542.226 20.66 541.254 20.66C540.258 20.66 539.526 21.038 539.058 21.794C538.602 22.55 538.374 23.75 538.374 25.394C538.374 27.002 538.602 28.166 539.058 28.886C539.514 29.606 540.246 29.966 541.254 29.966ZM560.377 18.644C560.533 18.644 560.611 18.734 560.611 18.914V31.712C560.611 31.796 560.575 31.868 560.503 31.928C560.443 31.976 560.365 32 560.269 32H558.451C558.343 32 558.259 31.988 558.199 31.964C558.139 31.94 558.073 31.88 558.001 31.784L552.259 23.72C552.211 23.66 552.163 23.636 552.115 23.648C552.079 23.66 552.061 23.696 552.061 23.756V31.676V31.73C552.061 31.826 552.031 31.898 551.971 31.946C551.923 31.982 551.833 32 551.701 32H549.829C549.589 32 549.469 31.898 549.469 31.694V18.986C549.469 18.758 549.577 18.644 549.793 18.644H551.971C552.115 18.644 552.217 18.662 552.277 18.698C552.337 18.722 552.409 18.794 552.493 18.914L557.785 26.456C557.857 26.552 557.917 26.6 557.965 26.6C558.025 26.6 558.055 26.534 558.055 26.402V18.968C558.055 18.752 558.163 18.644 558.379 18.644H560.377ZM570.795 21.794C570.483 21.446 570.123 21.176 569.715 20.984C569.319 20.78 568.797 20.678 568.149 20.678C567.417 20.678 566.859 20.81 566.475 21.074C566.091 21.338 565.899 21.686 565.899 22.118C565.899 22.742 566.385 23.198 567.357 23.486L570.201 24.296C571.269 24.596 572.061 25.07 572.577 25.718C573.105 26.366 573.369 27.146 573.369 28.058C573.369 28.898 573.153 29.63 572.721 30.254C572.289 30.866 571.665 31.34 570.849 31.676C570.045 32.012 569.097 32.18 568.005 32.18C566.781 32.18 565.677 31.976 564.693 31.568C563.709 31.148 562.989 30.578 562.533 29.858C562.485 29.774 562.461 29.696 562.461 29.624C562.461 29.528 562.521 29.426 562.641 29.318L564.027 28.364C564.147 28.292 564.255 28.256 564.351 28.256C564.459 28.256 564.549 28.304 564.621 28.4C565.065 28.976 565.515 29.384 565.971 29.624C566.427 29.864 567.033 29.984 567.789 29.984C568.593 29.984 569.223 29.858 569.679 29.606C570.135 29.354 570.363 28.976 570.363 28.472C570.363 28.148 570.249 27.872 570.021 27.644C569.793 27.416 569.409 27.218 568.869 27.05L566.151 26.276C565.119 25.988 564.321 25.508 563.757 24.836C563.193 24.152 562.911 23.378 562.911 22.514C562.911 21.746 563.121 21.056 563.541 20.444C563.973 19.832 564.579 19.352 565.359 19.004C566.139 18.644 567.039 18.464 568.059 18.464C569.067 18.464 569.991 18.638 570.831 18.986C571.671 19.322 572.313 19.778 572.757 20.354C572.829 20.45 572.865 20.534 572.865 20.606C572.865 20.678 572.829 20.744 572.757 20.804L571.245 21.92C571.173 21.968 571.119 21.992 571.083 21.992C571.023 21.992 570.927 21.926 570.795 21.794ZM750.442 18.968C750.442 18.872 750.472 18.794 750.532 18.734C750.604 18.674 750.694 18.644 750.802 18.644H761.134C761.374 18.644 761.494 18.752 761.494 18.968V20.642C761.494 20.822 761.386 20.912 761.17 20.912H757.804C757.672 20.912 757.606 20.972 757.606 21.092V31.658C757.606 31.886 757.504 32 757.3 32H754.726C754.546 32 754.456 31.898 754.456 31.694V21.146C754.456 21.062 754.438 21.002 754.402 20.966C754.378 20.93 754.33 20.912 754.258 20.912H750.784C750.556 20.912 750.442 20.822 750.442 20.642V18.968ZM766.744 26.294C766.672 26.294 766.612 26.318 766.564 26.366C766.528 26.414 766.51 26.468 766.51 26.528V31.586C766.51 31.73 766.468 31.838 766.384 31.91C766.312 31.97 766.192 32 766.024 32H763.756C763.612 32 763.51 31.97 763.45 31.91C763.39 31.85 763.36 31.754 763.36 31.622V18.986C763.36 18.758 763.456 18.644 763.648 18.644H766.222C766.414 18.644 766.51 18.752 766.51 18.968V23.576C766.51 23.78 766.6 23.882 766.78 23.882H770.938C771.13 23.882 771.226 23.786 771.226 23.594V18.968C771.226 18.752 771.316 18.644 771.496 18.644H774.07C774.274 18.644 774.376 18.758 774.376 18.986V31.622C774.376 31.874 774.244 32 773.98 32H771.694C771.526 32 771.406 31.97 771.334 31.91C771.262 31.85 771.226 31.742 771.226 31.586V26.528C771.226 26.456 771.202 26.402 771.154 26.366C771.118 26.318 771.058 26.294 770.974 26.294H766.744ZM776.877 18.986C776.877 18.758 776.973 18.644 777.165 18.644H786.237C786.417 18.644 786.507 18.746 786.507 18.95L786.489 20.57C786.489 20.822 786.363 20.948 786.111 20.948H780.369C780.141 20.948 780.027 21.044 780.027 21.236V23.846C780.027 24.05 780.117 24.152 780.297 24.152H784.113C784.317 24.152 784.419 24.248 784.419 24.44V26.168C784.419 26.336 784.323 26.42 784.131 26.42H780.279C780.111 26.42 780.027 26.492 780.027 26.636V29.462C780.027 29.546 780.039 29.606 780.063 29.642C780.099 29.678 780.153 29.696 780.225 29.696H786.381C786.597 29.696 786.705 29.786 786.705 29.966V31.676C786.705 31.892 786.585 32 786.345 32H777.273C777.129 32 777.027 31.97 776.967 31.91C776.907 31.85 776.877 31.754 776.877 31.622V18.986ZM791.968 32C791.788 32 791.698 31.898 791.698 31.694C791.698 31.598 791.71 31.526 791.734 31.478L796.216 19.004C796.264 18.872 796.318 18.782 796.378 18.734C796.45 18.674 796.552 18.644 796.684 18.644H799.384C799.516 18.644 799.63 18.68 799.726 18.752C799.822 18.824 799.888 18.92 799.924 19.04L804.37 31.514C804.394 31.586 804.406 31.64 804.406 31.676C804.406 31.772 804.382 31.85 804.334 31.91C804.298 31.97 804.238 32 804.154 32H801.508C801.328 32 801.214 31.916 801.166 31.748L800.23 29.12C800.206 29.048 800.176 29 800.14 28.976C800.116 28.94 800.068 28.922 799.996 28.922H795.604C795.484 28.922 795.406 28.982 795.37 29.102L794.416 31.766C794.344 31.922 794.218 32 794.038 32H791.968ZM799.258 26.528C799.378 26.528 799.438 26.48 799.438 26.384C799.438 26.312 799.432 26.258 799.42 26.222L797.908 22.01C797.872 21.938 797.83 21.902 797.782 21.902C797.746 21.902 797.71 21.944 797.674 22.028L796.144 26.222C796.12 26.294 796.108 26.348 796.108 26.384C796.108 26.48 796.174 26.528 796.306 26.528H799.258ZM811.005 18.464C811.917 18.464 812.757 18.638 813.525 18.986C814.293 19.334 814.923 19.808 815.415 20.408C815.919 21.008 816.237 21.68 816.369 22.424C816.393 22.508 816.405 22.604 816.405 22.712C816.405 22.784 816.387 22.832 816.351 22.856C816.315 22.88 816.261 22.898 816.189 22.91L813.759 23.072C813.651 23.072 813.579 23.054 813.543 23.018C813.519 22.982 813.495 22.91 813.471 22.802C813.339 22.142 813.075 21.62 812.679 21.236C812.283 20.852 811.755 20.66 811.095 20.66C809.175 20.66 808.215 22.196 808.215 25.268C808.215 26.864 808.455 28.028 808.935 28.76C809.415 29.492 810.147 29.858 811.131 29.858C811.851 29.858 812.457 29.678 812.949 29.318C813.453 28.958 813.861 28.37 814.173 27.554C814.209 27.47 814.287 27.428 814.407 27.428C814.479 27.428 814.533 27.434 814.569 27.446L816.333 27.824C816.501 27.884 816.567 28.034 816.531 28.274C816.411 28.79 816.129 29.348 815.685 29.948C815.253 30.548 814.641 31.07 813.849 31.514C813.057 31.958 812.109 32.18 811.005 32.18C809.769 32.18 808.689 31.892 807.765 31.316C806.853 30.728 806.151 29.912 805.659 28.868C805.167 27.812 804.921 26.594 804.921 25.214C804.921 23.846 805.167 22.652 805.659 21.632C806.151 20.612 806.853 19.832 807.765 19.292C808.689 18.74 809.769 18.464 811.005 18.464ZM817.766 18.968C817.766 18.872 817.796 18.794 817.856 18.734C817.928 18.674 818.018 18.644 818.126 18.644H828.458C828.698 18.644 828.818 18.752 828.818 18.968V20.642C828.818 20.822 828.71 20.912 828.494 20.912H825.128C824.996 20.912 824.93 20.972 824.93 21.092V31.658C824.93 31.886 824.828 32 824.624 32H822.05C821.87 32 821.78 31.898 821.78 31.694V21.146C821.78 21.062 821.762 21.002 821.726 20.966C821.702 20.93 821.654 20.912 821.582 20.912H818.108C817.88 20.912 817.766 20.822 817.766 20.642V18.968ZM833.546 18.644C833.738 18.644 833.834 18.752 833.834 18.968V31.568C833.834 31.724 833.798 31.838 833.726 31.91C833.654 31.97 833.528 32 833.348 32H831.08C830.936 32 830.834 31.97 830.774 31.91C830.714 31.85 830.684 31.754 830.684 31.622V18.986C830.684 18.758 830.78 18.644 830.972 18.644H833.546ZM842.086 32.18C840.826 32.18 839.728 31.91 838.792 31.37C837.868 30.818 837.154 30.032 836.65 29.012C836.158 27.992 835.912 26.78 835.912 25.376C835.912 23.96 836.164 22.736 836.668 21.704C837.172 20.66 837.886 19.862 838.81 19.31C839.746 18.746 840.838 18.464 842.086 18.464C843.322 18.464 844.402 18.746 845.326 19.31C846.25 19.862 846.964 20.66 847.468 21.704C847.972 22.736 848.224 23.954 848.224 25.358C848.224 26.75 847.972 27.962 847.468 28.994C846.976 30.014 846.268 30.8 845.344 31.352C844.42 31.904 843.334 32.18 842.086 32.18ZM842.086 29.966C843.082 29.966 843.802 29.606 844.246 28.886C844.702 28.166 844.93 27.002 844.93 25.394C844.93 23.75 844.696 22.55 844.228 21.794C843.772 21.038 843.058 20.66 842.086 20.66C841.09 20.66 840.358 21.038 839.89 21.794C839.434 22.55 839.206 23.75 839.206 25.394C839.206 27.002 839.434 28.166 839.89 28.886C840.346 29.606 841.078 29.966 842.086 29.966ZM861.209 18.644C861.365 18.644 861.443 18.734 861.443 18.914V31.712C861.443 31.796 861.407 31.868 861.335 31.928C861.275 31.976 861.197 32 861.101 32H859.283C859.175 32 859.091 31.988 859.031 31.964C858.971 31.94 858.905 31.88 858.833 31.784L853.091 23.72C853.043 23.66 852.995 23.636 852.947 23.648C852.911 23.66 852.893 23.696 852.893 23.756V31.676V31.73C852.893 31.826 852.863 31.898 852.803 31.946C852.755 31.982 852.665 32 852.533 32H850.661C850.421 32 850.301 31.898 850.301 31.694V18.986C850.301 18.758 850.409 18.644 850.625 18.644H852.803C852.947 18.644 853.049 18.662 853.109 18.698C853.169 18.722 853.241 18.794 853.325 18.914L858.617 26.456C858.689 26.552 858.749 26.6 858.797 26.6C858.857 26.6 858.887 26.534 858.887 26.402V18.968C858.887 18.752 858.995 18.644 859.211 18.644H861.209ZM871.627 21.794C871.315 21.446 870.955 21.176 870.547 20.984C870.151 20.78 869.629 20.678 868.981 20.678C868.249 20.678 867.691 20.81 867.307 21.074C866.923 21.338 866.731 21.686 866.731 22.118C866.731 22.742 867.217 23.198 868.189 23.486L871.033 24.296C872.101 24.596 872.893 25.07 873.409 25.718C873.937 26.366 874.201 27.146 874.201 28.058C874.201 28.898 873.985 29.63 873.553 30.254C873.121 30.866 872.497 31.34 871.681 31.676C870.877 32.012 869.929 32.18 868.837 32.18C867.613 32.18 866.509 31.976 865.525 31.568C864.541 31.148 863.821 30.578 863.365 29.858C863.317 29.774 863.293 29.696 863.293 29.624C863.293 29.528 863.353 29.426 863.473 29.318L864.859 28.364C864.979 28.292 865.087 28.256 865.183 28.256C865.291 28.256 865.381 28.304 865.453 28.4C865.897 28.976 866.347 29.384 866.803 29.624C867.259 29.864 867.865 29.984 868.621 29.984C869.425 29.984 870.055 29.858 870.511 29.606C870.967 29.354 871.195 28.976 871.195 28.472C871.195 28.148 871.081 27.872 870.853 27.644C870.625 27.416 870.241 27.218 869.701 27.05L866.983 26.276C865.951 25.988 865.153 25.508 864.589 24.836C864.025 24.152 863.743 23.378 863.743 22.514C863.743 21.746 863.953 21.056 864.373 20.444C864.805 19.832 865.411 19.352 866.191 19.004C866.971 18.644 867.871 18.464 868.891 18.464C869.899 18.464 870.823 18.638 871.663 18.986C872.503 19.322 873.145 19.778 873.589 20.354C873.661 20.45 873.697 20.534 873.697 20.606C873.697 20.678 873.661 20.744 873.589 20.804L872.077 21.92C872.005 21.968 871.951 21.992 871.915 21.992C871.855 21.992 871.759 21.926 871.627 21.794ZM1051.27 18.968C1051.27 18.872 1051.3 18.794 1051.36 18.734C1051.44 18.674 1051.53 18.644 1051.63 18.644H1061.97C1062.21 18.644 1062.33 18.752 1062.33 18.968V20.642C1062.33 20.822 1062.22 20.912 1062 20.912H1058.64C1058.5 20.912 1058.44 20.972 1058.44 21.092V31.658C1058.44 31.886 1058.34 32 1058.13 32H1055.56C1055.38 32 1055.29 31.898 1055.29 31.694V21.146C1055.29 21.062 1055.27 21.002 1055.23 20.966C1055.21 20.93 1055.16 20.912 1055.09 20.912H1051.62C1051.39 20.912 1051.27 20.822 1051.27 20.642V18.968ZM1067.58 26.294C1067.5 26.294 1067.44 26.318 1067.4 26.366C1067.36 26.414 1067.34 26.468 1067.34 26.528V31.586C1067.34 31.73 1067.3 31.838 1067.22 31.91C1067.14 31.97 1067.02 32 1066.86 32H1064.59C1064.44 32 1064.34 31.97 1064.28 31.91C1064.22 31.85 1064.19 31.754 1064.19 31.622V18.986C1064.19 18.758 1064.29 18.644 1064.48 18.644H1067.05C1067.25 18.644 1067.34 18.752 1067.34 18.968V23.576C1067.34 23.78 1067.43 23.882 1067.61 23.882H1071.77C1071.96 23.882 1072.06 23.786 1072.06 23.594V18.968C1072.06 18.752 1072.15 18.644 1072.33 18.644H1074.9C1075.11 18.644 1075.21 18.758 1075.21 18.986V31.622C1075.21 31.874 1075.08 32 1074.81 32H1072.53C1072.36 32 1072.24 31.97 1072.17 31.91C1072.09 31.85 1072.06 31.742 1072.06 31.586V26.528C1072.06 26.456 1072.03 26.402 1071.99 26.366C1071.95 26.318 1071.89 26.294 1071.81 26.294H1067.58ZM1077.71 18.986C1077.71 18.758 1077.81 18.644 1078 18.644H1087.07C1087.25 18.644 1087.34 18.746 1087.34 18.95L1087.32 20.57C1087.32 20.822 1087.2 20.948 1086.94 20.948H1081.2C1080.97 20.948 1080.86 21.044 1080.86 21.236V23.846C1080.86 24.05 1080.95 24.152 1081.13 24.152H1084.95C1085.15 24.152 1085.25 24.248 1085.25 24.44V26.168C1085.25 26.336 1085.16 26.42 1084.96 26.42H1081.11C1080.94 26.42 1080.86 26.492 1080.86 26.636V29.462C1080.86 29.546 1080.87 29.606 1080.9 29.642C1080.93 29.678 1080.99 29.696 1081.06 29.696H1087.21C1087.43 29.696 1087.54 29.786 1087.54 29.966V31.676C1087.54 31.892 1087.42 32 1087.18 32H1078.11C1077.96 32 1077.86 31.97 1077.8 31.91C1077.74 31.85 1077.71 31.754 1077.71 31.622V18.986ZM1092.8 32C1092.62 32 1092.53 31.898 1092.53 31.694C1092.53 31.598 1092.54 31.526 1092.57 31.478L1097.05 19.004C1097.1 18.872 1097.15 18.782 1097.21 18.734C1097.28 18.674 1097.38 18.644 1097.52 18.644H1100.22C1100.35 18.644 1100.46 18.68 1100.56 18.752C1100.65 18.824 1100.72 18.92 1100.76 19.04L1105.2 31.514C1105.23 31.586 1105.24 31.64 1105.24 31.676C1105.24 31.772 1105.21 31.85 1105.17 31.91C1105.13 31.97 1105.07 32 1104.99 32H1102.34C1102.16 32 1102.05 31.916 1102 31.748L1101.06 29.12C1101.04 29.048 1101.01 29 1100.97 28.976C1100.95 28.94 1100.9 28.922 1100.83 28.922H1096.44C1096.32 28.922 1096.24 28.982 1096.2 29.102L1095.25 31.766C1095.18 31.922 1095.05 32 1094.87 32H1092.8ZM1100.09 26.528C1100.21 26.528 1100.27 26.48 1100.27 26.384C1100.27 26.312 1100.26 26.258 1100.25 26.222L1098.74 22.01C1098.7 21.938 1098.66 21.902 1098.61 21.902C1098.58 21.902 1098.54 21.944 1098.51 22.028L1096.98 26.222C1096.95 26.294 1096.94 26.348 1096.94 26.384C1096.94 26.48 1097.01 26.528 1097.14 26.528H1100.09ZM1111.84 18.464C1112.75 18.464 1113.59 18.638 1114.36 18.986C1115.12 19.334 1115.75 19.808 1116.25 20.408C1116.75 21.008 1117.07 21.68 1117.2 22.424C1117.22 22.508 1117.24 22.604 1117.24 22.712C1117.24 22.784 1117.22 22.832 1117.18 22.856C1117.15 22.88 1117.09 22.898 1117.02 22.91L1114.59 23.072C1114.48 23.072 1114.41 23.054 1114.37 23.018C1114.35 22.982 1114.33 22.91 1114.3 22.802C1114.17 22.142 1113.91 21.62 1113.51 21.236C1113.11 20.852 1112.59 20.66 1111.93 20.66C1110.01 20.66 1109.05 22.196 1109.05 25.268C1109.05 26.864 1109.29 28.028 1109.77 28.76C1110.25 29.492 1110.98 29.858 1111.96 29.858C1112.68 29.858 1113.29 29.678 1113.78 29.318C1114.28 28.958 1114.69 28.37 1115 27.554C1115.04 27.47 1115.12 27.428 1115.24 27.428C1115.31 27.428 1115.36 27.434 1115.4 27.446L1117.16 27.824C1117.33 27.884 1117.4 28.034 1117.36 28.274C1117.24 28.79 1116.96 29.348 1116.52 29.948C1116.08 30.548 1115.47 31.07 1114.68 31.514C1113.89 31.958 1112.94 32.18 1111.84 32.18C1110.6 32.18 1109.52 31.892 1108.6 31.316C1107.68 30.728 1106.98 29.912 1106.49 28.868C1106 27.812 1105.75 26.594 1105.75 25.214C1105.75 23.846 1106 22.652 1106.49 21.632C1106.98 20.612 1107.68 19.832 1108.6 19.292C1109.52 18.74 1110.6 18.464 1111.84 18.464ZM1118.6 18.968C1118.6 18.872 1118.63 18.794 1118.69 18.734C1118.76 18.674 1118.85 18.644 1118.96 18.644H1129.29C1129.53 18.644 1129.65 18.752 1129.65 18.968V20.642C1129.65 20.822 1129.54 20.912 1129.33 20.912H1125.96C1125.83 20.912 1125.76 20.972 1125.76 21.092V31.658C1125.76 31.886 1125.66 32 1125.46 32H1122.88C1122.7 32 1122.61 31.898 1122.61 31.694V21.146C1122.61 21.062 1122.59 21.002 1122.56 20.966C1122.53 20.93 1122.49 20.912 1122.41 20.912H1118.94C1118.71 20.912 1118.6 20.822 1118.6 20.642V18.968ZM1134.38 18.644C1134.57 18.644 1134.67 18.752 1134.67 18.968V31.568C1134.67 31.724 1134.63 31.838 1134.56 31.91C1134.49 31.97 1134.36 32 1134.18 32H1131.91C1131.77 32 1131.67 31.97 1131.61 31.91C1131.55 31.85 1131.52 31.754 1131.52 31.622V18.986C1131.52 18.758 1131.61 18.644 1131.8 18.644H1134.38ZM1142.92 32.18C1141.66 32.18 1140.56 31.91 1139.62 31.37C1138.7 30.818 1137.99 30.032 1137.48 29.012C1136.99 27.992 1136.74 26.78 1136.74 25.376C1136.74 23.96 1137 22.736 1137.5 21.704C1138 20.66 1138.72 19.862 1139.64 19.31C1140.58 18.746 1141.67 18.464 1142.92 18.464C1144.15 18.464 1145.23 18.746 1146.16 19.31C1147.08 19.862 1147.8 20.66 1148.3 21.704C1148.8 22.736 1149.06 23.954 1149.06 25.358C1149.06 26.75 1148.8 27.962 1148.3 28.994C1147.81 30.014 1147.1 30.8 1146.18 31.352C1145.25 31.904 1144.17 32.18 1142.92 32.18ZM1142.92 29.966C1143.91 29.966 1144.63 29.606 1145.08 28.886C1145.53 28.166 1145.76 27.002 1145.76 25.394C1145.76 23.75 1145.53 22.55 1145.06 21.794C1144.6 21.038 1143.89 20.66 1142.92 20.66C1141.92 20.66 1141.19 21.038 1140.72 21.794C1140.27 22.55 1140.04 23.75 1140.04 25.394C1140.04 27.002 1140.27 28.166 1140.72 28.886C1141.18 29.606 1141.91 29.966 1142.92 29.966ZM1162.04 18.644C1162.2 18.644 1162.28 18.734 1162.28 18.914V31.712C1162.28 31.796 1162.24 31.868 1162.17 31.928C1162.11 31.976 1162.03 32 1161.93 32H1160.12C1160.01 32 1159.92 31.988 1159.86 31.964C1159.8 31.94 1159.74 31.88 1159.67 31.784L1153.92 23.72C1153.88 23.66 1153.83 23.636 1153.78 23.648C1153.74 23.66 1153.73 23.696 1153.73 23.756V31.676V31.73C1153.73 31.826 1153.7 31.898 1153.64 31.946C1153.59 31.982 1153.5 32 1153.37 32H1151.49C1151.25 32 1151.13 31.898 1151.13 31.694V18.986C1151.13 18.758 1151.24 18.644 1151.46 18.644H1153.64C1153.78 18.644 1153.88 18.662 1153.94 18.698C1154 18.722 1154.07 18.794 1154.16 18.914L1159.45 26.456C1159.52 26.552 1159.58 26.6 1159.63 26.6C1159.69 26.6 1159.72 26.534 1159.72 26.402V18.968C1159.72 18.752 1159.83 18.644 1160.04 18.644H1162.04ZM1172.46 21.794C1172.15 21.446 1171.79 21.176 1171.38 20.984C1170.98 20.78 1170.46 20.678 1169.81 20.678C1169.08 20.678 1168.52 20.81 1168.14 21.074C1167.76 21.338 1167.56 21.686 1167.56 22.118C1167.56 22.742 1168.05 23.198 1169.02 23.486L1171.87 24.296C1172.93 24.596 1173.73 25.07 1174.24 25.718C1174.77 26.366 1175.03 27.146 1175.03 28.058C1175.03 28.898 1174.82 29.63 1174.39 30.254C1173.95 30.866 1173.33 31.34 1172.51 31.676C1171.71 32.012 1170.76 32.18 1169.67 32.18C1168.45 32.18 1167.34 31.976 1166.36 31.568C1165.37 31.148 1164.65 30.578 1164.2 29.858C1164.15 29.774 1164.13 29.696 1164.13 29.624C1164.13 29.528 1164.19 29.426 1164.31 29.318L1165.69 28.364C1165.81 28.292 1165.92 28.256 1166.02 28.256C1166.12 28.256 1166.21 28.304 1166.29 28.4C1166.73 28.976 1167.18 29.384 1167.64 29.624C1168.09 29.864 1168.7 29.984 1169.45 29.984C1170.26 29.984 1170.89 29.858 1171.34 29.606C1171.8 29.354 1172.03 28.976 1172.03 28.472C1172.03 28.148 1171.91 27.872 1171.69 27.644C1171.46 27.416 1171.07 27.218 1170.53 27.05L1167.82 26.276C1166.78 25.988 1165.99 25.508 1165.42 24.836C1164.86 24.152 1164.58 23.378 1164.58 22.514C1164.58 21.746 1164.79 21.056 1165.21 20.444C1165.64 19.832 1166.24 19.352 1167.02 19.004C1167.8 18.644 1168.7 18.464 1169.72 18.464C1170.73 18.464 1171.66 18.638 1172.5 18.986C1173.34 19.322 1173.98 19.778 1174.42 20.354C1174.49 20.45 1174.53 20.534 1174.53 20.606C1174.53 20.678 1174.49 20.744 1174.42 20.804L1172.91 21.92C1172.84 21.968 1172.78 21.992 1172.75 21.992C1172.69 21.992 1172.59 21.926 1172.46 21.794ZM1352.11 18.968C1352.11 18.872 1352.14 18.794 1352.2 18.734C1352.27 18.674 1352.36 18.644 1352.47 18.644H1362.8C1363.04 18.644 1363.16 18.752 1363.16 18.968V20.642C1363.16 20.822 1363.05 20.912 1362.83 20.912H1359.47C1359.34 20.912 1359.27 20.972 1359.27 21.092V31.658C1359.27 31.886 1359.17 32 1358.96 32H1356.39C1356.21 32 1356.12 31.898 1356.12 31.694V21.146C1356.12 21.062 1356.1 21.002 1356.07 20.966C1356.04 20.93 1355.99 20.912 1355.92 20.912H1352.45C1352.22 20.912 1352.11 20.822 1352.11 20.642V18.968ZM1368.41 26.294C1368.34 26.294 1368.28 26.318 1368.23 26.366C1368.19 26.414 1368.17 26.468 1368.17 26.528V31.586C1368.17 31.73 1368.13 31.838 1368.05 31.91C1367.98 31.97 1367.86 32 1367.69 32H1365.42C1365.28 32 1365.17 31.97 1365.11 31.91C1365.05 31.85 1365.02 31.754 1365.02 31.622V18.986C1365.02 18.758 1365.12 18.644 1365.31 18.644H1367.89C1368.08 18.644 1368.17 18.752 1368.17 18.968V23.576C1368.17 23.78 1368.26 23.882 1368.44 23.882H1372.6C1372.79 23.882 1372.89 23.786 1372.89 23.594V18.968C1372.89 18.752 1372.98 18.644 1373.16 18.644H1375.73C1375.94 18.644 1376.04 18.758 1376.04 18.986V31.622C1376.04 31.874 1375.91 32 1375.64 32H1373.36C1373.19 32 1373.07 31.97 1373 31.91C1372.93 31.85 1372.89 31.742 1372.89 31.586V26.528C1372.89 26.456 1372.87 26.402 1372.82 26.366C1372.78 26.318 1372.72 26.294 1372.64 26.294H1368.41ZM1378.54 18.986C1378.54 18.758 1378.64 18.644 1378.83 18.644H1387.9C1388.08 18.644 1388.17 18.746 1388.17 18.95L1388.15 20.57C1388.15 20.822 1388.03 20.948 1387.78 20.948H1382.03C1381.81 20.948 1381.69 21.044 1381.69 21.236V23.846C1381.69 24.05 1381.78 24.152 1381.96 24.152H1385.78C1385.98 24.152 1386.08 24.248 1386.08 24.44V26.168C1386.08 26.336 1385.99 26.42 1385.8 26.42H1381.94C1381.78 26.42 1381.69 26.492 1381.69 26.636V29.462C1381.69 29.546 1381.7 29.606 1381.73 29.642C1381.76 29.678 1381.82 29.696 1381.89 29.696H1388.05C1388.26 29.696 1388.37 29.786 1388.37 29.966V31.676C1388.37 31.892 1388.25 32 1388.01 32H1378.94C1378.79 32 1378.69 31.97 1378.63 31.91C1378.57 31.85 1378.54 31.754 1378.54 31.622V18.986Z" fill="#00FF19"/>
</svg>
