<svg width="1448" height="48" viewBox="0 0 1448 48" fill="none" xmlns="http://www.w3.org/2000/svg">
<rect x="26" width="1328" height="48" fill="black"/>
<path d="M0.558 19.022C0.558 18.914 0.588 18.824 0.648 18.752C0.72 18.68 0.822 18.644 0.954 18.644H11.52C11.652 18.644 11.748 18.68 11.808 18.752C11.88 18.824 11.916 18.914 11.916 19.022V20.93C11.916 21.134 11.796 21.236 11.556 21.236H8.28C8.148 21.236 8.082 21.296 8.082 21.416V31.64C8.082 31.88 7.974 32 7.758 32H4.734C4.53 32 4.428 31.886 4.428 31.658V21.488C4.428 21.392 4.416 21.326 4.392 21.29C4.368 21.254 4.32 21.236 4.248 21.236H0.936C0.684 21.236 0.558 21.134 0.558 20.93V19.022ZM17.4665 26.492C17.3945 26.492 17.3345 26.516 17.2865 26.564C17.2385 26.6 17.2145 26.654 17.2145 26.726V31.532C17.2145 31.7 17.1725 31.82 17.0885 31.892C17.0045 31.964 16.8665 32 16.6745 32H14.0105C13.8425 32 13.7285 31.97 13.6685 31.91C13.6085 31.838 13.5785 31.73 13.5785 31.586V19.022C13.5785 18.902 13.6025 18.812 13.6505 18.752C13.7105 18.68 13.7885 18.644 13.8845 18.644H16.9085C17.0045 18.644 17.0765 18.674 17.1245 18.734C17.1845 18.794 17.2145 18.878 17.2145 18.986V23.378C17.2145 23.606 17.3105 23.72 17.5025 23.72H21.0845C21.2765 23.72 21.3725 23.606 21.3725 23.378V18.986C21.3725 18.878 21.3965 18.794 21.4445 18.734C21.5045 18.674 21.5825 18.644 21.6785 18.644H24.7025C24.7985 18.644 24.8705 18.68 24.9185 18.752C24.9785 18.812 25.0085 18.902 25.0085 19.022V31.586C25.0085 31.73 24.9785 31.838 24.9185 31.91C24.8585 31.97 24.7445 32 24.5765 32H21.9125C21.7205 32 21.5825 31.964 21.4985 31.892C21.4145 31.82 21.3725 31.7 21.3725 31.532V26.726C21.3725 26.654 21.3485 26.6 21.3005 26.564C21.2645 26.516 21.2045 26.492 21.1205 26.492H17.4665ZM27.2015 19.022C27.2015 18.77 27.3035 18.644 27.5075 18.644H36.9215C37.1135 18.644 37.2095 18.758 37.2095 18.986V20.858C37.2095 20.99 37.1735 21.098 37.1015 21.182C37.0295 21.254 36.9215 21.29 36.7775 21.29H31.2155C30.9635 21.29 30.8375 21.398 30.8375 21.614V23.648C30.8375 23.756 30.8615 23.84 30.9095 23.9C30.9695 23.96 31.0415 23.99 31.1255 23.99H34.6355C34.8635 23.99 34.9775 24.098 34.9775 24.314V26.312C34.9775 26.492 34.8815 26.582 34.6895 26.582H31.1075C30.9275 26.582 30.8375 26.666 30.8375 26.834V29.12C30.8375 29.204 30.8495 29.264 30.8735 29.3C30.9095 29.336 30.9635 29.354 31.0355 29.354H37.0295C37.1495 29.354 37.2395 29.378 37.2995 29.426C37.3595 29.474 37.3895 29.552 37.3895 29.66V31.64C37.3895 31.88 37.2635 32 37.0115 32H27.6335C27.4775 32 27.3635 31.97 27.2915 31.91C27.2315 31.838 27.2015 31.73 27.2015 31.586V19.022ZM48.6073 18.464C49.5553 18.464 50.4253 18.638 51.2173 18.986C52.0093 19.334 52.6573 19.82 53.1613 20.444C53.6653 21.056 53.9893 21.746 54.1333 22.514L54.1693 22.82C54.1693 22.916 54.1513 22.982 54.1153 23.018C54.0793 23.042 54.0133 23.06 53.9173 23.072L51.1093 23.27C51.0013 23.27 50.9293 23.252 50.8933 23.216C50.8693 23.168 50.8393 23.078 50.8033 22.946C50.5273 21.626 49.8253 20.966 48.6973 20.966C47.0053 20.966 46.1593 22.388 46.1593 25.232C46.1593 26.744 46.3693 27.842 46.7893 28.526C47.2093 29.198 47.8453 29.534 48.6973 29.534C49.3693 29.534 49.9393 29.366 50.4073 29.03C50.8873 28.682 51.2833 28.118 51.5953 27.338C51.6313 27.242 51.7213 27.194 51.8653 27.194C51.9373 27.194 51.9973 27.2 52.0453 27.212L54.0793 27.608C54.1513 27.632 54.2053 27.668 54.2413 27.716C54.2893 27.764 54.3133 27.848 54.3133 27.968C54.3133 28.04 54.3073 28.1 54.2953 28.148C54.1993 28.628 53.9293 29.18 53.4853 29.804C53.0533 30.428 52.4233 30.98 51.5953 31.46C50.7793 31.94 49.7773 32.18 48.5893 32.18C47.3413 32.18 46.2433 31.886 45.2953 31.298C44.3593 30.698 43.6333 29.87 43.1173 28.814C42.6133 27.758 42.3613 26.546 42.3613 25.178C42.3613 23.822 42.6133 22.64 43.1173 21.632C43.6333 20.612 44.3593 19.832 45.2953 19.292C46.2313 18.74 47.3353 18.464 48.6073 18.464ZM55.9593 19.022C55.9593 18.902 55.9833 18.812 56.0313 18.752C56.0913 18.68 56.1693 18.644 56.2653 18.644H59.2893C59.4933 18.644 59.5953 18.758 59.5953 18.986V29.12C59.5953 29.204 59.6073 29.264 59.6313 29.3C59.6673 29.336 59.7213 29.354 59.7933 29.354H65.3733C65.6253 29.354 65.7513 29.456 65.7513 29.66V31.64C65.7513 31.748 65.7153 31.838 65.6433 31.91C65.5713 31.97 65.4693 32 65.3373 32H56.3913C56.2233 32 56.1093 31.97 56.0493 31.91C55.9893 31.838 55.9593 31.73 55.9593 31.586V19.022ZM72.1817 32.18C70.8977 32.18 69.7757 31.904 68.8157 31.352C67.8677 30.8 67.1357 30.014 66.6197 28.994C66.1037 27.962 65.8457 26.75 65.8457 25.358C65.8457 23.966 66.1037 22.754 66.6197 21.722C67.1477 20.678 67.8857 19.874 68.8337 19.31C69.7937 18.746 70.9097 18.464 72.1817 18.464C73.4417 18.464 74.5457 18.746 75.4937 19.31C76.4537 19.874 77.1917 20.678 77.7077 21.722C78.2357 22.754 78.4997 23.966 78.4997 25.358C78.4997 26.738 78.2417 27.944 77.7257 28.976C77.2097 29.996 76.4717 30.788 75.5117 31.352C74.5637 31.904 73.4537 32.18 72.1817 32.18ZM72.1997 29.66C73.0757 29.66 73.7057 29.33 74.0897 28.67C74.4857 28.01 74.6837 26.924 74.6837 25.412C74.6837 23.852 74.4797 22.724 74.0717 22.028C73.6757 21.32 73.0457 20.966 72.1817 20.966C71.3057 20.966 70.6637 21.32 70.2557 22.028C69.8597 22.724 69.6617 23.852 69.6617 25.412C69.6617 26.924 69.8597 28.01 70.2557 28.67C70.6517 29.33 71.2997 29.66 72.1997 29.66ZM91.2679 26.888C91.2679 28.784 90.7879 30.14 89.8279 30.956C88.8679 31.772 87.4879 32.18 85.6879 32.18C83.6839 32.18 82.2499 31.718 81.3859 30.794C80.5339 29.858 80.1079 28.436 80.1079 26.528V19.022C80.1079 18.77 80.2159 18.644 80.4319 18.644H83.4379C83.6419 18.644 83.7439 18.758 83.7439 18.986V26.96C83.7439 27.884 83.9299 28.556 84.3019 28.976C84.6859 29.396 85.2379 29.606 85.9579 29.606C87.4939 29.606 88.2619 28.706 88.2619 26.906V19.022C88.2619 18.77 88.3699 18.644 88.5859 18.644H90.9799C91.1719 18.644 91.2679 18.758 91.2679 18.986V26.888ZM95.6533 18.644C96.9613 18.644 97.7893 18.65 98.1373 18.662C100.501 18.746 102.271 19.37 103.447 20.534C104.635 21.686 105.229 23.27 105.229 25.286C105.229 26.63 104.959 27.806 104.419 28.814C103.891 29.822 103.093 30.608 102.025 31.172C100.957 31.724 99.6493 32 98.1013 32H93.7633C93.5953 32 93.4753 31.964 93.4033 31.892C93.3313 31.82 93.2953 31.694 93.2953 31.514V19.058C93.2953 18.902 93.3253 18.794 93.3853 18.734C93.4453 18.674 93.5593 18.644 93.7273 18.644H95.6533ZM97.0933 21.182C96.9853 21.182 96.9313 21.266 96.9313 21.434V29.21C96.9313 29.306 96.9433 29.372 96.9673 29.408C97.0033 29.444 97.0693 29.462 97.1653 29.462H97.3993C98.7433 29.462 99.7453 29.138 100.405 28.49C101.077 27.83 101.413 26.75 101.413 25.25C101.413 23.906 101.143 22.922 100.603 22.298C100.075 21.674 99.2713 21.32 98.1913 21.236L97.0933 21.182ZM258.43 18.968C258.43 18.872 258.46 18.794 258.52 18.734C258.592 18.674 258.682 18.644 258.79 18.644H269.122C269.362 18.644 269.482 18.752 269.482 18.968V20.642C269.482 20.822 269.374 20.912 269.158 20.912H265.792C265.66 20.912 265.594 20.972 265.594 21.092V31.658C265.594 31.886 265.492 32 265.288 32H262.714C262.534 32 262.444 31.898 262.444 31.694V21.146C262.444 21.062 262.426 21.002 262.39 20.966C262.366 20.93 262.318 20.912 262.246 20.912H258.772C258.544 20.912 258.43 20.822 258.43 20.642V18.968ZM274.732 26.294C274.66 26.294 274.6 26.318 274.552 26.366C274.516 26.414 274.498 26.468 274.498 26.528V31.586C274.498 31.73 274.456 31.838 274.372 31.91C274.3 31.97 274.18 32 274.012 32H271.744C271.6 32 271.498 31.97 271.438 31.91C271.378 31.85 271.348 31.754 271.348 31.622V18.986C271.348 18.758 271.444 18.644 271.636 18.644H274.21C274.402 18.644 274.498 18.752 274.498 18.968V23.576C274.498 23.78 274.588 23.882 274.768 23.882H278.926C279.118 23.882 279.214 23.786 279.214 23.594V18.968C279.214 18.752 279.304 18.644 279.484 18.644H282.058C282.262 18.644 282.364 18.758 282.364 18.986V31.622C282.364 31.874 282.232 32 281.968 32H279.682C279.514 32 279.394 31.97 279.322 31.91C279.25 31.85 279.214 31.742 279.214 31.586V26.528C279.214 26.456 279.19 26.402 279.142 26.366C279.106 26.318 279.046 26.294 278.962 26.294H274.732ZM284.865 18.986C284.865 18.758 284.961 18.644 285.153 18.644H294.225C294.405 18.644 294.495 18.746 294.495 18.95L294.477 20.57C294.477 20.822 294.351 20.948 294.099 20.948H288.357C288.129 20.948 288.015 21.044 288.015 21.236V23.846C288.015 24.05 288.105 24.152 288.285 24.152H292.101C292.305 24.152 292.407 24.248 292.407 24.44V26.168C292.407 26.336 292.311 26.42 292.119 26.42H288.267C288.099 26.42 288.015 26.492 288.015 26.636V29.462C288.015 29.546 288.027 29.606 288.051 29.642C288.087 29.678 288.141 29.696 288.213 29.696H294.369C294.585 29.696 294.693 29.786 294.693 29.966V31.676C294.693 31.892 294.573 32 294.333 32H285.261C285.117 32 285.015 31.97 284.955 31.91C284.895 31.85 284.865 31.754 284.865 31.622V18.986ZM305.968 18.464C306.88 18.464 307.72 18.638 308.488 18.986C309.256 19.334 309.886 19.808 310.378 20.408C310.882 21.008 311.2 21.68 311.332 22.424C311.356 22.508 311.368 22.604 311.368 22.712C311.368 22.784 311.35 22.832 311.314 22.856C311.278 22.88 311.224 22.898 311.152 22.91L308.722 23.072C308.614 23.072 308.542 23.054 308.506 23.018C308.482 22.982 308.458 22.91 308.434 22.802C308.302 22.142 308.038 21.62 307.642 21.236C307.246 20.852 306.718 20.66 306.058 20.66C304.138 20.66 303.178 22.196 303.178 25.268C303.178 26.864 303.418 28.028 303.898 28.76C304.378 29.492 305.11 29.858 306.094 29.858C306.814 29.858 307.42 29.678 307.912 29.318C308.416 28.958 308.824 28.37 309.136 27.554C309.172 27.47 309.25 27.428 309.37 27.428C309.442 27.428 309.496 27.434 309.532 27.446L311.296 27.824C311.464 27.884 311.53 28.034 311.494 28.274C311.374 28.79 311.092 29.348 310.648 29.948C310.216 30.548 309.604 31.07 308.812 31.514C308.02 31.958 307.072 32.18 305.968 32.18C304.732 32.18 303.652 31.892 302.728 31.316C301.816 30.728 301.114 29.912 300.622 28.868C300.13 27.812 299.884 26.594 299.884 25.214C299.884 23.846 300.13 22.652 300.622 21.632C301.114 20.612 301.816 19.832 302.728 19.292C303.652 18.74 304.732 18.464 305.968 18.464ZM313.395 18.986C313.395 18.758 313.491 18.644 313.683 18.644H316.257C316.449 18.644 316.545 18.752 316.545 18.968V29.462C316.545 29.546 316.557 29.606 316.581 29.642C316.617 29.678 316.671 29.696 316.743 29.696H322.485C322.701 29.696 322.809 29.786 322.809 29.966V31.676C322.809 31.772 322.779 31.85 322.719 31.91C322.659 31.97 322.575 32 322.467 32H313.791C313.647 32 313.545 31.97 313.485 31.91C313.425 31.85 313.395 31.754 313.395 31.622V18.986ZM329.261 32.18C328.001 32.18 326.903 31.91 325.967 31.37C325.043 30.818 324.329 30.032 323.825 29.012C323.333 27.992 323.087 26.78 323.087 25.376C323.087 23.96 323.339 22.736 323.843 21.704C324.347 20.66 325.061 19.862 325.985 19.31C326.921 18.746 328.013 18.464 329.261 18.464C330.497 18.464 331.577 18.746 332.501 19.31C333.425 19.862 334.139 20.66 334.643 21.704C335.147 22.736 335.399 23.954 335.399 25.358C335.399 26.75 335.147 27.962 334.643 28.994C334.151 30.014 333.443 30.8 332.519 31.352C331.595 31.904 330.509 32.18 329.261 32.18ZM329.261 29.966C330.257 29.966 330.977 29.606 331.421 28.886C331.877 28.166 332.105 27.002 332.105 25.394C332.105 23.75 331.871 22.55 331.403 21.794C330.947 21.038 330.233 20.66 329.261 20.66C328.265 20.66 327.533 21.038 327.065 21.794C326.609 22.55 326.381 23.75 326.381 25.394C326.381 27.002 326.609 28.166 327.065 28.886C327.521 29.606 328.253 29.966 329.261 29.966ZM348.079 27.05C348.079 28.874 347.617 30.188 346.693 30.992C345.769 31.784 344.437 32.18 342.697 32.18C340.789 32.18 339.415 31.73 338.575 30.83C337.735 29.93 337.315 28.562 337.315 26.726V19.004C337.315 18.896 337.339 18.812 337.387 18.752C337.447 18.68 337.519 18.644 337.603 18.644H340.195C340.375 18.644 340.465 18.752 340.465 18.968V27.122C340.465 28.094 340.669 28.808 341.077 29.264C341.497 29.708 342.115 29.93 342.931 29.93C344.635 29.93 345.487 28.976 345.487 27.068V18.986C345.487 18.758 345.577 18.644 345.757 18.644H347.809C347.989 18.644 348.079 18.752 348.079 18.968V27.05ZM350.845 18.644C352.825 18.644 354.163 18.65 354.859 18.662C357.235 18.734 359.005 19.34 360.169 20.48C361.333 21.62 361.915 23.216 361.915 25.268C361.915 27.38 361.309 29.03 360.097 30.218C358.885 31.406 357.109 32 354.769 32H350.863C350.719 32 350.611 31.97 350.539 31.91C350.479 31.838 350.449 31.724 350.449 31.568V19.004C350.449 18.872 350.479 18.782 350.539 18.734C350.599 18.674 350.701 18.644 350.845 18.644ZM353.761 20.876C353.653 20.876 353.599 20.96 353.599 21.128V29.534C353.599 29.63 353.611 29.696 353.635 29.732C353.671 29.768 353.737 29.786 353.833 29.786H354.175C355.687 29.786 356.803 29.438 357.523 28.742C358.255 28.034 358.621 26.87 358.621 25.25C358.621 23.75 358.315 22.67 357.703 22.01C357.091 21.35 356.143 20.984 354.859 20.912L353.761 20.876ZM518.938 18.968C518.938 18.872 518.968 18.794 519.028 18.734C519.1 18.674 519.19 18.644 519.298 18.644H529.63C529.87 18.644 529.99 18.752 529.99 18.968V20.642C529.99 20.822 529.882 20.912 529.666 20.912H526.3C526.168 20.912 526.102 20.972 526.102 21.092V31.658C526.102 31.886 526 32 525.796 32H523.222C523.042 32 522.952 31.898 522.952 31.694V21.146C522.952 21.062 522.934 21.002 522.898 20.966C522.874 20.93 522.826 20.912 522.754 20.912H519.28C519.052 20.912 518.938 20.822 518.938 20.642V18.968ZM535.24 26.294C535.168 26.294 535.108 26.318 535.06 26.366C535.024 26.414 535.006 26.468 535.006 26.528V31.586C535.006 31.73 534.964 31.838 534.88 31.91C534.808 31.97 534.688 32 534.52 32H532.252C532.108 32 532.006 31.97 531.946 31.91C531.886 31.85 531.856 31.754 531.856 31.622V18.986C531.856 18.758 531.952 18.644 532.144 18.644H534.718C534.91 18.644 535.006 18.752 535.006 18.968V23.576C535.006 23.78 535.096 23.882 535.276 23.882H539.434C539.626 23.882 539.722 23.786 539.722 23.594V18.968C539.722 18.752 539.812 18.644 539.992 18.644H542.566C542.77 18.644 542.872 18.758 542.872 18.986V31.622C542.872 31.874 542.74 32 542.476 32H540.19C540.022 32 539.902 31.97 539.83 31.91C539.758 31.85 539.722 31.742 539.722 31.586V26.528C539.722 26.456 539.698 26.402 539.65 26.366C539.614 26.318 539.554 26.294 539.47 26.294H535.24ZM545.373 18.986C545.373 18.758 545.469 18.644 545.661 18.644H554.733C554.913 18.644 555.003 18.746 555.003 18.95L554.985 20.57C554.985 20.822 554.859 20.948 554.607 20.948H548.865C548.637 20.948 548.523 21.044 548.523 21.236V23.846C548.523 24.05 548.613 24.152 548.793 24.152H552.609C552.813 24.152 552.915 24.248 552.915 24.44V26.168C552.915 26.336 552.819 26.42 552.627 26.42H548.775C548.607 26.42 548.523 26.492 548.523 26.636V29.462C548.523 29.546 548.535 29.606 548.559 29.642C548.595 29.678 548.649 29.696 548.721 29.696H554.877C555.093 29.696 555.201 29.786 555.201 29.966V31.676C555.201 31.892 555.081 32 554.841 32H545.769C545.625 32 545.523 31.97 545.463 31.91C545.403 31.85 545.373 31.754 545.373 31.622V18.986ZM566.476 18.464C567.388 18.464 568.228 18.638 568.996 18.986C569.764 19.334 570.394 19.808 570.886 20.408C571.39 21.008 571.708 21.68 571.84 22.424C571.864 22.508 571.876 22.604 571.876 22.712C571.876 22.784 571.858 22.832 571.822 22.856C571.786 22.88 571.732 22.898 571.66 22.91L569.23 23.072C569.122 23.072 569.05 23.054 569.014 23.018C568.99 22.982 568.966 22.91 568.942 22.802C568.81 22.142 568.546 21.62 568.15 21.236C567.754 20.852 567.226 20.66 566.566 20.66C564.646 20.66 563.686 22.196 563.686 25.268C563.686 26.864 563.926 28.028 564.406 28.76C564.886 29.492 565.618 29.858 566.602 29.858C567.322 29.858 567.928 29.678 568.42 29.318C568.924 28.958 569.332 28.37 569.644 27.554C569.68 27.47 569.758 27.428 569.878 27.428C569.95 27.428 570.004 27.434 570.04 27.446L571.804 27.824C571.972 27.884 572.038 28.034 572.002 28.274C571.882 28.79 571.6 29.348 571.156 29.948C570.724 30.548 570.112 31.07 569.32 31.514C568.528 31.958 567.58 32.18 566.476 32.18C565.24 32.18 564.16 31.892 563.236 31.316C562.324 30.728 561.622 29.912 561.13 28.868C560.638 27.812 560.392 26.594 560.392 25.214C560.392 23.846 560.638 22.652 561.13 21.632C561.622 20.612 562.324 19.832 563.236 19.292C564.16 18.74 565.24 18.464 566.476 18.464ZM573.903 18.986C573.903 18.758 573.999 18.644 574.191 18.644H576.765C576.957 18.644 577.053 18.752 577.053 18.968V29.462C577.053 29.546 577.065 29.606 577.089 29.642C577.125 29.678 577.179 29.696 577.251 29.696H582.993C583.209 29.696 583.317 29.786 583.317 29.966V31.676C583.317 31.772 583.287 31.85 583.227 31.91C583.167 31.97 583.083 32 582.975 32H574.299C574.155 32 574.053 31.97 573.993 31.91C573.933 31.85 573.903 31.754 573.903 31.622V18.986ZM589.769 32.18C588.509 32.18 587.411 31.91 586.475 31.37C585.551 30.818 584.837 30.032 584.333 29.012C583.841 27.992 583.595 26.78 583.595 25.376C583.595 23.96 583.847 22.736 584.351 21.704C584.855 20.66 585.569 19.862 586.493 19.31C587.429 18.746 588.521 18.464 589.769 18.464C591.005 18.464 592.085 18.746 593.009 19.31C593.933 19.862 594.647 20.66 595.151 21.704C595.655 22.736 595.907 23.954 595.907 25.358C595.907 26.75 595.655 27.962 595.151 28.994C594.659 30.014 593.951 30.8 593.027 31.352C592.103 31.904 591.017 32.18 589.769 32.18ZM589.769 29.966C590.765 29.966 591.485 29.606 591.929 28.886C592.385 28.166 592.613 27.002 592.613 25.394C592.613 23.75 592.379 22.55 591.911 21.794C591.455 21.038 590.741 20.66 589.769 20.66C588.773 20.66 588.041 21.038 587.573 21.794C587.117 22.55 586.889 23.75 586.889 25.394C586.889 27.002 587.117 28.166 587.573 28.886C588.029 29.606 588.761 29.966 589.769 29.966ZM608.587 27.05C608.587 28.874 608.125 30.188 607.201 30.992C606.277 31.784 604.945 32.18 603.205 32.18C601.297 32.18 599.923 31.73 599.083 30.83C598.243 29.93 597.823 28.562 597.823 26.726V19.004C597.823 18.896 597.847 18.812 597.895 18.752C597.955 18.68 598.027 18.644 598.111 18.644H600.703C600.883 18.644 600.973 18.752 600.973 18.968V27.122C600.973 28.094 601.177 28.808 601.585 29.264C602.005 29.708 602.623 29.93 603.439 29.93C605.143 29.93 605.995 28.976 605.995 27.068V18.986C605.995 18.758 606.085 18.644 606.265 18.644H608.317C608.497 18.644 608.587 18.752 608.587 18.968V27.05ZM611.353 18.644C613.333 18.644 614.671 18.65 615.367 18.662C617.743 18.734 619.513 19.34 620.677 20.48C621.841 21.62 622.423 23.216 622.423 25.268C622.423 27.38 621.817 29.03 620.605 30.218C619.393 31.406 617.617 32 615.277 32H611.371C611.227 32 611.119 31.97 611.047 31.91C610.987 31.838 610.957 31.724 610.957 31.568V19.004C610.957 18.872 610.987 18.782 611.047 18.734C611.107 18.674 611.209 18.644 611.353 18.644ZM614.269 20.876C614.161 20.876 614.107 20.96 614.107 21.128V29.534C614.107 29.63 614.119 29.696 614.143 29.732C614.179 29.768 614.245 29.786 614.341 29.786H614.683C616.195 29.786 617.311 29.438 618.031 28.742C618.763 28.034 619.129 26.87 619.129 25.25C619.129 23.75 618.823 22.67 618.211 22.01C617.599 21.35 616.651 20.984 615.367 20.912L614.269 20.876ZM779.446 18.968C779.446 18.872 779.476 18.794 779.536 18.734C779.608 18.674 779.698 18.644 779.806 18.644H790.138C790.378 18.644 790.498 18.752 790.498 18.968V20.642C790.498 20.822 790.39 20.912 790.174 20.912H786.808C786.676 20.912 786.61 20.972 786.61 21.092V31.658C786.61 31.886 786.508 32 786.304 32H783.73C783.55 32 783.46 31.898 783.46 31.694V21.146C783.46 21.062 783.442 21.002 783.406 20.966C783.382 20.93 783.334 20.912 783.262 20.912H779.788C779.56 20.912 779.446 20.822 779.446 20.642V18.968ZM795.748 26.294C795.676 26.294 795.616 26.318 795.568 26.366C795.532 26.414 795.514 26.468 795.514 26.528V31.586C795.514 31.73 795.472 31.838 795.388 31.91C795.316 31.97 795.196 32 795.028 32H792.76C792.616 32 792.514 31.97 792.454 31.91C792.394 31.85 792.364 31.754 792.364 31.622V18.986C792.364 18.758 792.46 18.644 792.652 18.644H795.226C795.418 18.644 795.514 18.752 795.514 18.968V23.576C795.514 23.78 795.604 23.882 795.784 23.882H799.942C800.134 23.882 800.23 23.786 800.23 23.594V18.968C800.23 18.752 800.32 18.644 800.5 18.644H803.074C803.278 18.644 803.38 18.758 803.38 18.986V31.622C803.38 31.874 803.248 32 802.984 32H800.698C800.53 32 800.41 31.97 800.338 31.91C800.266 31.85 800.23 31.742 800.23 31.586V26.528C800.23 26.456 800.206 26.402 800.158 26.366C800.122 26.318 800.062 26.294 799.978 26.294H795.748ZM805.881 18.986C805.881 18.758 805.977 18.644 806.169 18.644H815.241C815.421 18.644 815.511 18.746 815.511 18.95L815.493 20.57C815.493 20.822 815.367 20.948 815.115 20.948H809.373C809.145 20.948 809.031 21.044 809.031 21.236V23.846C809.031 24.05 809.121 24.152 809.301 24.152H813.117C813.321 24.152 813.423 24.248 813.423 24.44V26.168C813.423 26.336 813.327 26.42 813.135 26.42H809.283C809.115 26.42 809.031 26.492 809.031 26.636V29.462C809.031 29.546 809.043 29.606 809.067 29.642C809.103 29.678 809.157 29.696 809.229 29.696H815.385C815.601 29.696 815.709 29.786 815.709 29.966V31.676C815.709 31.892 815.589 32 815.349 32H806.277C806.133 32 806.031 31.97 805.971 31.91C805.911 31.85 805.881 31.754 805.881 31.622V18.986ZM826.983 18.464C827.895 18.464 828.735 18.638 829.503 18.986C830.271 19.334 830.901 19.808 831.393 20.408C831.897 21.008 832.215 21.68 832.347 22.424C832.371 22.508 832.383 22.604 832.383 22.712C832.383 22.784 832.365 22.832 832.329 22.856C832.293 22.88 832.239 22.898 832.167 22.91L829.737 23.072C829.629 23.072 829.557 23.054 829.521 23.018C829.497 22.982 829.473 22.91 829.449 22.802C829.317 22.142 829.053 21.62 828.657 21.236C828.261 20.852 827.733 20.66 827.073 20.66C825.153 20.66 824.193 22.196 824.193 25.268C824.193 26.864 824.433 28.028 824.913 28.76C825.393 29.492 826.125 29.858 827.109 29.858C827.829 29.858 828.435 29.678 828.927 29.318C829.431 28.958 829.839 28.37 830.151 27.554C830.187 27.47 830.265 27.428 830.385 27.428C830.457 27.428 830.511 27.434 830.547 27.446L832.311 27.824C832.479 27.884 832.545 28.034 832.509 28.274C832.389 28.79 832.107 29.348 831.663 29.948C831.231 30.548 830.619 31.07 829.827 31.514C829.035 31.958 828.087 32.18 826.983 32.18C825.747 32.18 824.667 31.892 823.743 31.316C822.831 30.728 822.129 29.912 821.637 28.868C821.145 27.812 820.899 26.594 820.899 25.214C820.899 23.846 821.145 22.652 821.637 21.632C822.129 20.612 822.831 19.832 823.743 19.292C824.667 18.74 825.747 18.464 826.983 18.464ZM834.41 18.986C834.41 18.758 834.506 18.644 834.698 18.644H837.272C837.464 18.644 837.56 18.752 837.56 18.968V29.462C837.56 29.546 837.572 29.606 837.596 29.642C837.632 29.678 837.686 29.696 837.758 29.696H843.5C843.716 29.696 843.824 29.786 843.824 29.966V31.676C843.824 31.772 843.794 31.85 843.734 31.91C843.674 31.97 843.59 32 843.482 32H834.806C834.662 32 834.56 31.97 834.5 31.91C834.44 31.85 834.41 31.754 834.41 31.622V18.986ZM850.277 32.18C849.017 32.18 847.919 31.91 846.983 31.37C846.059 30.818 845.345 30.032 844.841 29.012C844.349 27.992 844.103 26.78 844.103 25.376C844.103 23.96 844.355 22.736 844.859 21.704C845.363 20.66 846.077 19.862 847.001 19.31C847.937 18.746 849.029 18.464 850.277 18.464C851.513 18.464 852.593 18.746 853.517 19.31C854.441 19.862 855.155 20.66 855.659 21.704C856.163 22.736 856.415 23.954 856.415 25.358C856.415 26.75 856.163 27.962 855.659 28.994C855.167 30.014 854.459 30.8 853.535 31.352C852.611 31.904 851.525 32.18 850.277 32.18ZM850.277 29.966C851.273 29.966 851.993 29.606 852.437 28.886C852.893 28.166 853.121 27.002 853.121 25.394C853.121 23.75 852.887 22.55 852.419 21.794C851.963 21.038 851.249 20.66 850.277 20.66C849.281 20.66 848.549 21.038 848.081 21.794C847.625 22.55 847.397 23.75 847.397 25.394C847.397 27.002 847.625 28.166 848.081 28.886C848.537 29.606 849.269 29.966 850.277 29.966ZM869.094 27.05C869.094 28.874 868.632 30.188 867.708 30.992C866.784 31.784 865.452 32.18 863.712 32.18C861.804 32.18 860.43 31.73 859.59 30.83C858.75 29.93 858.33 28.562 858.33 26.726V19.004C858.33 18.896 858.354 18.812 858.402 18.752C858.462 18.68 858.534 18.644 858.618 18.644H861.21C861.39 18.644 861.48 18.752 861.48 18.968V27.122C861.48 28.094 861.684 28.808 862.092 29.264C862.512 29.708 863.13 29.93 863.946 29.93C865.65 29.93 866.502 28.976 866.502 27.068V18.986C866.502 18.758 866.592 18.644 866.772 18.644H868.824C869.004 18.644 869.094 18.752 869.094 18.968V27.05ZM871.861 18.644C873.841 18.644 875.179 18.65 875.875 18.662C878.251 18.734 880.021 19.34 881.185 20.48C882.349 21.62 882.931 23.216 882.931 25.268C882.931 27.38 882.325 29.03 881.113 30.218C879.901 31.406 878.125 32 875.785 32H871.879C871.735 32 871.627 31.97 871.555 31.91C871.495 31.838 871.465 31.724 871.465 31.568V19.004C871.465 18.872 871.495 18.782 871.555 18.734C871.615 18.674 871.717 18.644 871.861 18.644ZM874.777 20.876C874.669 20.876 874.615 20.96 874.615 21.128V29.534C874.615 29.63 874.627 29.696 874.651 29.732C874.687 29.768 874.753 29.786 874.849 29.786H875.191C876.703 29.786 877.819 29.438 878.539 28.742C879.271 28.034 879.637 26.87 879.637 25.25C879.637 23.75 879.331 22.67 878.719 22.01C878.107 21.35 877.159 20.984 875.875 20.912L874.777 20.876ZM1039.95 18.968C1039.95 18.872 1039.98 18.794 1040.04 18.734C1040.12 18.674 1040.21 18.644 1040.31 18.644H1050.65C1050.89 18.644 1051.01 18.752 1051.01 18.968V20.642C1051.01 20.822 1050.9 20.912 1050.68 20.912H1047.32C1047.18 20.912 1047.12 20.972 1047.12 21.092V31.658C1047.12 31.886 1047.02 32 1046.81 32H1044.24C1044.06 32 1043.97 31.898 1043.97 31.694V21.146C1043.97 21.062 1043.95 21.002 1043.91 20.966C1043.89 20.93 1043.84 20.912 1043.77 20.912H1040.3C1040.07 20.912 1039.95 20.822 1039.95 20.642V18.968ZM1056.26 26.294C1056.18 26.294 1056.12 26.318 1056.08 26.366C1056.04 26.414 1056.02 26.468 1056.02 26.528V31.586C1056.02 31.73 1055.98 31.838 1055.9 31.91C1055.82 31.97 1055.7 32 1055.54 32H1053.27C1053.12 32 1053.02 31.97 1052.96 31.91C1052.9 31.85 1052.87 31.754 1052.87 31.622V18.986C1052.87 18.758 1052.97 18.644 1053.16 18.644H1055.73C1055.93 18.644 1056.02 18.752 1056.02 18.968V23.576C1056.02 23.78 1056.11 23.882 1056.29 23.882H1060.45C1060.64 23.882 1060.74 23.786 1060.74 23.594V18.968C1060.74 18.752 1060.83 18.644 1061.01 18.644H1063.58C1063.79 18.644 1063.89 18.758 1063.89 18.986V31.622C1063.89 31.874 1063.76 32 1063.49 32H1061.21C1061.04 32 1060.92 31.97 1060.85 31.91C1060.77 31.85 1060.74 31.742 1060.74 31.586V26.528C1060.74 26.456 1060.71 26.402 1060.67 26.366C1060.63 26.318 1060.57 26.294 1060.49 26.294H1056.26ZM1066.39 18.986C1066.39 18.758 1066.48 18.644 1066.68 18.644H1075.75C1075.93 18.644 1076.02 18.746 1076.02 18.95L1076 20.57C1076 20.822 1075.87 20.948 1075.62 20.948H1069.88C1069.65 20.948 1069.54 21.044 1069.54 21.236V23.846C1069.54 24.05 1069.63 24.152 1069.81 24.152H1073.62C1073.83 24.152 1073.93 24.248 1073.93 24.44V26.168C1073.93 26.336 1073.83 26.42 1073.64 26.42H1069.79C1069.62 26.42 1069.54 26.492 1069.54 26.636V29.462C1069.54 29.546 1069.55 29.606 1069.57 29.642C1069.61 29.678 1069.66 29.696 1069.74 29.696H1075.89C1076.11 29.696 1076.22 29.786 1076.22 29.966V31.676C1076.22 31.892 1076.1 32 1075.86 32H1066.78C1066.64 32 1066.54 31.97 1066.48 31.91C1066.42 31.85 1066.39 31.754 1066.39 31.622V18.986ZM1087.49 18.464C1088.4 18.464 1089.24 18.638 1090.01 18.986C1090.78 19.334 1091.41 19.808 1091.9 20.408C1092.41 21.008 1092.72 21.68 1092.86 22.424C1092.88 22.508 1092.89 22.604 1092.89 22.712C1092.89 22.784 1092.87 22.832 1092.84 22.856C1092.8 22.88 1092.75 22.898 1092.68 22.91L1090.25 23.072C1090.14 23.072 1090.07 23.054 1090.03 23.018C1090.01 22.982 1089.98 22.91 1089.96 22.802C1089.83 22.142 1089.56 21.62 1089.17 21.236C1088.77 20.852 1088.24 20.66 1087.58 20.66C1085.66 20.66 1084.7 22.196 1084.7 25.268C1084.7 26.864 1084.94 28.028 1085.42 28.76C1085.9 29.492 1086.63 29.858 1087.62 29.858C1088.34 29.858 1088.94 29.678 1089.44 29.318C1089.94 28.958 1090.35 28.37 1090.66 27.554C1090.7 27.47 1090.77 27.428 1090.89 27.428C1090.97 27.428 1091.02 27.434 1091.06 27.446L1092.82 27.824C1092.99 27.884 1093.05 28.034 1093.02 28.274C1092.9 28.79 1092.62 29.348 1092.17 29.948C1091.74 30.548 1091.13 31.07 1090.34 31.514C1089.54 31.958 1088.6 32.18 1087.49 32.18C1086.26 32.18 1085.18 31.892 1084.25 31.316C1083.34 30.728 1082.64 29.912 1082.15 28.868C1081.65 27.812 1081.41 26.594 1081.41 25.214C1081.41 23.846 1081.65 22.652 1082.15 21.632C1082.64 20.612 1083.34 19.832 1084.25 19.292C1085.18 18.74 1086.26 18.464 1087.49 18.464ZM1094.92 18.986C1094.92 18.758 1095.01 18.644 1095.21 18.644H1097.78C1097.97 18.644 1098.07 18.752 1098.07 18.968V29.462C1098.07 29.546 1098.08 29.606 1098.1 29.642C1098.14 29.678 1098.19 29.696 1098.27 29.696H1104.01C1104.22 29.696 1104.33 29.786 1104.33 29.966V31.676C1104.33 31.772 1104.3 31.85 1104.24 31.91C1104.18 31.97 1104.1 32 1103.99 32H1095.31C1095.17 32 1095.07 31.97 1095.01 31.91C1094.95 31.85 1094.92 31.754 1094.92 31.622V18.986ZM1110.78 32.18C1109.52 32.18 1108.43 31.91 1107.49 31.37C1106.57 30.818 1105.85 30.032 1105.35 29.012C1104.86 27.992 1104.61 26.78 1104.61 25.376C1104.61 23.96 1104.86 22.736 1105.37 21.704C1105.87 20.66 1106.58 19.862 1107.51 19.31C1108.44 18.746 1109.54 18.464 1110.78 18.464C1112.02 18.464 1113.1 18.746 1114.02 19.31C1114.95 19.862 1115.66 20.66 1116.17 21.704C1116.67 22.736 1116.92 23.954 1116.92 25.358C1116.92 26.75 1116.67 27.962 1116.17 28.994C1115.67 30.014 1114.97 30.8 1114.04 31.352C1113.12 31.904 1112.03 32.18 1110.78 32.18ZM1110.78 29.966C1111.78 29.966 1112.5 29.606 1112.94 28.886C1113.4 28.166 1113.63 27.002 1113.63 25.394C1113.63 23.75 1113.39 22.55 1112.93 21.794C1112.47 21.038 1111.76 20.66 1110.78 20.66C1109.79 20.66 1109.06 21.038 1108.59 21.794C1108.13 22.55 1107.9 23.75 1107.9 25.394C1107.9 27.002 1108.13 28.166 1108.59 28.886C1109.04 29.606 1109.78 29.966 1110.78 29.966ZM1129.6 27.05C1129.6 28.874 1129.14 30.188 1128.22 30.992C1127.29 31.784 1125.96 32.18 1124.22 32.18C1122.31 32.18 1120.94 31.73 1120.1 30.83C1119.26 29.93 1118.84 28.562 1118.84 26.726V19.004C1118.84 18.896 1118.86 18.812 1118.91 18.752C1118.97 18.68 1119.04 18.644 1119.13 18.644H1121.72C1121.9 18.644 1121.99 18.752 1121.99 18.968V27.122C1121.99 28.094 1122.19 28.808 1122.6 29.264C1123.02 29.708 1123.64 29.93 1124.45 29.93C1126.16 29.93 1127.01 28.976 1127.01 27.068V18.986C1127.01 18.758 1127.1 18.644 1127.28 18.644H1129.33C1129.51 18.644 1129.6 18.752 1129.6 18.968V27.05ZM1132.37 18.644C1134.35 18.644 1135.69 18.65 1136.38 18.662C1138.76 18.734 1140.53 19.34 1141.69 20.48C1142.86 21.62 1143.44 23.216 1143.44 25.268C1143.44 27.38 1142.83 29.03 1141.62 30.218C1140.41 31.406 1138.63 32 1136.29 32H1132.39C1132.24 32 1132.13 31.97 1132.06 31.91C1132 31.838 1131.97 31.724 1131.97 31.568V19.004C1131.97 18.872 1132 18.782 1132.06 18.734C1132.12 18.674 1132.22 18.644 1132.37 18.644ZM1135.28 20.876C1135.18 20.876 1135.12 20.96 1135.12 21.128V29.534C1135.12 29.63 1135.13 29.696 1135.16 29.732C1135.19 29.768 1135.26 29.786 1135.36 29.786H1135.7C1137.21 29.786 1138.33 29.438 1139.05 28.742C1139.78 28.034 1140.14 26.87 1140.14 25.25C1140.14 23.75 1139.84 22.67 1139.23 22.01C1138.61 21.35 1137.67 20.984 1136.38 20.912L1135.28 20.876ZM1300.46 18.968C1300.46 18.872 1300.49 18.794 1300.55 18.734C1300.62 18.674 1300.71 18.644 1300.82 18.644H1311.15C1311.39 18.644 1311.51 18.752 1311.51 18.968V20.642C1311.51 20.822 1311.41 20.912 1311.19 20.912H1307.82C1307.69 20.912 1307.63 20.972 1307.63 21.092V31.658C1307.63 31.886 1307.52 32 1307.32 32H1304.75C1304.57 32 1304.48 31.898 1304.48 31.694V21.146C1304.48 21.062 1304.46 21.002 1304.42 20.966C1304.4 20.93 1304.35 20.912 1304.28 20.912H1300.8C1300.58 20.912 1300.46 20.822 1300.46 20.642V18.968ZM1316.76 26.294C1316.69 26.294 1316.63 26.318 1316.58 26.366C1316.55 26.414 1316.53 26.468 1316.53 26.528V31.586C1316.53 31.73 1316.49 31.838 1316.4 31.91C1316.33 31.97 1316.21 32 1316.04 32H1313.78C1313.63 32 1313.53 31.97 1313.47 31.91C1313.41 31.85 1313.38 31.754 1313.38 31.622V18.986C1313.38 18.758 1313.48 18.644 1313.67 18.644H1316.24C1316.43 18.644 1316.53 18.752 1316.53 18.968V23.576C1316.53 23.78 1316.62 23.882 1316.8 23.882H1320.96C1321.15 23.882 1321.25 23.786 1321.25 23.594V18.968C1321.25 18.752 1321.34 18.644 1321.52 18.644H1324.09C1324.29 18.644 1324.4 18.758 1324.4 18.986V31.622C1324.4 31.874 1324.26 32 1324 32H1321.71C1321.55 32 1321.43 31.97 1321.35 31.91C1321.28 31.85 1321.25 31.742 1321.25 31.586V26.528C1321.25 26.456 1321.22 26.402 1321.17 26.366C1321.14 26.318 1321.08 26.294 1320.99 26.294H1316.76ZM1326.9 18.986C1326.9 18.758 1326.99 18.644 1327.18 18.644H1336.26C1336.44 18.644 1336.53 18.746 1336.53 18.95L1336.51 20.57C1336.51 20.822 1336.38 20.948 1336.13 20.948H1330.39C1330.16 20.948 1330.05 21.044 1330.05 21.236V23.846C1330.05 24.05 1330.14 24.152 1330.32 24.152H1334.13C1334.34 24.152 1334.44 24.248 1334.44 24.44V26.168C1334.44 26.336 1334.34 26.42 1334.15 26.42H1330.3C1330.13 26.42 1330.05 26.492 1330.05 26.636V29.462C1330.05 29.546 1330.06 29.606 1330.08 29.642C1330.12 29.678 1330.17 29.696 1330.24 29.696H1336.4C1336.62 29.696 1336.72 29.786 1336.72 29.966V31.676C1336.72 31.892 1336.6 32 1336.36 32H1327.29C1327.15 32 1327.05 31.97 1326.99 31.91C1326.93 31.85 1326.9 31.754 1326.9 31.622V18.986ZM1348 18.464C1348.91 18.464 1349.75 18.638 1350.52 18.986C1351.29 19.334 1351.92 19.808 1352.41 20.408C1352.91 21.008 1353.23 21.68 1353.36 22.424C1353.39 22.508 1353.4 22.604 1353.4 22.712C1353.4 22.784 1353.38 22.832 1353.35 22.856C1353.31 22.88 1353.26 22.898 1353.18 22.91L1350.75 23.072C1350.65 23.072 1350.57 23.054 1350.54 23.018C1350.51 22.982 1350.49 22.91 1350.47 22.802C1350.33 22.142 1350.07 21.62 1349.67 21.236C1349.28 20.852 1348.75 20.66 1348.09 20.66C1346.17 20.66 1345.21 22.196 1345.21 25.268C1345.21 26.864 1345.45 28.028 1345.93 28.76C1346.41 29.492 1347.14 29.858 1348.13 29.858C1348.85 29.858 1349.45 29.678 1349.94 29.318C1350.45 28.958 1350.86 28.37 1351.17 27.554C1351.2 27.47 1351.28 27.428 1351.4 27.428C1351.47 27.428 1351.53 27.434 1351.56 27.446L1353.33 27.824C1353.5 27.884 1353.56 28.034 1353.53 28.274C1353.41 28.79 1353.12 29.348 1352.68 29.948C1352.25 30.548 1351.64 31.07 1350.84 31.514C1350.05 31.958 1349.1 32.18 1348 32.18C1346.76 32.18 1345.68 31.892 1344.76 31.316C1343.85 30.728 1343.15 29.912 1342.65 28.868C1342.16 27.812 1341.92 26.594 1341.92 25.214C1341.92 23.846 1342.16 22.652 1342.65 21.632C1343.15 20.612 1343.85 19.832 1344.76 19.292C1345.68 18.74 1346.76 18.464 1348 18.464ZM1355.43 18.986C1355.43 18.758 1355.52 18.644 1355.71 18.644H1358.29C1358.48 18.644 1358.58 18.752 1358.58 18.968V29.462C1358.58 29.546 1358.59 29.606 1358.61 29.642C1358.65 29.678 1358.7 29.696 1358.77 29.696H1364.52C1364.73 29.696 1364.84 29.786 1364.84 29.966V31.676C1364.84 31.772 1364.81 31.85 1364.75 31.91C1364.69 31.97 1364.61 32 1364.5 32H1355.82C1355.68 32 1355.58 31.97 1355.52 31.91C1355.46 31.85 1355.43 31.754 1355.43 31.622V18.986ZM1371.29 32.18C1370.03 32.18 1368.93 31.91 1368 31.37C1367.07 30.818 1366.36 30.032 1365.86 29.012C1365.36 27.992 1365.12 26.78 1365.12 25.376C1365.12 23.96 1365.37 22.736 1365.87 21.704C1366.38 20.66 1367.09 19.862 1368.02 19.31C1368.95 18.746 1370.04 18.464 1371.29 18.464C1372.53 18.464 1373.61 18.746 1374.53 19.31C1375.46 19.862 1376.17 20.66 1376.67 21.704C1377.18 22.736 1377.43 23.954 1377.43 25.358C1377.43 26.75 1377.18 27.962 1376.67 28.994C1376.18 30.014 1375.47 30.8 1374.55 31.352C1373.63 31.904 1372.54 32.18 1371.29 32.18ZM1371.29 29.966C1372.29 29.966 1373.01 29.606 1373.45 28.886C1373.91 28.166 1374.14 27.002 1374.14 25.394C1374.14 23.75 1373.9 22.55 1373.43 21.794C1372.98 21.038 1372.26 20.66 1371.29 20.66C1370.3 20.66 1369.56 21.038 1369.1 21.794C1368.64 22.55 1368.41 23.75 1368.41 25.394C1368.41 27.002 1368.64 28.166 1369.1 28.886C1369.55 29.606 1370.28 29.966 1371.29 29.966ZM1390.11 27.05C1390.11 28.874 1389.65 30.188 1388.72 30.992C1387.8 31.784 1386.47 32.18 1384.73 32.18C1382.82 32.18 1381.45 31.73 1380.61 30.83C1379.77 29.93 1379.35 28.562 1379.35 26.726V19.004C1379.35 18.896 1379.37 18.812 1379.42 18.752C1379.48 18.68 1379.55 18.644 1379.63 18.644H1382.23C1382.41 18.644 1382.5 18.752 1382.5 18.968V27.122C1382.5 28.094 1382.7 28.808 1383.11 29.264C1383.53 29.708 1384.15 29.93 1384.96 29.93C1386.67 29.93 1387.52 28.976 1387.52 27.068V18.986C1387.52 18.758 1387.61 18.644 1387.79 18.644H1389.84C1390.02 18.644 1390.11 18.752 1390.11 18.968V27.05ZM1392.88 18.644C1394.86 18.644 1396.19 18.65 1396.89 18.662C1399.27 18.734 1401.04 19.34 1402.2 20.48C1403.36 21.62 1403.95 23.216 1403.95 25.268C1403.95 27.38 1403.34 29.03 1402.13 30.218C1400.92 31.406 1399.14 32 1396.8 32H1392.89C1392.75 32 1392.64 31.97 1392.57 31.91C1392.51 31.838 1392.48 31.724 1392.48 31.568V19.004C1392.48 18.872 1392.51 18.782 1392.57 18.734C1392.63 18.674 1392.73 18.644 1392.88 18.644ZM1395.79 20.876C1395.68 20.876 1395.63 20.96 1395.63 21.128V29.534C1395.63 29.63 1395.64 29.696 1395.67 29.732C1395.7 29.768 1395.77 29.786 1395.86 29.786H1396.21C1397.72 29.786 1398.83 29.438 1399.55 28.742C1400.29 28.034 1400.65 26.87 1400.65 25.25C1400.65 23.75 1400.35 22.67 1399.73 22.01C1399.12 21.35 1398.17 20.984 1396.89 20.912L1395.79 20.876Z" fill="#7000FF"/>
<path d="M119.284 27.86C119.284 28.124 119.128 28.256 118.816 28.256H114.586C114.442 28.256 114.34 28.232 114.28 28.184C114.232 28.124 114.208 28.028 114.208 27.896V26.582C114.208 26.366 114.298 26.258 114.478 26.258H119.014C119.098 26.258 119.164 26.282 119.212 26.33C119.26 26.378 119.284 26.444 119.284 26.528V27.86ZM249.538 27.86C249.538 28.124 249.382 28.256 249.07 28.256H244.84C244.696 28.256 244.594 28.232 244.534 28.184C244.486 28.124 244.462 28.028 244.462 27.896V26.582C244.462 26.366 244.552 26.258 244.732 26.258H249.268C249.352 26.258 249.418 26.282 249.466 26.33C249.514 26.378 249.538 26.444 249.538 26.528V27.86ZM379.792 27.86C379.792 28.124 379.636 28.256 379.324 28.256H375.094C374.95 28.256 374.848 28.232 374.788 28.184C374.74 28.124 374.716 28.028 374.716 27.896V26.582C374.716 26.366 374.806 26.258 374.986 26.258H379.522C379.606 26.258 379.672 26.282 379.72 26.33C379.768 26.378 379.792 26.444 379.792 26.528V27.86ZM510.046 27.86C510.046 28.124 509.89 28.256 509.578 28.256H505.348C505.204 28.256 505.102 28.232 505.042 28.184C504.994 28.124 504.97 28.028 504.97 27.896V26.582C504.97 26.366 505.06 26.258 505.24 26.258H509.776C509.86 26.258 509.926 26.282 509.974 26.33C510.022 26.378 510.046 26.444 510.046 26.528V27.86ZM640.3 27.86C640.3 28.124 640.144 28.256 639.832 28.256H635.602C635.458 28.256 635.356 28.232 635.296 28.184C635.248 28.124 635.224 28.028 635.224 27.896V26.582C635.224 26.366 635.314 26.258 635.494 26.258H640.03C640.114 26.258 640.18 26.282 640.228 26.33C640.276 26.378 640.3 26.444 640.3 26.528V27.86ZM770.554 27.86C770.554 28.124 770.398 28.256 770.086 28.256H765.856C765.712 28.256 765.61 28.232 765.55 28.184C765.502 28.124 765.478 28.028 765.478 27.896V26.582C765.478 26.366 765.568 26.258 765.748 26.258H770.284C770.368 26.258 770.434 26.282 770.482 26.33C770.53 26.378 770.554 26.444 770.554 26.528V27.86ZM900.808 27.86C900.808 28.124 900.652 28.256 900.34 28.256H896.11C895.966 28.256 895.864 28.232 895.804 28.184C895.756 28.124 895.732 28.028 895.732 27.896V26.582C895.732 26.366 895.822 26.258 896.002 26.258H900.538C900.622 26.258 900.688 26.282 900.736 26.33C900.784 26.378 900.808 26.444 900.808 26.528V27.86ZM1031.06 27.86C1031.06 28.124 1030.91 28.256 1030.59 28.256H1026.36C1026.22 28.256 1026.12 28.232 1026.06 28.184C1026.01 28.124 1025.99 28.028 1025.99 27.896V26.582C1025.99 26.366 1026.08 26.258 1026.26 26.258H1030.79C1030.88 26.258 1030.94 26.282 1030.99 26.33C1031.04 26.378 1031.06 26.444 1031.06 26.528V27.86ZM1161.32 27.86C1161.32 28.124 1161.16 28.256 1160.85 28.256H1156.62C1156.47 28.256 1156.37 28.232 1156.31 28.184C1156.26 28.124 1156.24 28.028 1156.24 27.896V26.582C1156.24 26.366 1156.33 26.258 1156.51 26.258H1161.05C1161.13 26.258 1161.2 26.282 1161.24 26.33C1161.29 26.378 1161.32 26.444 1161.32 26.528V27.86ZM1291.57 27.86C1291.57 28.124 1291.41 28.256 1291.1 28.256H1286.87C1286.73 28.256 1286.63 28.232 1286.57 28.184C1286.52 28.124 1286.49 28.028 1286.49 27.896V26.582C1286.49 26.366 1286.58 26.258 1286.76 26.258H1291.3C1291.38 26.258 1291.45 26.282 1291.5 26.33C1291.55 26.378 1291.57 26.444 1291.57 26.528V27.86ZM1421.82 27.86C1421.82 28.124 1421.67 28.256 1421.36 28.256H1417.13C1416.98 28.256 1416.88 28.232 1416.82 28.184C1416.77 28.124 1416.75 28.028 1416.75 27.896V26.582C1416.75 26.366 1416.84 26.258 1417.02 26.258H1421.55C1421.64 26.258 1421.7 26.282 1421.75 26.33C1421.8 26.378 1421.82 26.444 1421.82 26.528V27.86Z" fill="white"/>
<path d="M128.176 18.968C128.176 18.872 128.206 18.794 128.266 18.734C128.338 18.674 128.428 18.644 128.536 18.644H138.868C139.108 18.644 139.228 18.752 139.228 18.968V20.642C139.228 20.822 139.12 20.912 138.904 20.912H135.538C135.406 20.912 135.34 20.972 135.34 21.092V31.658C135.34 31.886 135.238 32 135.034 32H132.46C132.28 32 132.19 31.898 132.19 31.694V21.146C132.19 21.062 132.172 21.002 132.136 20.966C132.112 20.93 132.064 20.912 131.992 20.912H128.518C128.29 20.912 128.176 20.822 128.176 20.642V18.968ZM144.478 26.294C144.406 26.294 144.346 26.318 144.298 26.366C144.262 26.414 144.244 26.468 144.244 26.528V31.586C144.244 31.73 144.202 31.838 144.118 31.91C144.046 31.97 143.926 32 143.758 32H141.49C141.346 32 141.244 31.97 141.184 31.91C141.124 31.85 141.094 31.754 141.094 31.622V18.986C141.094 18.758 141.19 18.644 141.382 18.644H143.956C144.148 18.644 144.244 18.752 144.244 18.968V23.576C144.244 23.78 144.334 23.882 144.514 23.882H148.672C148.864 23.882 148.96 23.786 148.96 23.594V18.968C148.96 18.752 149.05 18.644 149.23 18.644H151.804C152.008 18.644 152.11 18.758 152.11 18.986V31.622C152.11 31.874 151.978 32 151.714 32H149.428C149.26 32 149.14 31.97 149.068 31.91C148.996 31.85 148.96 31.742 148.96 31.586V26.528C148.96 26.456 148.936 26.402 148.888 26.366C148.852 26.318 148.792 26.294 148.708 26.294H144.478ZM154.612 18.986C154.612 18.758 154.708 18.644 154.9 18.644H163.972C164.152 18.644 164.242 18.746 164.242 18.95L164.224 20.57C164.224 20.822 164.098 20.948 163.846 20.948H158.104C157.876 20.948 157.762 21.044 157.762 21.236V23.846C157.762 24.05 157.852 24.152 158.032 24.152H161.848C162.052 24.152 162.154 24.248 162.154 24.44V26.168C162.154 26.336 162.058 26.42 161.866 26.42H158.014C157.846 26.42 157.762 26.492 157.762 26.636V29.462C157.762 29.546 157.774 29.606 157.798 29.642C157.834 29.678 157.888 29.696 157.96 29.696H164.116C164.332 29.696 164.44 29.786 164.44 29.966V31.676C164.44 31.892 164.32 32 164.08 32H155.008C154.864 32 154.762 31.97 154.702 31.91C154.642 31.85 154.612 31.754 154.612 31.622V18.986ZM175.714 18.464C176.626 18.464 177.466 18.638 178.234 18.986C179.002 19.334 179.632 19.808 180.124 20.408C180.628 21.008 180.946 21.68 181.078 22.424C181.102 22.508 181.114 22.604 181.114 22.712C181.114 22.784 181.096 22.832 181.06 22.856C181.024 22.88 180.97 22.898 180.898 22.91L178.468 23.072C178.36 23.072 178.288 23.054 178.252 23.018C178.228 22.982 178.204 22.91 178.18 22.802C178.048 22.142 177.784 21.62 177.388 21.236C176.992 20.852 176.464 20.66 175.804 20.66C173.884 20.66 172.924 22.196 172.924 25.268C172.924 26.864 173.164 28.028 173.644 28.76C174.124 29.492 174.856 29.858 175.84 29.858C176.56 29.858 177.166 29.678 177.658 29.318C178.162 28.958 178.57 28.37 178.882 27.554C178.918 27.47 178.996 27.428 179.116 27.428C179.188 27.428 179.242 27.434 179.278 27.446L181.042 27.824C181.21 27.884 181.276 28.034 181.24 28.274C181.12 28.79 180.838 29.348 180.394 29.948C179.962 30.548 179.35 31.07 178.558 31.514C177.766 31.958 176.818 32.18 175.714 32.18C174.478 32.18 173.398 31.892 172.474 31.316C171.562 30.728 170.86 29.912 170.368 28.868C169.876 27.812 169.63 26.594 169.63 25.214C169.63 23.846 169.876 22.652 170.368 21.632C170.86 20.612 171.562 19.832 172.474 19.292C173.398 18.74 174.478 18.464 175.714 18.464ZM183.141 18.986C183.141 18.758 183.237 18.644 183.429 18.644H186.003C186.195 18.644 186.291 18.752 186.291 18.968V29.462C186.291 29.546 186.303 29.606 186.327 29.642C186.363 29.678 186.417 29.696 186.489 29.696H192.231C192.447 29.696 192.555 29.786 192.555 29.966V31.676C192.555 31.772 192.525 31.85 192.465 31.91C192.405 31.97 192.321 32 192.213 32H183.537C183.393 32 183.291 31.97 183.231 31.91C183.171 31.85 183.141 31.754 183.141 31.622V18.986ZM199.007 32.18C197.747 32.18 196.649 31.91 195.713 31.37C194.789 30.818 194.075 30.032 193.571 29.012C193.079 27.992 192.833 26.78 192.833 25.376C192.833 23.96 193.085 22.736 193.589 21.704C194.093 20.66 194.807 19.862 195.731 19.31C196.667 18.746 197.759 18.464 199.007 18.464C200.243 18.464 201.323 18.746 202.247 19.31C203.171 19.862 203.885 20.66 204.389 21.704C204.893 22.736 205.145 23.954 205.145 25.358C205.145 26.75 204.893 27.962 204.389 28.994C203.897 30.014 203.189 30.8 202.265 31.352C201.341 31.904 200.255 32.18 199.007 32.18ZM199.007 29.966C200.003 29.966 200.723 29.606 201.167 28.886C201.623 28.166 201.851 27.002 201.851 25.394C201.851 23.75 201.617 22.55 201.149 21.794C200.693 21.038 199.979 20.66 199.007 20.66C198.011 20.66 197.279 21.038 196.811 21.794C196.355 22.55 196.127 23.75 196.127 25.394C196.127 27.002 196.355 28.166 196.811 28.886C197.267 29.606 197.999 29.966 199.007 29.966ZM217.825 27.05C217.825 28.874 217.363 30.188 216.439 30.992C215.515 31.784 214.183 32.18 212.443 32.18C210.535 32.18 209.161 31.73 208.321 30.83C207.481 29.93 207.061 28.562 207.061 26.726V19.004C207.061 18.896 207.085 18.812 207.133 18.752C207.193 18.68 207.265 18.644 207.349 18.644H209.941C210.121 18.644 210.211 18.752 210.211 18.968V27.122C210.211 28.094 210.415 28.808 210.823 29.264C211.243 29.708 211.861 29.93 212.677 29.93C214.381 29.93 215.233 28.976 215.233 27.068V18.986C215.233 18.758 215.323 18.644 215.503 18.644H217.555C217.735 18.644 217.825 18.752 217.825 18.968V27.05ZM220.592 18.644C222.572 18.644 223.91 18.65 224.606 18.662C226.982 18.734 228.752 19.34 229.916 20.48C231.08 21.62 231.662 23.216 231.662 25.268C231.662 27.38 231.056 29.03 229.844 30.218C228.632 31.406 226.856 32 224.516 32H220.61C220.466 32 220.358 31.97 220.286 31.91C220.226 31.838 220.196 31.724 220.196 31.568V19.004C220.196 18.872 220.226 18.782 220.286 18.734C220.346 18.674 220.448 18.644 220.592 18.644ZM223.508 20.876C223.4 20.876 223.346 20.96 223.346 21.128V29.534C223.346 29.63 223.358 29.696 223.382 29.732C223.418 29.768 223.484 29.786 223.58 29.786H223.922C225.434 29.786 226.55 29.438 227.27 28.742C228.002 28.034 228.368 26.87 228.368 25.25C228.368 23.75 228.062 22.67 227.45 22.01C226.838 21.35 225.89 20.984 224.606 20.912L223.508 20.876ZM388.684 18.968C388.684 18.872 388.714 18.794 388.774 18.734C388.846 18.674 388.936 18.644 389.044 18.644H399.376C399.616 18.644 399.736 18.752 399.736 18.968V20.642C399.736 20.822 399.628 20.912 399.412 20.912H396.046C395.914 20.912 395.848 20.972 395.848 21.092V31.658C395.848 31.886 395.746 32 395.542 32H392.968C392.788 32 392.698 31.898 392.698 31.694V21.146C392.698 21.062 392.68 21.002 392.644 20.966C392.62 20.93 392.572 20.912 392.5 20.912H389.026C388.798 20.912 388.684 20.822 388.684 20.642V18.968ZM404.986 26.294C404.914 26.294 404.854 26.318 404.806 26.366C404.77 26.414 404.752 26.468 404.752 26.528V31.586C404.752 31.73 404.71 31.838 404.626 31.91C404.554 31.97 404.434 32 404.266 32H401.998C401.854 32 401.752 31.97 401.692 31.91C401.632 31.85 401.602 31.754 401.602 31.622V18.986C401.602 18.758 401.698 18.644 401.89 18.644H404.464C404.656 18.644 404.752 18.752 404.752 18.968V23.576C404.752 23.78 404.842 23.882 405.022 23.882H409.18C409.372 23.882 409.468 23.786 409.468 23.594V18.968C409.468 18.752 409.558 18.644 409.738 18.644H412.312C412.516 18.644 412.618 18.758 412.618 18.986V31.622C412.618 31.874 412.486 32 412.222 32H409.936C409.768 32 409.648 31.97 409.576 31.91C409.504 31.85 409.468 31.742 409.468 31.586V26.528C409.468 26.456 409.444 26.402 409.396 26.366C409.36 26.318 409.3 26.294 409.216 26.294H404.986ZM415.119 18.986C415.119 18.758 415.215 18.644 415.407 18.644H424.479C424.659 18.644 424.749 18.746 424.749 18.95L424.731 20.57C424.731 20.822 424.605 20.948 424.353 20.948H418.611C418.383 20.948 418.269 21.044 418.269 21.236V23.846C418.269 24.05 418.359 24.152 418.539 24.152H422.355C422.559 24.152 422.661 24.248 422.661 24.44V26.168C422.661 26.336 422.565 26.42 422.373 26.42H418.521C418.353 26.42 418.269 26.492 418.269 26.636V29.462C418.269 29.546 418.281 29.606 418.305 29.642C418.341 29.678 418.395 29.696 418.467 29.696H424.623C424.839 29.696 424.947 29.786 424.947 29.966V31.676C424.947 31.892 424.827 32 424.587 32H415.515C415.371 32 415.269 31.97 415.209 31.91C415.149 31.85 415.119 31.754 415.119 31.622V18.986ZM436.222 18.464C437.134 18.464 437.974 18.638 438.742 18.986C439.51 19.334 440.14 19.808 440.632 20.408C441.136 21.008 441.454 21.68 441.586 22.424C441.61 22.508 441.622 22.604 441.622 22.712C441.622 22.784 441.604 22.832 441.568 22.856C441.532 22.88 441.478 22.898 441.406 22.91L438.976 23.072C438.868 23.072 438.796 23.054 438.76 23.018C438.736 22.982 438.712 22.91 438.688 22.802C438.556 22.142 438.292 21.62 437.896 21.236C437.5 20.852 436.972 20.66 436.312 20.66C434.392 20.66 433.432 22.196 433.432 25.268C433.432 26.864 433.672 28.028 434.152 28.76C434.632 29.492 435.364 29.858 436.348 29.858C437.068 29.858 437.674 29.678 438.166 29.318C438.67 28.958 439.078 28.37 439.39 27.554C439.426 27.47 439.504 27.428 439.624 27.428C439.696 27.428 439.75 27.434 439.786 27.446L441.55 27.824C441.718 27.884 441.784 28.034 441.748 28.274C441.628 28.79 441.346 29.348 440.902 29.948C440.47 30.548 439.858 31.07 439.066 31.514C438.274 31.958 437.326 32.18 436.222 32.18C434.986 32.18 433.906 31.892 432.982 31.316C432.07 30.728 431.368 29.912 430.876 28.868C430.384 27.812 430.138 26.594 430.138 25.214C430.138 23.846 430.384 22.652 430.876 21.632C431.368 20.612 432.07 19.832 432.982 19.292C433.906 18.74 434.986 18.464 436.222 18.464ZM443.649 18.986C443.649 18.758 443.745 18.644 443.937 18.644H446.511C446.703 18.644 446.799 18.752 446.799 18.968V29.462C446.799 29.546 446.811 29.606 446.835 29.642C446.871 29.678 446.925 29.696 446.997 29.696H452.739C452.955 29.696 453.063 29.786 453.063 29.966V31.676C453.063 31.772 453.033 31.85 452.973 31.91C452.913 31.97 452.829 32 452.721 32H444.045C443.901 32 443.799 31.97 443.739 31.91C443.679 31.85 443.649 31.754 443.649 31.622V18.986ZM459.515 32.18C458.255 32.18 457.157 31.91 456.221 31.37C455.297 30.818 454.583 30.032 454.079 29.012C453.587 27.992 453.341 26.78 453.341 25.376C453.341 23.96 453.593 22.736 454.097 21.704C454.601 20.66 455.315 19.862 456.239 19.31C457.175 18.746 458.267 18.464 459.515 18.464C460.751 18.464 461.831 18.746 462.755 19.31C463.679 19.862 464.393 20.66 464.897 21.704C465.401 22.736 465.653 23.954 465.653 25.358C465.653 26.75 465.401 27.962 464.897 28.994C464.405 30.014 463.697 30.8 462.773 31.352C461.849 31.904 460.763 32.18 459.515 32.18ZM459.515 29.966C460.511 29.966 461.231 29.606 461.675 28.886C462.131 28.166 462.359 27.002 462.359 25.394C462.359 23.75 462.125 22.55 461.657 21.794C461.201 21.038 460.487 20.66 459.515 20.66C458.519 20.66 457.787 21.038 457.319 21.794C456.863 22.55 456.635 23.75 456.635 25.394C456.635 27.002 456.863 28.166 457.319 28.886C457.775 29.606 458.507 29.966 459.515 29.966ZM478.333 27.05C478.333 28.874 477.871 30.188 476.947 30.992C476.023 31.784 474.691 32.18 472.951 32.18C471.043 32.18 469.669 31.73 468.829 30.83C467.989 29.93 467.569 28.562 467.569 26.726V19.004C467.569 18.896 467.593 18.812 467.641 18.752C467.701 18.68 467.773 18.644 467.857 18.644H470.449C470.629 18.644 470.719 18.752 470.719 18.968V27.122C470.719 28.094 470.923 28.808 471.331 29.264C471.751 29.708 472.369 29.93 473.185 29.93C474.889 29.93 475.741 28.976 475.741 27.068V18.986C475.741 18.758 475.831 18.644 476.011 18.644H478.063C478.243 18.644 478.333 18.752 478.333 18.968V27.05ZM481.099 18.644C483.079 18.644 484.417 18.65 485.113 18.662C487.489 18.734 489.259 19.34 490.423 20.48C491.587 21.62 492.169 23.216 492.169 25.268C492.169 27.38 491.563 29.03 490.351 30.218C489.139 31.406 487.363 32 485.023 32H481.117C480.973 32 480.865 31.97 480.793 31.91C480.733 31.838 480.703 31.724 480.703 31.568V19.004C480.703 18.872 480.733 18.782 480.793 18.734C480.853 18.674 480.955 18.644 481.099 18.644ZM484.015 20.876C483.907 20.876 483.853 20.96 483.853 21.128V29.534C483.853 29.63 483.865 29.696 483.889 29.732C483.925 29.768 483.991 29.786 484.087 29.786H484.429C485.941 29.786 487.057 29.438 487.777 28.742C488.509 28.034 488.875 26.87 488.875 25.25C488.875 23.75 488.569 22.67 487.957 22.01C487.345 21.35 486.397 20.984 485.113 20.912L484.015 20.876ZM649.192 18.968C649.192 18.872 649.222 18.794 649.282 18.734C649.354 18.674 649.444 18.644 649.552 18.644H659.884C660.124 18.644 660.244 18.752 660.244 18.968V20.642C660.244 20.822 660.136 20.912 659.92 20.912H656.554C656.422 20.912 656.356 20.972 656.356 21.092V31.658C656.356 31.886 656.254 32 656.05 32H653.476C653.296 32 653.206 31.898 653.206 31.694V21.146C653.206 21.062 653.188 21.002 653.152 20.966C653.128 20.93 653.08 20.912 653.008 20.912H649.534C649.306 20.912 649.192 20.822 649.192 20.642V18.968ZM665.494 26.294C665.422 26.294 665.362 26.318 665.314 26.366C665.278 26.414 665.26 26.468 665.26 26.528V31.586C665.26 31.73 665.218 31.838 665.134 31.91C665.062 31.97 664.942 32 664.774 32H662.506C662.362 32 662.26 31.97 662.2 31.91C662.14 31.85 662.11 31.754 662.11 31.622V18.986C662.11 18.758 662.206 18.644 662.398 18.644H664.972C665.164 18.644 665.26 18.752 665.26 18.968V23.576C665.26 23.78 665.35 23.882 665.53 23.882H669.688C669.88 23.882 669.976 23.786 669.976 23.594V18.968C669.976 18.752 670.066 18.644 670.246 18.644H672.82C673.024 18.644 673.126 18.758 673.126 18.986V31.622C673.126 31.874 672.994 32 672.73 32H670.444C670.276 32 670.156 31.97 670.084 31.91C670.012 31.85 669.976 31.742 669.976 31.586V26.528C669.976 26.456 669.952 26.402 669.904 26.366C669.868 26.318 669.808 26.294 669.724 26.294H665.494ZM675.627 18.986C675.627 18.758 675.723 18.644 675.915 18.644H684.987C685.167 18.644 685.257 18.746 685.257 18.95L685.239 20.57C685.239 20.822 685.113 20.948 684.861 20.948H679.119C678.891 20.948 678.777 21.044 678.777 21.236V23.846C678.777 24.05 678.867 24.152 679.047 24.152H682.863C683.067 24.152 683.169 24.248 683.169 24.44V26.168C683.169 26.336 683.073 26.42 682.881 26.42H679.029C678.861 26.42 678.777 26.492 678.777 26.636V29.462C678.777 29.546 678.789 29.606 678.813 29.642C678.849 29.678 678.903 29.696 678.975 29.696H685.131C685.347 29.696 685.455 29.786 685.455 29.966V31.676C685.455 31.892 685.335 32 685.095 32H676.023C675.879 32 675.777 31.97 675.717 31.91C675.657 31.85 675.627 31.754 675.627 31.622V18.986ZM696.73 18.464C697.642 18.464 698.482 18.638 699.25 18.986C700.018 19.334 700.648 19.808 701.14 20.408C701.644 21.008 701.962 21.68 702.094 22.424C702.118 22.508 702.13 22.604 702.13 22.712C702.13 22.784 702.112 22.832 702.076 22.856C702.04 22.88 701.986 22.898 701.914 22.91L699.484 23.072C699.376 23.072 699.304 23.054 699.268 23.018C699.244 22.982 699.22 22.91 699.196 22.802C699.064 22.142 698.8 21.62 698.404 21.236C698.008 20.852 697.48 20.66 696.82 20.66C694.9 20.66 693.94 22.196 693.94 25.268C693.94 26.864 694.18 28.028 694.66 28.76C695.14 29.492 695.872 29.858 696.856 29.858C697.576 29.858 698.182 29.678 698.674 29.318C699.178 28.958 699.586 28.37 699.898 27.554C699.934 27.47 700.012 27.428 700.132 27.428C700.204 27.428 700.258 27.434 700.294 27.446L702.058 27.824C702.226 27.884 702.292 28.034 702.256 28.274C702.136 28.79 701.854 29.348 701.41 29.948C700.978 30.548 700.366 31.07 699.574 31.514C698.782 31.958 697.834 32.18 696.73 32.18C695.494 32.18 694.414 31.892 693.49 31.316C692.578 30.728 691.876 29.912 691.384 28.868C690.892 27.812 690.646 26.594 690.646 25.214C690.646 23.846 690.892 22.652 691.384 21.632C691.876 20.612 692.578 19.832 693.49 19.292C694.414 18.74 695.494 18.464 696.73 18.464ZM704.156 18.986C704.156 18.758 704.252 18.644 704.444 18.644H707.018C707.21 18.644 707.306 18.752 707.306 18.968V29.462C707.306 29.546 707.318 29.606 707.342 29.642C707.378 29.678 707.432 29.696 707.504 29.696H713.246C713.462 29.696 713.57 29.786 713.57 29.966V31.676C713.57 31.772 713.54 31.85 713.48 31.91C713.42 31.97 713.336 32 713.228 32H704.552C704.408 32 704.306 31.97 704.246 31.91C704.186 31.85 704.156 31.754 704.156 31.622V18.986ZM720.023 32.18C718.763 32.18 717.665 31.91 716.729 31.37C715.805 30.818 715.091 30.032 714.587 29.012C714.095 27.992 713.849 26.78 713.849 25.376C713.849 23.96 714.101 22.736 714.605 21.704C715.109 20.66 715.823 19.862 716.747 19.31C717.683 18.746 718.775 18.464 720.023 18.464C721.259 18.464 722.339 18.746 723.263 19.31C724.187 19.862 724.901 20.66 725.405 21.704C725.909 22.736 726.161 23.954 726.161 25.358C726.161 26.75 725.909 27.962 725.405 28.994C724.913 30.014 724.205 30.8 723.281 31.352C722.357 31.904 721.271 32.18 720.023 32.18ZM720.023 29.966C721.019 29.966 721.739 29.606 722.183 28.886C722.639 28.166 722.867 27.002 722.867 25.394C722.867 23.75 722.633 22.55 722.165 21.794C721.709 21.038 720.995 20.66 720.023 20.66C719.027 20.66 718.295 21.038 717.827 21.794C717.371 22.55 717.143 23.75 717.143 25.394C717.143 27.002 717.371 28.166 717.827 28.886C718.283 29.606 719.015 29.966 720.023 29.966ZM738.841 27.05C738.841 28.874 738.379 30.188 737.455 30.992C736.531 31.784 735.199 32.18 733.459 32.18C731.551 32.18 730.177 31.73 729.337 30.83C728.497 29.93 728.077 28.562 728.077 26.726V19.004C728.077 18.896 728.101 18.812 728.149 18.752C728.209 18.68 728.281 18.644 728.365 18.644H730.957C731.137 18.644 731.227 18.752 731.227 18.968V27.122C731.227 28.094 731.431 28.808 731.839 29.264C732.259 29.708 732.877 29.93 733.693 29.93C735.397 29.93 736.249 28.976 736.249 27.068V18.986C736.249 18.758 736.339 18.644 736.519 18.644H738.571C738.751 18.644 738.841 18.752 738.841 18.968V27.05ZM741.607 18.644C743.587 18.644 744.925 18.65 745.621 18.662C747.997 18.734 749.767 19.34 750.931 20.48C752.095 21.62 752.677 23.216 752.677 25.268C752.677 27.38 752.071 29.03 750.859 30.218C749.647 31.406 747.871 32 745.531 32H741.625C741.481 32 741.373 31.97 741.301 31.91C741.241 31.838 741.211 31.724 741.211 31.568V19.004C741.211 18.872 741.241 18.782 741.301 18.734C741.361 18.674 741.463 18.644 741.607 18.644ZM744.523 20.876C744.415 20.876 744.361 20.96 744.361 21.128V29.534C744.361 29.63 744.373 29.696 744.397 29.732C744.433 29.768 744.499 29.786 744.595 29.786H744.937C746.449 29.786 747.565 29.438 748.285 28.742C749.017 28.034 749.383 26.87 749.383 25.25C749.383 23.75 749.077 22.67 748.465 22.01C747.853 21.35 746.905 20.984 745.621 20.912L744.523 20.876ZM909.699 18.968C909.699 18.872 909.729 18.794 909.789 18.734C909.861 18.674 909.951 18.644 910.059 18.644H920.391C920.631 18.644 920.751 18.752 920.751 18.968V20.642C920.751 20.822 920.643 20.912 920.427 20.912H917.061C916.929 20.912 916.863 20.972 916.863 21.092V31.658C916.863 31.886 916.761 32 916.557 32H913.983C913.803 32 913.713 31.898 913.713 31.694V21.146C913.713 21.062 913.695 21.002 913.659 20.966C913.635 20.93 913.587 20.912 913.515 20.912H910.041C909.813 20.912 909.699 20.822 909.699 20.642V18.968ZM926.001 26.294C925.929 26.294 925.869 26.318 925.821 26.366C925.785 26.414 925.767 26.468 925.767 26.528V31.586C925.767 31.73 925.725 31.838 925.641 31.91C925.569 31.97 925.449 32 925.281 32H923.013C922.869 32 922.767 31.97 922.707 31.91C922.647 31.85 922.617 31.754 922.617 31.622V18.986C922.617 18.758 922.713 18.644 922.905 18.644H925.479C925.671 18.644 925.767 18.752 925.767 18.968V23.576C925.767 23.78 925.857 23.882 926.037 23.882H930.195C930.387 23.882 930.483 23.786 930.483 23.594V18.968C930.483 18.752 930.573 18.644 930.753 18.644H933.327C933.531 18.644 933.633 18.758 933.633 18.986V31.622C933.633 31.874 933.501 32 933.237 32H930.951C930.783 32 930.663 31.97 930.591 31.91C930.519 31.85 930.483 31.742 930.483 31.586V26.528C930.483 26.456 930.459 26.402 930.411 26.366C930.375 26.318 930.315 26.294 930.231 26.294H926.001ZM936.135 18.986C936.135 18.758 936.231 18.644 936.423 18.644H945.495C945.675 18.644 945.765 18.746 945.765 18.95L945.747 20.57C945.747 20.822 945.621 20.948 945.369 20.948H939.627C939.399 20.948 939.285 21.044 939.285 21.236V23.846C939.285 24.05 939.375 24.152 939.555 24.152H943.371C943.575 24.152 943.677 24.248 943.677 24.44V26.168C943.677 26.336 943.581 26.42 943.389 26.42H939.537C939.369 26.42 939.285 26.492 939.285 26.636V29.462C939.285 29.546 939.297 29.606 939.321 29.642C939.357 29.678 939.411 29.696 939.483 29.696H945.639C945.855 29.696 945.963 29.786 945.963 29.966V31.676C945.963 31.892 945.843 32 945.603 32H936.531C936.387 32 936.285 31.97 936.225 31.91C936.165 31.85 936.135 31.754 936.135 31.622V18.986ZM957.237 18.464C958.149 18.464 958.989 18.638 959.757 18.986C960.525 19.334 961.155 19.808 961.647 20.408C962.151 21.008 962.469 21.68 962.601 22.424C962.625 22.508 962.637 22.604 962.637 22.712C962.637 22.784 962.619 22.832 962.583 22.856C962.547 22.88 962.493 22.898 962.421 22.91L959.991 23.072C959.883 23.072 959.811 23.054 959.775 23.018C959.751 22.982 959.727 22.91 959.703 22.802C959.571 22.142 959.307 21.62 958.911 21.236C958.515 20.852 957.987 20.66 957.327 20.66C955.407 20.66 954.447 22.196 954.447 25.268C954.447 26.864 954.687 28.028 955.167 28.76C955.647 29.492 956.379 29.858 957.363 29.858C958.083 29.858 958.689 29.678 959.181 29.318C959.685 28.958 960.093 28.37 960.405 27.554C960.441 27.47 960.519 27.428 960.639 27.428C960.711 27.428 960.765 27.434 960.801 27.446L962.565 27.824C962.733 27.884 962.799 28.034 962.763 28.274C962.643 28.79 962.361 29.348 961.917 29.948C961.485 30.548 960.873 31.07 960.081 31.514C959.289 31.958 958.341 32.18 957.237 32.18C956.001 32.18 954.921 31.892 953.997 31.316C953.085 30.728 952.383 29.912 951.891 28.868C951.399 27.812 951.153 26.594 951.153 25.214C951.153 23.846 951.399 22.652 951.891 21.632C952.383 20.612 953.085 19.832 953.997 19.292C954.921 18.74 956.001 18.464 957.237 18.464ZM964.664 18.986C964.664 18.758 964.76 18.644 964.952 18.644H967.526C967.718 18.644 967.814 18.752 967.814 18.968V29.462C967.814 29.546 967.826 29.606 967.85 29.642C967.886 29.678 967.94 29.696 968.012 29.696H973.754C973.97 29.696 974.078 29.786 974.078 29.966V31.676C974.078 31.772 974.048 31.85 973.988 31.91C973.928 31.97 973.844 32 973.736 32H965.06C964.916 32 964.814 31.97 964.754 31.91C964.694 31.85 964.664 31.754 964.664 31.622V18.986ZM980.531 32.18C979.271 32.18 978.173 31.91 977.237 31.37C976.313 30.818 975.599 30.032 975.095 29.012C974.603 27.992 974.357 26.78 974.357 25.376C974.357 23.96 974.609 22.736 975.113 21.704C975.617 20.66 976.331 19.862 977.255 19.31C978.191 18.746 979.283 18.464 980.531 18.464C981.767 18.464 982.847 18.746 983.771 19.31C984.695 19.862 985.409 20.66 985.913 21.704C986.417 22.736 986.669 23.954 986.669 25.358C986.669 26.75 986.417 27.962 985.913 28.994C985.421 30.014 984.713 30.8 983.789 31.352C982.865 31.904 981.779 32.18 980.531 32.18ZM980.531 29.966C981.527 29.966 982.247 29.606 982.691 28.886C983.147 28.166 983.375 27.002 983.375 25.394C983.375 23.75 983.141 22.55 982.673 21.794C982.217 21.038 981.503 20.66 980.531 20.66C979.535 20.66 978.803 21.038 978.335 21.794C977.879 22.55 977.651 23.75 977.651 25.394C977.651 27.002 977.879 28.166 978.335 28.886C978.791 29.606 979.523 29.966 980.531 29.966ZM999.348 27.05C999.348 28.874 998.886 30.188 997.962 30.992C997.038 31.784 995.706 32.18 993.966 32.18C992.058 32.18 990.684 31.73 989.844 30.83C989.004 29.93 988.584 28.562 988.584 26.726V19.004C988.584 18.896 988.608 18.812 988.656 18.752C988.716 18.68 988.788 18.644 988.872 18.644H991.464C991.644 18.644 991.734 18.752 991.734 18.968V27.122C991.734 28.094 991.938 28.808 992.346 29.264C992.766 29.708 993.384 29.93 994.2 29.93C995.904 29.93 996.756 28.976 996.756 27.068V18.986C996.756 18.758 996.846 18.644 997.026 18.644H999.078C999.258 18.644 999.348 18.752 999.348 18.968V27.05ZM1002.11 18.644C1004.09 18.644 1005.43 18.65 1006.13 18.662C1008.5 18.734 1010.27 19.34 1011.44 20.48C1012.6 21.62 1013.18 23.216 1013.18 25.268C1013.18 27.38 1012.58 29.03 1011.37 30.218C1010.15 31.406 1008.38 32 1006.04 32H1002.13C1001.99 32 1001.88 31.97 1001.81 31.91C1001.75 31.838 1001.72 31.724 1001.72 31.568V19.004C1001.72 18.872 1001.75 18.782 1001.81 18.734C1001.87 18.674 1001.97 18.644 1002.11 18.644ZM1005.03 20.876C1004.92 20.876 1004.87 20.96 1004.87 21.128V29.534C1004.87 29.63 1004.88 29.696 1004.9 29.732C1004.94 29.768 1005.01 29.786 1005.1 29.786H1005.44C1006.96 29.786 1008.07 29.438 1008.79 28.742C1009.52 28.034 1009.89 26.87 1009.89 25.25C1009.89 23.75 1009.58 22.67 1008.97 22.01C1008.36 21.35 1007.41 20.984 1006.13 20.912L1005.03 20.876ZM1170.21 18.968C1170.21 18.872 1170.24 18.794 1170.3 18.734C1170.37 18.674 1170.46 18.644 1170.57 18.644H1180.9C1181.14 18.644 1181.26 18.752 1181.26 18.968V20.642C1181.26 20.822 1181.15 20.912 1180.94 20.912H1177.57C1177.44 20.912 1177.37 20.972 1177.37 21.092V31.658C1177.37 31.886 1177.27 32 1177.07 32H1174.49C1174.31 32 1174.22 31.898 1174.22 31.694V21.146C1174.22 21.062 1174.2 21.002 1174.17 20.966C1174.14 20.93 1174.1 20.912 1174.02 20.912H1170.55C1170.32 20.912 1170.21 20.822 1170.21 20.642V18.968ZM1186.51 26.294C1186.44 26.294 1186.38 26.318 1186.33 26.366C1186.29 26.414 1186.28 26.468 1186.28 26.528V31.586C1186.28 31.73 1186.23 31.838 1186.15 31.91C1186.08 31.97 1185.96 32 1185.79 32H1183.52C1183.38 32 1183.28 31.97 1183.22 31.91C1183.16 31.85 1183.13 31.754 1183.13 31.622V18.986C1183.13 18.758 1183.22 18.644 1183.41 18.644H1185.99C1186.18 18.644 1186.28 18.752 1186.28 18.968V23.576C1186.28 23.78 1186.37 23.882 1186.55 23.882H1190.7C1190.9 23.882 1190.99 23.786 1190.99 23.594V18.968C1190.99 18.752 1191.08 18.644 1191.26 18.644H1193.84C1194.04 18.644 1194.14 18.758 1194.14 18.986V31.622C1194.14 31.874 1194.01 32 1193.75 32H1191.46C1191.29 32 1191.17 31.97 1191.1 31.91C1191.03 31.85 1190.99 31.742 1190.99 31.586V26.528C1190.99 26.456 1190.97 26.402 1190.92 26.366C1190.88 26.318 1190.82 26.294 1190.74 26.294H1186.51ZM1196.64 18.986C1196.64 18.758 1196.74 18.644 1196.93 18.644H1206C1206.18 18.644 1206.27 18.746 1206.27 18.95L1206.25 20.57C1206.25 20.822 1206.13 20.948 1205.88 20.948H1200.13C1199.91 20.948 1199.79 21.044 1199.79 21.236V23.846C1199.79 24.05 1199.88 24.152 1200.06 24.152H1203.88C1204.08 24.152 1204.18 24.248 1204.18 24.44V26.168C1204.18 26.336 1204.09 26.42 1203.9 26.42H1200.04C1199.88 26.42 1199.79 26.492 1199.79 26.636V29.462C1199.79 29.546 1199.8 29.606 1199.83 29.642C1199.86 29.678 1199.92 29.696 1199.99 29.696H1206.15C1206.36 29.696 1206.47 29.786 1206.47 29.966V31.676C1206.47 31.892 1206.35 32 1206.11 32H1197.04C1196.89 32 1196.79 31.97 1196.73 31.91C1196.67 31.85 1196.64 31.754 1196.64 31.622V18.986ZM1217.75 18.464C1218.66 18.464 1219.5 18.638 1220.27 18.986C1221.03 19.334 1221.66 19.808 1222.16 20.408C1222.66 21.008 1222.98 21.68 1223.11 22.424C1223.13 22.508 1223.15 22.604 1223.15 22.712C1223.15 22.784 1223.13 22.832 1223.09 22.856C1223.06 22.88 1223 22.898 1222.93 22.91L1220.5 23.072C1220.39 23.072 1220.32 23.054 1220.28 23.018C1220.26 22.982 1220.24 22.91 1220.21 22.802C1220.08 22.142 1219.82 21.62 1219.42 21.236C1219.02 20.852 1218.5 20.66 1217.84 20.66C1215.92 20.66 1214.96 22.196 1214.96 25.268C1214.96 26.864 1215.2 28.028 1215.68 28.76C1216.16 29.492 1216.89 29.858 1217.87 29.858C1218.59 29.858 1219.2 29.678 1219.69 29.318C1220.19 28.958 1220.6 28.37 1220.91 27.554C1220.95 27.47 1221.03 27.428 1221.15 27.428C1221.22 27.428 1221.27 27.434 1221.31 27.446L1223.07 27.824C1223.24 27.884 1223.31 28.034 1223.27 28.274C1223.15 28.79 1222.87 29.348 1222.43 29.948C1221.99 30.548 1221.38 31.07 1220.59 31.514C1219.8 31.958 1218.85 32.18 1217.75 32.18C1216.51 32.18 1215.43 31.892 1214.51 31.316C1213.59 30.728 1212.89 29.912 1212.4 28.868C1211.91 27.812 1211.66 26.594 1211.66 25.214C1211.66 23.846 1211.91 22.652 1212.4 21.632C1212.89 20.612 1213.59 19.832 1214.51 19.292C1215.43 18.74 1216.51 18.464 1217.75 18.464ZM1225.17 18.986C1225.17 18.758 1225.27 18.644 1225.46 18.644H1228.03C1228.23 18.644 1228.32 18.752 1228.32 18.968V29.462C1228.32 29.546 1228.33 29.606 1228.36 29.642C1228.39 29.678 1228.45 29.696 1228.52 29.696H1234.26C1234.48 29.696 1234.59 29.786 1234.59 29.966V31.676C1234.59 31.772 1234.56 31.85 1234.5 31.91C1234.44 31.97 1234.35 32 1234.24 32H1225.57C1225.42 32 1225.32 31.97 1225.26 31.91C1225.2 31.85 1225.17 31.754 1225.17 31.622V18.986ZM1241.04 32.18C1239.78 32.18 1238.68 31.91 1237.74 31.37C1236.82 30.818 1236.11 30.032 1235.6 29.012C1235.11 27.992 1234.86 26.78 1234.86 25.376C1234.86 23.96 1235.12 22.736 1235.62 21.704C1236.12 20.66 1236.84 19.862 1237.76 19.31C1238.7 18.746 1239.79 18.464 1241.04 18.464C1242.27 18.464 1243.35 18.746 1244.28 19.31C1245.2 19.862 1245.92 20.66 1246.42 21.704C1246.92 22.736 1247.18 23.954 1247.18 25.358C1247.18 26.75 1246.92 27.962 1246.42 28.994C1245.93 30.014 1245.22 30.8 1244.3 31.352C1243.37 31.904 1242.29 32.18 1241.04 32.18ZM1241.04 29.966C1242.03 29.966 1242.75 29.606 1243.2 28.886C1243.65 28.166 1243.88 27.002 1243.88 25.394C1243.88 23.75 1243.65 22.55 1243.18 21.794C1242.72 21.038 1242.01 20.66 1241.04 20.66C1240.04 20.66 1239.31 21.038 1238.84 21.794C1238.39 22.55 1238.16 23.75 1238.16 25.394C1238.16 27.002 1238.39 28.166 1238.84 28.886C1239.3 29.606 1240.03 29.966 1241.04 29.966ZM1259.86 27.05C1259.86 28.874 1259.39 30.188 1258.47 30.992C1257.55 31.784 1256.21 32.18 1254.47 32.18C1252.57 32.18 1251.19 31.73 1250.35 30.83C1249.51 29.93 1249.09 28.562 1249.09 26.726V19.004C1249.09 18.896 1249.12 18.812 1249.16 18.752C1249.22 18.68 1249.3 18.644 1249.38 18.644H1251.97C1252.15 18.644 1252.24 18.752 1252.24 18.968V27.122C1252.24 28.094 1252.45 28.808 1252.85 29.264C1253.27 29.708 1253.89 29.93 1254.71 29.93C1256.41 29.93 1257.26 28.976 1257.26 27.068V18.986C1257.26 18.758 1257.35 18.644 1257.53 18.644H1259.59C1259.77 18.644 1259.86 18.752 1259.86 18.968V27.05ZM1262.62 18.644C1264.6 18.644 1265.94 18.65 1266.64 18.662C1269.01 18.734 1270.78 19.34 1271.95 20.48C1273.11 21.62 1273.69 23.216 1273.69 25.268C1273.69 27.38 1273.09 29.03 1271.87 30.218C1270.66 31.406 1268.89 32 1266.55 32H1262.64C1262.5 32 1262.39 31.97 1262.32 31.91C1262.26 31.838 1262.23 31.724 1262.23 31.568V19.004C1262.23 18.872 1262.26 18.782 1262.32 18.734C1262.38 18.674 1262.48 18.644 1262.62 18.644ZM1265.54 20.876C1265.43 20.876 1265.38 20.96 1265.38 21.128V29.534C1265.38 29.63 1265.39 29.696 1265.41 29.732C1265.45 29.768 1265.51 29.786 1265.61 29.786H1265.95C1267.46 29.786 1268.58 29.438 1269.3 28.742C1270.03 28.034 1270.4 26.87 1270.4 25.25C1270.4 23.75 1270.09 22.67 1269.48 22.01C1268.87 21.35 1267.92 20.984 1266.64 20.912L1265.54 20.876Z" fill="#00FF19"/>
</svg>
