<svg width="2452" height="1024" viewBox="0 0 2452 1024" fill="none" xmlns="http://www.w3.org/2000/svg">
<rect width="2452" height="1024" fill="#7000FF"/>
<circle cx="326.5" cy="328.5" r="245.5" fill="#00FF19"/>
<circle cx="515.5" cy="646.5" r="72.5" fill="#00FF19"/>
<circle cx="1643.31" cy="747.31" r="72.5" transform="rotate(-10.3144 1643.31 747.31)" fill="#00FF19"/>
<circle cx="1016.29" cy="319.291" r="61.3048" transform="rotate(-10.3144 1016.29 319.291)" fill="#00FF19"/>
<circle cx="1195.42" cy="149.708" r="72.5" transform="rotate(31.5407 1195.42 149.708)" fill="#00FF19"/>
<circle cx="476" cy="776" r="23" fill="#00FF19"/>
<circle cx="1140.63" cy="277.634" r="23" transform="rotate(31.5407 1140.63 277.634)" fill="#00FF19"/>
<circle cx="1884.75" cy="494.747" r="23" transform="rotate(-10.3144 1884.75 494.747)" fill="#00FF19"/>
<circle cx="239" cy="768" r="158" fill="#00FF19"/>
<circle cx="2275" cy="197" r="158" fill="#00FF19"/>
<circle cx="1820.85" cy="105.846" r="57.5" transform="rotate(-12.8469 1820.85 105.846)" fill="#00FF19"/>
<circle cx="627" cy="818" r="91" fill="#00FF19"/>
<circle cx="1781.82" cy="893.823" r="91" transform="rotate(-10.3144 1781.82 893.823)" fill="#00FF19"/>
<circle cx="737" cy="355" r="91" fill="#00FF19"/>
<circle cx="1936.25" cy="331.557" r="91" transform="rotate(17.7353 1936.25 331.557)" fill="#00FF19"/>
<circle cx="1396.54" cy="678.536" r="91" transform="rotate(132.163 1396.54 678.536)" fill="#00FF19"/>
<circle cx="789.5" cy="195.5" r="38.5" fill="#00FF19"/>
<circle cx="73.7316" cy="119.995" r="38.5" transform="rotate(83.2957 73.7316 119.995)" fill="#00FF19"/>
<circle cx="2034.84" cy="195.63" r="38.5" transform="rotate(17.7353 2034.84 195.63)" fill="#00FF19"/>
<circle cx="1479.52" cy="824.513" r="38.5" transform="rotate(132.163 1479.52 824.513)" fill="#00FF19"/>
<circle cx="1009.3" cy="140.303" r="38.5" transform="rotate(174.018 1009.3 140.303)" fill="#00FF19"/>
<circle cx="1168.5" cy="402.5" r="38.5" fill="#00FF19"/>
<circle cx="578.5" cy="121.5" r="38.5" fill="#00FF19"/>
<circle cx="1933.54" cy="73.5449" r="20.5" transform="rotate(-12.8469 1933.54 73.5449)" fill="#00FF19"/>
<circle cx="728.5" cy="78.5" r="20.5" fill="#00FF19"/>
<circle cx="2002.15" cy="107.062" r="12" transform="rotate(-12.8469 2002.15 107.062)" fill="#00FF19"/>
<circle cx="1819.97" cy="437.97" r="12" transform="rotate(135.266 1819.97 437.97)" fill="#00FF19"/>
<circle cx="995.5" cy="683.5" r="254.5" fill="#00FF19"/>
<circle cx="1533.5" cy="314.5" r="254.5" fill="#00FF19"/>
<circle cx="2121.5" cy="724.5" r="254.5" fill="#00FF19"/>
<circle cx="657.5" cy="538.5" r="37.5" fill="#00FF19"/>
<circle cx="63.5" cy="595.5" r="37.5" fill="#00FF19"/>
<circle cx="1760.03" cy="629.032" r="37.5" transform="rotate(135.266 1760.03 629.032)" fill="#00FF19"/>
<circle r="13.5" transform="matrix(-1 0 0 1 606.5 454.5)" fill="#00FF19"/>
<circle r="13.5" transform="matrix(-1 0 0 1 44.5 282.5)" fill="#00FF19"/>
<circle r="13.5" transform="matrix(-1 0 0 1 29.5 471.5)" fill="#00FF19"/>
<circle r="13.5" transform="matrix(-1 0 0 1 1263.5 796.5)" fill="#00FF19"/>
<circle r="13.5" transform="matrix(0.710377 -0.703821 -0.703821 -0.710377 1642.09 616.094)" fill="#00FF19"/>
<circle r="24.2748" transform="matrix(-0.965926 0.258819 0.258819 0.965926 1280.73 512.73)" fill="#00FF19"/>
<circle r="13.5" transform="matrix(0.710377 -0.703821 -0.703821 -0.710377 1839.09 569.092)" fill="#00FF19"/>
<circle r="13.5" transform="matrix(0.710377 -0.703821 -0.703821 -0.710377 1780.09 753.092)" fill="#00FF19"/>
<circle r="13.5" transform="matrix(-1 0 0 1 637.5 619.5)" fill="#00FF19"/>
<circle r="13.5" transform="matrix(-1 0 0 1 149.5 563.5)" fill="#00FF19"/>
<circle r="13.5" transform="matrix(-1 0 0 1 936.5 209.5)" fill="#00FF19"/>
<circle r="13.5" transform="matrix(0.994555 -0.104217 -0.104217 -0.994555 860.834 98.8333)" fill="#00FF19"/>
<circle r="13.5" transform="matrix(-1 0 0 1 879.5 322.5)" fill="#00FF19"/>
<circle r="13.5" transform="matrix(-0.952474 -0.30462 -0.30462 0.952474 2089.97 337.971)" fill="#00FF19"/>
<circle r="13.5" transform="matrix(-1 0 0 1 699.5 220.5)" fill="#00FF19"/>
<circle r="13.5" transform="matrix(-0.952474 -0.30462 -0.30462 0.952474 1941.5 192.026)" fill="#00FF19"/>
<circle r="13.5" transform="matrix(-0.952474 -0.30462 -0.30462 0.952474 2166.97 419.971)" fill="#00FF19"/>
<circle r="13.5" transform="matrix(0.67124 -0.74124 -0.74124 -0.67124 1521.4 741.021)" fill="#00FF19"/>
<circle r="13.5" transform="matrix(0.994555 -0.104217 -0.104217 -0.994555 1108.82 63.6824)" fill="#00FF19"/>
</svg>
