<svg width="1448" height="48" viewBox="0 0 1448 48" fill="none" xmlns="http://www.w3.org/2000/svg">
<rect x="38" width="1328" height="48" fill="black"/>
<path d="M0.558 19.022C0.558 18.914 0.588 18.824 0.648 18.752C0.72 18.68 0.822 18.644 0.954 18.644H11.52C11.652 18.644 11.748 18.68 11.808 18.752C11.88 18.824 11.916 18.914 11.916 19.022V20.93C11.916 21.134 11.796 21.236 11.556 21.236H8.28C8.148 21.236 8.082 21.296 8.082 21.416V31.64C8.082 31.88 7.974 32 7.758 32H4.734C4.53 32 4.428 31.886 4.428 31.658V21.488C4.428 21.392 4.416 21.326 4.392 21.29C4.368 21.254 4.32 21.236 4.248 21.236H0.936C0.684 21.236 0.558 21.134 0.558 20.93V19.022ZM17.4665 26.492C17.3945 26.492 17.3345 26.516 17.2865 26.564C17.2385 26.6 17.2145 26.654 17.2145 26.726V31.532C17.2145 31.7 17.1725 31.82 17.0885 31.892C17.0045 31.964 16.8665 32 16.6745 32H14.0105C13.8425 32 13.7285 31.97 13.6685 31.91C13.6085 31.838 13.5785 31.73 13.5785 31.586V19.022C13.5785 18.902 13.6025 18.812 13.6505 18.752C13.7105 18.68 13.7885 18.644 13.8845 18.644H16.9085C17.0045 18.644 17.0765 18.674 17.1245 18.734C17.1845 18.794 17.2145 18.878 17.2145 18.986V23.378C17.2145 23.606 17.3105 23.72 17.5025 23.72H21.0845C21.2765 23.72 21.3725 23.606 21.3725 23.378V18.986C21.3725 18.878 21.3965 18.794 21.4445 18.734C21.5045 18.674 21.5825 18.644 21.6785 18.644H24.7025C24.7985 18.644 24.8705 18.68 24.9185 18.752C24.9785 18.812 25.0085 18.902 25.0085 19.022V31.586C25.0085 31.73 24.9785 31.838 24.9185 31.91C24.8585 31.97 24.7445 32 24.5765 32H21.9125C21.7205 32 21.5825 31.964 21.4985 31.892C21.4145 31.82 21.3725 31.7 21.3725 31.532V26.726C21.3725 26.654 21.3485 26.6 21.3005 26.564C21.2645 26.516 21.2045 26.492 21.1205 26.492H17.4665ZM27.2015 19.022C27.2015 18.77 27.3035 18.644 27.5075 18.644H36.9215C37.1135 18.644 37.2095 18.758 37.2095 18.986V20.858C37.2095 20.99 37.1735 21.098 37.1015 21.182C37.0295 21.254 36.9215 21.29 36.7775 21.29H31.2155C30.9635 21.29 30.8375 21.398 30.8375 21.614V23.648C30.8375 23.756 30.8615 23.84 30.9095 23.9C30.9695 23.96 31.0415 23.99 31.1255 23.99H34.6355C34.8635 23.99 34.9775 24.098 34.9775 24.314V26.312C34.9775 26.492 34.8815 26.582 34.6895 26.582H31.1075C30.9275 26.582 30.8375 26.666 30.8375 26.834V29.12C30.8375 29.204 30.8495 29.264 30.8735 29.3C30.9095 29.336 30.9635 29.354 31.0355 29.354H37.0295C37.1495 29.354 37.2395 29.378 37.2995 29.426C37.3595 29.474 37.3895 29.552 37.3895 29.66V31.64C37.3895 31.88 37.2635 32 37.0115 32H27.6335C27.4775 32 27.3635 31.97 27.2915 31.91C27.2315 31.838 27.2015 31.73 27.2015 31.586V19.022ZM54.1153 22.892C54.1153 23.756 53.9113 24.506 53.5033 25.142C53.0953 25.766 52.5193 26.246 51.7753 26.582C51.0313 26.906 50.1733 27.068 49.2013 27.068H46.6273C46.4953 27.068 46.4293 27.128 46.4293 27.248V31.532C46.4293 31.7 46.3873 31.82 46.3033 31.892C46.2193 31.964 46.0813 32 45.8893 32H43.2073C43.0513 32 42.9433 31.97 42.8833 31.91C42.8233 31.838 42.7933 31.73 42.7933 31.586V19.022C42.7933 18.77 42.8953 18.644 43.0993 18.644H48.7873C49.7953 18.644 50.7013 18.806 51.5053 19.13C52.3093 19.442 52.9453 19.916 53.4133 20.552C53.8813 21.188 54.1153 21.968 54.1153 22.892ZM50.4073 22.838C50.4073 22.334 50.2333 21.938 49.8853 21.65C49.5493 21.362 49.1113 21.218 48.5713 21.218H46.8073C46.6633 21.218 46.5613 21.248 46.5013 21.308C46.4533 21.356 46.4293 21.446 46.4293 21.578V24.116C46.4293 24.248 46.4473 24.344 46.4833 24.404C46.5193 24.452 46.5913 24.476 46.6993 24.476H48.6793C49.2073 24.476 49.6273 24.326 49.9393 24.026C50.2513 23.726 50.4073 23.33 50.4073 22.838ZM67.0691 31.46C67.0931 31.556 67.1051 31.616 67.1051 31.64C67.1051 31.748 67.0751 31.838 67.0151 31.91C66.9551 31.97 66.8711 32 66.7631 32H63.6851C63.4571 32 63.3071 31.886 63.2351 31.658L61.4351 26.816C61.3991 26.72 61.3391 26.654 61.2551 26.618C61.1831 26.57 61.0631 26.546 60.8951 26.546H59.6531C59.5811 26.546 59.5271 26.57 59.4911 26.618C59.4551 26.654 59.4371 26.696 59.4371 26.744V31.514C59.4371 31.694 59.3951 31.82 59.3111 31.892C59.2271 31.964 59.0891 32 58.8971 32H56.2151C56.0591 32 55.9511 31.97 55.8911 31.91C55.8311 31.838 55.8011 31.73 55.8011 31.586V19.022C55.8011 18.77 55.9031 18.644 56.1071 18.644H61.9391C63.6191 18.644 64.9211 18.974 65.8451 19.634C66.7691 20.282 67.2311 21.2 67.2311 22.388C67.2311 23.24 67.0031 23.984 66.5471 24.62C66.1031 25.256 65.5271 25.7 64.8191 25.952C64.7591 25.976 64.7291 26.036 64.7291 26.132C64.7291 26.192 64.7351 26.24 64.7471 26.276L67.0691 31.46ZM61.7051 24.134C62.2811 24.134 62.7191 24.002 63.0191 23.738C63.3191 23.474 63.4691 23.102 63.4691 22.622C63.4691 22.118 63.3011 21.728 62.9651 21.452C62.6411 21.176 62.2211 21.038 61.7051 21.038H59.8151C59.6711 21.038 59.5691 21.062 59.5091 21.11C59.4611 21.158 59.4371 21.242 59.4371 21.362V23.774C59.4371 23.906 59.4551 24.002 59.4911 24.062C59.5271 24.11 59.5991 24.134 59.7071 24.134H61.7051ZM74.8711 32.18C73.5871 32.18 72.4651 31.904 71.5051 31.352C70.5571 30.8 69.8251 30.014 69.3091 28.994C68.7931 27.962 68.5351 26.75 68.5351 25.358C68.5351 23.966 68.7931 22.754 69.3091 21.722C69.8371 20.678 70.5751 19.874 71.5231 19.31C72.4831 18.746 73.5991 18.464 74.8711 18.464C76.1311 18.464 77.2351 18.746 78.1831 19.31C79.1431 19.874 79.8811 20.678 80.3971 21.722C80.9251 22.754 81.1891 23.966 81.1891 25.358C81.1891 26.738 80.9311 27.944 80.4151 28.976C79.8991 29.996 79.1611 30.788 78.2011 31.352C77.2531 31.904 76.1431 32.18 74.8711 32.18ZM74.8891 29.66C75.7651 29.66 76.3951 29.33 76.7791 28.67C77.1751 28.01 77.3731 26.924 77.3731 25.412C77.3731 23.852 77.1691 22.724 76.7611 22.028C76.3651 21.32 75.7351 20.966 74.8711 20.966C73.9951 20.966 73.3531 21.32 72.9451 22.028C72.5491 22.724 72.3511 23.852 72.3511 25.412C72.3511 26.924 72.5491 28.01 72.9451 28.67C73.3411 29.33 73.9891 29.66 74.8891 29.66ZM83.3193 32C83.2113 32 83.1213 31.964 83.0493 31.892C82.9893 31.82 82.9593 31.736 82.9593 31.64V19.076C82.9593 18.944 82.9953 18.842 83.0673 18.77C83.1393 18.686 83.2353 18.644 83.3553 18.644H88.5033C90.3153 18.644 91.6953 18.944 92.6433 19.544C93.5913 20.132 94.0653 21.002 94.0653 22.154C94.0653 22.802 93.8853 23.354 93.5253 23.81C93.1773 24.266 92.5713 24.686 91.7073 25.07C91.6833 25.082 91.6713 25.106 91.6713 25.142C91.6713 25.166 91.6833 25.184 91.7073 25.196C92.6673 25.532 93.3513 25.952 93.7593 26.456C94.1793 26.948 94.3893 27.59 94.3893 28.382C94.3893 29.606 93.9213 30.518 92.9853 31.118C92.0613 31.706 90.6513 32 88.7553 32H83.3193ZM88.7733 24.008C89.2653 24.008 89.6673 23.882 89.9793 23.63C90.3033 23.366 90.4653 23.012 90.4653 22.568C90.4653 22.112 90.2913 21.752 89.9433 21.488C89.6073 21.212 89.1693 21.074 88.6293 21.074H86.9733C86.8293 21.074 86.7273 21.098 86.6673 21.146C86.6193 21.194 86.5953 21.278 86.5953 21.398V23.63C86.5953 23.762 86.6133 23.858 86.6493 23.918C86.6853 23.978 86.7573 24.008 86.8653 24.008H88.7733ZM88.6653 29.57C89.2893 29.57 89.7693 29.426 90.1053 29.138C90.4413 28.838 90.6093 28.46 90.6093 28.004C90.6093 27.536 90.4413 27.17 90.1053 26.906C89.7693 26.63 89.3253 26.492 88.7733 26.492H86.9733C86.8293 26.492 86.7273 26.522 86.6673 26.582C86.6193 26.63 86.5953 26.72 86.5953 26.852V29.21C86.5953 29.342 86.6133 29.438 86.6493 29.498C86.6853 29.546 86.7573 29.57 86.8653 29.57H88.6653ZM96.1253 19.022C96.1253 18.902 96.1493 18.812 96.1973 18.752C96.2573 18.68 96.3353 18.644 96.4313 18.644H99.4553C99.6593 18.644 99.7613 18.758 99.7613 18.986V29.12C99.7613 29.204 99.7733 29.264 99.7973 29.3C99.8333 29.336 99.8873 29.354 99.9593 29.354H105.539C105.791 29.354 105.917 29.456 105.917 29.66V31.64C105.917 31.748 105.881 31.838 105.809 31.91C105.737 31.97 105.635 32 105.503 32H96.5573C96.3893 32 96.2753 31.97 96.2153 31.91C96.1553 31.838 96.1253 31.73 96.1253 31.586V19.022ZM107.551 19.022C107.551 18.77 107.653 18.644 107.857 18.644H117.271C117.463 18.644 117.559 18.758 117.559 18.986V20.858C117.559 20.99 117.523 21.098 117.451 21.182C117.379 21.254 117.271 21.29 117.127 21.29H111.565C111.313 21.29 111.187 21.398 111.187 21.614V23.648C111.187 23.756 111.211 23.84 111.259 23.9C111.319 23.96 111.391 23.99 111.475 23.99H114.985C115.213 23.99 115.327 24.098 115.327 24.314V26.312C115.327 26.492 115.231 26.582 115.039 26.582H111.457C111.277 26.582 111.187 26.666 111.187 26.834V29.12C111.187 29.204 111.199 29.264 111.223 29.3C111.259 29.336 111.313 29.354 111.385 29.354H117.379C117.499 29.354 117.589 29.378 117.649 29.426C117.709 29.474 117.739 29.552 117.739 29.66V31.64C117.739 31.88 117.613 32 117.361 32H107.983C107.827 32 107.713 31.97 107.641 31.91C107.581 31.838 107.551 31.73 107.551 31.586V19.022ZM119.901 32C119.769 32 119.667 31.958 119.595 31.874C119.523 31.79 119.487 31.676 119.487 31.532V19.022C119.487 18.89 119.511 18.794 119.559 18.734C119.619 18.674 119.709 18.644 119.829 18.644H124.239C124.383 18.644 124.485 18.668 124.545 18.716C124.605 18.752 124.659 18.83 124.707 18.95L126.975 25.538C127.011 25.634 127.053 25.682 127.101 25.682C127.149 25.682 127.191 25.634 127.227 25.538L129.333 19.112C129.429 18.8 129.579 18.644 129.783 18.644H134.337C134.541 18.644 134.643 18.758 134.643 18.986V31.532C134.643 31.7 134.601 31.82 134.517 31.892C134.445 31.964 134.313 32 134.121 32H131.439C131.271 32 131.157 31.97 131.097 31.91C131.037 31.838 131.007 31.73 131.007 31.586V23.09C131.007 23.006 130.983 22.964 130.935 22.964C130.887 22.964 130.845 23.012 130.809 23.108L127.965 31.694C127.893 31.898 127.755 32 127.551 32H125.859C125.643 32 125.499 31.898 125.427 31.694L122.583 23.234C122.547 23.126 122.511 23.072 122.475 23.072C122.427 23.072 122.403 23.132 122.403 23.252V31.64C122.403 31.784 122.379 31.88 122.331 31.928C122.283 31.976 122.181 32 122.025 32H119.901ZM317.598 18.968C317.598 18.872 317.628 18.794 317.688 18.734C317.76 18.674 317.85 18.644 317.958 18.644H328.29C328.53 18.644 328.65 18.752 328.65 18.968V20.642C328.65 20.822 328.542 20.912 328.326 20.912H324.96C324.828 20.912 324.762 20.972 324.762 21.092V31.658C324.762 31.886 324.66 32 324.456 32H321.882C321.702 32 321.612 31.898 321.612 31.694V21.146C321.612 21.062 321.594 21.002 321.558 20.966C321.534 20.93 321.486 20.912 321.414 20.912H317.94C317.712 20.912 317.598 20.822 317.598 20.642V18.968ZM333.9 26.294C333.828 26.294 333.768 26.318 333.72 26.366C333.684 26.414 333.666 26.468 333.666 26.528V31.586C333.666 31.73 333.624 31.838 333.54 31.91C333.468 31.97 333.348 32 333.18 32H330.912C330.768 32 330.666 31.97 330.606 31.91C330.546 31.85 330.516 31.754 330.516 31.622V18.986C330.516 18.758 330.612 18.644 330.804 18.644H333.378C333.57 18.644 333.666 18.752 333.666 18.968V23.576C333.666 23.78 333.756 23.882 333.936 23.882H338.094C338.286 23.882 338.382 23.786 338.382 23.594V18.968C338.382 18.752 338.472 18.644 338.652 18.644H341.226C341.43 18.644 341.532 18.758 341.532 18.986V31.622C341.532 31.874 341.4 32 341.136 32H338.85C338.682 32 338.562 31.97 338.49 31.91C338.418 31.85 338.382 31.742 338.382 31.586V26.528C338.382 26.456 338.358 26.402 338.31 26.366C338.274 26.318 338.214 26.294 338.13 26.294H333.9ZM344.033 18.986C344.033 18.758 344.129 18.644 344.321 18.644H353.393C353.573 18.644 353.663 18.746 353.663 18.95L353.645 20.57C353.645 20.822 353.519 20.948 353.267 20.948H347.525C347.297 20.948 347.183 21.044 347.183 21.236V23.846C347.183 24.05 347.273 24.152 347.453 24.152H351.269C351.473 24.152 351.575 24.248 351.575 24.44V26.168C351.575 26.336 351.479 26.42 351.287 26.42H347.435C347.267 26.42 347.183 26.492 347.183 26.636V29.462C347.183 29.546 347.195 29.606 347.219 29.642C347.255 29.678 347.309 29.696 347.381 29.696H353.537C353.753 29.696 353.861 29.786 353.861 29.966V31.676C353.861 31.892 353.741 32 353.501 32H344.429C344.285 32 344.183 31.97 344.123 31.91C344.063 31.85 344.033 31.754 344.033 31.622V18.986ZM370.446 22.802C370.446 24.098 369.996 25.106 369.096 25.826C368.208 26.534 367.032 26.888 365.568 26.888H362.868C362.736 26.888 362.67 26.954 362.67 27.086V31.586C362.67 31.862 362.514 32 362.202 32H359.898C359.754 32 359.652 31.97 359.592 31.91C359.544 31.85 359.52 31.76 359.52 31.64V18.986C359.52 18.758 359.616 18.644 359.808 18.644H365.208C366.204 18.644 367.092 18.8 367.872 19.112C368.664 19.412 369.288 19.874 369.744 20.498C370.212 21.122 370.446 21.89 370.446 22.802ZM367.206 22.748C367.206 22.136 367.008 21.674 366.612 21.362C366.216 21.05 365.682 20.894 365.01 20.894H363.012C362.892 20.894 362.802 20.918 362.742 20.966C362.694 21.014 362.67 21.098 362.67 21.218V24.296C362.67 24.416 362.688 24.506 362.724 24.566C362.76 24.614 362.826 24.638 362.922 24.638H365.136C365.772 24.638 366.276 24.47 366.648 24.134C367.02 23.798 367.206 23.336 367.206 22.748ZM383.223 31.514C383.247 31.586 383.259 31.64 383.259 31.676C383.259 31.772 383.229 31.85 383.169 31.91C383.109 31.97 383.037 32 382.953 32H380.307C380.103 32 379.971 31.892 379.911 31.676L377.967 26.636C377.931 26.54 377.877 26.474 377.805 26.438C377.733 26.402 377.619 26.384 377.463 26.384H375.753C375.681 26.384 375.627 26.408 375.591 26.456C375.555 26.492 375.537 26.534 375.537 26.582V31.568C375.537 31.724 375.495 31.838 375.411 31.91C375.339 31.97 375.219 32 375.051 32H372.765C372.621 32 372.519 31.97 372.459 31.91C372.411 31.85 372.387 31.76 372.387 31.64V18.986C372.387 18.758 372.483 18.644 372.675 18.644H378.291C379.911 18.644 381.165 18.962 382.053 19.598C382.941 20.234 383.385 21.14 383.385 22.316C383.385 23.192 383.151 23.942 382.683 24.566C382.215 25.178 381.627 25.61 380.919 25.862C380.823 25.898 380.799 25.988 380.847 26.132L383.223 31.514ZM378.003 24.26C378.699 24.26 379.227 24.116 379.587 23.828C379.947 23.528 380.127 23.096 380.127 22.532C380.127 21.956 379.941 21.518 379.569 21.218C379.209 20.906 378.717 20.75 378.093 20.75H375.879C375.747 20.75 375.657 20.774 375.609 20.822C375.561 20.858 375.537 20.93 375.537 21.038V23.954C375.537 24.062 375.555 24.14 375.591 24.188C375.627 24.236 375.693 24.26 375.789 24.26H378.003ZM391.101 32.18C389.841 32.18 388.743 31.91 387.807 31.37C386.883 30.818 386.169 30.032 385.665 29.012C385.173 27.992 384.927 26.78 384.927 25.376C384.927 23.96 385.179 22.736 385.683 21.704C386.187 20.66 386.901 19.862 387.825 19.31C388.761 18.746 389.853 18.464 391.101 18.464C392.337 18.464 393.417 18.746 394.341 19.31C395.265 19.862 395.979 20.66 396.483 21.704C396.987 22.736 397.239 23.954 397.239 25.358C397.239 26.75 396.987 27.962 396.483 28.994C395.991 30.014 395.283 30.8 394.359 31.352C393.435 31.904 392.349 32.18 391.101 32.18ZM391.101 29.966C392.097 29.966 392.817 29.606 393.261 28.886C393.717 28.166 393.945 27.002 393.945 25.394C393.945 23.75 393.711 22.55 393.243 21.794C392.787 21.038 392.073 20.66 391.101 20.66C390.105 20.66 389.373 21.038 388.905 21.794C388.449 22.55 388.221 23.75 388.221 25.394C388.221 27.002 388.449 28.166 388.905 28.886C389.361 29.606 390.093 29.966 391.101 29.966ZM399.659 32C399.551 32 399.467 31.97 399.407 31.91C399.347 31.85 399.317 31.772 399.317 31.676V19.022C399.317 18.902 399.347 18.812 399.407 18.752C399.479 18.68 399.569 18.644 399.677 18.644H404.555C406.319 18.644 407.663 18.944 408.587 19.544C409.523 20.132 409.991 21.002 409.991 22.154C409.991 22.826 409.811 23.396 409.451 23.864C409.091 24.32 408.485 24.722 407.633 25.07C407.597 25.082 407.579 25.106 407.579 25.142C407.579 25.178 407.597 25.202 407.633 25.214C408.569 25.526 409.247 25.934 409.667 26.438C410.099 26.93 410.315 27.578 410.315 28.382C410.315 29.606 409.853 30.518 408.929 31.118C408.017 31.706 406.637 32 404.789 32H399.659ZM404.825 24.152C405.413 24.152 405.899 24.014 406.283 23.738C406.679 23.45 406.877 23.042 406.877 22.514C406.877 21.962 406.673 21.536 406.265 21.236C405.857 20.924 405.323 20.768 404.663 20.768H402.809C402.689 20.768 402.599 20.792 402.539 20.84C402.491 20.888 402.467 20.966 402.467 21.074V23.828C402.467 23.948 402.485 24.032 402.521 24.08C402.557 24.128 402.623 24.152 402.719 24.152H404.825ZM404.699 29.876C405.467 29.876 406.049 29.72 406.445 29.408C406.841 29.084 407.039 28.646 407.039 28.094C407.039 27.542 406.835 27.116 406.427 26.816C406.019 26.504 405.485 26.348 404.825 26.348H402.809C402.677 26.348 402.587 26.372 402.539 26.42C402.491 26.456 402.467 26.534 402.467 26.654V29.534C402.467 29.654 402.485 29.744 402.521 29.804C402.557 29.852 402.623 29.876 402.719 29.876H404.699ZM412.324 18.986C412.324 18.758 412.42 18.644 412.612 18.644H415.186C415.378 18.644 415.474 18.752 415.474 18.968V29.462C415.474 29.546 415.486 29.606 415.51 29.642C415.546 29.678 415.6 29.696 415.672 29.696H421.414C421.63 29.696 421.738 29.786 421.738 29.966V31.676C421.738 31.772 421.708 31.85 421.648 31.91C421.588 31.97 421.504 32 421.396 32H412.72C412.576 32 412.474 31.97 412.414 31.91C412.354 31.85 412.324 31.754 412.324 31.622V18.986ZM423.61 18.986C423.61 18.758 423.706 18.644 423.898 18.644H432.97C433.15 18.644 433.24 18.746 433.24 18.95L433.222 20.57C433.222 20.822 433.096 20.948 432.844 20.948H427.102C426.874 20.948 426.76 21.044 426.76 21.236V23.846C426.76 24.05 426.85 24.152 427.03 24.152H430.846C431.05 24.152 431.152 24.248 431.152 24.44V26.168C431.152 26.336 431.056 26.42 430.864 26.42H427.012C426.844 26.42 426.76 26.492 426.76 26.636V29.462C426.76 29.546 426.772 29.606 426.796 29.642C426.832 29.678 426.886 29.696 426.958 29.696H433.114C433.33 29.696 433.438 29.786 433.438 29.966V31.676C433.438 31.892 433.318 32 433.078 32H424.006C423.862 32 423.76 31.97 423.7 31.91C423.64 31.85 423.61 31.754 423.61 31.622V18.986ZM435.765 32C435.645 32 435.549 31.964 435.477 31.892C435.417 31.82 435.387 31.718 435.387 31.586V18.986C435.387 18.758 435.489 18.644 435.693 18.644H439.419C439.551 18.644 439.647 18.662 439.707 18.698C439.767 18.734 439.815 18.806 439.851 18.914L442.569 26.456C442.605 26.552 442.647 26.6 442.695 26.6C442.743 26.6 442.785 26.552 442.821 26.456L445.413 19.058C445.485 18.782 445.617 18.644 445.809 18.644H449.679C449.859 18.644 449.949 18.752 449.949 18.968V31.568C449.949 31.724 449.913 31.838 449.841 31.91C449.769 31.97 449.655 32 449.499 32H447.177C447.033 32 446.931 31.976 446.871 31.928C446.823 31.868 446.799 31.772 446.799 31.64V22.676C446.799 22.592 446.781 22.55 446.745 22.55C446.709 22.55 446.673 22.598 446.637 22.694L443.487 31.712C443.427 31.904 443.301 32 443.109 32H441.615C441.399 32 441.267 31.904 441.219 31.712L438.105 22.82C438.069 22.724 438.033 22.676 437.997 22.676C437.949 22.676 437.925 22.73 437.925 22.838V31.676C437.925 31.808 437.901 31.898 437.853 31.946C437.817 31.982 437.733 32 437.601 32H435.765ZM636.781 18.968C636.781 18.872 636.812 18.794 636.872 18.734C636.944 18.674 637.034 18.644 637.142 18.644H647.474C647.714 18.644 647.834 18.752 647.834 18.968V20.642C647.834 20.822 647.726 20.912 647.51 20.912H644.144C644.012 20.912 643.946 20.972 643.946 21.092V31.658C643.946 31.886 643.844 32 643.64 32H641.066C640.886 32 640.796 31.898 640.796 31.694V21.146C640.796 21.062 640.778 21.002 640.742 20.966C640.718 20.93 640.67 20.912 640.598 20.912H637.124C636.896 20.912 636.781 20.822 636.781 20.642V18.968ZM653.083 26.294C653.011 26.294 652.951 26.318 652.903 26.366C652.867 26.414 652.849 26.468 652.849 26.528V31.586C652.849 31.73 652.807 31.838 652.723 31.91C652.651 31.97 652.531 32 652.363 32H650.095C649.951 32 649.849 31.97 649.789 31.91C649.729 31.85 649.699 31.754 649.699 31.622V18.986C649.699 18.758 649.795 18.644 649.987 18.644H652.561C652.753 18.644 652.849 18.752 652.849 18.968V23.576C652.849 23.78 652.939 23.882 653.119 23.882H657.277C657.469 23.882 657.565 23.786 657.565 23.594V18.968C657.565 18.752 657.655 18.644 657.835 18.644H660.409C660.613 18.644 660.715 18.758 660.715 18.986V31.622C660.715 31.874 660.583 32 660.319 32H658.033C657.865 32 657.745 31.97 657.673 31.91C657.601 31.85 657.565 31.742 657.565 31.586V26.528C657.565 26.456 657.541 26.402 657.493 26.366C657.457 26.318 657.397 26.294 657.313 26.294H653.083ZM663.217 18.986C663.217 18.758 663.313 18.644 663.505 18.644H672.577C672.757 18.644 672.847 18.746 672.847 18.95L672.829 20.57C672.829 20.822 672.703 20.948 672.451 20.948H666.709C666.481 20.948 666.367 21.044 666.367 21.236V23.846C666.367 24.05 666.457 24.152 666.637 24.152H670.453C670.657 24.152 670.759 24.248 670.759 24.44V26.168C670.759 26.336 670.663 26.42 670.471 26.42H666.619C666.451 26.42 666.367 26.492 666.367 26.636V29.462C666.367 29.546 666.379 29.606 666.403 29.642C666.439 29.678 666.493 29.696 666.565 29.696H672.721C672.937 29.696 673.045 29.786 673.045 29.966V31.676C673.045 31.892 672.925 32 672.685 32H663.613C663.469 32 663.367 31.97 663.307 31.91C663.247 31.85 663.217 31.754 663.217 31.622V18.986ZM689.629 22.802C689.629 24.098 689.179 25.106 688.279 25.826C687.391 26.534 686.215 26.888 684.751 26.888H682.051C681.919 26.888 681.853 26.954 681.853 27.086V31.586C681.853 31.862 681.697 32 681.385 32H679.081C678.937 32 678.835 31.97 678.775 31.91C678.727 31.85 678.703 31.76 678.703 31.64V18.986C678.703 18.758 678.799 18.644 678.991 18.644H684.391C685.387 18.644 686.275 18.8 687.055 19.112C687.847 19.412 688.471 19.874 688.927 20.498C689.395 21.122 689.629 21.89 689.629 22.802ZM686.389 22.748C686.389 22.136 686.191 21.674 685.795 21.362C685.399 21.05 684.865 20.894 684.193 20.894H682.195C682.075 20.894 681.985 20.918 681.925 20.966C681.877 21.014 681.853 21.098 681.853 21.218V24.296C681.853 24.416 681.871 24.506 681.907 24.566C681.943 24.614 682.009 24.638 682.105 24.638H684.319C684.955 24.638 685.459 24.47 685.831 24.134C686.203 23.798 686.389 23.336 686.389 22.748ZM702.407 31.514C702.431 31.586 702.443 31.64 702.443 31.676C702.443 31.772 702.413 31.85 702.353 31.91C702.293 31.97 702.221 32 702.137 32H699.491C699.287 32 699.155 31.892 699.095 31.676L697.151 26.636C697.115 26.54 697.061 26.474 696.989 26.438C696.917 26.402 696.803 26.384 696.647 26.384H694.937C694.865 26.384 694.811 26.408 694.775 26.456C694.739 26.492 694.721 26.534 694.721 26.582V31.568C694.721 31.724 694.679 31.838 694.595 31.91C694.523 31.97 694.403 32 694.235 32H691.949C691.805 32 691.703 31.97 691.643 31.91C691.595 31.85 691.571 31.76 691.571 31.64V18.986C691.571 18.758 691.667 18.644 691.859 18.644H697.475C699.095 18.644 700.349 18.962 701.237 19.598C702.125 20.234 702.569 21.14 702.569 22.316C702.569 23.192 702.335 23.942 701.867 24.566C701.399 25.178 700.811 25.61 700.103 25.862C700.007 25.898 699.983 25.988 700.031 26.132L702.407 31.514ZM697.187 24.26C697.883 24.26 698.411 24.116 698.771 23.828C699.131 23.528 699.311 23.096 699.311 22.532C699.311 21.956 699.125 21.518 698.753 21.218C698.393 20.906 697.901 20.75 697.277 20.75H695.063C694.931 20.75 694.841 20.774 694.793 20.822C694.745 20.858 694.721 20.93 694.721 21.038V23.954C694.721 24.062 694.739 24.14 694.775 24.188C694.811 24.236 694.877 24.26 694.973 24.26H697.187ZM710.285 32.18C709.025 32.18 707.927 31.91 706.991 31.37C706.067 30.818 705.353 30.032 704.849 29.012C704.357 27.992 704.111 26.78 704.111 25.376C704.111 23.96 704.363 22.736 704.867 21.704C705.371 20.66 706.085 19.862 707.009 19.31C707.945 18.746 709.037 18.464 710.285 18.464C711.521 18.464 712.601 18.746 713.525 19.31C714.449 19.862 715.163 20.66 715.667 21.704C716.171 22.736 716.423 23.954 716.423 25.358C716.423 26.75 716.171 27.962 715.667 28.994C715.175 30.014 714.467 30.8 713.543 31.352C712.619 31.904 711.533 32.18 710.285 32.18ZM710.285 29.966C711.281 29.966 712.001 29.606 712.445 28.886C712.901 28.166 713.129 27.002 713.129 25.394C713.129 23.75 712.895 22.55 712.427 21.794C711.971 21.038 711.257 20.66 710.285 20.66C709.289 20.66 708.557 21.038 708.089 21.794C707.633 22.55 707.405 23.75 707.405 25.394C707.405 27.002 707.633 28.166 708.089 28.886C708.545 29.606 709.277 29.966 710.285 29.966ZM718.842 32C718.734 32 718.65 31.97 718.59 31.91C718.53 31.85 718.5 31.772 718.5 31.676V19.022C718.5 18.902 718.53 18.812 718.59 18.752C718.662 18.68 718.752 18.644 718.86 18.644H723.738C725.502 18.644 726.846 18.944 727.77 19.544C728.706 20.132 729.174 21.002 729.174 22.154C729.174 22.826 728.994 23.396 728.634 23.864C728.274 24.32 727.668 24.722 726.816 25.07C726.78 25.082 726.762 25.106 726.762 25.142C726.762 25.178 726.78 25.202 726.816 25.214C727.752 25.526 728.43 25.934 728.85 26.438C729.282 26.93 729.498 27.578 729.498 28.382C729.498 29.606 729.036 30.518 728.112 31.118C727.2 31.706 725.82 32 723.972 32H718.842ZM724.008 24.152C724.596 24.152 725.082 24.014 725.466 23.738C725.862 23.45 726.06 23.042 726.06 22.514C726.06 21.962 725.856 21.536 725.448 21.236C725.04 20.924 724.506 20.768 723.846 20.768H721.992C721.872 20.768 721.782 20.792 721.722 20.84C721.674 20.888 721.65 20.966 721.65 21.074V23.828C721.65 23.948 721.668 24.032 721.704 24.08C721.74 24.128 721.806 24.152 721.902 24.152H724.008ZM723.882 29.876C724.65 29.876 725.232 29.72 725.628 29.408C726.024 29.084 726.222 28.646 726.222 28.094C726.222 27.542 726.018 27.116 725.61 26.816C725.202 26.504 724.668 26.348 724.008 26.348H721.992C721.86 26.348 721.77 26.372 721.722 26.42C721.674 26.456 721.65 26.534 721.65 26.654V29.534C721.65 29.654 721.668 29.744 721.704 29.804C721.74 29.852 721.806 29.876 721.902 29.876H723.882ZM731.508 18.986C731.508 18.758 731.604 18.644 731.796 18.644H734.37C734.562 18.644 734.658 18.752 734.658 18.968V29.462C734.658 29.546 734.67 29.606 734.694 29.642C734.73 29.678 734.784 29.696 734.856 29.696H740.598C740.814 29.696 740.922 29.786 740.922 29.966V31.676C740.922 31.772 740.892 31.85 740.832 31.91C740.772 31.97 740.688 32 740.58 32H731.904C731.76 32 731.658 31.97 731.598 31.91C731.538 31.85 731.508 31.754 731.508 31.622V18.986ZM742.793 18.986C742.793 18.758 742.889 18.644 743.081 18.644H752.153C752.333 18.644 752.423 18.746 752.423 18.95L752.405 20.57C752.405 20.822 752.279 20.948 752.027 20.948H746.285C746.057 20.948 745.943 21.044 745.943 21.236V23.846C745.943 24.05 746.033 24.152 746.213 24.152H750.029C750.233 24.152 750.335 24.248 750.335 24.44V26.168C750.335 26.336 750.239 26.42 750.047 26.42H746.195C746.027 26.42 745.943 26.492 745.943 26.636V29.462C745.943 29.546 745.955 29.606 745.979 29.642C746.015 29.678 746.069 29.696 746.141 29.696H752.297C752.513 29.696 752.621 29.786 752.621 29.966V31.676C752.621 31.892 752.501 32 752.261 32H743.189C743.045 32 742.943 31.97 742.883 31.91C742.823 31.85 742.793 31.754 742.793 31.622V18.986ZM754.949 32C754.829 32 754.733 31.964 754.661 31.892C754.601 31.82 754.571 31.718 754.571 31.586V18.986C754.571 18.758 754.673 18.644 754.877 18.644H758.603C758.735 18.644 758.831 18.662 758.891 18.698C758.951 18.734 758.999 18.806 759.035 18.914L761.753 26.456C761.789 26.552 761.831 26.6 761.879 26.6C761.927 26.6 761.969 26.552 762.005 26.456L764.597 19.058C764.669 18.782 764.801 18.644 764.993 18.644H768.863C769.043 18.644 769.133 18.752 769.133 18.968V31.568C769.133 31.724 769.097 31.838 769.025 31.91C768.953 31.97 768.839 32 768.683 32H766.361C766.217 32 766.115 31.976 766.055 31.928C766.007 31.868 765.983 31.772 765.983 31.64V22.676C765.983 22.592 765.965 22.55 765.929 22.55C765.893 22.55 765.857 22.598 765.821 22.694L762.671 31.712C762.611 31.904 762.485 32 762.293 32H760.799C760.583 32 760.451 31.904 760.403 31.712L757.289 22.82C757.253 22.724 757.217 22.676 757.181 22.676C757.133 22.676 757.109 22.73 757.109 22.838V31.676C757.109 31.808 757.085 31.898 757.037 31.946C757.001 31.982 756.917 32 756.785 32H754.949ZM955.965 18.968C955.965 18.872 955.995 18.794 956.055 18.734C956.127 18.674 956.217 18.644 956.325 18.644H966.657C966.897 18.644 967.017 18.752 967.017 18.968V20.642C967.017 20.822 966.909 20.912 966.693 20.912H963.327C963.195 20.912 963.129 20.972 963.129 21.092V31.658C963.129 31.886 963.027 32 962.823 32H960.249C960.069 32 959.979 31.898 959.979 31.694V21.146C959.979 21.062 959.961 21.002 959.925 20.966C959.901 20.93 959.853 20.912 959.781 20.912H956.307C956.079 20.912 955.965 20.822 955.965 20.642V18.968ZM972.267 26.294C972.195 26.294 972.135 26.318 972.087 26.366C972.051 26.414 972.033 26.468 972.033 26.528V31.586C972.033 31.73 971.991 31.838 971.907 31.91C971.835 31.97 971.715 32 971.547 32H969.279C969.135 32 969.033 31.97 968.973 31.91C968.913 31.85 968.883 31.754 968.883 31.622V18.986C968.883 18.758 968.979 18.644 969.171 18.644H971.745C971.937 18.644 972.033 18.752 972.033 18.968V23.576C972.033 23.78 972.123 23.882 972.303 23.882H976.461C976.653 23.882 976.749 23.786 976.749 23.594V18.968C976.749 18.752 976.839 18.644 977.019 18.644H979.593C979.797 18.644 979.899 18.758 979.899 18.986V31.622C979.899 31.874 979.767 32 979.503 32H977.217C977.049 32 976.929 31.97 976.857 31.91C976.785 31.85 976.749 31.742 976.749 31.586V26.528C976.749 26.456 976.725 26.402 976.677 26.366C976.641 26.318 976.581 26.294 976.497 26.294H972.267ZM982.401 18.986C982.401 18.758 982.497 18.644 982.689 18.644H991.761C991.941 18.644 992.031 18.746 992.031 18.95L992.013 20.57C992.013 20.822 991.887 20.948 991.635 20.948H985.893C985.665 20.948 985.551 21.044 985.551 21.236V23.846C985.551 24.05 985.641 24.152 985.821 24.152H989.637C989.841 24.152 989.943 24.248 989.943 24.44V26.168C989.943 26.336 989.847 26.42 989.655 26.42H985.803C985.635 26.42 985.551 26.492 985.551 26.636V29.462C985.551 29.546 985.563 29.606 985.587 29.642C985.623 29.678 985.677 29.696 985.749 29.696H991.905C992.121 29.696 992.229 29.786 992.229 29.966V31.676C992.229 31.892 992.109 32 991.869 32H982.797C982.653 32 982.551 31.97 982.491 31.91C982.431 31.85 982.401 31.754 982.401 31.622V18.986ZM1008.81 22.802C1008.81 24.098 1008.36 25.106 1007.46 25.826C1006.57 26.534 1005.4 26.888 1003.93 26.888H1001.23C1001.1 26.888 1001.04 26.954 1001.04 27.086V31.586C1001.04 31.862 1000.88 32 1000.57 32H998.265C998.121 32 998.019 31.97 997.959 31.91C997.911 31.85 997.887 31.76 997.887 31.64V18.986C997.887 18.758 997.983 18.644 998.175 18.644H1003.57C1004.57 18.644 1005.46 18.8 1006.24 19.112C1007.03 19.412 1007.65 19.874 1008.11 20.498C1008.58 21.122 1008.81 21.89 1008.81 22.802ZM1005.57 22.748C1005.57 22.136 1005.37 21.674 1004.98 21.362C1004.58 21.05 1004.05 20.894 1003.38 20.894H1001.38C1001.26 20.894 1001.17 20.918 1001.11 20.966C1001.06 21.014 1001.04 21.098 1001.04 21.218V24.296C1001.04 24.416 1001.05 24.506 1001.09 24.566C1001.13 24.614 1001.19 24.638 1001.29 24.638H1003.5C1004.14 24.638 1004.64 24.47 1005.01 24.134C1005.39 23.798 1005.57 23.336 1005.57 22.748ZM1021.59 31.514C1021.61 31.586 1021.63 31.64 1021.63 31.676C1021.63 31.772 1021.6 31.85 1021.54 31.91C1021.48 31.97 1021.4 32 1021.32 32H1018.67C1018.47 32 1018.34 31.892 1018.28 31.676L1016.33 26.636C1016.3 26.54 1016.24 26.474 1016.17 26.438C1016.1 26.402 1015.99 26.384 1015.83 26.384H1014.12C1014.05 26.384 1013.99 26.408 1013.96 26.456C1013.92 26.492 1013.9 26.534 1013.9 26.582V31.568C1013.9 31.724 1013.86 31.838 1013.78 31.91C1013.71 31.97 1013.59 32 1013.42 32H1011.13C1010.99 32 1010.89 31.97 1010.83 31.91C1010.78 31.85 1010.75 31.76 1010.75 31.64V18.986C1010.75 18.758 1010.85 18.644 1011.04 18.644H1016.66C1018.28 18.644 1019.53 18.962 1020.42 19.598C1021.31 20.234 1021.75 21.14 1021.75 22.316C1021.75 23.192 1021.52 23.942 1021.05 24.566C1020.58 25.178 1019.99 25.61 1019.29 25.862C1019.19 25.898 1019.17 25.988 1019.21 26.132L1021.59 31.514ZM1016.37 24.26C1017.07 24.26 1017.59 24.116 1017.95 23.828C1018.31 23.528 1018.49 23.096 1018.49 22.532C1018.49 21.956 1018.31 21.518 1017.94 21.218C1017.58 20.906 1017.08 20.75 1016.46 20.75H1014.25C1014.11 20.75 1014.02 20.774 1013.98 20.822C1013.93 20.858 1013.9 20.93 1013.9 21.038V23.954C1013.9 24.062 1013.92 24.14 1013.96 24.188C1013.99 24.236 1014.06 24.26 1014.16 24.26H1016.37ZM1029.47 32.18C1028.21 32.18 1027.11 31.91 1026.17 31.37C1025.25 30.818 1024.54 30.032 1024.03 29.012C1023.54 27.992 1023.29 26.78 1023.29 25.376C1023.29 23.96 1023.55 22.736 1024.05 21.704C1024.55 20.66 1025.27 19.862 1026.19 19.31C1027.13 18.746 1028.22 18.464 1029.47 18.464C1030.7 18.464 1031.78 18.746 1032.71 19.31C1033.63 19.862 1034.35 20.66 1034.85 21.704C1035.35 22.736 1035.61 23.954 1035.61 25.358C1035.61 26.75 1035.35 27.962 1034.85 28.994C1034.36 30.014 1033.65 30.8 1032.73 31.352C1031.8 31.904 1030.72 32.18 1029.47 32.18ZM1029.47 29.966C1030.46 29.966 1031.18 29.606 1031.63 28.886C1032.08 28.166 1032.31 27.002 1032.31 25.394C1032.31 23.75 1032.08 22.55 1031.61 21.794C1031.15 21.038 1030.44 20.66 1029.47 20.66C1028.47 20.66 1027.74 21.038 1027.27 21.794C1026.82 22.55 1026.59 23.75 1026.59 25.394C1026.59 27.002 1026.82 28.166 1027.27 28.886C1027.73 29.606 1028.46 29.966 1029.47 29.966ZM1038.03 32C1037.92 32 1037.83 31.97 1037.77 31.91C1037.71 31.85 1037.68 31.772 1037.68 31.676V19.022C1037.68 18.902 1037.71 18.812 1037.77 18.752C1037.85 18.68 1037.94 18.644 1038.04 18.644H1042.92C1044.69 18.644 1046.03 18.944 1046.95 19.544C1047.89 20.132 1048.36 21.002 1048.36 22.154C1048.36 22.826 1048.18 23.396 1047.82 23.864C1047.46 24.32 1046.85 24.722 1046 25.07C1045.96 25.082 1045.95 25.106 1045.95 25.142C1045.95 25.178 1045.96 25.202 1046 25.214C1046.94 25.526 1047.61 25.934 1048.03 26.438C1048.47 26.93 1048.68 27.578 1048.68 28.382C1048.68 29.606 1048.22 30.518 1047.3 31.118C1046.38 31.706 1045 32 1043.16 32H1038.03ZM1043.19 24.152C1043.78 24.152 1044.27 24.014 1044.65 23.738C1045.05 23.45 1045.24 23.042 1045.24 22.514C1045.24 21.962 1045.04 21.536 1044.63 21.236C1044.22 20.924 1043.69 20.768 1043.03 20.768H1041.18C1041.06 20.768 1040.97 20.792 1040.91 20.84C1040.86 20.888 1040.83 20.966 1040.83 21.074V23.828C1040.83 23.948 1040.85 24.032 1040.89 24.08C1040.92 24.128 1040.99 24.152 1041.09 24.152H1043.19ZM1043.07 29.876C1043.83 29.876 1044.42 29.72 1044.81 29.408C1045.21 29.084 1045.41 28.646 1045.41 28.094C1045.41 27.542 1045.2 27.116 1044.79 26.816C1044.39 26.504 1043.85 26.348 1043.19 26.348H1041.18C1041.04 26.348 1040.95 26.372 1040.91 26.42C1040.86 26.456 1040.83 26.534 1040.83 26.654V29.534C1040.83 29.654 1040.85 29.744 1040.89 29.804C1040.92 29.852 1040.99 29.876 1041.09 29.876H1043.07ZM1050.69 18.986C1050.69 18.758 1050.79 18.644 1050.98 18.644H1053.55C1053.75 18.644 1053.84 18.752 1053.84 18.968V29.462C1053.84 29.546 1053.85 29.606 1053.88 29.642C1053.91 29.678 1053.97 29.696 1054.04 29.696H1059.78C1060 29.696 1060.11 29.786 1060.11 29.966V31.676C1060.11 31.772 1060.08 31.85 1060.02 31.91C1059.96 31.97 1059.87 32 1059.76 32H1051.09C1050.94 32 1050.84 31.97 1050.78 31.91C1050.72 31.85 1050.69 31.754 1050.69 31.622V18.986ZM1061.98 18.986C1061.98 18.758 1062.07 18.644 1062.26 18.644H1071.34C1071.52 18.644 1071.61 18.746 1071.61 18.95L1071.59 20.57C1071.59 20.822 1071.46 20.948 1071.21 20.948H1065.47C1065.24 20.948 1065.13 21.044 1065.13 21.236V23.846C1065.13 24.05 1065.22 24.152 1065.4 24.152H1069.21C1069.42 24.152 1069.52 24.248 1069.52 24.44V26.168C1069.52 26.336 1069.42 26.42 1069.23 26.42H1065.38C1065.21 26.42 1065.13 26.492 1065.13 26.636V29.462C1065.13 29.546 1065.14 29.606 1065.16 29.642C1065.2 29.678 1065.25 29.696 1065.32 29.696H1071.48C1071.7 29.696 1071.8 29.786 1071.8 29.966V31.676C1071.8 31.892 1071.68 32 1071.44 32H1062.37C1062.23 32 1062.13 31.97 1062.07 31.91C1062.01 31.85 1061.98 31.754 1061.98 31.622V18.986ZM1074.13 32C1074.01 32 1073.92 31.964 1073.84 31.892C1073.78 31.82 1073.75 31.718 1073.75 31.586V18.986C1073.75 18.758 1073.86 18.644 1074.06 18.644H1077.79C1077.92 18.644 1078.01 18.662 1078.07 18.698C1078.13 18.734 1078.18 18.806 1078.22 18.914L1080.94 26.456C1080.97 26.552 1081.01 26.6 1081.06 26.6C1081.11 26.6 1081.15 26.552 1081.19 26.456L1083.78 19.058C1083.85 18.782 1083.98 18.644 1084.18 18.644H1088.05C1088.23 18.644 1088.32 18.752 1088.32 18.968V31.568C1088.32 31.724 1088.28 31.838 1088.21 31.91C1088.14 31.97 1088.02 32 1087.87 32H1085.54C1085.4 32 1085.3 31.976 1085.24 31.928C1085.19 31.868 1085.17 31.772 1085.17 31.64V22.676C1085.17 22.592 1085.15 22.55 1085.11 22.55C1085.08 22.55 1085.04 22.598 1085 22.694L1081.85 31.712C1081.79 31.904 1081.67 32 1081.48 32H1079.98C1079.77 32 1079.63 31.904 1079.59 31.712L1076.47 22.82C1076.44 22.724 1076.4 22.676 1076.36 22.676C1076.32 22.676 1076.29 22.73 1076.29 22.838V31.676C1076.29 31.808 1076.27 31.898 1076.22 31.946C1076.18 31.982 1076.1 32 1075.97 32H1074.13ZM1275.15 18.968C1275.15 18.872 1275.18 18.794 1275.24 18.734C1275.31 18.674 1275.4 18.644 1275.51 18.644H1285.84C1286.08 18.644 1286.2 18.752 1286.2 18.968V20.642C1286.2 20.822 1286.09 20.912 1285.88 20.912H1282.51C1282.38 20.912 1282.31 20.972 1282.31 21.092V31.658C1282.31 31.886 1282.21 32 1282.01 32H1279.43C1279.25 32 1279.16 31.898 1279.16 31.694V21.146C1279.16 21.062 1279.14 21.002 1279.11 20.966C1279.08 20.93 1279.04 20.912 1278.96 20.912H1275.49C1275.26 20.912 1275.15 20.822 1275.15 20.642V18.968ZM1291.45 26.294C1291.38 26.294 1291.32 26.318 1291.27 26.366C1291.23 26.414 1291.22 26.468 1291.22 26.528V31.586C1291.22 31.73 1291.17 31.838 1291.09 31.91C1291.02 31.97 1290.9 32 1290.73 32H1288.46C1288.32 32 1288.22 31.97 1288.16 31.91C1288.1 31.85 1288.07 31.754 1288.07 31.622V18.986C1288.07 18.758 1288.16 18.644 1288.35 18.644H1290.93C1291.12 18.644 1291.22 18.752 1291.22 18.968V23.576C1291.22 23.78 1291.31 23.882 1291.49 23.882H1295.64C1295.84 23.882 1295.93 23.786 1295.93 23.594V18.968C1295.93 18.752 1296.02 18.644 1296.2 18.644H1298.78C1298.98 18.644 1299.08 18.758 1299.08 18.986V31.622C1299.08 31.874 1298.95 32 1298.69 32H1296.4C1296.23 32 1296.11 31.97 1296.04 31.91C1295.97 31.85 1295.93 31.742 1295.93 31.586V26.528C1295.93 26.456 1295.91 26.402 1295.86 26.366C1295.82 26.318 1295.76 26.294 1295.68 26.294H1291.45ZM1301.58 18.986C1301.58 18.758 1301.68 18.644 1301.87 18.644H1310.94C1311.12 18.644 1311.21 18.746 1311.21 18.95L1311.2 20.57C1311.2 20.822 1311.07 20.948 1310.82 20.948H1305.08C1304.85 20.948 1304.73 21.044 1304.73 21.236V23.846C1304.73 24.05 1304.82 24.152 1305 24.152H1308.82C1309.02 24.152 1309.13 24.248 1309.13 24.44V26.168C1309.13 26.336 1309.03 26.42 1308.84 26.42H1304.99C1304.82 26.42 1304.73 26.492 1304.73 26.636V29.462C1304.73 29.546 1304.75 29.606 1304.77 29.642C1304.81 29.678 1304.86 29.696 1304.93 29.696H1311.09C1311.3 29.696 1311.41 29.786 1311.41 29.966V31.676C1311.41 31.892 1311.29 32 1311.05 32H1301.98C1301.84 32 1301.73 31.97 1301.67 31.91C1301.61 31.85 1301.58 31.754 1301.58 31.622V18.986ZM1328 22.802C1328 24.098 1327.55 25.106 1326.65 25.826C1325.76 26.534 1324.58 26.888 1323.12 26.888H1320.42C1320.29 26.888 1320.22 26.954 1320.22 27.086V31.586C1320.22 31.862 1320.06 32 1319.75 32H1317.45C1317.3 32 1317.2 31.97 1317.14 31.91C1317.09 31.85 1317.07 31.76 1317.07 31.64V18.986C1317.07 18.758 1317.17 18.644 1317.36 18.644H1322.76C1323.75 18.644 1324.64 18.8 1325.42 19.112C1326.21 19.412 1326.84 19.874 1327.29 20.498C1327.76 21.122 1328 21.89 1328 22.802ZM1324.76 22.748C1324.76 22.136 1324.56 21.674 1324.16 21.362C1323.77 21.05 1323.23 20.894 1322.56 20.894H1320.56C1320.44 20.894 1320.35 20.918 1320.29 20.966C1320.24 21.014 1320.22 21.098 1320.22 21.218V24.296C1320.22 24.416 1320.24 24.506 1320.27 24.566C1320.31 24.614 1320.38 24.638 1320.47 24.638H1322.69C1323.32 24.638 1323.83 24.47 1324.2 24.134C1324.57 23.798 1324.76 23.336 1324.76 22.748ZM1340.77 31.514C1340.8 31.586 1340.81 31.64 1340.81 31.676C1340.81 31.772 1340.78 31.85 1340.72 31.91C1340.66 31.97 1340.59 32 1340.5 32H1337.86C1337.65 32 1337.52 31.892 1337.46 31.676L1335.52 26.636C1335.48 26.54 1335.43 26.474 1335.36 26.438C1335.28 26.402 1335.17 26.384 1335.01 26.384H1333.3C1333.23 26.384 1333.18 26.408 1333.14 26.456C1333.11 26.492 1333.09 26.534 1333.09 26.582V31.568C1333.09 31.724 1333.05 31.838 1332.96 31.91C1332.89 31.97 1332.77 32 1332.6 32H1330.32C1330.17 32 1330.07 31.97 1330.01 31.91C1329.96 31.85 1329.94 31.76 1329.94 31.64V18.986C1329.94 18.758 1330.03 18.644 1330.23 18.644H1335.84C1337.46 18.644 1338.72 18.962 1339.6 19.598C1340.49 20.234 1340.94 21.14 1340.94 22.316C1340.94 23.192 1340.7 23.942 1340.23 24.566C1339.77 25.178 1339.18 25.61 1338.47 25.862C1338.37 25.898 1338.35 25.988 1338.4 26.132L1340.77 31.514ZM1335.55 24.26C1336.25 24.26 1336.78 24.116 1337.14 23.828C1337.5 23.528 1337.68 23.096 1337.68 22.532C1337.68 21.956 1337.49 21.518 1337.12 21.218C1336.76 20.906 1336.27 20.75 1335.64 20.75H1333.43C1333.3 20.75 1333.21 20.774 1333.16 20.822C1333.11 20.858 1333.09 20.93 1333.09 21.038V23.954C1333.09 24.062 1333.11 24.14 1333.14 24.188C1333.18 24.236 1333.24 24.26 1333.34 24.26H1335.55ZM1348.65 32.18C1347.39 32.18 1346.29 31.91 1345.36 31.37C1344.43 30.818 1343.72 30.032 1343.22 29.012C1342.72 27.992 1342.48 26.78 1342.48 25.376C1342.48 23.96 1342.73 22.736 1343.23 21.704C1343.74 20.66 1344.45 19.862 1345.38 19.31C1346.31 18.746 1347.4 18.464 1348.65 18.464C1349.89 18.464 1350.97 18.746 1351.89 19.31C1352.82 19.862 1353.53 20.66 1354.03 21.704C1354.54 22.736 1354.79 23.954 1354.79 25.358C1354.79 26.75 1354.54 27.962 1354.03 28.994C1353.54 30.014 1352.83 30.8 1351.91 31.352C1350.99 31.904 1349.9 32.18 1348.65 32.18ZM1348.65 29.966C1349.65 29.966 1350.37 29.606 1350.81 28.886C1351.27 28.166 1351.5 27.002 1351.5 25.394C1351.5 23.75 1351.26 22.55 1350.79 21.794C1350.34 21.038 1349.62 20.66 1348.65 20.66C1347.66 20.66 1346.92 21.038 1346.46 21.794C1346 22.55 1345.77 23.75 1345.77 25.394C1345.77 27.002 1346 28.166 1346.46 28.886C1346.91 29.606 1347.64 29.966 1348.65 29.966ZM1357.21 32C1357.1 32 1357.02 31.97 1356.96 31.91C1356.9 31.85 1356.87 31.772 1356.87 31.676V19.022C1356.87 18.902 1356.9 18.812 1356.96 18.752C1357.03 18.68 1357.12 18.644 1357.23 18.644H1362.11C1363.87 18.644 1365.21 18.944 1366.14 19.544C1367.07 20.132 1367.54 21.002 1367.54 22.154C1367.54 22.826 1367.36 23.396 1367 23.864C1366.64 24.32 1366.04 24.722 1365.18 25.07C1365.15 25.082 1365.13 25.106 1365.13 25.142C1365.13 25.178 1365.15 25.202 1365.18 25.214C1366.12 25.526 1366.8 25.934 1367.22 26.438C1367.65 26.93 1367.87 27.578 1367.87 28.382C1367.87 29.606 1367.4 30.518 1366.48 31.118C1365.57 31.706 1364.19 32 1362.34 32H1357.21ZM1362.38 24.152C1362.96 24.152 1363.45 24.014 1363.83 23.738C1364.23 23.45 1364.43 23.042 1364.43 22.514C1364.43 21.962 1364.22 21.536 1363.82 21.236C1363.41 20.924 1362.87 20.768 1362.21 20.768H1360.36C1360.24 20.768 1360.15 20.792 1360.09 20.84C1360.04 20.888 1360.02 20.966 1360.02 21.074V23.828C1360.02 23.948 1360.04 24.032 1360.07 24.08C1360.11 24.128 1360.17 24.152 1360.27 24.152H1362.38ZM1362.25 29.876C1363.02 29.876 1363.6 29.72 1364 29.408C1364.39 29.084 1364.59 28.646 1364.59 28.094C1364.59 27.542 1364.39 27.116 1363.98 26.816C1363.57 26.504 1363.04 26.348 1362.38 26.348H1360.36C1360.23 26.348 1360.14 26.372 1360.09 26.42C1360.04 26.456 1360.02 26.534 1360.02 26.654V29.534C1360.02 29.654 1360.04 29.744 1360.07 29.804C1360.11 29.852 1360.17 29.876 1360.27 29.876H1362.25ZM1369.88 18.986C1369.88 18.758 1369.97 18.644 1370.16 18.644H1372.74C1372.93 18.644 1373.03 18.752 1373.03 18.968V29.462C1373.03 29.546 1373.04 29.606 1373.06 29.642C1373.1 29.678 1373.15 29.696 1373.22 29.696H1378.97C1379.18 29.696 1379.29 29.786 1379.29 29.966V31.676C1379.29 31.772 1379.26 31.85 1379.2 31.91C1379.14 31.97 1379.06 32 1378.95 32H1370.27C1370.13 32 1370.03 31.97 1369.97 31.91C1369.91 31.85 1369.88 31.754 1369.88 31.622V18.986ZM1381.16 18.986C1381.16 18.758 1381.26 18.644 1381.45 18.644H1390.52C1390.7 18.644 1390.79 18.746 1390.79 18.95L1390.77 20.57C1390.77 20.822 1390.65 20.948 1390.39 20.948H1384.65C1384.42 20.948 1384.31 21.044 1384.31 21.236V23.846C1384.31 24.05 1384.4 24.152 1384.58 24.152H1388.4C1388.6 24.152 1388.7 24.248 1388.7 24.44V26.168C1388.7 26.336 1388.61 26.42 1388.41 26.42H1384.56C1384.39 26.42 1384.31 26.492 1384.31 26.636V29.462C1384.31 29.546 1384.32 29.606 1384.35 29.642C1384.38 29.678 1384.44 29.696 1384.51 29.696H1390.66C1390.88 29.696 1390.99 29.786 1390.99 29.966V31.676C1390.99 31.892 1390.87 32 1390.63 32H1381.56C1381.41 32 1381.31 31.97 1381.25 31.91C1381.19 31.85 1381.16 31.754 1381.16 31.622V18.986ZM1393.32 32C1393.2 32 1393.1 31.964 1393.03 31.892C1392.97 31.82 1392.94 31.718 1392.94 31.586V18.986C1392.94 18.758 1393.04 18.644 1393.24 18.644H1396.97C1397.1 18.644 1397.2 18.662 1397.26 18.698C1397.32 18.734 1397.37 18.806 1397.4 18.914L1400.12 26.456C1400.16 26.552 1400.2 26.6 1400.25 26.6C1400.29 26.6 1400.34 26.552 1400.37 26.456L1402.96 19.058C1403.04 18.782 1403.17 18.644 1403.36 18.644H1407.23C1407.41 18.644 1407.5 18.752 1407.5 18.968V31.568C1407.5 31.724 1407.46 31.838 1407.39 31.91C1407.32 31.97 1407.21 32 1407.05 32H1404.73C1404.58 32 1404.48 31.976 1404.42 31.928C1404.37 31.868 1404.35 31.772 1404.35 31.64V22.676C1404.35 22.592 1404.33 22.55 1404.3 22.55C1404.26 22.55 1404.22 22.598 1404.19 22.694L1401.04 31.712C1400.98 31.904 1400.85 32 1400.66 32H1399.17C1398.95 32 1398.82 31.904 1398.77 31.712L1395.66 22.82C1395.62 22.724 1395.58 22.676 1395.55 22.676C1395.5 22.676 1395.48 22.73 1395.48 22.838V31.676C1395.48 31.808 1395.45 31.898 1395.4 31.946C1395.37 31.982 1395.28 32 1395.15 32H1393.32Z" fill="#7000FF"/>
<path d="M149.114 27.86C149.114 28.124 148.958 28.256 148.646 28.256H144.416C144.272 28.256 144.17 28.232 144.11 28.184C144.062 28.124 144.038 28.028 144.038 27.896V26.582C144.038 26.366 144.128 26.258 144.308 26.258H148.844C148.928 26.258 148.994 26.282 149.042 26.33C149.09 26.378 149.114 26.444 149.114 26.528V27.86ZM308.706 27.86C308.706 28.124 308.55 28.256 308.238 28.256H304.008C303.864 28.256 303.762 28.232 303.702 28.184C303.654 28.124 303.63 28.028 303.63 27.896V26.582C303.63 26.366 303.72 26.258 303.9 26.258H308.436C308.52 26.258 308.586 26.282 308.634 26.33C308.682 26.378 308.706 26.444 308.706 26.528V27.86ZM468.298 27.86C468.298 28.124 468.142 28.256 467.83 28.256H463.6C463.456 28.256 463.354 28.232 463.294 28.184C463.246 28.124 463.222 28.028 463.222 27.896V26.582C463.222 26.366 463.312 26.258 463.492 26.258H468.028C468.112 26.258 468.178 26.282 468.226 26.33C468.274 26.378 468.298 26.444 468.298 26.528V27.86ZM627.89 27.86C627.89 28.124 627.734 28.256 627.422 28.256H623.192C623.048 28.256 622.946 28.232 622.886 28.184C622.838 28.124 622.814 28.028 622.814 27.896V26.582C622.814 26.366 622.904 26.258 623.084 26.258H627.62C627.704 26.258 627.77 26.282 627.818 26.33C627.866 26.378 627.89 26.444 627.89 26.528V27.86ZM787.481 27.86C787.481 28.124 787.325 28.256 787.013 28.256H782.783C782.639 28.256 782.537 28.232 782.477 28.184C782.429 28.124 782.405 28.028 782.405 27.896V26.582C782.405 26.366 782.495 26.258 782.675 26.258H787.211C787.295 26.258 787.361 26.282 787.409 26.33C787.457 26.378 787.481 26.444 787.481 26.528V27.86ZM947.073 27.86C947.073 28.124 946.917 28.256 946.605 28.256H942.375C942.231 28.256 942.129 28.232 942.069 28.184C942.021 28.124 941.997 28.028 941.997 27.896V26.582C941.997 26.366 942.087 26.258 942.267 26.258H946.803C946.887 26.258 946.953 26.282 947.001 26.33C947.049 26.378 947.073 26.444 947.073 26.528V27.86ZM1106.67 27.86C1106.67 28.124 1106.51 28.256 1106.2 28.256H1101.97C1101.82 28.256 1101.72 28.232 1101.66 28.184C1101.61 28.124 1101.59 28.028 1101.59 27.896V26.582C1101.59 26.366 1101.68 26.258 1101.86 26.258H1106.4C1106.48 26.258 1106.55 26.282 1106.59 26.33C1106.64 26.378 1106.67 26.444 1106.67 26.528V27.86ZM1266.26 27.86C1266.26 28.124 1266.1 28.256 1265.79 28.256H1261.56C1261.41 28.256 1261.31 28.232 1261.25 28.184C1261.2 28.124 1261.18 28.028 1261.18 27.896V26.582C1261.18 26.366 1261.27 26.258 1261.45 26.258H1265.99C1266.07 26.258 1266.14 26.282 1266.18 26.33C1266.23 26.378 1266.26 26.444 1266.26 26.528V27.86ZM1425.85 27.86C1425.85 28.124 1425.69 28.256 1425.38 28.256H1421.15C1421.01 28.256 1420.9 28.232 1420.84 28.184C1420.8 28.124 1420.77 28.028 1420.77 27.896V26.582C1420.77 26.366 1420.86 26.258 1421.04 26.258H1425.58C1425.66 26.258 1425.73 26.282 1425.78 26.33C1425.82 26.378 1425.85 26.444 1425.85 26.528V27.86Z" fill="white"/>
<path d="M158.006 18.968C158.006 18.872 158.036 18.794 158.096 18.734C158.168 18.674 158.258 18.644 158.366 18.644H168.698C168.938 18.644 169.058 18.752 169.058 18.968V20.642C169.058 20.822 168.95 20.912 168.734 20.912H165.368C165.236 20.912 165.17 20.972 165.17 21.092V31.658C165.17 31.886 165.068 32 164.864 32H162.29C162.11 32 162.02 31.898 162.02 31.694V21.146C162.02 21.062 162.002 21.002 161.966 20.966C161.942 20.93 161.894 20.912 161.822 20.912H158.348C158.12 20.912 158.006 20.822 158.006 20.642V18.968ZM174.308 26.294C174.236 26.294 174.176 26.318 174.128 26.366C174.092 26.414 174.074 26.468 174.074 26.528V31.586C174.074 31.73 174.032 31.838 173.948 31.91C173.876 31.97 173.756 32 173.588 32H171.32C171.176 32 171.074 31.97 171.014 31.91C170.954 31.85 170.924 31.754 170.924 31.622V18.986C170.924 18.758 171.02 18.644 171.212 18.644H173.786C173.978 18.644 174.074 18.752 174.074 18.968V23.576C174.074 23.78 174.164 23.882 174.344 23.882H178.502C178.694 23.882 178.79 23.786 178.79 23.594V18.968C178.79 18.752 178.88 18.644 179.06 18.644H181.634C181.838 18.644 181.94 18.758 181.94 18.986V31.622C181.94 31.874 181.808 32 181.544 32H179.258C179.09 32 178.97 31.97 178.898 31.91C178.826 31.85 178.79 31.742 178.79 31.586V26.528C178.79 26.456 178.766 26.402 178.718 26.366C178.682 26.318 178.622 26.294 178.538 26.294H174.308ZM184.442 18.986C184.442 18.758 184.538 18.644 184.73 18.644H193.802C193.982 18.644 194.072 18.746 194.072 18.95L194.054 20.57C194.054 20.822 193.928 20.948 193.676 20.948H187.934C187.706 20.948 187.592 21.044 187.592 21.236V23.846C187.592 24.05 187.682 24.152 187.862 24.152H191.678C191.882 24.152 191.984 24.248 191.984 24.44V26.168C191.984 26.336 191.888 26.42 191.696 26.42H187.844C187.676 26.42 187.592 26.492 187.592 26.636V29.462C187.592 29.546 187.604 29.606 187.628 29.642C187.664 29.678 187.718 29.696 187.79 29.696H193.946C194.162 29.696 194.27 29.786 194.27 29.966V31.676C194.27 31.892 194.15 32 193.91 32H184.838C184.694 32 184.592 31.97 184.532 31.91C184.472 31.85 184.442 31.754 184.442 31.622V18.986ZM210.854 22.802C210.854 24.098 210.404 25.106 209.504 25.826C208.616 26.534 207.44 26.888 205.976 26.888H203.276C203.144 26.888 203.078 26.954 203.078 27.086V31.586C203.078 31.862 202.922 32 202.61 32H200.306C200.162 32 200.06 31.97 200 31.91C199.952 31.85 199.928 31.76 199.928 31.64V18.986C199.928 18.758 200.024 18.644 200.216 18.644H205.616C206.612 18.644 207.5 18.8 208.28 19.112C209.072 19.412 209.696 19.874 210.152 20.498C210.62 21.122 210.854 21.89 210.854 22.802ZM207.614 22.748C207.614 22.136 207.416 21.674 207.02 21.362C206.624 21.05 206.09 20.894 205.418 20.894H203.42C203.3 20.894 203.21 20.918 203.15 20.966C203.102 21.014 203.078 21.098 203.078 21.218V24.296C203.078 24.416 203.096 24.506 203.132 24.566C203.168 24.614 203.234 24.638 203.33 24.638H205.544C206.18 24.638 206.684 24.47 207.056 24.134C207.428 23.798 207.614 23.336 207.614 22.748ZM223.631 31.514C223.655 31.586 223.667 31.64 223.667 31.676C223.667 31.772 223.637 31.85 223.577 31.91C223.517 31.97 223.445 32 223.361 32H220.715C220.511 32 220.379 31.892 220.319 31.676L218.375 26.636C218.339 26.54 218.285 26.474 218.213 26.438C218.141 26.402 218.027 26.384 217.871 26.384H216.161C216.089 26.384 216.035 26.408 215.999 26.456C215.963 26.492 215.945 26.534 215.945 26.582V31.568C215.945 31.724 215.903 31.838 215.819 31.91C215.747 31.97 215.627 32 215.459 32H213.173C213.029 32 212.927 31.97 212.867 31.91C212.819 31.85 212.795 31.76 212.795 31.64V18.986C212.795 18.758 212.891 18.644 213.083 18.644H218.699C220.319 18.644 221.573 18.962 222.461 19.598C223.349 20.234 223.793 21.14 223.793 22.316C223.793 23.192 223.559 23.942 223.091 24.566C222.623 25.178 222.035 25.61 221.327 25.862C221.231 25.898 221.207 25.988 221.255 26.132L223.631 31.514ZM218.411 24.26C219.107 24.26 219.635 24.116 219.995 23.828C220.355 23.528 220.535 23.096 220.535 22.532C220.535 21.956 220.349 21.518 219.977 21.218C219.617 20.906 219.125 20.75 218.501 20.75H216.287C216.155 20.75 216.065 20.774 216.017 20.822C215.969 20.858 215.945 20.93 215.945 21.038V23.954C215.945 24.062 215.963 24.14 215.999 24.188C216.035 24.236 216.101 24.26 216.197 24.26H218.411ZM231.509 32.18C230.249 32.18 229.151 31.91 228.215 31.37C227.291 30.818 226.577 30.032 226.073 29.012C225.581 27.992 225.335 26.78 225.335 25.376C225.335 23.96 225.587 22.736 226.091 21.704C226.595 20.66 227.309 19.862 228.233 19.31C229.169 18.746 230.261 18.464 231.509 18.464C232.745 18.464 233.825 18.746 234.749 19.31C235.673 19.862 236.387 20.66 236.891 21.704C237.395 22.736 237.647 23.954 237.647 25.358C237.647 26.75 237.395 27.962 236.891 28.994C236.399 30.014 235.691 30.8 234.767 31.352C233.843 31.904 232.757 32.18 231.509 32.18ZM231.509 29.966C232.505 29.966 233.225 29.606 233.669 28.886C234.125 28.166 234.353 27.002 234.353 25.394C234.353 23.75 234.119 22.55 233.651 21.794C233.195 21.038 232.481 20.66 231.509 20.66C230.513 20.66 229.781 21.038 229.313 21.794C228.857 22.55 228.629 23.75 228.629 25.394C228.629 27.002 228.857 28.166 229.313 28.886C229.769 29.606 230.501 29.966 231.509 29.966ZM240.067 32C239.959 32 239.875 31.97 239.815 31.91C239.755 31.85 239.725 31.772 239.725 31.676V19.022C239.725 18.902 239.755 18.812 239.815 18.752C239.887 18.68 239.977 18.644 240.085 18.644H244.963C246.727 18.644 248.071 18.944 248.995 19.544C249.931 20.132 250.399 21.002 250.399 22.154C250.399 22.826 250.219 23.396 249.859 23.864C249.499 24.32 248.893 24.722 248.041 25.07C248.005 25.082 247.987 25.106 247.987 25.142C247.987 25.178 248.005 25.202 248.041 25.214C248.977 25.526 249.655 25.934 250.075 26.438C250.507 26.93 250.723 27.578 250.723 28.382C250.723 29.606 250.261 30.518 249.337 31.118C248.425 31.706 247.045 32 245.197 32H240.067ZM245.233 24.152C245.821 24.152 246.307 24.014 246.691 23.738C247.087 23.45 247.285 23.042 247.285 22.514C247.285 21.962 247.081 21.536 246.673 21.236C246.265 20.924 245.731 20.768 245.071 20.768H243.217C243.097 20.768 243.007 20.792 242.947 20.84C242.899 20.888 242.875 20.966 242.875 21.074V23.828C242.875 23.948 242.893 24.032 242.929 24.08C242.965 24.128 243.031 24.152 243.127 24.152H245.233ZM245.107 29.876C245.875 29.876 246.457 29.72 246.853 29.408C247.249 29.084 247.447 28.646 247.447 28.094C247.447 27.542 247.243 27.116 246.835 26.816C246.427 26.504 245.893 26.348 245.233 26.348H243.217C243.085 26.348 242.995 26.372 242.947 26.42C242.899 26.456 242.875 26.534 242.875 26.654V29.534C242.875 29.654 242.893 29.744 242.929 29.804C242.965 29.852 243.031 29.876 243.127 29.876H245.107ZM252.733 18.986C252.733 18.758 252.829 18.644 253.021 18.644H255.595C255.787 18.644 255.883 18.752 255.883 18.968V29.462C255.883 29.546 255.895 29.606 255.919 29.642C255.955 29.678 256.009 29.696 256.081 29.696H261.823C262.039 29.696 262.147 29.786 262.147 29.966V31.676C262.147 31.772 262.117 31.85 262.057 31.91C261.997 31.97 261.913 32 261.805 32H253.129C252.985 32 252.883 31.97 252.823 31.91C252.763 31.85 252.733 31.754 252.733 31.622V18.986ZM264.018 18.986C264.018 18.758 264.114 18.644 264.306 18.644H273.378C273.558 18.644 273.648 18.746 273.648 18.95L273.63 20.57C273.63 20.822 273.504 20.948 273.252 20.948H267.51C267.282 20.948 267.168 21.044 267.168 21.236V23.846C267.168 24.05 267.258 24.152 267.438 24.152H271.254C271.458 24.152 271.56 24.248 271.56 24.44V26.168C271.56 26.336 271.464 26.42 271.272 26.42H267.42C267.252 26.42 267.168 26.492 267.168 26.636V29.462C267.168 29.546 267.18 29.606 267.204 29.642C267.24 29.678 267.294 29.696 267.366 29.696H273.522C273.738 29.696 273.846 29.786 273.846 29.966V31.676C273.846 31.892 273.726 32 273.486 32H264.414C264.27 32 264.168 31.97 264.108 31.91C264.048 31.85 264.018 31.754 264.018 31.622V18.986ZM276.173 32C276.053 32 275.957 31.964 275.885 31.892C275.825 31.82 275.795 31.718 275.795 31.586V18.986C275.795 18.758 275.897 18.644 276.101 18.644H279.827C279.959 18.644 280.055 18.662 280.115 18.698C280.175 18.734 280.223 18.806 280.259 18.914L282.977 26.456C283.013 26.552 283.055 26.6 283.103 26.6C283.151 26.6 283.193 26.552 283.229 26.456L285.821 19.058C285.893 18.782 286.025 18.644 286.217 18.644H290.087C290.267 18.644 290.357 18.752 290.357 18.968V31.568C290.357 31.724 290.321 31.838 290.249 31.91C290.177 31.97 290.063 32 289.907 32H287.585C287.441 32 287.339 31.976 287.279 31.928C287.231 31.868 287.207 31.772 287.207 31.64V22.676C287.207 22.592 287.189 22.55 287.153 22.55C287.117 22.55 287.081 22.598 287.045 22.694L283.895 31.712C283.835 31.904 283.709 32 283.517 32H282.023C281.807 32 281.675 31.904 281.627 31.712L278.513 22.82C278.477 22.724 278.441 22.676 278.405 22.676C278.357 22.676 278.333 22.73 278.333 22.838V31.676C278.333 31.808 278.309 31.898 278.261 31.946C278.225 31.982 278.141 32 278.009 32H276.173ZM477.19 18.968C477.19 18.872 477.22 18.794 477.28 18.734C477.352 18.674 477.442 18.644 477.55 18.644H487.882C488.122 18.644 488.242 18.752 488.242 18.968V20.642C488.242 20.822 488.134 20.912 487.918 20.912H484.552C484.42 20.912 484.354 20.972 484.354 21.092V31.658C484.354 31.886 484.252 32 484.048 32H481.474C481.294 32 481.204 31.898 481.204 31.694V21.146C481.204 21.062 481.186 21.002 481.15 20.966C481.126 20.93 481.078 20.912 481.006 20.912H477.532C477.304 20.912 477.19 20.822 477.19 20.642V18.968ZM493.492 26.294C493.42 26.294 493.36 26.318 493.312 26.366C493.276 26.414 493.258 26.468 493.258 26.528V31.586C493.258 31.73 493.216 31.838 493.132 31.91C493.06 31.97 492.94 32 492.772 32H490.504C490.36 32 490.258 31.97 490.198 31.91C490.138 31.85 490.108 31.754 490.108 31.622V18.986C490.108 18.758 490.204 18.644 490.396 18.644H492.97C493.162 18.644 493.258 18.752 493.258 18.968V23.576C493.258 23.78 493.348 23.882 493.528 23.882H497.686C497.878 23.882 497.974 23.786 497.974 23.594V18.968C497.974 18.752 498.064 18.644 498.244 18.644H500.818C501.022 18.644 501.124 18.758 501.124 18.986V31.622C501.124 31.874 500.992 32 500.728 32H498.442C498.274 32 498.154 31.97 498.082 31.91C498.01 31.85 497.974 31.742 497.974 31.586V26.528C497.974 26.456 497.95 26.402 497.902 26.366C497.866 26.318 497.806 26.294 497.722 26.294H493.492ZM503.625 18.986C503.625 18.758 503.721 18.644 503.913 18.644H512.985C513.165 18.644 513.255 18.746 513.255 18.95L513.237 20.57C513.237 20.822 513.111 20.948 512.859 20.948H507.117C506.889 20.948 506.775 21.044 506.775 21.236V23.846C506.775 24.05 506.865 24.152 507.045 24.152H510.861C511.065 24.152 511.167 24.248 511.167 24.44V26.168C511.167 26.336 511.071 26.42 510.879 26.42H507.027C506.859 26.42 506.775 26.492 506.775 26.636V29.462C506.775 29.546 506.787 29.606 506.811 29.642C506.847 29.678 506.901 29.696 506.973 29.696H513.129C513.345 29.696 513.453 29.786 513.453 29.966V31.676C513.453 31.892 513.333 32 513.093 32H504.021C503.877 32 503.775 31.97 503.715 31.91C503.655 31.85 503.625 31.754 503.625 31.622V18.986ZM530.038 22.802C530.038 24.098 529.588 25.106 528.688 25.826C527.8 26.534 526.624 26.888 525.16 26.888H522.46C522.328 26.888 522.262 26.954 522.262 27.086V31.586C522.262 31.862 522.106 32 521.794 32H519.49C519.346 32 519.244 31.97 519.184 31.91C519.136 31.85 519.112 31.76 519.112 31.64V18.986C519.112 18.758 519.208 18.644 519.4 18.644H524.8C525.796 18.644 526.684 18.8 527.464 19.112C528.256 19.412 528.88 19.874 529.336 20.498C529.804 21.122 530.038 21.89 530.038 22.802ZM526.798 22.748C526.798 22.136 526.6 21.674 526.204 21.362C525.808 21.05 525.274 20.894 524.602 20.894H522.604C522.484 20.894 522.394 20.918 522.334 20.966C522.286 21.014 522.262 21.098 522.262 21.218V24.296C522.262 24.416 522.28 24.506 522.316 24.566C522.352 24.614 522.418 24.638 522.514 24.638H524.728C525.364 24.638 525.868 24.47 526.24 24.134C526.612 23.798 526.798 23.336 526.798 22.748ZM542.815 31.514C542.839 31.586 542.851 31.64 542.851 31.676C542.851 31.772 542.821 31.85 542.761 31.91C542.701 31.97 542.629 32 542.545 32H539.899C539.695 32 539.563 31.892 539.503 31.676L537.559 26.636C537.523 26.54 537.469 26.474 537.397 26.438C537.325 26.402 537.211 26.384 537.055 26.384H535.345C535.273 26.384 535.219 26.408 535.183 26.456C535.147 26.492 535.129 26.534 535.129 26.582V31.568C535.129 31.724 535.087 31.838 535.003 31.91C534.931 31.97 534.811 32 534.643 32H532.357C532.213 32 532.111 31.97 532.051 31.91C532.003 31.85 531.979 31.76 531.979 31.64V18.986C531.979 18.758 532.075 18.644 532.267 18.644H537.883C539.503 18.644 540.757 18.962 541.645 19.598C542.533 20.234 542.977 21.14 542.977 22.316C542.977 23.192 542.743 23.942 542.275 24.566C541.807 25.178 541.219 25.61 540.511 25.862C540.415 25.898 540.391 25.988 540.439 26.132L542.815 31.514ZM537.595 24.26C538.291 24.26 538.819 24.116 539.179 23.828C539.539 23.528 539.719 23.096 539.719 22.532C539.719 21.956 539.533 21.518 539.161 21.218C538.801 20.906 538.309 20.75 537.685 20.75H535.471C535.339 20.75 535.249 20.774 535.201 20.822C535.153 20.858 535.129 20.93 535.129 21.038V23.954C535.129 24.062 535.147 24.14 535.183 24.188C535.219 24.236 535.285 24.26 535.381 24.26H537.595ZM550.693 32.18C549.433 32.18 548.335 31.91 547.399 31.37C546.475 30.818 545.761 30.032 545.257 29.012C544.765 27.992 544.519 26.78 544.519 25.376C544.519 23.96 544.771 22.736 545.275 21.704C545.779 20.66 546.493 19.862 547.417 19.31C548.353 18.746 549.445 18.464 550.693 18.464C551.929 18.464 553.009 18.746 553.933 19.31C554.857 19.862 555.571 20.66 556.075 21.704C556.579 22.736 556.831 23.954 556.831 25.358C556.831 26.75 556.579 27.962 556.075 28.994C555.583 30.014 554.875 30.8 553.951 31.352C553.027 31.904 551.941 32.18 550.693 32.18ZM550.693 29.966C551.689 29.966 552.409 29.606 552.853 28.886C553.309 28.166 553.537 27.002 553.537 25.394C553.537 23.75 553.303 22.55 552.835 21.794C552.379 21.038 551.665 20.66 550.693 20.66C549.697 20.66 548.965 21.038 548.497 21.794C548.041 22.55 547.813 23.75 547.813 25.394C547.813 27.002 548.041 28.166 548.497 28.886C548.953 29.606 549.685 29.966 550.693 29.966ZM559.25 32C559.142 32 559.058 31.97 558.998 31.91C558.938 31.85 558.908 31.772 558.908 31.676V19.022C558.908 18.902 558.938 18.812 558.998 18.752C559.07 18.68 559.16 18.644 559.268 18.644H564.146C565.91 18.644 567.254 18.944 568.178 19.544C569.114 20.132 569.582 21.002 569.582 22.154C569.582 22.826 569.402 23.396 569.042 23.864C568.682 24.32 568.076 24.722 567.224 25.07C567.188 25.082 567.17 25.106 567.17 25.142C567.17 25.178 567.188 25.202 567.224 25.214C568.16 25.526 568.838 25.934 569.258 26.438C569.69 26.93 569.906 27.578 569.906 28.382C569.906 29.606 569.444 30.518 568.52 31.118C567.608 31.706 566.228 32 564.38 32H559.25ZM564.416 24.152C565.004 24.152 565.49 24.014 565.874 23.738C566.27 23.45 566.468 23.042 566.468 22.514C566.468 21.962 566.264 21.536 565.856 21.236C565.448 20.924 564.914 20.768 564.254 20.768H562.4C562.28 20.768 562.19 20.792 562.13 20.84C562.082 20.888 562.058 20.966 562.058 21.074V23.828C562.058 23.948 562.076 24.032 562.112 24.08C562.148 24.128 562.214 24.152 562.31 24.152H564.416ZM564.29 29.876C565.058 29.876 565.64 29.72 566.036 29.408C566.432 29.084 566.63 28.646 566.63 28.094C566.63 27.542 566.426 27.116 566.018 26.816C565.61 26.504 565.076 26.348 564.416 26.348H562.4C562.268 26.348 562.178 26.372 562.13 26.42C562.082 26.456 562.058 26.534 562.058 26.654V29.534C562.058 29.654 562.076 29.744 562.112 29.804C562.148 29.852 562.214 29.876 562.31 29.876H564.29ZM571.916 18.986C571.916 18.758 572.012 18.644 572.204 18.644H574.778C574.97 18.644 575.066 18.752 575.066 18.968V29.462C575.066 29.546 575.078 29.606 575.102 29.642C575.138 29.678 575.192 29.696 575.264 29.696H581.006C581.222 29.696 581.33 29.786 581.33 29.966V31.676C581.33 31.772 581.3 31.85 581.24 31.91C581.18 31.97 581.096 32 580.988 32H572.312C572.168 32 572.066 31.97 572.006 31.91C571.946 31.85 571.916 31.754 571.916 31.622V18.986ZM583.201 18.986C583.201 18.758 583.297 18.644 583.489 18.644H592.561C592.741 18.644 592.831 18.746 592.831 18.95L592.813 20.57C592.813 20.822 592.687 20.948 592.435 20.948H586.693C586.465 20.948 586.351 21.044 586.351 21.236V23.846C586.351 24.05 586.441 24.152 586.621 24.152H590.437C590.641 24.152 590.743 24.248 590.743 24.44V26.168C590.743 26.336 590.647 26.42 590.455 26.42H586.603C586.435 26.42 586.351 26.492 586.351 26.636V29.462C586.351 29.546 586.363 29.606 586.387 29.642C586.423 29.678 586.477 29.696 586.549 29.696H592.705C592.921 29.696 593.029 29.786 593.029 29.966V31.676C593.029 31.892 592.909 32 592.669 32H583.597C583.453 32 583.351 31.97 583.291 31.91C583.231 31.85 583.201 31.754 583.201 31.622V18.986ZM595.357 32C595.237 32 595.141 31.964 595.069 31.892C595.009 31.82 594.979 31.718 594.979 31.586V18.986C594.979 18.758 595.081 18.644 595.285 18.644H599.011C599.143 18.644 599.239 18.662 599.299 18.698C599.359 18.734 599.407 18.806 599.443 18.914L602.161 26.456C602.197 26.552 602.239 26.6 602.287 26.6C602.335 26.6 602.377 26.552 602.413 26.456L605.005 19.058C605.077 18.782 605.209 18.644 605.401 18.644H609.271C609.451 18.644 609.541 18.752 609.541 18.968V31.568C609.541 31.724 609.505 31.838 609.433 31.91C609.361 31.97 609.247 32 609.091 32H606.769C606.625 32 606.523 31.976 606.463 31.928C606.415 31.868 606.391 31.772 606.391 31.64V22.676C606.391 22.592 606.373 22.55 606.337 22.55C606.301 22.55 606.265 22.598 606.229 22.694L603.079 31.712C603.019 31.904 602.893 32 602.701 32H601.207C600.991 32 600.859 31.904 600.811 31.712L597.697 22.82C597.661 22.724 597.625 22.676 597.589 22.676C597.541 22.676 597.517 22.73 597.517 22.838V31.676C597.517 31.808 597.493 31.898 597.445 31.946C597.409 31.982 597.325 32 597.193 32H595.357ZM796.373 18.968C796.373 18.872 796.403 18.794 796.463 18.734C796.535 18.674 796.625 18.644 796.733 18.644H807.065C807.305 18.644 807.425 18.752 807.425 18.968V20.642C807.425 20.822 807.317 20.912 807.101 20.912H803.735C803.603 20.912 803.537 20.972 803.537 21.092V31.658C803.537 31.886 803.435 32 803.231 32H800.657C800.477 32 800.387 31.898 800.387 31.694V21.146C800.387 21.062 800.369 21.002 800.333 20.966C800.309 20.93 800.261 20.912 800.189 20.912H796.715C796.487 20.912 796.373 20.822 796.373 20.642V18.968ZM812.675 26.294C812.603 26.294 812.543 26.318 812.495 26.366C812.459 26.414 812.441 26.468 812.441 26.528V31.586C812.441 31.73 812.399 31.838 812.315 31.91C812.243 31.97 812.123 32 811.955 32H809.687C809.543 32 809.441 31.97 809.381 31.91C809.321 31.85 809.291 31.754 809.291 31.622V18.986C809.291 18.758 809.387 18.644 809.579 18.644H812.153C812.345 18.644 812.441 18.752 812.441 18.968V23.576C812.441 23.78 812.531 23.882 812.711 23.882H816.869C817.061 23.882 817.157 23.786 817.157 23.594V18.968C817.157 18.752 817.247 18.644 817.427 18.644H820.001C820.205 18.644 820.307 18.758 820.307 18.986V31.622C820.307 31.874 820.175 32 819.911 32H817.625C817.457 32 817.337 31.97 817.265 31.91C817.193 31.85 817.157 31.742 817.157 31.586V26.528C817.157 26.456 817.133 26.402 817.085 26.366C817.049 26.318 816.989 26.294 816.905 26.294H812.675ZM822.809 18.986C822.809 18.758 822.905 18.644 823.097 18.644H832.169C832.349 18.644 832.439 18.746 832.439 18.95L832.421 20.57C832.421 20.822 832.295 20.948 832.043 20.948H826.301C826.073 20.948 825.959 21.044 825.959 21.236V23.846C825.959 24.05 826.049 24.152 826.229 24.152H830.045C830.249 24.152 830.351 24.248 830.351 24.44V26.168C830.351 26.336 830.255 26.42 830.063 26.42H826.211C826.043 26.42 825.959 26.492 825.959 26.636V29.462C825.959 29.546 825.971 29.606 825.995 29.642C826.031 29.678 826.085 29.696 826.157 29.696H832.313C832.529 29.696 832.637 29.786 832.637 29.966V31.676C832.637 31.892 832.517 32 832.277 32H823.205C823.061 32 822.959 31.97 822.899 31.91C822.839 31.85 822.809 31.754 822.809 31.622V18.986ZM849.221 22.802C849.221 24.098 848.771 25.106 847.871 25.826C846.983 26.534 845.807 26.888 844.343 26.888H841.643C841.511 26.888 841.445 26.954 841.445 27.086V31.586C841.445 31.862 841.289 32 840.977 32H838.673C838.529 32 838.427 31.97 838.367 31.91C838.319 31.85 838.295 31.76 838.295 31.64V18.986C838.295 18.758 838.391 18.644 838.583 18.644H843.983C844.979 18.644 845.867 18.8 846.647 19.112C847.439 19.412 848.063 19.874 848.519 20.498C848.987 21.122 849.221 21.89 849.221 22.802ZM845.981 22.748C845.981 22.136 845.783 21.674 845.387 21.362C844.991 21.05 844.457 20.894 843.785 20.894H841.787C841.667 20.894 841.577 20.918 841.517 20.966C841.469 21.014 841.445 21.098 841.445 21.218V24.296C841.445 24.416 841.463 24.506 841.499 24.566C841.535 24.614 841.601 24.638 841.697 24.638H843.911C844.547 24.638 845.051 24.47 845.423 24.134C845.795 23.798 845.981 23.336 845.981 22.748ZM861.998 31.514C862.022 31.586 862.034 31.64 862.034 31.676C862.034 31.772 862.004 31.85 861.944 31.91C861.884 31.97 861.812 32 861.728 32H859.082C858.878 32 858.746 31.892 858.686 31.676L856.742 26.636C856.706 26.54 856.652 26.474 856.58 26.438C856.508 26.402 856.394 26.384 856.238 26.384H854.528C854.456 26.384 854.402 26.408 854.366 26.456C854.33 26.492 854.312 26.534 854.312 26.582V31.568C854.312 31.724 854.27 31.838 854.186 31.91C854.114 31.97 853.994 32 853.826 32H851.54C851.396 32 851.294 31.97 851.234 31.91C851.186 31.85 851.162 31.76 851.162 31.64V18.986C851.162 18.758 851.258 18.644 851.45 18.644H857.066C858.686 18.644 859.94 18.962 860.828 19.598C861.716 20.234 862.16 21.14 862.16 22.316C862.16 23.192 861.926 23.942 861.458 24.566C860.99 25.178 860.402 25.61 859.694 25.862C859.598 25.898 859.574 25.988 859.622 26.132L861.998 31.514ZM856.778 24.26C857.474 24.26 858.002 24.116 858.362 23.828C858.722 23.528 858.902 23.096 858.902 22.532C858.902 21.956 858.716 21.518 858.344 21.218C857.984 20.906 857.492 20.75 856.868 20.75H854.654C854.522 20.75 854.432 20.774 854.384 20.822C854.336 20.858 854.312 20.93 854.312 21.038V23.954C854.312 24.062 854.33 24.14 854.366 24.188C854.402 24.236 854.468 24.26 854.564 24.26H856.778ZM869.877 32.18C868.617 32.18 867.519 31.91 866.583 31.37C865.659 30.818 864.945 30.032 864.441 29.012C863.949 27.992 863.703 26.78 863.703 25.376C863.703 23.96 863.955 22.736 864.459 21.704C864.963 20.66 865.677 19.862 866.601 19.31C867.537 18.746 868.629 18.464 869.877 18.464C871.113 18.464 872.193 18.746 873.117 19.31C874.041 19.862 874.755 20.66 875.259 21.704C875.763 22.736 876.015 23.954 876.015 25.358C876.015 26.75 875.763 27.962 875.259 28.994C874.767 30.014 874.059 30.8 873.135 31.352C872.211 31.904 871.125 32.18 869.877 32.18ZM869.877 29.966C870.873 29.966 871.593 29.606 872.037 28.886C872.493 28.166 872.721 27.002 872.721 25.394C872.721 23.75 872.487 22.55 872.019 21.794C871.563 21.038 870.849 20.66 869.877 20.66C868.881 20.66 868.149 21.038 867.681 21.794C867.225 22.55 866.997 23.75 866.997 25.394C866.997 27.002 867.225 28.166 867.681 28.886C868.137 29.606 868.869 29.966 869.877 29.966ZM878.434 32C878.326 32 878.242 31.97 878.182 31.91C878.122 31.85 878.092 31.772 878.092 31.676V19.022C878.092 18.902 878.122 18.812 878.182 18.752C878.254 18.68 878.344 18.644 878.452 18.644H883.33C885.094 18.644 886.438 18.944 887.362 19.544C888.298 20.132 888.766 21.002 888.766 22.154C888.766 22.826 888.586 23.396 888.226 23.864C887.866 24.32 887.26 24.722 886.408 25.07C886.372 25.082 886.354 25.106 886.354 25.142C886.354 25.178 886.372 25.202 886.408 25.214C887.344 25.526 888.022 25.934 888.442 26.438C888.874 26.93 889.09 27.578 889.09 28.382C889.09 29.606 888.628 30.518 887.704 31.118C886.792 31.706 885.412 32 883.564 32H878.434ZM883.6 24.152C884.188 24.152 884.674 24.014 885.058 23.738C885.454 23.45 885.652 23.042 885.652 22.514C885.652 21.962 885.448 21.536 885.04 21.236C884.632 20.924 884.098 20.768 883.438 20.768H881.584C881.464 20.768 881.374 20.792 881.314 20.84C881.266 20.888 881.242 20.966 881.242 21.074V23.828C881.242 23.948 881.26 24.032 881.296 24.08C881.332 24.128 881.398 24.152 881.494 24.152H883.6ZM883.474 29.876C884.242 29.876 884.824 29.72 885.22 29.408C885.616 29.084 885.814 28.646 885.814 28.094C885.814 27.542 885.61 27.116 885.202 26.816C884.794 26.504 884.26 26.348 883.6 26.348H881.584C881.452 26.348 881.362 26.372 881.314 26.42C881.266 26.456 881.242 26.534 881.242 26.654V29.534C881.242 29.654 881.26 29.744 881.296 29.804C881.332 29.852 881.398 29.876 881.494 29.876H883.474ZM891.1 18.986C891.1 18.758 891.196 18.644 891.388 18.644H893.962C894.154 18.644 894.25 18.752 894.25 18.968V29.462C894.25 29.546 894.262 29.606 894.286 29.642C894.322 29.678 894.376 29.696 894.448 29.696H900.19C900.406 29.696 900.514 29.786 900.514 29.966V31.676C900.514 31.772 900.484 31.85 900.424 31.91C900.364 31.97 900.28 32 900.172 32H891.496C891.352 32 891.25 31.97 891.19 31.91C891.13 31.85 891.1 31.754 891.1 31.622V18.986ZM902.385 18.986C902.385 18.758 902.481 18.644 902.673 18.644H911.745C911.925 18.644 912.015 18.746 912.015 18.95L911.997 20.57C911.997 20.822 911.871 20.948 911.619 20.948H905.877C905.649 20.948 905.535 21.044 905.535 21.236V23.846C905.535 24.05 905.625 24.152 905.805 24.152H909.621C909.825 24.152 909.927 24.248 909.927 24.44V26.168C909.927 26.336 909.831 26.42 909.639 26.42H905.787C905.619 26.42 905.535 26.492 905.535 26.636V29.462C905.535 29.546 905.547 29.606 905.571 29.642C905.607 29.678 905.661 29.696 905.733 29.696H911.889C912.105 29.696 912.213 29.786 912.213 29.966V31.676C912.213 31.892 912.093 32 911.853 32H902.781C902.637 32 902.535 31.97 902.475 31.91C902.415 31.85 902.385 31.754 902.385 31.622V18.986ZM914.54 32C914.42 32 914.324 31.964 914.252 31.892C914.192 31.82 914.162 31.718 914.162 31.586V18.986C914.162 18.758 914.264 18.644 914.468 18.644H918.194C918.326 18.644 918.422 18.662 918.482 18.698C918.542 18.734 918.59 18.806 918.626 18.914L921.344 26.456C921.38 26.552 921.422 26.6 921.47 26.6C921.518 26.6 921.56 26.552 921.596 26.456L924.188 19.058C924.26 18.782 924.392 18.644 924.584 18.644H928.454C928.634 18.644 928.724 18.752 928.724 18.968V31.568C928.724 31.724 928.688 31.838 928.616 31.91C928.544 31.97 928.43 32 928.274 32H925.952C925.808 32 925.706 31.976 925.646 31.928C925.598 31.868 925.574 31.772 925.574 31.64V22.676C925.574 22.592 925.556 22.55 925.52 22.55C925.484 22.55 925.448 22.598 925.412 22.694L922.262 31.712C922.202 31.904 922.076 32 921.884 32H920.39C920.174 32 920.042 31.904 919.994 31.712L916.88 22.82C916.844 22.724 916.808 22.676 916.772 22.676C916.724 22.676 916.7 22.73 916.7 22.838V31.676C916.7 31.808 916.676 31.898 916.628 31.946C916.592 31.982 916.508 32 916.376 32H914.54ZM1115.56 18.968C1115.56 18.872 1115.59 18.794 1115.65 18.734C1115.72 18.674 1115.81 18.644 1115.92 18.644H1126.25C1126.49 18.644 1126.61 18.752 1126.61 18.968V20.642C1126.61 20.822 1126.5 20.912 1126.28 20.912H1122.92C1122.79 20.912 1122.72 20.972 1122.72 21.092V31.658C1122.72 31.886 1122.62 32 1122.41 32H1119.84C1119.66 32 1119.57 31.898 1119.57 31.694V21.146C1119.57 21.062 1119.55 21.002 1119.52 20.966C1119.49 20.93 1119.44 20.912 1119.37 20.912H1115.9C1115.67 20.912 1115.56 20.822 1115.56 20.642V18.968ZM1131.86 26.294C1131.79 26.294 1131.73 26.318 1131.68 26.366C1131.64 26.414 1131.62 26.468 1131.62 26.528V31.586C1131.62 31.73 1131.58 31.838 1131.5 31.91C1131.43 31.97 1131.31 32 1131.14 32H1128.87C1128.73 32 1128.62 31.97 1128.56 31.91C1128.5 31.85 1128.47 31.754 1128.47 31.622V18.986C1128.47 18.758 1128.57 18.644 1128.76 18.644H1131.34C1131.53 18.644 1131.62 18.752 1131.62 18.968V23.576C1131.62 23.78 1131.71 23.882 1131.89 23.882H1136.05C1136.24 23.882 1136.34 23.786 1136.34 23.594V18.968C1136.34 18.752 1136.43 18.644 1136.61 18.644H1139.18C1139.39 18.644 1139.49 18.758 1139.49 18.986V31.622C1139.49 31.874 1139.36 32 1139.09 32H1136.81C1136.64 32 1136.52 31.97 1136.45 31.91C1136.38 31.85 1136.34 31.742 1136.34 31.586V26.528C1136.34 26.456 1136.32 26.402 1136.27 26.366C1136.23 26.318 1136.17 26.294 1136.09 26.294H1131.86ZM1141.99 18.986C1141.99 18.758 1142.09 18.644 1142.28 18.644H1151.35C1151.53 18.644 1151.62 18.746 1151.62 18.95L1151.6 20.57C1151.6 20.822 1151.48 20.948 1151.23 20.948H1145.48C1145.26 20.948 1145.14 21.044 1145.14 21.236V23.846C1145.14 24.05 1145.23 24.152 1145.41 24.152H1149.23C1149.43 24.152 1149.53 24.248 1149.53 24.44V26.168C1149.53 26.336 1149.44 26.42 1149.25 26.42H1145.39C1145.23 26.42 1145.14 26.492 1145.14 26.636V29.462C1145.14 29.546 1145.15 29.606 1145.18 29.642C1145.21 29.678 1145.27 29.696 1145.34 29.696H1151.5C1151.71 29.696 1151.82 29.786 1151.82 29.966V31.676C1151.82 31.892 1151.7 32 1151.46 32H1142.39C1142.24 32 1142.14 31.97 1142.08 31.91C1142.02 31.85 1141.99 31.754 1141.99 31.622V18.986ZM1168.4 22.802C1168.4 24.098 1167.95 25.106 1167.05 25.826C1166.17 26.534 1164.99 26.888 1163.53 26.888H1160.83C1160.69 26.888 1160.63 26.954 1160.63 27.086V31.586C1160.63 31.862 1160.47 32 1160.16 32H1157.86C1157.71 32 1157.61 31.97 1157.55 31.91C1157.5 31.85 1157.48 31.76 1157.48 31.64V18.986C1157.48 18.758 1157.57 18.644 1157.77 18.644H1163.17C1164.16 18.644 1165.05 18.8 1165.83 19.112C1166.62 19.412 1167.25 19.874 1167.7 20.498C1168.17 21.122 1168.4 21.89 1168.4 22.802ZM1165.16 22.748C1165.16 22.136 1164.97 21.674 1164.57 21.362C1164.17 21.05 1163.64 20.894 1162.97 20.894H1160.97C1160.85 20.894 1160.76 20.918 1160.7 20.966C1160.65 21.014 1160.63 21.098 1160.63 21.218V24.296C1160.63 24.416 1160.65 24.506 1160.68 24.566C1160.72 24.614 1160.78 24.638 1160.88 24.638H1163.09C1163.73 24.638 1164.23 24.47 1164.61 24.134C1164.98 23.798 1165.16 23.336 1165.16 22.748ZM1181.18 31.514C1181.21 31.586 1181.22 31.64 1181.22 31.676C1181.22 31.772 1181.19 31.85 1181.13 31.91C1181.07 31.97 1181 32 1180.91 32H1178.27C1178.06 32 1177.93 31.892 1177.87 31.676L1175.93 26.636C1175.89 26.54 1175.84 26.474 1175.76 26.438C1175.69 26.402 1175.58 26.384 1175.42 26.384H1173.71C1173.64 26.384 1173.59 26.408 1173.55 26.456C1173.51 26.492 1173.5 26.534 1173.5 26.582V31.568C1173.5 31.724 1173.45 31.838 1173.37 31.91C1173.3 31.97 1173.18 32 1173.01 32H1170.72C1170.58 32 1170.48 31.97 1170.42 31.91C1170.37 31.85 1170.35 31.76 1170.35 31.64V18.986C1170.35 18.758 1170.44 18.644 1170.63 18.644H1176.25C1177.87 18.644 1179.12 18.962 1180.01 19.598C1180.9 20.234 1181.34 21.14 1181.34 22.316C1181.34 23.192 1181.11 23.942 1180.64 24.566C1180.17 25.178 1179.59 25.61 1178.88 25.862C1178.78 25.898 1178.76 25.988 1178.81 26.132L1181.18 31.514ZM1175.96 24.26C1176.66 24.26 1177.19 24.116 1177.55 23.828C1177.91 23.528 1178.09 23.096 1178.09 22.532C1178.09 21.956 1177.9 21.518 1177.53 21.218C1177.17 20.906 1176.68 20.75 1176.05 20.75H1173.84C1173.71 20.75 1173.62 20.774 1173.57 20.822C1173.52 20.858 1173.5 20.93 1173.5 21.038V23.954C1173.5 24.062 1173.51 24.14 1173.55 24.188C1173.59 24.236 1173.65 24.26 1173.75 24.26H1175.96ZM1189.06 32.18C1187.8 32.18 1186.7 31.91 1185.77 31.37C1184.84 30.818 1184.13 30.032 1183.62 29.012C1183.13 27.992 1182.89 26.78 1182.89 25.376C1182.89 23.96 1183.14 22.736 1183.64 21.704C1184.15 20.66 1184.86 19.862 1185.78 19.31C1186.72 18.746 1187.81 18.464 1189.06 18.464C1190.3 18.464 1191.38 18.746 1192.3 19.31C1193.22 19.862 1193.94 20.66 1194.44 21.704C1194.95 22.736 1195.2 23.954 1195.2 25.358C1195.2 26.75 1194.95 27.962 1194.44 28.994C1193.95 30.014 1193.24 30.8 1192.32 31.352C1191.39 31.904 1190.31 32.18 1189.06 32.18ZM1189.06 29.966C1190.06 29.966 1190.78 29.606 1191.22 28.886C1191.68 28.166 1191.9 27.002 1191.9 25.394C1191.9 23.75 1191.67 22.55 1191.2 21.794C1190.75 21.038 1190.03 20.66 1189.06 20.66C1188.06 20.66 1187.33 21.038 1186.86 21.794C1186.41 22.55 1186.18 23.75 1186.18 25.394C1186.18 27.002 1186.41 28.166 1186.86 28.886C1187.32 29.606 1188.05 29.966 1189.06 29.966ZM1197.62 32C1197.51 32 1197.43 31.97 1197.37 31.91C1197.31 31.85 1197.28 31.772 1197.28 31.676V19.022C1197.28 18.902 1197.31 18.812 1197.37 18.752C1197.44 18.68 1197.53 18.644 1197.64 18.644H1202.51C1204.28 18.644 1205.62 18.944 1206.55 19.544C1207.48 20.132 1207.95 21.002 1207.95 22.154C1207.95 22.826 1207.77 23.396 1207.41 23.864C1207.05 24.32 1206.44 24.722 1205.59 25.07C1205.56 25.082 1205.54 25.106 1205.54 25.142C1205.54 25.178 1205.56 25.202 1205.59 25.214C1206.53 25.526 1207.21 25.934 1207.63 26.438C1208.06 26.93 1208.27 27.578 1208.27 28.382C1208.27 29.606 1207.81 30.518 1206.89 31.118C1205.98 31.706 1204.6 32 1202.75 32H1197.62ZM1202.78 24.152C1203.37 24.152 1203.86 24.014 1204.24 23.738C1204.64 23.45 1204.84 23.042 1204.84 22.514C1204.84 21.962 1204.63 21.536 1204.22 21.236C1203.82 20.924 1203.28 20.768 1202.62 20.768H1200.77C1200.65 20.768 1200.56 20.792 1200.5 20.84C1200.45 20.888 1200.43 20.966 1200.43 21.074V23.828C1200.43 23.948 1200.44 24.032 1200.48 24.08C1200.52 24.128 1200.58 24.152 1200.68 24.152H1202.78ZM1202.66 29.876C1203.43 29.876 1204.01 29.72 1204.4 29.408C1204.8 29.084 1205 28.646 1205 28.094C1205 27.542 1204.79 27.116 1204.39 26.816C1203.98 26.504 1203.44 26.348 1202.78 26.348H1200.77C1200.64 26.348 1200.55 26.372 1200.5 26.42C1200.45 26.456 1200.43 26.534 1200.43 26.654V29.534C1200.43 29.654 1200.44 29.744 1200.48 29.804C1200.52 29.852 1200.58 29.876 1200.68 29.876H1202.66ZM1210.28 18.986C1210.28 18.758 1210.38 18.644 1210.57 18.644H1213.15C1213.34 18.644 1213.43 18.752 1213.43 18.968V29.462C1213.43 29.546 1213.45 29.606 1213.47 29.642C1213.51 29.678 1213.56 29.696 1213.63 29.696H1219.37C1219.59 29.696 1219.7 29.786 1219.7 29.966V31.676C1219.7 31.772 1219.67 31.85 1219.61 31.91C1219.55 31.97 1219.46 32 1219.36 32H1210.68C1210.54 32 1210.43 31.97 1210.37 31.91C1210.31 31.85 1210.28 31.754 1210.28 31.622V18.986ZM1221.57 18.986C1221.57 18.758 1221.66 18.644 1221.86 18.644H1230.93C1231.11 18.644 1231.2 18.746 1231.2 18.95L1231.18 20.57C1231.18 20.822 1231.05 20.948 1230.8 20.948H1225.06C1224.83 20.948 1224.72 21.044 1224.72 21.236V23.846C1224.72 24.05 1224.81 24.152 1224.99 24.152H1228.8C1229.01 24.152 1229.11 24.248 1229.11 24.44V26.168C1229.11 26.336 1229.01 26.42 1228.82 26.42H1224.97C1224.8 26.42 1224.72 26.492 1224.72 26.636V29.462C1224.72 29.546 1224.73 29.606 1224.75 29.642C1224.79 29.678 1224.84 29.696 1224.92 29.696H1231.07C1231.29 29.696 1231.4 29.786 1231.4 29.966V31.676C1231.4 31.892 1231.28 32 1231.04 32H1221.96C1221.82 32 1221.72 31.97 1221.66 31.91C1221.6 31.85 1221.57 31.754 1221.57 31.622V18.986ZM1233.72 32C1233.6 32 1233.51 31.964 1233.44 31.892C1233.38 31.82 1233.35 31.718 1233.35 31.586V18.986C1233.35 18.758 1233.45 18.644 1233.65 18.644H1237.38C1237.51 18.644 1237.61 18.662 1237.67 18.698C1237.73 18.734 1237.77 18.806 1237.81 18.914L1240.53 26.456C1240.56 26.552 1240.61 26.6 1240.65 26.6C1240.7 26.6 1240.74 26.552 1240.78 26.456L1243.37 19.058C1243.44 18.782 1243.58 18.644 1243.77 18.644H1247.64C1247.82 18.644 1247.91 18.752 1247.91 18.968V31.568C1247.91 31.724 1247.87 31.838 1247.8 31.91C1247.73 31.97 1247.61 32 1247.46 32H1245.14C1244.99 32 1244.89 31.976 1244.83 31.928C1244.78 31.868 1244.76 31.772 1244.76 31.64V22.676C1244.76 22.592 1244.74 22.55 1244.7 22.55C1244.67 22.55 1244.63 22.598 1244.6 22.694L1241.45 31.712C1241.39 31.904 1241.26 32 1241.07 32H1239.57C1239.36 32 1239.23 31.904 1239.18 31.712L1236.06 22.82C1236.03 22.724 1235.99 22.676 1235.96 22.676C1235.91 22.676 1235.88 22.73 1235.88 22.838V31.676C1235.88 31.808 1235.86 31.898 1235.81 31.946C1235.78 31.982 1235.69 32 1235.56 32H1233.72Z" fill="#00FF19"/>
</svg>
