<svg width="1707" height="48" viewBox="0 0 1707 48" fill="none" xmlns="http://www.w3.org/2000/svg">
<rect x="45" width="1328" height="48" fill="black"/>
<path d="M18.702 18.644C18.87 18.644 18.996 18.686 19.08 18.77C19.176 18.842 19.224 18.944 19.224 19.076C19.224 19.124 19.212 19.196 19.188 19.292L15.534 31.586C15.474 31.73 15.396 31.838 15.3 31.91C15.216 31.97 15.09 32 14.922 32H12.708C12.54 32 12.408 31.97 12.312 31.91C12.216 31.838 12.144 31.73 12.096 31.586L10.044 24.512C10.008 24.38 9.972 24.314 9.936 24.314C9.888 24.314 9.84 24.392 9.792 24.548L7.722 31.586C7.65 31.862 7.452 32 7.128 32H4.824C4.512 32 4.314 31.862 4.23 31.586L0.558 19.292C0.546 19.244 0.54 19.178 0.54 19.094C0.54 18.95 0.582 18.842 0.666 18.77C0.75 18.686 0.876 18.644 1.044 18.644H3.672C3.828 18.644 3.942 18.674 4.014 18.734C4.098 18.782 4.158 18.866 4.194 18.986L6.3 26.384C6.336 26.528 6.378 26.6 6.426 26.6C6.462 26.6 6.492 26.552 6.516 26.456L8.604 18.986C8.628 18.866 8.682 18.782 8.766 18.734C8.85 18.674 8.976 18.644 9.144 18.644H11.376C11.532 18.644 11.646 18.674 11.718 18.734C11.802 18.782 11.862 18.866 11.898 18.986L14.076 26.528C14.1 26.612 14.13 26.66 14.166 26.672C14.214 26.684 14.25 26.648 14.274 26.564L16.326 18.986C16.362 18.758 16.536 18.644 16.848 18.644H18.702ZM24.7262 26.492C24.6542 26.492 24.5942 26.516 24.5462 26.564C24.4982 26.6 24.4742 26.654 24.4742 26.726V31.532C24.4742 31.7 24.4322 31.82 24.3482 31.892C24.2642 31.964 24.1262 32 23.9342 32H21.2702C21.1022 32 20.9882 31.97 20.9282 31.91C20.8682 31.838 20.8382 31.73 20.8382 31.586V19.022C20.8382 18.902 20.8622 18.812 20.9102 18.752C20.9702 18.68 21.0482 18.644 21.1442 18.644H24.1682C24.2642 18.644 24.3362 18.674 24.3842 18.734C24.4442 18.794 24.4742 18.878 24.4742 18.986V23.378C24.4742 23.606 24.5702 23.72 24.7622 23.72H28.3442C28.5362 23.72 28.6322 23.606 28.6322 23.378V18.986C28.6322 18.878 28.6562 18.794 28.7042 18.734C28.7642 18.674 28.8422 18.644 28.9382 18.644H31.9622C32.0582 18.644 32.1302 18.68 32.1782 18.752C32.2382 18.812 32.2682 18.902 32.2682 19.022V31.586C32.2682 31.73 32.2382 31.838 32.1782 31.91C32.1182 31.97 32.0042 32 31.8362 32H29.1722C28.9802 32 28.8422 31.964 28.7582 31.892C28.6742 31.82 28.6322 31.7 28.6322 31.532V26.726C28.6322 26.654 28.6082 26.6 28.5602 26.564C28.5242 26.516 28.4642 26.492 28.3802 26.492H24.7262ZM34.1733 32C34.0773 32 33.9993 31.97 33.9393 31.91C33.8913 31.85 33.8673 31.766 33.8673 31.658C33.8673 31.574 33.8853 31.49 33.9213 31.406L38.3493 19.022C38.3973 18.878 38.4573 18.782 38.5293 18.734C38.6013 18.674 38.7093 18.644 38.8533 18.644H41.9853C42.2733 18.644 42.4773 18.794 42.5973 19.094L46.9713 31.442C46.9833 31.478 46.9893 31.538 46.9893 31.622C46.9893 31.73 46.9653 31.82 46.9173 31.892C46.8813 31.964 46.8213 32 46.7373 32H43.6233C43.4313 32 43.3053 31.904 43.2453 31.712L42.4533 29.372C42.4173 29.3 42.3813 29.252 42.3453 29.228C42.3213 29.192 42.2673 29.174 42.1833 29.174H38.0973C37.9653 29.174 37.8813 29.24 37.8453 29.372L36.9993 31.748C36.9393 31.916 36.8073 32 36.6033 32H34.1733ZM41.3733 26.438C41.4933 26.438 41.5533 26.378 41.5533 26.258C41.5533 26.186 41.5473 26.132 41.5353 26.096L40.2393 22.478C40.2273 22.406 40.1913 22.37 40.1313 22.37C40.0833 22.37 40.0473 22.406 40.0233 22.478L38.7093 26.096C38.6853 26.144 38.6733 26.204 38.6733 26.276C38.6733 26.384 38.7453 26.438 38.8893 26.438H41.3733ZM45.9271 19.022C45.9271 18.914 45.9571 18.824 46.0171 18.752C46.0891 18.68 46.1911 18.644 46.3231 18.644H56.8891C57.0211 18.644 57.1171 18.68 57.1771 18.752C57.2491 18.824 57.2851 18.914 57.2851 19.022V20.93C57.2851 21.134 57.1651 21.236 56.9251 21.236H53.6491C53.5171 21.236 53.4511 21.296 53.4511 21.416V31.64C53.4511 31.88 53.3431 32 53.1271 32H50.1031C49.8991 32 49.7971 31.886 49.7971 31.658V21.488C49.7971 21.392 49.7851 21.326 49.7611 21.29C49.7371 21.254 49.6891 21.236 49.6171 21.236H46.3051C46.0531 21.236 45.9271 21.134 45.9271 20.93V19.022ZM80.2079 18.644C80.3759 18.644 80.5019 18.686 80.5859 18.77C80.6819 18.842 80.7299 18.944 80.7299 19.076C80.7299 19.124 80.7179 19.196 80.6939 19.292L77.0399 31.586C76.9799 31.73 76.9019 31.838 76.8059 31.91C76.7219 31.97 76.5959 32 76.4279 32H74.2139C74.0459 32 73.9139 31.97 73.8179 31.91C73.7219 31.838 73.6499 31.73 73.6019 31.586L71.5499 24.512C71.5139 24.38 71.4779 24.314 71.4419 24.314C71.3939 24.314 71.3459 24.392 71.2979 24.548L69.2279 31.586C69.1559 31.862 68.9579 32 68.6339 32H66.3299C66.0179 32 65.8199 31.862 65.7359 31.586L62.0639 19.292C62.0519 19.244 62.0459 19.178 62.0459 19.094C62.0459 18.95 62.0879 18.842 62.1719 18.77C62.2559 18.686 62.3819 18.644 62.5499 18.644H65.1779C65.3339 18.644 65.4479 18.674 65.5199 18.734C65.6039 18.782 65.6639 18.866 65.6999 18.986L67.8059 26.384C67.8419 26.528 67.8839 26.6 67.9319 26.6C67.9679 26.6 67.9979 26.552 68.0219 26.456L70.1099 18.986C70.1339 18.866 70.1879 18.782 70.2719 18.734C70.3559 18.674 70.4819 18.644 70.6499 18.644H72.8819C73.0379 18.644 73.1519 18.674 73.2239 18.734C73.3079 18.782 73.3679 18.866 73.4039 18.986L75.5819 26.528C75.6059 26.612 75.6359 26.66 75.6719 26.672C75.7199 26.684 75.7559 26.648 75.7799 26.564L77.8319 18.986C77.8679 18.758 78.0419 18.644 78.3539 18.644H80.2079ZM82.3441 19.022C82.3441 18.77 82.4461 18.644 82.6501 18.644H92.0641C92.2561 18.644 92.3521 18.758 92.3521 18.986V20.858C92.3521 20.99 92.3161 21.098 92.2441 21.182C92.1721 21.254 92.0641 21.29 91.9201 21.29H86.3581C86.1061 21.29 85.9801 21.398 85.9801 21.614V23.648C85.9801 23.756 86.0041 23.84 86.0521 23.9C86.1121 23.96 86.1841 23.99 86.2681 23.99H89.7781C90.0061 23.99 90.1201 24.098 90.1201 24.314V26.312C90.1201 26.492 90.0241 26.582 89.8321 26.582H86.2501C86.0701 26.582 85.9801 26.666 85.9801 26.834V29.12C85.9801 29.204 85.9921 29.264 86.0161 29.3C86.0521 29.336 86.1061 29.354 86.1781 29.354H92.1721C92.2921 29.354 92.3821 29.378 92.4421 29.426C92.5021 29.474 92.5321 29.552 92.5321 29.66V31.64C92.5321 31.88 92.4061 32 92.1541 32H82.7761C82.6201 32 82.5061 31.97 82.4341 31.91C82.3741 31.838 82.3441 31.73 82.3441 31.586V19.022ZM103.75 18.464C104.698 18.464 105.568 18.638 106.36 18.986C107.152 19.334 107.8 19.82 108.304 20.444C108.808 21.056 109.132 21.746 109.276 22.514L109.312 22.82C109.312 22.916 109.294 22.982 109.258 23.018C109.222 23.042 109.156 23.06 109.06 23.072L106.252 23.27C106.144 23.27 106.072 23.252 106.036 23.216C106.012 23.168 105.982 23.078 105.946 22.946C105.67 21.626 104.968 20.966 103.84 20.966C102.148 20.966 101.302 22.388 101.302 25.232C101.302 26.744 101.512 27.842 101.932 28.526C102.352 29.198 102.988 29.534 103.84 29.534C104.512 29.534 105.082 29.366 105.55 29.03C106.03 28.682 106.426 28.118 106.738 27.338C106.774 27.242 106.864 27.194 107.008 27.194C107.08 27.194 107.14 27.2 107.188 27.212L109.222 27.608C109.294 27.632 109.348 27.668 109.384 27.716C109.432 27.764 109.456 27.848 109.456 27.968C109.456 28.04 109.45 28.1 109.438 28.148C109.342 28.628 109.072 29.18 108.628 29.804C108.196 30.428 107.566 30.98 106.738 31.46C105.922 31.94 104.92 32.18 103.732 32.18C102.484 32.18 101.386 31.886 100.438 31.298C99.5019 30.698 98.7759 29.87 98.2599 28.814C97.7559 27.758 97.5039 26.546 97.5039 25.178C97.5039 23.822 97.7559 22.64 98.2599 21.632C98.7759 20.612 99.5019 19.832 100.438 19.292C101.374 18.74 102.478 18.464 103.75 18.464ZM110.287 32C110.191 32 110.113 31.97 110.053 31.91C110.005 31.85 109.981 31.766 109.981 31.658C109.981 31.574 109.999 31.49 110.035 31.406L114.463 19.022C114.511 18.878 114.571 18.782 114.643 18.734C114.715 18.674 114.823 18.644 114.967 18.644H118.099C118.387 18.644 118.591 18.794 118.711 19.094L123.085 31.442C123.097 31.478 123.103 31.538 123.103 31.622C123.103 31.73 123.079 31.82 123.031 31.892C122.995 31.964 122.935 32 122.851 32H119.737C119.545 32 119.419 31.904 119.359 31.712L118.567 29.372C118.531 29.3 118.495 29.252 118.459 29.228C118.435 29.192 118.381 29.174 118.297 29.174H114.211C114.079 29.174 113.995 29.24 113.959 29.372L113.113 31.748C113.053 31.916 112.921 32 112.717 32H110.287ZM117.487 26.438C117.607 26.438 117.667 26.378 117.667 26.258C117.667 26.186 117.661 26.132 117.649 26.096L116.353 22.478C116.341 22.406 116.305 22.37 116.245 22.37C116.197 22.37 116.161 22.406 116.137 22.478L114.823 26.096C114.799 26.144 114.787 26.204 114.787 26.276C114.787 26.384 114.859 26.438 115.003 26.438H117.487ZM135.939 18.644C136.119 18.644 136.209 18.74 136.209 18.932V31.694C136.209 31.79 136.173 31.868 136.101 31.928C136.029 31.976 135.939 32 135.831 32H133.653C133.557 32 133.473 31.988 133.401 31.964C133.341 31.928 133.269 31.856 133.185 31.748L127.857 24.404C127.809 24.332 127.767 24.302 127.731 24.314C127.695 24.314 127.677 24.35 127.677 24.422V31.64V31.694C127.677 31.802 127.647 31.88 127.587 31.928C127.527 31.976 127.425 32 127.281 32H125.103C124.839 32 124.707 31.886 124.707 31.658V19.022C124.707 18.89 124.731 18.794 124.779 18.734C124.839 18.674 124.935 18.644 125.067 18.644H127.641C127.785 18.644 127.887 18.662 127.947 18.698C128.019 18.734 128.103 18.812 128.199 18.932L132.987 25.682C133.059 25.778 133.125 25.826 133.185 25.826C133.245 25.826 133.275 25.754 133.275 25.61V18.986C133.275 18.758 133.395 18.644 133.635 18.644H135.939ZM144.397 18.644C145.705 18.644 146.533 18.65 146.881 18.662C149.245 18.746 151.015 19.37 152.191 20.534C153.379 21.686 153.973 23.27 153.973 25.286C153.973 26.63 153.703 27.806 153.163 28.814C152.635 29.822 151.837 30.608 150.769 31.172C149.701 31.724 148.393 32 146.845 32H142.507C142.339 32 142.219 31.964 142.147 31.892C142.075 31.82 142.039 31.694 142.039 31.514V19.058C142.039 18.902 142.069 18.794 142.129 18.734C142.189 18.674 142.303 18.644 142.471 18.644H144.397ZM145.837 21.182C145.729 21.182 145.675 21.266 145.675 21.434V29.21C145.675 29.306 145.687 29.372 145.711 29.408C145.747 29.444 145.813 29.462 145.909 29.462H146.143C147.487 29.462 148.489 29.138 149.149 28.49C149.821 27.83 150.157 26.75 150.157 25.25C150.157 23.906 149.887 22.922 149.347 22.298C148.819 21.674 148.015 21.32 146.935 21.236L145.837 21.182ZM161.654 32.18C160.37 32.18 159.248 31.904 158.288 31.352C157.34 30.8 156.608 30.014 156.092 28.994C155.576 27.962 155.318 26.75 155.318 25.358C155.318 23.966 155.576 22.754 156.092 21.722C156.62 20.678 157.358 19.874 158.306 19.31C159.266 18.746 160.382 18.464 161.654 18.464C162.914 18.464 164.018 18.746 164.966 19.31C165.926 19.874 166.664 20.678 167.18 21.722C167.708 22.754 167.972 23.966 167.972 25.358C167.972 26.738 167.714 27.944 167.198 28.976C166.682 29.996 165.944 30.788 164.984 31.352C164.036 31.904 162.926 32.18 161.654 32.18ZM161.672 29.66C162.548 29.66 163.178 29.33 163.562 28.67C163.958 28.01 164.156 26.924 164.156 25.412C164.156 23.852 163.952 22.724 163.544 22.028C163.148 21.32 162.518 20.966 161.654 20.966C160.778 20.966 160.136 21.32 159.728 22.028C159.332 22.724 159.134 23.852 159.134 25.412C159.134 26.924 159.332 28.01 159.728 28.67C160.124 29.33 160.772 29.66 161.672 29.66ZM401.466 18.644C401.634 18.644 401.76 18.686 401.844 18.77C401.94 18.842 401.988 18.944 401.988 19.076C401.988 19.124 401.976 19.196 401.952 19.292L398.298 31.586C398.238 31.73 398.16 31.838 398.064 31.91C397.98 31.97 397.854 32 397.686 32H395.472C395.304 32 395.172 31.97 395.076 31.91C394.98 31.838 394.908 31.73 394.86 31.586L392.808 24.512C392.772 24.38 392.736 24.314 392.7 24.314C392.652 24.314 392.604 24.392 392.556 24.548L390.486 31.586C390.414 31.862 390.216 32 389.892 32H387.588C387.276 32 387.078 31.862 386.994 31.586L383.322 19.292C383.31 19.244 383.304 19.178 383.304 19.094C383.304 18.95 383.346 18.842 383.43 18.77C383.514 18.686 383.64 18.644 383.808 18.644H386.436C386.592 18.644 386.706 18.674 386.778 18.734C386.862 18.782 386.922 18.866 386.958 18.986L389.064 26.384C389.1 26.528 389.142 26.6 389.19 26.6C389.226 26.6 389.256 26.552 389.28 26.456L391.368 18.986C391.392 18.866 391.446 18.782 391.53 18.734C391.614 18.674 391.74 18.644 391.908 18.644H394.14C394.296 18.644 394.41 18.674 394.482 18.734C394.566 18.782 394.626 18.866 394.662 18.986L396.84 26.528C396.864 26.612 396.894 26.66 396.93 26.672C396.978 26.684 397.014 26.648 397.038 26.564L399.09 18.986C399.126 18.758 399.3 18.644 399.612 18.644H401.466ZM407.49 26.492C407.418 26.492 407.358 26.516 407.31 26.564C407.262 26.6 407.238 26.654 407.238 26.726V31.532C407.238 31.7 407.196 31.82 407.112 31.892C407.028 31.964 406.89 32 406.698 32H404.034C403.866 32 403.752 31.97 403.692 31.91C403.632 31.838 403.602 31.73 403.602 31.586V19.022C403.602 18.902 403.626 18.812 403.674 18.752C403.734 18.68 403.812 18.644 403.908 18.644H406.932C407.028 18.644 407.1 18.674 407.148 18.734C407.208 18.794 407.238 18.878 407.238 18.986V23.378C407.238 23.606 407.334 23.72 407.526 23.72H411.108C411.3 23.72 411.396 23.606 411.396 23.378V18.986C411.396 18.878 411.42 18.794 411.468 18.734C411.528 18.674 411.606 18.644 411.702 18.644H414.726C414.822 18.644 414.894 18.68 414.942 18.752C415.002 18.812 415.032 18.902 415.032 19.022V31.586C415.032 31.73 415.002 31.838 414.942 31.91C414.882 31.97 414.768 32 414.6 32H411.936C411.744 32 411.606 31.964 411.522 31.892C411.438 31.82 411.396 31.7 411.396 31.532V26.726C411.396 26.654 411.372 26.6 411.324 26.564C411.288 26.516 411.228 26.492 411.144 26.492H407.49ZM416.937 32C416.841 32 416.763 31.97 416.703 31.91C416.655 31.85 416.631 31.766 416.631 31.658C416.631 31.574 416.649 31.49 416.685 31.406L421.113 19.022C421.161 18.878 421.221 18.782 421.293 18.734C421.365 18.674 421.473 18.644 421.617 18.644H424.749C425.037 18.644 425.241 18.794 425.361 19.094L429.735 31.442C429.747 31.478 429.753 31.538 429.753 31.622C429.753 31.73 429.729 31.82 429.681 31.892C429.645 31.964 429.585 32 429.501 32H426.387C426.195 32 426.069 31.904 426.009 31.712L425.217 29.372C425.181 29.3 425.145 29.252 425.109 29.228C425.085 29.192 425.031 29.174 424.947 29.174H420.861C420.729 29.174 420.645 29.24 420.609 29.372L419.763 31.748C419.703 31.916 419.571 32 419.367 32H416.937ZM424.137 26.438C424.257 26.438 424.317 26.378 424.317 26.258C424.317 26.186 424.311 26.132 424.299 26.096L423.003 22.478C422.991 22.406 422.955 22.37 422.895 22.37C422.847 22.37 422.811 22.406 422.787 22.478L421.473 26.096C421.449 26.144 421.437 26.204 421.437 26.276C421.437 26.384 421.509 26.438 421.653 26.438H424.137ZM428.691 19.022C428.691 18.914 428.721 18.824 428.781 18.752C428.853 18.68 428.955 18.644 429.087 18.644H439.653C439.785 18.644 439.881 18.68 439.941 18.752C440.013 18.824 440.049 18.914 440.049 19.022V20.93C440.049 21.134 439.929 21.236 439.689 21.236H436.413C436.281 21.236 436.215 21.296 436.215 21.416V31.64C436.215 31.88 436.107 32 435.891 32H432.867C432.663 32 432.561 31.886 432.561 31.658V21.488C432.561 21.392 432.549 21.326 432.525 21.29C432.501 21.254 432.453 21.236 432.381 21.236H429.069C428.817 21.236 428.691 21.134 428.691 20.93V19.022ZM462.972 18.644C463.14 18.644 463.266 18.686 463.35 18.77C463.446 18.842 463.494 18.944 463.494 19.076C463.494 19.124 463.482 19.196 463.458 19.292L459.804 31.586C459.744 31.73 459.666 31.838 459.57 31.91C459.486 31.97 459.36 32 459.192 32H456.978C456.81 32 456.678 31.97 456.582 31.91C456.486 31.838 456.414 31.73 456.366 31.586L454.314 24.512C454.278 24.38 454.242 24.314 454.206 24.314C454.158 24.314 454.11 24.392 454.062 24.548L451.992 31.586C451.92 31.862 451.722 32 451.398 32H449.094C448.782 32 448.584 31.862 448.5 31.586L444.828 19.292C444.816 19.244 444.81 19.178 444.81 19.094C444.81 18.95 444.852 18.842 444.936 18.77C445.02 18.686 445.146 18.644 445.314 18.644H447.942C448.098 18.644 448.212 18.674 448.284 18.734C448.368 18.782 448.428 18.866 448.464 18.986L450.57 26.384C450.606 26.528 450.648 26.6 450.696 26.6C450.732 26.6 450.762 26.552 450.786 26.456L452.874 18.986C452.898 18.866 452.952 18.782 453.036 18.734C453.12 18.674 453.246 18.644 453.414 18.644H455.646C455.802 18.644 455.916 18.674 455.988 18.734C456.072 18.782 456.132 18.866 456.168 18.986L458.346 26.528C458.37 26.612 458.4 26.66 458.436 26.672C458.484 26.684 458.52 26.648 458.544 26.564L460.596 18.986C460.632 18.758 460.806 18.644 461.118 18.644H462.972ZM465.108 19.022C465.108 18.77 465.21 18.644 465.414 18.644H474.828C475.02 18.644 475.116 18.758 475.116 18.986V20.858C475.116 20.99 475.08 21.098 475.008 21.182C474.936 21.254 474.828 21.29 474.684 21.29H469.122C468.87 21.29 468.744 21.398 468.744 21.614V23.648C468.744 23.756 468.768 23.84 468.816 23.9C468.876 23.96 468.948 23.99 469.032 23.99H472.542C472.77 23.99 472.884 24.098 472.884 24.314V26.312C472.884 26.492 472.788 26.582 472.596 26.582H469.014C468.834 26.582 468.744 26.666 468.744 26.834V29.12C468.744 29.204 468.756 29.264 468.78 29.3C468.816 29.336 468.87 29.354 468.942 29.354H474.936C475.056 29.354 475.146 29.378 475.206 29.426C475.266 29.474 475.296 29.552 475.296 29.66V31.64C475.296 31.88 475.17 32 474.918 32H465.54C465.384 32 465.27 31.97 465.198 31.91C465.138 31.838 465.108 31.73 465.108 31.586V19.022ZM486.514 18.464C487.462 18.464 488.332 18.638 489.124 18.986C489.916 19.334 490.564 19.82 491.068 20.444C491.572 21.056 491.896 21.746 492.04 22.514L492.076 22.82C492.076 22.916 492.058 22.982 492.022 23.018C491.986 23.042 491.92 23.06 491.824 23.072L489.016 23.27C488.908 23.27 488.836 23.252 488.8 23.216C488.776 23.168 488.746 23.078 488.71 22.946C488.434 21.626 487.732 20.966 486.604 20.966C484.912 20.966 484.066 22.388 484.066 25.232C484.066 26.744 484.276 27.842 484.696 28.526C485.116 29.198 485.752 29.534 486.604 29.534C487.276 29.534 487.846 29.366 488.314 29.03C488.794 28.682 489.19 28.118 489.502 27.338C489.538 27.242 489.628 27.194 489.772 27.194C489.844 27.194 489.904 27.2 489.952 27.212L491.986 27.608C492.058 27.632 492.112 27.668 492.148 27.716C492.196 27.764 492.22 27.848 492.22 27.968C492.22 28.04 492.214 28.1 492.202 28.148C492.106 28.628 491.836 29.18 491.392 29.804C490.96 30.428 490.33 30.98 489.502 31.46C488.686 31.94 487.684 32.18 486.496 32.18C485.248 32.18 484.15 31.886 483.202 31.298C482.266 30.698 481.54 29.87 481.024 28.814C480.52 27.758 480.268 26.546 480.268 25.178C480.268 23.822 480.52 22.64 481.024 21.632C481.54 20.612 482.266 19.832 483.202 19.292C484.138 18.74 485.242 18.464 486.514 18.464ZM493.05 32C492.954 32 492.876 31.97 492.816 31.91C492.768 31.85 492.744 31.766 492.744 31.658C492.744 31.574 492.762 31.49 492.798 31.406L497.226 19.022C497.274 18.878 497.334 18.782 497.406 18.734C497.478 18.674 497.586 18.644 497.73 18.644H500.862C501.15 18.644 501.354 18.794 501.474 19.094L505.848 31.442C505.86 31.478 505.866 31.538 505.866 31.622C505.866 31.73 505.842 31.82 505.794 31.892C505.758 31.964 505.698 32 505.614 32H502.5C502.308 32 502.182 31.904 502.122 31.712L501.33 29.372C501.294 29.3 501.258 29.252 501.222 29.228C501.198 29.192 501.144 29.174 501.06 29.174H496.974C496.842 29.174 496.758 29.24 496.722 29.372L495.876 31.748C495.816 31.916 495.684 32 495.48 32H493.05ZM500.25 26.438C500.37 26.438 500.43 26.378 500.43 26.258C500.43 26.186 500.424 26.132 500.412 26.096L499.116 22.478C499.104 22.406 499.068 22.37 499.008 22.37C498.96 22.37 498.924 22.406 498.9 22.478L497.586 26.096C497.562 26.144 497.55 26.204 497.55 26.276C497.55 26.384 497.622 26.438 497.766 26.438H500.25ZM518.703 18.644C518.883 18.644 518.973 18.74 518.973 18.932V31.694C518.973 31.79 518.937 31.868 518.865 31.928C518.793 31.976 518.703 32 518.595 32H516.417C516.321 32 516.237 31.988 516.165 31.964C516.105 31.928 516.033 31.856 515.949 31.748L510.621 24.404C510.573 24.332 510.531 24.302 510.495 24.314C510.459 24.314 510.441 24.35 510.441 24.422V31.64V31.694C510.441 31.802 510.411 31.88 510.351 31.928C510.291 31.976 510.189 32 510.045 32H507.867C507.603 32 507.471 31.886 507.471 31.658V19.022C507.471 18.89 507.495 18.794 507.543 18.734C507.603 18.674 507.699 18.644 507.831 18.644H510.405C510.549 18.644 510.651 18.662 510.711 18.698C510.783 18.734 510.867 18.812 510.963 18.932L515.751 25.682C515.823 25.778 515.889 25.826 515.949 25.826C516.009 25.826 516.039 25.754 516.039 25.61V18.986C516.039 18.758 516.159 18.644 516.399 18.644H518.703ZM527.161 18.644C528.469 18.644 529.297 18.65 529.645 18.662C532.009 18.746 533.779 19.37 534.955 20.534C536.143 21.686 536.737 23.27 536.737 25.286C536.737 26.63 536.467 27.806 535.927 28.814C535.399 29.822 534.601 30.608 533.533 31.172C532.465 31.724 531.157 32 529.609 32H525.271C525.103 32 524.983 31.964 524.911 31.892C524.839 31.82 524.803 31.694 524.803 31.514V19.058C524.803 18.902 524.833 18.794 524.893 18.734C524.953 18.674 525.067 18.644 525.235 18.644H527.161ZM528.601 21.182C528.493 21.182 528.439 21.266 528.439 21.434V29.21C528.439 29.306 528.451 29.372 528.475 29.408C528.511 29.444 528.577 29.462 528.673 29.462H528.907C530.251 29.462 531.253 29.138 531.913 28.49C532.585 27.83 532.921 26.75 532.921 25.25C532.921 23.906 532.651 22.922 532.111 22.298C531.583 21.674 530.779 21.32 529.699 21.236L528.601 21.182ZM544.418 32.18C543.134 32.18 542.012 31.904 541.052 31.352C540.104 30.8 539.372 30.014 538.856 28.994C538.34 27.962 538.082 26.75 538.082 25.358C538.082 23.966 538.34 22.754 538.856 21.722C539.384 20.678 540.122 19.874 541.07 19.31C542.03 18.746 543.146 18.464 544.418 18.464C545.678 18.464 546.782 18.746 547.73 19.31C548.69 19.874 549.428 20.678 549.944 21.722C550.472 22.754 550.736 23.966 550.736 25.358C550.736 26.738 550.478 27.944 549.962 28.976C549.446 29.996 548.708 30.788 547.748 31.352C546.8 31.904 545.69 32.18 544.418 32.18ZM544.436 29.66C545.312 29.66 545.942 29.33 546.326 28.67C546.722 28.01 546.92 26.924 546.92 25.412C546.92 23.852 546.716 22.724 546.308 22.028C545.912 21.32 545.282 20.966 544.418 20.966C543.542 20.966 542.9 21.32 542.492 22.028C542.096 22.724 541.898 23.852 541.898 25.412C541.898 26.924 542.096 28.01 542.492 28.67C542.888 29.33 543.536 29.66 544.436 29.66ZM784.229 18.644C784.397 18.644 784.523 18.686 784.607 18.77C784.703 18.842 784.751 18.944 784.751 19.076C784.751 19.124 784.739 19.196 784.715 19.292L781.061 31.586C781.001 31.73 780.923 31.838 780.827 31.91C780.743 31.97 780.617 32 780.449 32H778.235C778.067 32 777.935 31.97 777.839 31.91C777.743 31.838 777.671 31.73 777.623 31.586L775.571 24.512C775.535 24.38 775.499 24.314 775.463 24.314C775.415 24.314 775.367 24.392 775.319 24.548L773.249 31.586C773.177 31.862 772.979 32 772.655 32H770.351C770.039 32 769.841 31.862 769.757 31.586L766.085 19.292C766.073 19.244 766.067 19.178 766.067 19.094C766.067 18.95 766.109 18.842 766.193 18.77C766.277 18.686 766.403 18.644 766.571 18.644H769.199C769.355 18.644 769.469 18.674 769.541 18.734C769.625 18.782 769.685 18.866 769.721 18.986L771.827 26.384C771.863 26.528 771.905 26.6 771.953 26.6C771.989 26.6 772.019 26.552 772.043 26.456L774.131 18.986C774.155 18.866 774.209 18.782 774.293 18.734C774.377 18.674 774.503 18.644 774.671 18.644H776.903C777.059 18.644 777.173 18.674 777.245 18.734C777.329 18.782 777.389 18.866 777.425 18.986L779.603 26.528C779.627 26.612 779.657 26.66 779.693 26.672C779.741 26.684 779.777 26.648 779.801 26.564L781.853 18.986C781.889 18.758 782.063 18.644 782.375 18.644H784.229ZM790.254 26.492C790.182 26.492 790.122 26.516 790.074 26.564C790.026 26.6 790.002 26.654 790.002 26.726V31.532C790.002 31.7 789.96 31.82 789.876 31.892C789.792 31.964 789.654 32 789.462 32H786.798C786.63 32 786.516 31.97 786.456 31.91C786.396 31.838 786.366 31.73 786.366 31.586V19.022C786.366 18.902 786.39 18.812 786.438 18.752C786.498 18.68 786.576 18.644 786.672 18.644H789.696C789.792 18.644 789.864 18.674 789.912 18.734C789.972 18.794 790.002 18.878 790.002 18.986V23.378C790.002 23.606 790.098 23.72 790.29 23.72H793.872C794.064 23.72 794.16 23.606 794.16 23.378V18.986C794.16 18.878 794.184 18.794 794.232 18.734C794.292 18.674 794.37 18.644 794.466 18.644H797.49C797.586 18.644 797.658 18.68 797.706 18.752C797.766 18.812 797.796 18.902 797.796 19.022V31.586C797.796 31.73 797.766 31.838 797.706 31.91C797.646 31.97 797.532 32 797.364 32H794.7C794.508 32 794.37 31.964 794.286 31.892C794.202 31.82 794.16 31.7 794.16 31.532V26.726C794.16 26.654 794.136 26.6 794.088 26.564C794.052 26.516 793.992 26.492 793.908 26.492H790.254ZM799.701 32C799.605 32 799.527 31.97 799.467 31.91C799.419 31.85 799.395 31.766 799.395 31.658C799.395 31.574 799.413 31.49 799.449 31.406L803.877 19.022C803.925 18.878 803.985 18.782 804.057 18.734C804.129 18.674 804.237 18.644 804.381 18.644H807.513C807.801 18.644 808.005 18.794 808.125 19.094L812.499 31.442C812.511 31.478 812.517 31.538 812.517 31.622C812.517 31.73 812.493 31.82 812.445 31.892C812.409 31.964 812.349 32 812.265 32H809.151C808.959 32 808.833 31.904 808.773 31.712L807.981 29.372C807.945 29.3 807.909 29.252 807.873 29.228C807.849 29.192 807.795 29.174 807.711 29.174H803.625C803.493 29.174 803.409 29.24 803.373 29.372L802.527 31.748C802.467 31.916 802.335 32 802.131 32H799.701ZM806.901 26.438C807.021 26.438 807.081 26.378 807.081 26.258C807.081 26.186 807.075 26.132 807.063 26.096L805.767 22.478C805.755 22.406 805.719 22.37 805.659 22.37C805.611 22.37 805.575 22.406 805.551 22.478L804.237 26.096C804.213 26.144 804.201 26.204 804.201 26.276C804.201 26.384 804.273 26.438 804.417 26.438H806.901ZM811.454 19.022C811.454 18.914 811.484 18.824 811.544 18.752C811.616 18.68 811.718 18.644 811.85 18.644H822.416C822.548 18.644 822.644 18.68 822.704 18.752C822.776 18.824 822.812 18.914 822.812 19.022V20.93C822.812 21.134 822.692 21.236 822.452 21.236H819.176C819.044 21.236 818.978 21.296 818.978 21.416V31.64C818.978 31.88 818.87 32 818.654 32H815.63C815.426 32 815.324 31.886 815.324 31.658V21.488C815.324 21.392 815.312 21.326 815.288 21.29C815.264 21.254 815.216 21.236 815.144 21.236H811.832C811.58 21.236 811.454 21.134 811.454 20.93V19.022ZM845.735 18.644C845.903 18.644 846.029 18.686 846.113 18.77C846.209 18.842 846.257 18.944 846.257 19.076C846.257 19.124 846.245 19.196 846.221 19.292L842.567 31.586C842.507 31.73 842.429 31.838 842.333 31.91C842.249 31.97 842.123 32 841.955 32H839.741C839.573 32 839.441 31.97 839.345 31.91C839.249 31.838 839.177 31.73 839.129 31.586L837.077 24.512C837.041 24.38 837.005 24.314 836.969 24.314C836.921 24.314 836.873 24.392 836.825 24.548L834.755 31.586C834.683 31.862 834.485 32 834.161 32H831.857C831.545 32 831.347 31.862 831.263 31.586L827.591 19.292C827.579 19.244 827.573 19.178 827.573 19.094C827.573 18.95 827.615 18.842 827.699 18.77C827.783 18.686 827.909 18.644 828.077 18.644H830.705C830.861 18.644 830.975 18.674 831.047 18.734C831.131 18.782 831.191 18.866 831.227 18.986L833.333 26.384C833.369 26.528 833.411 26.6 833.459 26.6C833.495 26.6 833.525 26.552 833.549 26.456L835.637 18.986C835.661 18.866 835.715 18.782 835.799 18.734C835.883 18.674 836.009 18.644 836.177 18.644H838.409C838.565 18.644 838.679 18.674 838.751 18.734C838.835 18.782 838.895 18.866 838.931 18.986L841.109 26.528C841.133 26.612 841.163 26.66 841.199 26.672C841.247 26.684 841.283 26.648 841.307 26.564L843.359 18.986C843.395 18.758 843.569 18.644 843.881 18.644H845.735ZM847.871 19.022C847.871 18.77 847.973 18.644 848.177 18.644H857.591C857.783 18.644 857.879 18.758 857.879 18.986V20.858C857.879 20.99 857.843 21.098 857.771 21.182C857.699 21.254 857.591 21.29 857.447 21.29H851.885C851.633 21.29 851.507 21.398 851.507 21.614V23.648C851.507 23.756 851.531 23.84 851.579 23.9C851.639 23.96 851.711 23.99 851.795 23.99H855.305C855.533 23.99 855.647 24.098 855.647 24.314V26.312C855.647 26.492 855.551 26.582 855.359 26.582H851.777C851.597 26.582 851.507 26.666 851.507 26.834V29.12C851.507 29.204 851.519 29.264 851.543 29.3C851.579 29.336 851.633 29.354 851.705 29.354H857.699C857.819 29.354 857.909 29.378 857.969 29.426C858.029 29.474 858.059 29.552 858.059 29.66V31.64C858.059 31.88 857.933 32 857.681 32H848.303C848.147 32 848.033 31.97 847.961 31.91C847.901 31.838 847.871 31.73 847.871 31.586V19.022ZM869.277 18.464C870.225 18.464 871.095 18.638 871.887 18.986C872.679 19.334 873.327 19.82 873.831 20.444C874.335 21.056 874.659 21.746 874.803 22.514L874.839 22.82C874.839 22.916 874.821 22.982 874.785 23.018C874.749 23.042 874.683 23.06 874.587 23.072L871.779 23.27C871.671 23.27 871.599 23.252 871.563 23.216C871.539 23.168 871.509 23.078 871.473 22.946C871.197 21.626 870.495 20.966 869.367 20.966C867.675 20.966 866.829 22.388 866.829 25.232C866.829 26.744 867.039 27.842 867.459 28.526C867.879 29.198 868.515 29.534 869.367 29.534C870.039 29.534 870.609 29.366 871.077 29.03C871.557 28.682 871.953 28.118 872.265 27.338C872.301 27.242 872.391 27.194 872.535 27.194C872.607 27.194 872.667 27.2 872.715 27.212L874.749 27.608C874.821 27.632 874.875 27.668 874.911 27.716C874.959 27.764 874.983 27.848 874.983 27.968C874.983 28.04 874.977 28.1 874.965 28.148C874.869 28.628 874.599 29.18 874.155 29.804C873.723 30.428 873.093 30.98 872.265 31.46C871.449 31.94 870.447 32.18 869.259 32.18C868.011 32.18 866.913 31.886 865.965 31.298C865.029 30.698 864.303 29.87 863.787 28.814C863.283 27.758 863.031 26.546 863.031 25.178C863.031 23.822 863.283 22.64 863.787 21.632C864.303 20.612 865.029 19.832 865.965 19.292C866.901 18.74 868.005 18.464 869.277 18.464ZM875.814 32C875.718 32 875.64 31.97 875.58 31.91C875.532 31.85 875.508 31.766 875.508 31.658C875.508 31.574 875.526 31.49 875.562 31.406L879.99 19.022C880.038 18.878 880.098 18.782 880.17 18.734C880.242 18.674 880.35 18.644 880.494 18.644H883.626C883.914 18.644 884.118 18.794 884.238 19.094L888.612 31.442C888.624 31.478 888.63 31.538 888.63 31.622C888.63 31.73 888.606 31.82 888.558 31.892C888.522 31.964 888.462 32 888.378 32H885.264C885.072 32 884.946 31.904 884.886 31.712L884.094 29.372C884.058 29.3 884.022 29.252 883.986 29.228C883.962 29.192 883.908 29.174 883.824 29.174H879.738C879.606 29.174 879.522 29.24 879.486 29.372L878.64 31.748C878.58 31.916 878.448 32 878.244 32H875.814ZM883.014 26.438C883.134 26.438 883.194 26.378 883.194 26.258C883.194 26.186 883.188 26.132 883.176 26.096L881.88 22.478C881.868 22.406 881.832 22.37 881.772 22.37C881.724 22.37 881.688 22.406 881.664 22.478L880.35 26.096C880.326 26.144 880.314 26.204 880.314 26.276C880.314 26.384 880.386 26.438 880.53 26.438H883.014ZM901.467 18.644C901.647 18.644 901.737 18.74 901.737 18.932V31.694C901.737 31.79 901.701 31.868 901.629 31.928C901.557 31.976 901.467 32 901.359 32H899.181C899.085 32 899.001 31.988 898.929 31.964C898.869 31.928 898.797 31.856 898.713 31.748L893.385 24.404C893.337 24.332 893.295 24.302 893.259 24.314C893.223 24.314 893.205 24.35 893.205 24.422V31.64V31.694C893.205 31.802 893.175 31.88 893.115 31.928C893.055 31.976 892.953 32 892.809 32H890.631C890.367 32 890.235 31.886 890.235 31.658V19.022C890.235 18.89 890.259 18.794 890.307 18.734C890.367 18.674 890.463 18.644 890.595 18.644H893.169C893.313 18.644 893.415 18.662 893.475 18.698C893.547 18.734 893.631 18.812 893.727 18.932L898.515 25.682C898.587 25.778 898.653 25.826 898.713 25.826C898.773 25.826 898.803 25.754 898.803 25.61V18.986C898.803 18.758 898.923 18.644 899.163 18.644H901.467ZM909.925 18.644C911.233 18.644 912.061 18.65 912.409 18.662C914.773 18.746 916.543 19.37 917.719 20.534C918.907 21.686 919.501 23.27 919.501 25.286C919.501 26.63 919.231 27.806 918.691 28.814C918.163 29.822 917.365 30.608 916.297 31.172C915.229 31.724 913.921 32 912.373 32H908.035C907.867 32 907.747 31.964 907.675 31.892C907.603 31.82 907.567 31.694 907.567 31.514V19.058C907.567 18.902 907.597 18.794 907.657 18.734C907.717 18.674 907.831 18.644 907.999 18.644H909.925ZM911.365 21.182C911.257 21.182 911.203 21.266 911.203 21.434V29.21C911.203 29.306 911.215 29.372 911.239 29.408C911.275 29.444 911.341 29.462 911.437 29.462H911.671C913.015 29.462 914.017 29.138 914.677 28.49C915.349 27.83 915.685 26.75 915.685 25.25C915.685 23.906 915.415 22.922 914.875 22.298C914.347 21.674 913.543 21.32 912.463 21.236L911.365 21.182ZM927.182 32.18C925.898 32.18 924.776 31.904 923.816 31.352C922.868 30.8 922.136 30.014 921.62 28.994C921.104 27.962 920.846 26.75 920.846 25.358C920.846 23.966 921.104 22.754 921.62 21.722C922.148 20.678 922.886 19.874 923.834 19.31C924.794 18.746 925.91 18.464 927.182 18.464C928.442 18.464 929.546 18.746 930.494 19.31C931.454 19.874 932.192 20.678 932.708 21.722C933.236 22.754 933.5 23.966 933.5 25.358C933.5 26.738 933.242 27.944 932.726 28.976C932.21 29.996 931.472 30.788 930.512 31.352C929.564 31.904 928.454 32.18 927.182 32.18ZM927.2 29.66C928.076 29.66 928.706 29.33 929.09 28.67C929.486 28.01 929.684 26.924 929.684 25.412C929.684 23.852 929.48 22.724 929.072 22.028C928.676 21.32 928.046 20.966 927.182 20.966C926.306 20.966 925.664 21.32 925.256 22.028C924.86 22.724 924.662 23.852 924.662 25.412C924.662 26.924 924.86 28.01 925.256 28.67C925.652 29.33 926.3 29.66 927.2 29.66ZM1166.99 18.644C1167.16 18.644 1167.29 18.686 1167.37 18.77C1167.47 18.842 1167.52 18.944 1167.52 19.076C1167.52 19.124 1167.5 19.196 1167.48 19.292L1163.83 31.586C1163.77 31.73 1163.69 31.838 1163.59 31.91C1163.51 31.97 1163.38 32 1163.21 32H1161C1160.83 32 1160.7 31.97 1160.6 31.91C1160.51 31.838 1160.44 31.73 1160.39 31.586L1158.34 24.512C1158.3 24.38 1158.26 24.314 1158.23 24.314C1158.18 24.314 1158.13 24.392 1158.08 24.548L1156.01 31.586C1155.94 31.862 1155.74 32 1155.42 32H1153.12C1152.8 32 1152.61 31.862 1152.52 31.586L1148.85 19.292C1148.84 19.244 1148.83 19.178 1148.83 19.094C1148.83 18.95 1148.87 18.842 1148.96 18.77C1149.04 18.686 1149.17 18.644 1149.34 18.644H1151.96C1152.12 18.644 1152.23 18.674 1152.31 18.734C1152.39 18.782 1152.45 18.866 1152.49 18.986L1154.59 26.384C1154.63 26.528 1154.67 26.6 1154.72 26.6C1154.75 26.6 1154.78 26.552 1154.81 26.456L1156.9 18.986C1156.92 18.866 1156.97 18.782 1157.06 18.734C1157.14 18.674 1157.27 18.644 1157.44 18.644H1159.67C1159.82 18.644 1159.94 18.674 1160.01 18.734C1160.09 18.782 1160.15 18.866 1160.19 18.986L1162.37 26.528C1162.39 26.612 1162.42 26.66 1162.46 26.672C1162.51 26.684 1162.54 26.648 1162.57 26.564L1164.62 18.986C1164.65 18.758 1164.83 18.644 1165.14 18.644H1166.99ZM1173.02 26.492C1172.95 26.492 1172.89 26.516 1172.84 26.564C1172.79 26.6 1172.77 26.654 1172.77 26.726V31.532C1172.77 31.7 1172.72 31.82 1172.64 31.892C1172.56 31.964 1172.42 32 1172.23 32H1169.56C1169.39 32 1169.28 31.97 1169.22 31.91C1169.16 31.838 1169.13 31.73 1169.13 31.586V19.022C1169.13 18.902 1169.15 18.812 1169.2 18.752C1169.26 18.68 1169.34 18.644 1169.44 18.644H1172.46C1172.56 18.644 1172.63 18.674 1172.68 18.734C1172.74 18.794 1172.77 18.878 1172.77 18.986V23.378C1172.77 23.606 1172.86 23.72 1173.05 23.72H1176.64C1176.83 23.72 1176.92 23.606 1176.92 23.378V18.986C1176.92 18.878 1176.95 18.794 1177 18.734C1177.06 18.674 1177.13 18.644 1177.23 18.644H1180.25C1180.35 18.644 1180.42 18.68 1180.47 18.752C1180.53 18.812 1180.56 18.902 1180.56 19.022V31.586C1180.56 31.73 1180.53 31.838 1180.47 31.91C1180.41 31.97 1180.3 32 1180.13 32H1177.46C1177.27 32 1177.13 31.964 1177.05 31.892C1176.97 31.82 1176.92 31.7 1176.92 31.532V26.726C1176.92 26.654 1176.9 26.6 1176.85 26.564C1176.82 26.516 1176.76 26.492 1176.67 26.492H1173.02ZM1182.46 32C1182.37 32 1182.29 31.97 1182.23 31.91C1182.18 31.85 1182.16 31.766 1182.16 31.658C1182.16 31.574 1182.18 31.49 1182.21 31.406L1186.64 19.022C1186.69 18.878 1186.75 18.782 1186.82 18.734C1186.89 18.674 1187 18.644 1187.14 18.644H1190.28C1190.56 18.644 1190.77 18.794 1190.89 19.094L1195.26 31.442C1195.27 31.478 1195.28 31.538 1195.28 31.622C1195.28 31.73 1195.26 31.82 1195.21 31.892C1195.17 31.964 1195.11 32 1195.03 32H1191.91C1191.72 32 1191.6 31.904 1191.54 31.712L1190.74 29.372C1190.71 29.3 1190.67 29.252 1190.64 29.228C1190.61 29.192 1190.56 29.174 1190.47 29.174H1186.39C1186.26 29.174 1186.17 29.24 1186.14 29.372L1185.29 31.748C1185.23 31.916 1185.1 32 1184.89 32H1182.46ZM1189.66 26.438C1189.78 26.438 1189.84 26.378 1189.84 26.258C1189.84 26.186 1189.84 26.132 1189.83 26.096L1188.53 22.478C1188.52 22.406 1188.48 22.37 1188.42 22.37C1188.37 22.37 1188.34 22.406 1188.31 22.478L1187 26.096C1186.98 26.144 1186.96 26.204 1186.96 26.276C1186.96 26.384 1187.04 26.438 1187.18 26.438H1189.66ZM1194.22 19.022C1194.22 18.914 1194.25 18.824 1194.31 18.752C1194.38 18.68 1194.48 18.644 1194.61 18.644H1205.18C1205.31 18.644 1205.41 18.68 1205.47 18.752C1205.54 18.824 1205.58 18.914 1205.58 19.022V20.93C1205.58 21.134 1205.46 21.236 1205.22 21.236H1201.94C1201.81 21.236 1201.74 21.296 1201.74 21.416V31.64C1201.74 31.88 1201.63 32 1201.42 32H1198.39C1198.19 32 1198.09 31.886 1198.09 31.658V21.488C1198.09 21.392 1198.08 21.326 1198.05 21.29C1198.03 21.254 1197.98 21.236 1197.91 21.236H1194.6C1194.34 21.236 1194.22 21.134 1194.22 20.93V19.022ZM1228.5 18.644C1228.67 18.644 1228.79 18.686 1228.88 18.77C1228.97 18.842 1229.02 18.944 1229.02 19.076C1229.02 19.124 1229.01 19.196 1228.98 19.292L1225.33 31.586C1225.27 31.73 1225.19 31.838 1225.1 31.91C1225.01 31.97 1224.89 32 1224.72 32H1222.5C1222.34 32 1222.2 31.97 1222.11 31.91C1222.01 31.838 1221.94 31.73 1221.89 31.586L1219.84 24.512C1219.8 24.38 1219.77 24.314 1219.73 24.314C1219.68 24.314 1219.64 24.392 1219.59 24.548L1217.52 31.586C1217.45 31.862 1217.25 32 1216.92 32H1214.62C1214.31 32 1214.11 31.862 1214.03 31.586L1210.35 19.292C1210.34 19.244 1210.34 19.178 1210.34 19.094C1210.34 18.95 1210.38 18.842 1210.46 18.77C1210.55 18.686 1210.67 18.644 1210.84 18.644H1213.47C1213.62 18.644 1213.74 18.674 1213.81 18.734C1213.89 18.782 1213.95 18.866 1213.99 18.986L1216.1 26.384C1216.13 26.528 1216.17 26.6 1216.22 26.6C1216.26 26.6 1216.29 26.552 1216.31 26.456L1218.4 18.986C1218.42 18.866 1218.48 18.782 1218.56 18.734C1218.65 18.674 1218.77 18.644 1218.94 18.644H1221.17C1221.33 18.644 1221.44 18.674 1221.51 18.734C1221.6 18.782 1221.66 18.866 1221.69 18.986L1223.87 26.528C1223.9 26.612 1223.93 26.66 1223.96 26.672C1224.01 26.684 1224.05 26.648 1224.07 26.564L1226.12 18.986C1226.16 18.758 1226.33 18.644 1226.64 18.644H1228.5ZM1230.64 19.022C1230.64 18.77 1230.74 18.644 1230.94 18.644H1240.36C1240.55 18.644 1240.64 18.758 1240.64 18.986V20.858C1240.64 20.99 1240.61 21.098 1240.54 21.182C1240.46 21.254 1240.36 21.29 1240.21 21.29H1234.65C1234.4 21.29 1234.27 21.398 1234.27 21.614V23.648C1234.27 23.756 1234.3 23.84 1234.34 23.9C1234.4 23.96 1234.48 23.99 1234.56 23.99H1238.07C1238.3 23.99 1238.41 24.098 1238.41 24.314V26.312C1238.41 26.492 1238.32 26.582 1238.12 26.582H1234.54C1234.36 26.582 1234.27 26.666 1234.27 26.834V29.12C1234.27 29.204 1234.28 29.264 1234.31 29.3C1234.34 29.336 1234.4 29.354 1234.47 29.354H1240.46C1240.58 29.354 1240.67 29.378 1240.73 29.426C1240.79 29.474 1240.82 29.552 1240.82 29.66V31.64C1240.82 31.88 1240.7 32 1240.45 32H1231.07C1230.91 32 1230.8 31.97 1230.73 31.91C1230.67 31.838 1230.64 31.73 1230.64 31.586V19.022ZM1252.04 18.464C1252.99 18.464 1253.86 18.638 1254.65 18.986C1255.44 19.334 1256.09 19.82 1256.59 20.444C1257.1 21.056 1257.42 21.746 1257.57 22.514L1257.6 22.82C1257.6 22.916 1257.58 22.982 1257.55 23.018C1257.51 23.042 1257.45 23.06 1257.35 23.072L1254.54 23.27C1254.43 23.27 1254.36 23.252 1254.33 23.216C1254.3 23.168 1254.27 23.078 1254.24 22.946C1253.96 21.626 1253.26 20.966 1252.13 20.966C1250.44 20.966 1249.59 22.388 1249.59 25.232C1249.59 26.744 1249.8 27.842 1250.22 28.526C1250.64 29.198 1251.28 29.534 1252.13 29.534C1252.8 29.534 1253.37 29.366 1253.84 29.03C1254.32 28.682 1254.72 28.118 1255.03 27.338C1255.06 27.242 1255.15 27.194 1255.3 27.194C1255.37 27.194 1255.43 27.2 1255.48 27.212L1257.51 27.608C1257.58 27.632 1257.64 27.668 1257.67 27.716C1257.72 27.764 1257.75 27.848 1257.75 27.968C1257.75 28.04 1257.74 28.1 1257.73 28.148C1257.63 28.628 1257.36 29.18 1256.92 29.804C1256.49 30.428 1255.86 30.98 1255.03 31.46C1254.21 31.94 1253.21 32.18 1252.02 32.18C1250.77 32.18 1249.68 31.886 1248.73 31.298C1247.79 30.698 1247.07 29.87 1246.55 28.814C1246.05 27.758 1245.79 26.546 1245.79 25.178C1245.79 23.822 1246.05 22.64 1246.55 21.632C1247.07 20.612 1247.79 19.832 1248.73 19.292C1249.66 18.74 1250.77 18.464 1252.04 18.464ZM1258.58 32C1258.48 32 1258.4 31.97 1258.34 31.91C1258.3 31.85 1258.27 31.766 1258.27 31.658C1258.27 31.574 1258.29 31.49 1258.33 31.406L1262.75 19.022C1262.8 18.878 1262.86 18.782 1262.93 18.734C1263.01 18.674 1263.11 18.644 1263.26 18.644H1266.39C1266.68 18.644 1266.88 18.794 1267 19.094L1271.38 31.442C1271.39 31.478 1271.39 31.538 1271.39 31.622C1271.39 31.73 1271.37 31.82 1271.32 31.892C1271.29 31.964 1271.23 32 1271.14 32H1268.03C1267.84 32 1267.71 31.904 1267.65 31.712L1266.86 29.372C1266.82 29.3 1266.79 29.252 1266.75 29.228C1266.73 29.192 1266.67 29.174 1266.59 29.174H1262.5C1262.37 29.174 1262.29 29.24 1262.25 29.372L1261.4 31.748C1261.34 31.916 1261.21 32 1261.01 32H1258.58ZM1265.78 26.438C1265.9 26.438 1265.96 26.378 1265.96 26.258C1265.96 26.186 1265.95 26.132 1265.94 26.096L1264.64 22.478C1264.63 22.406 1264.6 22.37 1264.54 22.37C1264.49 22.37 1264.45 22.406 1264.43 22.478L1263.11 26.096C1263.09 26.144 1263.08 26.204 1263.08 26.276C1263.08 26.384 1263.15 26.438 1263.29 26.438H1265.78ZM1284.23 18.644C1284.41 18.644 1284.5 18.74 1284.5 18.932V31.694C1284.5 31.79 1284.46 31.868 1284.39 31.928C1284.32 31.976 1284.23 32 1284.12 32H1281.94C1281.85 32 1281.76 31.988 1281.69 31.964C1281.63 31.928 1281.56 31.856 1281.48 31.748L1276.15 24.404C1276.1 24.332 1276.06 24.302 1276.02 24.314C1275.99 24.314 1275.97 24.35 1275.97 24.422V31.64V31.694C1275.97 31.802 1275.94 31.88 1275.88 31.928C1275.82 31.976 1275.72 32 1275.57 32H1273.39C1273.13 32 1273 31.886 1273 31.658V19.022C1273 18.89 1273.02 18.794 1273.07 18.734C1273.13 18.674 1273.23 18.644 1273.36 18.644H1275.93C1276.08 18.644 1276.18 18.662 1276.24 18.698C1276.31 18.734 1276.39 18.812 1276.49 18.932L1281.28 25.682C1281.35 25.778 1281.42 25.826 1281.48 25.826C1281.54 25.826 1281.57 25.754 1281.57 25.61V18.986C1281.57 18.758 1281.69 18.644 1281.93 18.644H1284.23ZM1292.69 18.644C1294 18.644 1294.82 18.65 1295.17 18.662C1297.54 18.746 1299.31 19.37 1300.48 20.534C1301.67 21.686 1302.26 23.27 1302.26 25.286C1302.26 26.63 1301.99 27.806 1301.45 28.814C1300.93 29.822 1300.13 30.608 1299.06 31.172C1297.99 31.724 1296.68 32 1295.14 32H1290.8C1290.63 32 1290.51 31.964 1290.44 31.892C1290.37 31.82 1290.33 31.694 1290.33 31.514V19.058C1290.33 18.902 1290.36 18.794 1290.42 18.734C1290.48 18.674 1290.59 18.644 1290.76 18.644H1292.69ZM1294.13 21.182C1294.02 21.182 1293.97 21.266 1293.97 21.434V29.21C1293.97 29.306 1293.98 29.372 1294 29.408C1294.04 29.444 1294.1 29.462 1294.2 29.462H1294.43C1295.78 29.462 1296.78 29.138 1297.44 28.49C1298.11 27.83 1298.45 26.75 1298.45 25.25C1298.45 23.906 1298.18 22.922 1297.64 22.298C1297.11 21.674 1296.31 21.32 1295.23 21.236L1294.13 21.182ZM1309.95 32.18C1308.66 32.18 1307.54 31.904 1306.58 31.352C1305.63 30.8 1304.9 30.014 1304.38 28.994C1303.87 27.962 1303.61 26.75 1303.61 25.358C1303.61 23.966 1303.87 22.754 1304.38 21.722C1304.91 20.678 1305.65 19.874 1306.6 19.31C1307.56 18.746 1308.67 18.464 1309.95 18.464C1311.21 18.464 1312.31 18.746 1313.26 19.31C1314.22 19.874 1314.96 20.678 1315.47 21.722C1316 22.754 1316.26 23.966 1316.26 25.358C1316.26 26.738 1316.01 27.944 1315.49 28.976C1314.97 29.996 1314.24 30.788 1313.28 31.352C1312.33 31.904 1311.22 32.18 1309.95 32.18ZM1309.96 29.66C1310.84 29.66 1311.47 29.33 1311.85 28.67C1312.25 28.01 1312.45 26.924 1312.45 25.412C1312.45 23.852 1312.24 22.724 1311.84 22.028C1311.44 21.32 1310.81 20.966 1309.95 20.966C1309.07 20.966 1308.43 21.32 1308.02 22.028C1307.62 22.724 1307.43 23.852 1307.43 25.412C1307.43 26.924 1307.62 28.01 1308.02 28.67C1308.42 29.33 1309.06 29.66 1309.96 29.66Z" fill="#7000FF"/>
<path d="M182.021 27.86C182.021 28.124 181.865 28.256 181.553 28.256H177.323C177.179 28.256 177.077 28.232 177.017 28.184C176.969 28.124 176.945 28.028 176.945 27.896V26.582C176.945 26.366 177.035 26.258 177.215 26.258H181.751C181.835 26.258 181.901 26.282 181.949 26.33C181.997 26.378 182.021 26.444 182.021 26.528V27.86ZM374.466 27.86C374.466 28.124 374.31 28.256 373.998 28.256H369.768C369.624 28.256 369.522 28.232 369.462 28.184C369.414 28.124 369.39 28.028 369.39 27.896V26.582C369.39 26.366 369.48 26.258 369.66 26.258H374.196C374.28 26.258 374.346 26.282 374.394 26.33C374.442 26.378 374.466 26.444 374.466 26.528V27.86ZM564.784 27.86C564.784 28.124 564.628 28.256 564.316 28.256H560.086C559.942 28.256 559.84 28.232 559.78 28.184C559.732 28.124 559.708 28.028 559.708 27.896V26.582C559.708 26.366 559.798 26.258 559.978 26.258H564.514C564.598 26.258 564.664 26.282 564.712 26.33C564.76 26.378 564.784 26.444 564.784 26.528V27.86ZM757.229 27.86C757.229 28.124 757.073 28.256 756.761 28.256H752.531C752.387 28.256 752.285 28.232 752.225 28.184C752.177 28.124 752.153 28.028 752.153 27.896V26.582C752.153 26.366 752.243 26.258 752.423 26.258H756.959C757.043 26.258 757.109 26.282 757.157 26.33C757.205 26.378 757.229 26.444 757.229 26.528V27.86ZM947.548 27.86C947.548 28.124 947.392 28.256 947.08 28.256H942.85C942.706 28.256 942.604 28.232 942.544 28.184C942.496 28.124 942.472 28.028 942.472 27.896V26.582C942.472 26.366 942.562 26.258 942.742 26.258H947.278C947.362 26.258 947.428 26.282 947.476 26.33C947.524 26.378 947.548 26.444 947.548 26.528V27.86ZM1139.99 27.86C1139.99 28.124 1139.84 28.256 1139.53 28.256H1135.3C1135.15 28.256 1135.05 28.232 1134.99 28.184C1134.94 28.124 1134.92 28.028 1134.92 27.896V26.582C1134.92 26.366 1135.01 26.258 1135.19 26.258H1139.72C1139.81 26.258 1139.87 26.282 1139.92 26.33C1139.97 26.378 1139.99 26.444 1139.99 26.528V27.86ZM1330.31 27.86C1330.31 28.124 1330.16 28.256 1329.84 28.256H1325.61C1325.47 28.256 1325.37 28.232 1325.31 28.184C1325.26 28.124 1325.24 28.028 1325.24 27.896V26.582C1325.24 26.366 1325.33 26.258 1325.51 26.258H1330.04C1330.13 26.258 1330.19 26.282 1330.24 26.33C1330.29 26.378 1330.31 26.444 1330.31 26.528V27.86Z" fill="white"/>
<path d="M208.786 18.644C209.074 18.644 209.218 18.77 209.218 19.022C209.218 19.106 209.212 19.166 209.2 19.202L205.528 31.622C205.48 31.754 205.414 31.85 205.33 31.91C205.246 31.97 205.132 32 204.988 32H203.044C202.744 32 202.558 31.874 202.486 31.622L200.218 23.756C200.194 23.636 200.164 23.576 200.128 23.576C200.104 23.576 200.062 23.648 200.002 23.792L197.716 31.622C197.68 31.754 197.62 31.85 197.536 31.91C197.452 31.97 197.332 32 197.176 32H195.178C195.022 32 194.902 31.97 194.818 31.91C194.734 31.85 194.668 31.754 194.62 31.622L190.948 19.202C190.936 19.166 190.93 19.106 190.93 19.022C190.93 18.77 191.08 18.644 191.38 18.644H193.63C193.774 18.644 193.882 18.668 193.954 18.716C194.026 18.764 194.074 18.842 194.098 18.95L196.42 27.14C196.456 27.284 196.492 27.356 196.528 27.356C196.564 27.356 196.6 27.302 196.636 27.194L198.958 18.95C198.994 18.746 199.15 18.644 199.426 18.644H201.352C201.508 18.644 201.616 18.668 201.676 18.716C201.748 18.764 201.802 18.842 201.838 18.95L204.196 27.266C204.22 27.35 204.256 27.398 204.304 27.41C204.352 27.41 204.382 27.368 204.394 27.284L206.68 18.95C206.74 18.746 206.902 18.644 207.166 18.644H208.786ZM214.474 26.294C214.402 26.294 214.342 26.318 214.294 26.366C214.258 26.414 214.24 26.468 214.24 26.528V31.586C214.24 31.73 214.198 31.838 214.114 31.91C214.042 31.97 213.922 32 213.754 32H211.486C211.342 32 211.24 31.97 211.18 31.91C211.12 31.85 211.09 31.754 211.09 31.622V18.986C211.09 18.758 211.186 18.644 211.378 18.644H213.952C214.144 18.644 214.24 18.752 214.24 18.968V23.576C214.24 23.78 214.33 23.882 214.51 23.882H218.668C218.86 23.882 218.956 23.786 218.956 23.594V18.968C218.956 18.752 219.046 18.644 219.226 18.644H221.8C222.004 18.644 222.106 18.758 222.106 18.986V31.622C222.106 31.874 221.974 32 221.71 32H219.424C219.256 32 219.136 31.97 219.064 31.91C218.992 31.85 218.956 31.742 218.956 31.586V26.528C218.956 26.456 218.932 26.402 218.884 26.366C218.848 26.318 218.788 26.294 218.704 26.294H214.474ZM224.212 32C224.032 32 223.942 31.898 223.942 31.694C223.942 31.598 223.954 31.526 223.978 31.478L228.46 19.004C228.508 18.872 228.562 18.782 228.622 18.734C228.694 18.674 228.796 18.644 228.928 18.644H231.628C231.76 18.644 231.874 18.68 231.97 18.752C232.066 18.824 232.132 18.92 232.168 19.04L236.614 31.514C236.638 31.586 236.65 31.64 236.65 31.676C236.65 31.772 236.626 31.85 236.578 31.91C236.542 31.97 236.482 32 236.398 32H233.752C233.572 32 233.458 31.916 233.41 31.748L232.474 29.12C232.45 29.048 232.42 29 232.384 28.976C232.36 28.94 232.312 28.922 232.24 28.922H227.848C227.728 28.922 227.65 28.982 227.614 29.102L226.66 31.766C226.588 31.922 226.462 32 226.282 32H224.212ZM231.502 26.528C231.622 26.528 231.682 26.48 231.682 26.384C231.682 26.312 231.676 26.258 231.664 26.222L230.152 22.01C230.116 21.938 230.074 21.902 230.026 21.902C229.99 21.902 229.954 21.944 229.918 22.028L228.388 26.222C228.364 26.294 228.352 26.348 228.352 26.384C228.352 26.48 228.418 26.528 228.55 26.528H231.502ZM235.754 18.968C235.754 18.872 235.784 18.794 235.844 18.734C235.916 18.674 236.006 18.644 236.114 18.644H246.446C246.686 18.644 246.806 18.752 246.806 18.968V20.642C246.806 20.822 246.698 20.912 246.482 20.912H243.116C242.984 20.912 242.918 20.972 242.918 21.092V31.658C242.918 31.886 242.816 32 242.612 32H240.038C239.858 32 239.768 31.898 239.768 31.694V21.146C239.768 21.062 239.75 21.002 239.714 20.966C239.69 20.93 239.642 20.912 239.57 20.912H236.096C235.868 20.912 235.754 20.822 235.754 20.642V18.968ZM269.589 18.644C269.877 18.644 270.021 18.77 270.021 19.022C270.021 19.106 270.015 19.166 270.003 19.202L266.331 31.622C266.283 31.754 266.217 31.85 266.133 31.91C266.049 31.97 265.935 32 265.791 32H263.847C263.547 32 263.361 31.874 263.289 31.622L261.021 23.756C260.997 23.636 260.967 23.576 260.931 23.576C260.907 23.576 260.865 23.648 260.805 23.792L258.519 31.622C258.483 31.754 258.423 31.85 258.339 31.91C258.255 31.97 258.135 32 257.979 32H255.981C255.825 32 255.705 31.97 255.621 31.91C255.537 31.85 255.471 31.754 255.423 31.622L251.751 19.202C251.739 19.166 251.733 19.106 251.733 19.022C251.733 18.77 251.883 18.644 252.183 18.644H254.433C254.577 18.644 254.685 18.668 254.757 18.716C254.829 18.764 254.877 18.842 254.901 18.95L257.223 27.14C257.259 27.284 257.295 27.356 257.331 27.356C257.367 27.356 257.403 27.302 257.439 27.194L259.761 18.95C259.797 18.746 259.953 18.644 260.229 18.644H262.155C262.311 18.644 262.419 18.668 262.479 18.716C262.551 18.764 262.605 18.842 262.641 18.95L264.999 27.266C265.023 27.35 265.059 27.398 265.107 27.41C265.155 27.41 265.185 27.368 265.197 27.284L267.483 18.95C267.543 18.746 267.705 18.644 267.969 18.644H269.589ZM271.893 18.986C271.893 18.758 271.989 18.644 272.181 18.644H281.253C281.433 18.644 281.523 18.746 281.523 18.95L281.505 20.57C281.505 20.822 281.379 20.948 281.127 20.948H275.385C275.157 20.948 275.043 21.044 275.043 21.236V23.846C275.043 24.05 275.133 24.152 275.313 24.152H279.129C279.333 24.152 279.435 24.248 279.435 24.44V26.168C279.435 26.336 279.339 26.42 279.147 26.42H275.295C275.127 26.42 275.043 26.492 275.043 26.636V29.462C275.043 29.546 275.055 29.606 275.079 29.642C275.115 29.678 275.169 29.696 275.241 29.696H281.397C281.613 29.696 281.721 29.786 281.721 29.966V31.676C281.721 31.892 281.601 32 281.361 32H272.289C272.145 32 272.043 31.97 271.983 31.91C271.923 31.85 271.893 31.754 271.893 31.622V18.986ZM292.995 18.464C293.907 18.464 294.747 18.638 295.515 18.986C296.283 19.334 296.913 19.808 297.405 20.408C297.909 21.008 298.227 21.68 298.359 22.424C298.383 22.508 298.395 22.604 298.395 22.712C298.395 22.784 298.377 22.832 298.341 22.856C298.305 22.88 298.251 22.898 298.179 22.91L295.749 23.072C295.641 23.072 295.569 23.054 295.533 23.018C295.509 22.982 295.485 22.91 295.461 22.802C295.329 22.142 295.065 21.62 294.669 21.236C294.273 20.852 293.745 20.66 293.085 20.66C291.165 20.66 290.205 22.196 290.205 25.268C290.205 26.864 290.445 28.028 290.925 28.76C291.405 29.492 292.137 29.858 293.121 29.858C293.841 29.858 294.447 29.678 294.939 29.318C295.443 28.958 295.851 28.37 296.163 27.554C296.199 27.47 296.277 27.428 296.397 27.428C296.469 27.428 296.523 27.434 296.559 27.446L298.323 27.824C298.491 27.884 298.557 28.034 298.521 28.274C298.401 28.79 298.119 29.348 297.675 29.948C297.243 30.548 296.631 31.07 295.839 31.514C295.047 31.958 294.099 32.18 292.995 32.18C291.759 32.18 290.679 31.892 289.755 31.316C288.843 30.728 288.141 29.912 287.649 28.868C287.157 27.812 286.911 26.594 286.911 25.214C286.911 23.846 287.157 22.652 287.649 21.632C288.141 20.612 288.843 19.832 289.755 19.292C290.679 18.74 291.759 18.464 292.995 18.464ZM299.534 32C299.354 32 299.264 31.898 299.264 31.694C299.264 31.598 299.276 31.526 299.3 31.478L303.782 19.004C303.83 18.872 303.884 18.782 303.944 18.734C304.016 18.674 304.118 18.644 304.25 18.644H306.95C307.082 18.644 307.196 18.68 307.292 18.752C307.388 18.824 307.454 18.92 307.49 19.04L311.936 31.514C311.96 31.586 311.972 31.64 311.972 31.676C311.972 31.772 311.948 31.85 311.9 31.91C311.864 31.97 311.804 32 311.72 32H309.074C308.894 32 308.78 31.916 308.732 31.748L307.796 29.12C307.772 29.048 307.742 29 307.706 28.976C307.682 28.94 307.634 28.922 307.562 28.922H303.17C303.05 28.922 302.972 28.982 302.936 29.102L301.982 31.766C301.91 31.922 301.784 32 301.604 32H299.534ZM306.824 26.528C306.944 26.528 307.004 26.48 307.004 26.384C307.004 26.312 306.998 26.258 306.986 26.222L305.474 22.01C305.438 21.938 305.396 21.902 305.348 21.902C305.312 21.902 305.276 21.944 305.24 22.028L303.71 26.222C303.686 26.294 303.674 26.348 303.674 26.384C303.674 26.48 303.74 26.528 303.872 26.528H306.824ZM324.725 18.644C324.881 18.644 324.959 18.734 324.959 18.914V31.712C324.959 31.796 324.923 31.868 324.851 31.928C324.791 31.976 324.713 32 324.617 32H322.799C322.691 32 322.607 31.988 322.547 31.964C322.487 31.94 322.421 31.88 322.349 31.784L316.607 23.72C316.559 23.66 316.511 23.636 316.463 23.648C316.427 23.66 316.409 23.696 316.409 23.756V31.676V31.73C316.409 31.826 316.379 31.898 316.319 31.946C316.271 31.982 316.181 32 316.049 32H314.177C313.937 32 313.817 31.898 313.817 31.694V18.986C313.817 18.758 313.925 18.644 314.141 18.644H316.319C316.463 18.644 316.565 18.662 316.625 18.698C316.685 18.722 316.757 18.794 316.841 18.914L322.133 26.456C322.205 26.552 322.265 26.6 322.313 26.6C322.373 26.6 322.403 26.534 322.403 26.402V18.968C322.403 18.752 322.511 18.644 322.727 18.644H324.725ZM331.58 18.644C333.56 18.644 334.898 18.65 335.594 18.662C337.97 18.734 339.74 19.34 340.904 20.48C342.068 21.62 342.65 23.216 342.65 25.268C342.65 27.38 342.044 29.03 340.832 30.218C339.62 31.406 337.844 32 335.504 32H331.598C331.454 32 331.346 31.97 331.274 31.91C331.214 31.838 331.184 31.724 331.184 31.568V19.004C331.184 18.872 331.214 18.782 331.274 18.734C331.334 18.674 331.436 18.644 331.58 18.644ZM334.496 20.876C334.388 20.876 334.334 20.96 334.334 21.128V29.534C334.334 29.63 334.346 29.696 334.37 29.732C334.406 29.768 334.472 29.786 334.568 29.786H334.91C336.422 29.786 337.538 29.438 338.258 28.742C338.99 28.034 339.356 26.87 339.356 25.25C339.356 23.75 339.05 22.67 338.438 22.01C337.826 21.35 336.878 20.984 335.594 20.912L334.496 20.876ZM350.425 32.18C349.165 32.18 348.067 31.91 347.131 31.37C346.207 30.818 345.493 30.032 344.989 29.012C344.497 27.992 344.251 26.78 344.251 25.376C344.251 23.96 344.503 22.736 345.007 21.704C345.511 20.66 346.225 19.862 347.149 19.31C348.085 18.746 349.177 18.464 350.425 18.464C351.661 18.464 352.741 18.746 353.665 19.31C354.589 19.862 355.303 20.66 355.807 21.704C356.311 22.736 356.563 23.954 356.563 25.358C356.563 26.75 356.311 27.962 355.807 28.994C355.315 30.014 354.607 30.8 353.683 31.352C352.759 31.904 351.673 32.18 350.425 32.18ZM350.425 29.966C351.421 29.966 352.141 29.606 352.585 28.886C353.041 28.166 353.269 27.002 353.269 25.394C353.269 23.75 353.035 22.55 352.567 21.794C352.111 21.038 351.397 20.66 350.425 20.66C349.429 20.66 348.697 21.038 348.229 21.794C347.773 22.55 347.545 23.75 347.545 25.394C347.545 27.002 347.773 28.166 348.229 28.886C348.685 29.606 349.417 29.966 350.425 29.966ZM591.55 18.644C591.838 18.644 591.982 18.77 591.982 19.022C591.982 19.106 591.976 19.166 591.964 19.202L588.292 31.622C588.244 31.754 588.178 31.85 588.094 31.91C588.01 31.97 587.896 32 587.752 32H585.808C585.508 32 585.322 31.874 585.25 31.622L582.982 23.756C582.958 23.636 582.928 23.576 582.892 23.576C582.868 23.576 582.826 23.648 582.766 23.792L580.48 31.622C580.444 31.754 580.384 31.85 580.3 31.91C580.216 31.97 580.096 32 579.94 32H577.942C577.786 32 577.666 31.97 577.582 31.91C577.498 31.85 577.432 31.754 577.384 31.622L573.712 19.202C573.7 19.166 573.694 19.106 573.694 19.022C573.694 18.77 573.844 18.644 574.144 18.644H576.394C576.538 18.644 576.646 18.668 576.718 18.716C576.79 18.764 576.838 18.842 576.862 18.95L579.184 27.14C579.22 27.284 579.256 27.356 579.292 27.356C579.328 27.356 579.364 27.302 579.4 27.194L581.722 18.95C581.758 18.746 581.914 18.644 582.19 18.644H584.116C584.272 18.644 584.38 18.668 584.44 18.716C584.512 18.764 584.566 18.842 584.602 18.95L586.96 27.266C586.984 27.35 587.02 27.398 587.068 27.41C587.116 27.41 587.146 27.368 587.158 27.284L589.444 18.95C589.504 18.746 589.666 18.644 589.93 18.644H591.55ZM597.238 26.294C597.166 26.294 597.106 26.318 597.058 26.366C597.022 26.414 597.004 26.468 597.004 26.528V31.586C597.004 31.73 596.962 31.838 596.878 31.91C596.806 31.97 596.686 32 596.518 32H594.25C594.106 32 594.004 31.97 593.944 31.91C593.884 31.85 593.854 31.754 593.854 31.622V18.986C593.854 18.758 593.95 18.644 594.142 18.644H596.716C596.908 18.644 597.004 18.752 597.004 18.968V23.576C597.004 23.78 597.094 23.882 597.274 23.882H601.432C601.624 23.882 601.72 23.786 601.72 23.594V18.968C601.72 18.752 601.81 18.644 601.99 18.644H604.564C604.768 18.644 604.87 18.758 604.87 18.986V31.622C604.87 31.874 604.738 32 604.474 32H602.188C602.02 32 601.9 31.97 601.828 31.91C601.756 31.85 601.72 31.742 601.72 31.586V26.528C601.72 26.456 601.696 26.402 601.648 26.366C601.612 26.318 601.552 26.294 601.468 26.294H597.238ZM606.975 32C606.795 32 606.705 31.898 606.705 31.694C606.705 31.598 606.717 31.526 606.741 31.478L611.223 19.004C611.271 18.872 611.325 18.782 611.385 18.734C611.457 18.674 611.559 18.644 611.691 18.644H614.391C614.523 18.644 614.637 18.68 614.733 18.752C614.829 18.824 614.895 18.92 614.931 19.04L619.377 31.514C619.401 31.586 619.413 31.64 619.413 31.676C619.413 31.772 619.389 31.85 619.341 31.91C619.305 31.97 619.245 32 619.161 32H616.515C616.335 32 616.221 31.916 616.173 31.748L615.237 29.12C615.213 29.048 615.183 29 615.147 28.976C615.123 28.94 615.075 28.922 615.003 28.922H610.611C610.491 28.922 610.413 28.982 610.377 29.102L609.423 31.766C609.351 31.922 609.225 32 609.045 32H606.975ZM614.265 26.528C614.385 26.528 614.445 26.48 614.445 26.384C614.445 26.312 614.439 26.258 614.427 26.222L612.915 22.01C612.879 21.938 612.837 21.902 612.789 21.902C612.753 21.902 612.717 21.944 612.681 22.028L611.151 26.222C611.127 26.294 611.115 26.348 611.115 26.384C611.115 26.48 611.181 26.528 611.313 26.528H614.265ZM618.518 18.968C618.518 18.872 618.548 18.794 618.608 18.734C618.68 18.674 618.77 18.644 618.878 18.644H629.21C629.45 18.644 629.57 18.752 629.57 18.968V20.642C629.57 20.822 629.462 20.912 629.246 20.912H625.88C625.748 20.912 625.682 20.972 625.682 21.092V31.658C625.682 31.886 625.58 32 625.376 32H622.802C622.622 32 622.532 31.898 622.532 31.694V21.146C622.532 21.062 622.514 21.002 622.478 20.966C622.454 20.93 622.406 20.912 622.334 20.912H618.86C618.632 20.912 618.518 20.822 618.518 20.642V18.968ZM652.353 18.644C652.641 18.644 652.785 18.77 652.785 19.022C652.785 19.106 652.779 19.166 652.767 19.202L649.095 31.622C649.047 31.754 648.981 31.85 648.897 31.91C648.813 31.97 648.699 32 648.555 32H646.611C646.311 32 646.125 31.874 646.053 31.622L643.785 23.756C643.761 23.636 643.731 23.576 643.695 23.576C643.671 23.576 643.629 23.648 643.569 23.792L641.283 31.622C641.247 31.754 641.187 31.85 641.103 31.91C641.019 31.97 640.899 32 640.743 32H638.745C638.589 32 638.469 31.97 638.385 31.91C638.301 31.85 638.235 31.754 638.187 31.622L634.515 19.202C634.503 19.166 634.497 19.106 634.497 19.022C634.497 18.77 634.647 18.644 634.947 18.644H637.197C637.341 18.644 637.449 18.668 637.521 18.716C637.593 18.764 637.641 18.842 637.665 18.95L639.987 27.14C640.023 27.284 640.059 27.356 640.095 27.356C640.131 27.356 640.167 27.302 640.203 27.194L642.525 18.95C642.561 18.746 642.717 18.644 642.993 18.644H644.919C645.075 18.644 645.183 18.668 645.243 18.716C645.315 18.764 645.369 18.842 645.405 18.95L647.763 27.266C647.787 27.35 647.823 27.398 647.871 27.41C647.919 27.41 647.949 27.368 647.961 27.284L650.247 18.95C650.307 18.746 650.469 18.644 650.733 18.644H652.353ZM654.656 18.986C654.656 18.758 654.752 18.644 654.944 18.644H664.016C664.196 18.644 664.286 18.746 664.286 18.95L664.268 20.57C664.268 20.822 664.142 20.948 663.89 20.948H658.148C657.92 20.948 657.806 21.044 657.806 21.236V23.846C657.806 24.05 657.896 24.152 658.076 24.152H661.892C662.096 24.152 662.198 24.248 662.198 24.44V26.168C662.198 26.336 662.102 26.42 661.91 26.42H658.058C657.89 26.42 657.806 26.492 657.806 26.636V29.462C657.806 29.546 657.818 29.606 657.842 29.642C657.878 29.678 657.932 29.696 658.004 29.696H664.16C664.376 29.696 664.484 29.786 664.484 29.966V31.676C664.484 31.892 664.364 32 664.124 32H655.052C654.908 32 654.806 31.97 654.746 31.91C654.686 31.85 654.656 31.754 654.656 31.622V18.986ZM675.759 18.464C676.671 18.464 677.511 18.638 678.279 18.986C679.047 19.334 679.677 19.808 680.169 20.408C680.673 21.008 680.991 21.68 681.123 22.424C681.147 22.508 681.159 22.604 681.159 22.712C681.159 22.784 681.141 22.832 681.105 22.856C681.069 22.88 681.015 22.898 680.943 22.91L678.513 23.072C678.405 23.072 678.333 23.054 678.297 23.018C678.273 22.982 678.249 22.91 678.225 22.802C678.093 22.142 677.829 21.62 677.433 21.236C677.037 20.852 676.509 20.66 675.849 20.66C673.929 20.66 672.969 22.196 672.969 25.268C672.969 26.864 673.209 28.028 673.689 28.76C674.169 29.492 674.901 29.858 675.885 29.858C676.605 29.858 677.211 29.678 677.703 29.318C678.207 28.958 678.615 28.37 678.927 27.554C678.963 27.47 679.041 27.428 679.161 27.428C679.233 27.428 679.287 27.434 679.323 27.446L681.087 27.824C681.255 27.884 681.321 28.034 681.285 28.274C681.165 28.79 680.883 29.348 680.439 29.948C680.007 30.548 679.395 31.07 678.603 31.514C677.811 31.958 676.863 32.18 675.759 32.18C674.523 32.18 673.443 31.892 672.519 31.316C671.607 30.728 670.905 29.912 670.413 28.868C669.921 27.812 669.675 26.594 669.675 25.214C669.675 23.846 669.921 22.652 670.413 21.632C670.905 20.612 671.607 19.832 672.519 19.292C673.443 18.74 674.523 18.464 675.759 18.464ZM682.298 32C682.118 32 682.028 31.898 682.028 31.694C682.028 31.598 682.04 31.526 682.064 31.478L686.546 19.004C686.594 18.872 686.648 18.782 686.708 18.734C686.78 18.674 686.882 18.644 687.014 18.644H689.714C689.846 18.644 689.96 18.68 690.056 18.752C690.152 18.824 690.218 18.92 690.254 19.04L694.7 31.514C694.724 31.586 694.736 31.64 694.736 31.676C694.736 31.772 694.712 31.85 694.664 31.91C694.628 31.97 694.568 32 694.484 32H691.838C691.658 32 691.544 31.916 691.496 31.748L690.56 29.12C690.536 29.048 690.506 29 690.47 28.976C690.446 28.94 690.398 28.922 690.326 28.922H685.934C685.814 28.922 685.736 28.982 685.7 29.102L684.746 31.766C684.674 31.922 684.548 32 684.368 32H682.298ZM689.588 26.528C689.708 26.528 689.768 26.48 689.768 26.384C689.768 26.312 689.762 26.258 689.75 26.222L688.238 22.01C688.202 21.938 688.16 21.902 688.112 21.902C688.076 21.902 688.04 21.944 688.004 22.028L686.474 26.222C686.45 26.294 686.438 26.348 686.438 26.384C686.438 26.48 686.504 26.528 686.636 26.528H689.588ZM707.488 18.644C707.644 18.644 707.722 18.734 707.722 18.914V31.712C707.722 31.796 707.686 31.868 707.614 31.928C707.554 31.976 707.476 32 707.38 32H705.562C705.454 32 705.37 31.988 705.31 31.964C705.25 31.94 705.184 31.88 705.112 31.784L699.37 23.72C699.322 23.66 699.274 23.636 699.226 23.648C699.19 23.66 699.172 23.696 699.172 23.756V31.676V31.73C699.172 31.826 699.142 31.898 699.082 31.946C699.034 31.982 698.944 32 698.812 32H696.94C696.7 32 696.58 31.898 696.58 31.694V18.986C696.58 18.758 696.688 18.644 696.904 18.644H699.082C699.226 18.644 699.328 18.662 699.388 18.698C699.448 18.722 699.52 18.794 699.604 18.914L704.896 26.456C704.968 26.552 705.028 26.6 705.076 26.6C705.136 26.6 705.166 26.534 705.166 26.402V18.968C705.166 18.752 705.274 18.644 705.49 18.644H707.488ZM714.344 18.644C716.324 18.644 717.662 18.65 718.358 18.662C720.734 18.734 722.504 19.34 723.668 20.48C724.832 21.62 725.414 23.216 725.414 25.268C725.414 27.38 724.808 29.03 723.596 30.218C722.383 31.406 720.607 32 718.268 32H714.362C714.218 32 714.11 31.97 714.038 31.91C713.978 31.838 713.948 31.724 713.948 31.568V19.004C713.948 18.872 713.978 18.782 714.038 18.734C714.098 18.674 714.2 18.644 714.344 18.644ZM717.26 20.876C717.152 20.876 717.098 20.96 717.098 21.128V29.534C717.098 29.63 717.11 29.696 717.134 29.732C717.17 29.768 717.236 29.786 717.332 29.786H717.674C719.186 29.786 720.302 29.438 721.022 28.742C721.754 28.034 722.12 26.87 722.12 25.25C722.12 23.75 721.814 22.67 721.202 22.01C720.59 21.35 719.642 20.984 718.358 20.912L717.26 20.876ZM733.189 32.18C731.929 32.18 730.831 31.91 729.895 31.37C728.971 30.818 728.257 30.032 727.753 29.012C727.261 27.992 727.015 26.78 727.015 25.376C727.015 23.96 727.267 22.736 727.771 21.704C728.275 20.66 728.989 19.862 729.913 19.31C730.849 18.746 731.941 18.464 733.189 18.464C734.425 18.464 735.505 18.746 736.429 19.31C737.353 19.862 738.067 20.66 738.571 21.704C739.075 22.736 739.327 23.954 739.327 25.358C739.327 26.75 739.075 27.962 738.571 28.994C738.079 30.014 737.371 30.8 736.447 31.352C735.523 31.904 734.437 32.18 733.189 32.18ZM733.189 29.966C734.185 29.966 734.905 29.606 735.349 28.886C735.805 28.166 736.033 27.002 736.033 25.394C736.033 23.75 735.799 22.55 735.331 21.794C734.875 21.038 734.161 20.66 733.189 20.66C732.193 20.66 731.461 21.038 730.993 21.794C730.537 22.55 730.309 23.75 730.309 25.394C730.309 27.002 730.537 28.166 730.993 28.886C731.449 29.606 732.181 29.966 733.189 29.966ZM974.314 18.644C974.602 18.644 974.746 18.77 974.746 19.022C974.746 19.106 974.74 19.166 974.728 19.202L971.056 31.622C971.008 31.754 970.942 31.85 970.858 31.91C970.774 31.97 970.66 32 970.516 32H968.572C968.272 32 968.086 31.874 968.014 31.622L965.746 23.756C965.722 23.636 965.692 23.576 965.656 23.576C965.632 23.576 965.59 23.648 965.53 23.792L963.244 31.622C963.208 31.754 963.148 31.85 963.064 31.91C962.98 31.97 962.86 32 962.704 32H960.706C960.55 32 960.43 31.97 960.346 31.91C960.262 31.85 960.196 31.754 960.148 31.622L956.476 19.202C956.464 19.166 956.458 19.106 956.458 19.022C956.458 18.77 956.608 18.644 956.908 18.644H959.158C959.302 18.644 959.41 18.668 959.482 18.716C959.554 18.764 959.602 18.842 959.626 18.95L961.948 27.14C961.984 27.284 962.02 27.356 962.056 27.356C962.092 27.356 962.128 27.302 962.164 27.194L964.486 18.95C964.522 18.746 964.678 18.644 964.954 18.644H966.88C967.036 18.644 967.144 18.668 967.204 18.716C967.276 18.764 967.33 18.842 967.366 18.95L969.724 27.266C969.748 27.35 969.784 27.398 969.832 27.41C969.88 27.41 969.91 27.368 969.922 27.284L972.208 18.95C972.268 18.746 972.43 18.644 972.694 18.644H974.314ZM980.001 26.294C979.929 26.294 979.869 26.318 979.821 26.366C979.785 26.414 979.767 26.468 979.767 26.528V31.586C979.767 31.73 979.725 31.838 979.641 31.91C979.569 31.97 979.449 32 979.281 32H977.013C976.869 32 976.767 31.97 976.707 31.91C976.647 31.85 976.617 31.754 976.617 31.622V18.986C976.617 18.758 976.713 18.644 976.905 18.644H979.479C979.671 18.644 979.767 18.752 979.767 18.968V23.576C979.767 23.78 979.857 23.882 980.037 23.882H984.195C984.387 23.882 984.483 23.786 984.483 23.594V18.968C984.483 18.752 984.573 18.644 984.753 18.644H987.327C987.531 18.644 987.633 18.758 987.633 18.986V31.622C987.633 31.874 987.501 32 987.237 32H984.951C984.783 32 984.663 31.97 984.591 31.91C984.519 31.85 984.483 31.742 984.483 31.586V26.528C984.483 26.456 984.459 26.402 984.411 26.366C984.375 26.318 984.315 26.294 984.231 26.294H980.001ZM989.739 32C989.559 32 989.469 31.898 989.469 31.694C989.469 31.598 989.481 31.526 989.505 31.478L993.987 19.004C994.035 18.872 994.089 18.782 994.149 18.734C994.221 18.674 994.323 18.644 994.455 18.644H997.155C997.287 18.644 997.401 18.68 997.497 18.752C997.593 18.824 997.659 18.92 997.695 19.04L1002.14 31.514C1002.17 31.586 1002.18 31.64 1002.18 31.676C1002.18 31.772 1002.15 31.85 1002.11 31.91C1002.07 31.97 1002.01 32 1001.93 32H999.279C999.099 32 998.985 31.916 998.937 31.748L998.001 29.12C997.977 29.048 997.947 29 997.911 28.976C997.887 28.94 997.839 28.922 997.767 28.922H993.375C993.255 28.922 993.177 28.982 993.141 29.102L992.187 31.766C992.115 31.922 991.989 32 991.809 32H989.739ZM997.029 26.528C997.149 26.528 997.209 26.48 997.209 26.384C997.209 26.312 997.203 26.258 997.191 26.222L995.679 22.01C995.643 21.938 995.601 21.902 995.553 21.902C995.517 21.902 995.481 21.944 995.445 22.028L993.915 26.222C993.891 26.294 993.879 26.348 993.879 26.384C993.879 26.48 993.945 26.528 994.077 26.528H997.029ZM1001.28 18.968C1001.28 18.872 1001.31 18.794 1001.37 18.734C1001.44 18.674 1001.53 18.644 1001.64 18.644H1011.97C1012.21 18.644 1012.33 18.752 1012.33 18.968V20.642C1012.33 20.822 1012.23 20.912 1012.01 20.912H1008.64C1008.51 20.912 1008.45 20.972 1008.45 21.092V31.658C1008.45 31.886 1008.34 32 1008.14 32H1005.57C1005.39 32 1005.3 31.898 1005.3 31.694V21.146C1005.3 21.062 1005.28 21.002 1005.24 20.966C1005.22 20.93 1005.17 20.912 1005.1 20.912H1001.62C1001.4 20.912 1001.28 20.822 1001.28 20.642V18.968ZM1035.12 18.644C1035.4 18.644 1035.55 18.77 1035.55 19.022C1035.55 19.106 1035.54 19.166 1035.53 19.202L1031.86 31.622C1031.81 31.754 1031.74 31.85 1031.66 31.91C1031.58 31.97 1031.46 32 1031.32 32H1029.37C1029.07 32 1028.89 31.874 1028.82 31.622L1026.55 23.756C1026.52 23.636 1026.49 23.576 1026.46 23.576C1026.43 23.576 1026.39 23.648 1026.33 23.792L1024.05 31.622C1024.01 31.754 1023.95 31.85 1023.87 31.91C1023.78 31.97 1023.66 32 1023.51 32H1021.51C1021.35 32 1021.23 31.97 1021.15 31.91C1021.06 31.85 1021 31.754 1020.95 31.622L1017.28 19.202C1017.27 19.166 1017.26 19.106 1017.26 19.022C1017.26 18.77 1017.41 18.644 1017.71 18.644H1019.96C1020.1 18.644 1020.21 18.668 1020.28 18.716C1020.36 18.764 1020.4 18.842 1020.43 18.95L1022.75 27.14C1022.79 27.284 1022.82 27.356 1022.86 27.356C1022.89 27.356 1022.93 27.302 1022.97 27.194L1025.29 18.95C1025.32 18.746 1025.48 18.644 1025.76 18.644H1027.68C1027.84 18.644 1027.95 18.668 1028.01 18.716C1028.08 18.764 1028.13 18.842 1028.17 18.95L1030.53 27.266C1030.55 27.35 1030.59 27.398 1030.63 27.41C1030.68 27.41 1030.71 27.368 1030.72 27.284L1033.01 18.95C1033.07 18.746 1033.23 18.644 1033.5 18.644H1035.12ZM1037.42 18.986C1037.42 18.758 1037.52 18.644 1037.71 18.644H1046.78C1046.96 18.644 1047.05 18.746 1047.05 18.95L1047.03 20.57C1047.03 20.822 1046.91 20.948 1046.65 20.948H1040.91C1040.68 20.948 1040.57 21.044 1040.57 21.236V23.846C1040.57 24.05 1040.66 24.152 1040.84 24.152H1044.66C1044.86 24.152 1044.96 24.248 1044.96 24.44V26.168C1044.96 26.336 1044.87 26.42 1044.67 26.42H1040.82C1040.65 26.42 1040.57 26.492 1040.57 26.636V29.462C1040.57 29.546 1040.58 29.606 1040.61 29.642C1040.64 29.678 1040.7 29.696 1040.77 29.696H1046.92C1047.14 29.696 1047.25 29.786 1047.25 29.966V31.676C1047.25 31.892 1047.13 32 1046.89 32H1037.82C1037.67 32 1037.57 31.97 1037.51 31.91C1037.45 31.85 1037.42 31.754 1037.42 31.622V18.986ZM1058.52 18.464C1059.43 18.464 1060.27 18.638 1061.04 18.986C1061.81 19.334 1062.44 19.808 1062.93 20.408C1063.44 21.008 1063.75 21.68 1063.89 22.424C1063.91 22.508 1063.92 22.604 1063.92 22.712C1063.92 22.784 1063.9 22.832 1063.87 22.856C1063.83 22.88 1063.78 22.898 1063.71 22.91L1061.28 23.072C1061.17 23.072 1061.1 23.054 1061.06 23.018C1061.04 22.982 1061.01 22.91 1060.99 22.802C1060.86 22.142 1060.59 21.62 1060.2 21.236C1059.8 20.852 1059.27 20.66 1058.61 20.66C1056.69 20.66 1055.73 22.196 1055.73 25.268C1055.73 26.864 1055.97 28.028 1056.45 28.76C1056.93 29.492 1057.66 29.858 1058.65 29.858C1059.37 29.858 1059.97 29.678 1060.47 29.318C1060.97 28.958 1061.38 28.37 1061.69 27.554C1061.73 27.47 1061.8 27.428 1061.92 27.428C1062 27.428 1062.05 27.434 1062.09 27.446L1063.85 27.824C1064.02 27.884 1064.08 28.034 1064.05 28.274C1063.93 28.79 1063.65 29.348 1063.2 29.948C1062.77 30.548 1062.16 31.07 1061.37 31.514C1060.57 31.958 1059.63 32.18 1058.52 32.18C1057.29 32.18 1056.21 31.892 1055.28 31.316C1054.37 30.728 1053.67 29.912 1053.18 28.868C1052.68 27.812 1052.44 26.594 1052.44 25.214C1052.44 23.846 1052.68 22.652 1053.18 21.632C1053.67 20.612 1054.37 19.832 1055.28 19.292C1056.21 18.74 1057.29 18.464 1058.52 18.464ZM1065.06 32C1064.88 32 1064.79 31.898 1064.79 31.694C1064.79 31.598 1064.8 31.526 1064.83 31.478L1069.31 19.004C1069.36 18.872 1069.41 18.782 1069.47 18.734C1069.54 18.674 1069.65 18.644 1069.78 18.644H1072.48C1072.61 18.644 1072.72 18.68 1072.82 18.752C1072.92 18.824 1072.98 18.92 1073.02 19.04L1077.46 31.514C1077.49 31.586 1077.5 31.64 1077.5 31.676C1077.5 31.772 1077.48 31.85 1077.43 31.91C1077.39 31.97 1077.33 32 1077.25 32H1074.6C1074.42 32 1074.31 31.916 1074.26 31.748L1073.32 29.12C1073.3 29.048 1073.27 29 1073.23 28.976C1073.21 28.94 1073.16 28.922 1073.09 28.922H1068.7C1068.58 28.922 1068.5 28.982 1068.46 29.102L1067.51 31.766C1067.44 31.922 1067.31 32 1067.13 32H1065.06ZM1072.35 26.528C1072.47 26.528 1072.53 26.48 1072.53 26.384C1072.53 26.312 1072.53 26.258 1072.51 26.222L1071 22.01C1070.97 21.938 1070.92 21.902 1070.88 21.902C1070.84 21.902 1070.8 21.944 1070.77 22.028L1069.24 26.222C1069.21 26.294 1069.2 26.348 1069.2 26.384C1069.2 26.48 1069.27 26.528 1069.4 26.528H1072.35ZM1090.25 18.644C1090.41 18.644 1090.49 18.734 1090.49 18.914V31.712C1090.49 31.796 1090.45 31.868 1090.38 31.928C1090.32 31.976 1090.24 32 1090.14 32H1088.33C1088.22 32 1088.13 31.988 1088.07 31.964C1088.01 31.94 1087.95 31.88 1087.88 31.784L1082.13 23.72C1082.09 23.66 1082.04 23.636 1081.99 23.648C1081.95 23.66 1081.94 23.696 1081.94 23.756V31.676V31.73C1081.94 31.826 1081.91 31.898 1081.85 31.946C1081.8 31.982 1081.71 32 1081.58 32H1079.7C1079.46 32 1079.34 31.898 1079.34 31.694V18.986C1079.34 18.758 1079.45 18.644 1079.67 18.644H1081.85C1081.99 18.644 1082.09 18.662 1082.15 18.698C1082.21 18.722 1082.28 18.794 1082.37 18.914L1087.66 26.456C1087.73 26.552 1087.79 26.6 1087.84 26.6C1087.9 26.6 1087.93 26.534 1087.93 26.402V18.968C1087.93 18.752 1088.04 18.644 1088.25 18.644H1090.25ZM1097.11 18.644C1099.09 18.644 1100.43 18.65 1101.12 18.662C1103.5 18.734 1105.27 19.34 1106.43 20.48C1107.6 21.62 1108.18 23.216 1108.18 25.268C1108.18 27.38 1107.57 29.03 1106.36 30.218C1105.15 31.406 1103.37 32 1101.03 32H1097.13C1096.98 32 1096.87 31.97 1096.8 31.91C1096.74 31.838 1096.71 31.724 1096.71 31.568V19.004C1096.71 18.872 1096.74 18.782 1096.8 18.734C1096.86 18.674 1096.96 18.644 1097.11 18.644ZM1100.02 20.876C1099.92 20.876 1099.86 20.96 1099.86 21.128V29.534C1099.86 29.63 1099.87 29.696 1099.9 29.732C1099.93 29.768 1100 29.786 1100.1 29.786H1100.44C1101.95 29.786 1103.07 29.438 1103.79 28.742C1104.52 28.034 1104.88 26.87 1104.88 25.25C1104.88 23.75 1104.58 22.67 1103.97 22.01C1103.35 21.35 1102.41 20.984 1101.12 20.912L1100.02 20.876ZM1115.95 32.18C1114.69 32.18 1113.59 31.91 1112.66 31.37C1111.73 30.818 1111.02 30.032 1110.52 29.012C1110.02 27.992 1109.78 26.78 1109.78 25.376C1109.78 23.96 1110.03 22.736 1110.53 21.704C1111.04 20.66 1111.75 19.862 1112.68 19.31C1113.61 18.746 1114.7 18.464 1115.95 18.464C1117.19 18.464 1118.27 18.746 1119.19 19.31C1120.12 19.862 1120.83 20.66 1121.33 21.704C1121.84 22.736 1122.09 23.954 1122.09 25.358C1122.09 26.75 1121.84 27.962 1121.33 28.994C1120.84 30.014 1120.13 30.8 1119.21 31.352C1118.29 31.904 1117.2 32.18 1115.95 32.18ZM1115.95 29.966C1116.95 29.966 1117.67 29.606 1118.11 28.886C1118.57 28.166 1118.8 27.002 1118.8 25.394C1118.8 23.75 1118.56 22.55 1118.09 21.794C1117.64 21.038 1116.92 20.66 1115.95 20.66C1114.96 20.66 1114.22 21.038 1113.76 21.794C1113.3 22.55 1113.07 23.75 1113.07 25.394C1113.07 27.002 1113.3 28.166 1113.76 28.886C1114.21 29.606 1114.94 29.966 1115.95 29.966ZM1357.08 18.644C1357.37 18.644 1357.51 18.77 1357.51 19.022C1357.51 19.106 1357.5 19.166 1357.49 19.202L1353.82 31.622C1353.77 31.754 1353.71 31.85 1353.62 31.91C1353.54 31.97 1353.42 32 1353.28 32H1351.34C1351.04 32 1350.85 31.874 1350.78 31.622L1348.51 23.756C1348.49 23.636 1348.46 23.576 1348.42 23.576C1348.4 23.576 1348.35 23.648 1348.29 23.792L1346.01 31.622C1345.97 31.754 1345.91 31.85 1345.83 31.91C1345.74 31.97 1345.62 32 1345.47 32H1343.47C1343.31 32 1343.19 31.97 1343.11 31.91C1343.03 31.85 1342.96 31.754 1342.91 31.622L1339.24 19.202C1339.23 19.166 1339.22 19.106 1339.22 19.022C1339.22 18.77 1339.37 18.644 1339.67 18.644H1341.92C1342.07 18.644 1342.17 18.668 1342.25 18.716C1342.32 18.764 1342.37 18.842 1342.39 18.95L1344.71 27.14C1344.75 27.284 1344.78 27.356 1344.82 27.356C1344.86 27.356 1344.89 27.302 1344.93 27.194L1347.25 18.95C1347.29 18.746 1347.44 18.644 1347.72 18.644H1349.64C1349.8 18.644 1349.91 18.668 1349.97 18.716C1350.04 18.764 1350.09 18.842 1350.13 18.95L1352.49 27.266C1352.51 27.35 1352.55 27.398 1352.6 27.41C1352.64 27.41 1352.67 27.368 1352.69 27.284L1354.97 18.95C1355.03 18.746 1355.19 18.644 1355.46 18.644H1357.08ZM1362.77 26.294C1362.69 26.294 1362.63 26.318 1362.59 26.366C1362.55 26.414 1362.53 26.468 1362.53 26.528V31.586C1362.53 31.73 1362.49 31.838 1362.41 31.91C1362.33 31.97 1362.21 32 1362.05 32H1359.78C1359.63 32 1359.53 31.97 1359.47 31.91C1359.41 31.85 1359.38 31.754 1359.38 31.622V18.986C1359.38 18.758 1359.48 18.644 1359.67 18.644H1362.24C1362.44 18.644 1362.53 18.752 1362.53 18.968V23.576C1362.53 23.78 1362.62 23.882 1362.8 23.882H1366.96C1367.15 23.882 1367.25 23.786 1367.25 23.594V18.968C1367.25 18.752 1367.34 18.644 1367.52 18.644H1370.09C1370.3 18.644 1370.4 18.758 1370.4 18.986V31.622C1370.4 31.874 1370.27 32 1370 32H1367.72C1367.55 32 1367.43 31.97 1367.36 31.91C1367.28 31.85 1367.25 31.742 1367.25 31.586V26.528C1367.25 26.456 1367.22 26.402 1367.18 26.366C1367.14 26.318 1367.08 26.294 1367 26.294H1362.77ZM1372.5 32C1372.32 32 1372.23 31.898 1372.23 31.694C1372.23 31.598 1372.24 31.526 1372.27 31.478L1376.75 19.004C1376.8 18.872 1376.85 18.782 1376.91 18.734C1376.98 18.674 1377.09 18.644 1377.22 18.644H1379.92C1380.05 18.644 1380.16 18.68 1380.26 18.752C1380.36 18.824 1380.42 18.92 1380.46 19.04L1384.9 31.514C1384.93 31.586 1384.94 31.64 1384.94 31.676C1384.94 31.772 1384.92 31.85 1384.87 31.91C1384.83 31.97 1384.77 32 1384.69 32H1382.04C1381.86 32 1381.75 31.916 1381.7 31.748L1380.76 29.12C1380.74 29.048 1380.71 29 1380.67 28.976C1380.65 28.94 1380.6 28.922 1380.53 28.922H1376.14C1376.02 28.922 1375.94 28.982 1375.9 29.102L1374.95 31.766C1374.88 31.922 1374.75 32 1374.57 32H1372.5ZM1379.79 26.528C1379.91 26.528 1379.97 26.48 1379.97 26.384C1379.97 26.312 1379.97 26.258 1379.95 26.222L1378.44 22.01C1378.41 21.938 1378.36 21.902 1378.32 21.902C1378.28 21.902 1378.24 21.944 1378.21 22.028L1376.68 26.222C1376.65 26.294 1376.64 26.348 1376.64 26.384C1376.64 26.48 1376.71 26.528 1376.84 26.528H1379.79ZM1384.05 18.968C1384.05 18.872 1384.08 18.794 1384.14 18.734C1384.21 18.674 1384.3 18.644 1384.41 18.644H1394.74C1394.98 18.644 1395.1 18.752 1395.1 18.968V20.642C1395.1 20.822 1394.99 20.912 1394.77 20.912H1391.41C1391.28 20.912 1391.21 20.972 1391.21 21.092V31.658C1391.21 31.886 1391.11 32 1390.9 32H1388.33C1388.15 32 1388.06 31.898 1388.06 31.694V21.146C1388.06 21.062 1388.04 21.002 1388.01 20.966C1387.98 20.93 1387.93 20.912 1387.86 20.912H1384.39C1384.16 20.912 1384.05 20.822 1384.05 20.642V18.968ZM1417.88 18.644C1418.17 18.644 1418.31 18.77 1418.31 19.022C1418.31 19.106 1418.31 19.166 1418.29 19.202L1414.62 31.622C1414.57 31.754 1414.51 31.85 1414.42 31.91C1414.34 31.97 1414.23 32 1414.08 32H1412.14C1411.84 32 1411.65 31.874 1411.58 31.622L1409.31 23.756C1409.29 23.636 1409.26 23.576 1409.22 23.576C1409.2 23.576 1409.16 23.648 1409.1 23.792L1406.81 31.622C1406.77 31.754 1406.71 31.85 1406.63 31.91C1406.55 31.97 1406.43 32 1406.27 32H1404.27C1404.12 32 1404 31.97 1403.91 31.91C1403.83 31.85 1403.76 31.754 1403.71 31.622L1400.04 19.202C1400.03 19.166 1400.02 19.106 1400.02 19.022C1400.02 18.77 1400.17 18.644 1400.47 18.644H1402.72C1402.87 18.644 1402.98 18.668 1403.05 18.716C1403.12 18.764 1403.17 18.842 1403.19 18.95L1405.51 27.14C1405.55 27.284 1405.59 27.356 1405.62 27.356C1405.66 27.356 1405.69 27.302 1405.73 27.194L1408.05 18.95C1408.09 18.746 1408.24 18.644 1408.52 18.644H1410.45C1410.6 18.644 1410.71 18.668 1410.77 18.716C1410.84 18.764 1410.9 18.842 1410.93 18.95L1413.29 27.266C1413.31 27.35 1413.35 27.398 1413.4 27.41C1413.45 27.41 1413.48 27.368 1413.49 27.284L1415.77 18.95C1415.83 18.746 1416 18.644 1416.26 18.644H1417.88ZM1420.18 18.986C1420.18 18.758 1420.28 18.644 1420.47 18.644H1429.54C1429.72 18.644 1429.81 18.746 1429.81 18.95L1429.8 20.57C1429.8 20.822 1429.67 20.948 1429.42 20.948H1423.68C1423.45 20.948 1423.33 21.044 1423.33 21.236V23.846C1423.33 24.05 1423.42 24.152 1423.6 24.152H1427.42C1427.62 24.152 1427.73 24.248 1427.73 24.44V26.168C1427.73 26.336 1427.63 26.42 1427.44 26.42H1423.59C1423.42 26.42 1423.33 26.492 1423.33 26.636V29.462C1423.33 29.546 1423.35 29.606 1423.37 29.642C1423.41 29.678 1423.46 29.696 1423.53 29.696H1429.69C1429.9 29.696 1430.01 29.786 1430.01 29.966V31.676C1430.01 31.892 1429.89 32 1429.65 32H1420.58C1420.44 32 1420.33 31.97 1420.27 31.91C1420.21 31.85 1420.18 31.754 1420.18 31.622V18.986ZM1441.29 18.464C1442.2 18.464 1443.04 18.638 1443.81 18.986C1444.57 19.334 1445.2 19.808 1445.7 20.408C1446.2 21.008 1446.52 21.68 1446.65 22.424C1446.67 22.508 1446.69 22.604 1446.69 22.712C1446.69 22.784 1446.67 22.832 1446.63 22.856C1446.6 22.88 1446.54 22.898 1446.47 22.91L1444.04 23.072C1443.93 23.072 1443.86 23.054 1443.82 23.018C1443.8 22.982 1443.78 22.91 1443.75 22.802C1443.62 22.142 1443.36 21.62 1442.96 21.236C1442.56 20.852 1442.04 20.66 1441.38 20.66C1439.46 20.66 1438.5 22.196 1438.5 25.268C1438.5 26.864 1438.74 28.028 1439.22 28.76C1439.7 29.492 1440.43 29.858 1441.41 29.858C1442.13 29.858 1442.74 29.678 1443.23 29.318C1443.73 28.958 1444.14 28.37 1444.45 27.554C1444.49 27.47 1444.57 27.428 1444.69 27.428C1444.76 27.428 1444.81 27.434 1444.85 27.446L1446.61 27.824C1446.78 27.884 1446.85 28.034 1446.81 28.274C1446.69 28.79 1446.41 29.348 1445.97 29.948C1445.53 30.548 1444.92 31.07 1444.13 31.514C1443.34 31.958 1442.39 32.18 1441.29 32.18C1440.05 32.18 1438.97 31.892 1438.05 31.316C1437.13 30.728 1436.43 29.912 1435.94 28.868C1435.45 27.812 1435.2 26.594 1435.2 25.214C1435.2 23.846 1435.45 22.652 1435.94 21.632C1436.43 20.612 1437.13 19.832 1438.05 19.292C1438.97 18.74 1440.05 18.464 1441.29 18.464ZM1447.82 32C1447.64 32 1447.55 31.898 1447.55 31.694C1447.55 31.598 1447.57 31.526 1447.59 31.478L1452.07 19.004C1452.12 18.872 1452.17 18.782 1452.23 18.734C1452.31 18.674 1452.41 18.644 1452.54 18.644H1455.24C1455.37 18.644 1455.49 18.68 1455.58 18.752C1455.68 18.824 1455.74 18.92 1455.78 19.04L1460.23 31.514C1460.25 31.586 1460.26 31.64 1460.26 31.676C1460.26 31.772 1460.24 31.85 1460.19 31.91C1460.15 31.97 1460.09 32 1460.01 32H1457.36C1457.18 32 1457.07 31.916 1457.02 31.748L1456.09 29.12C1456.06 29.048 1456.03 29 1456 28.976C1455.97 28.94 1455.92 28.922 1455.85 28.922H1451.46C1451.34 28.922 1451.26 28.982 1451.23 29.102L1450.27 31.766C1450.2 31.922 1450.07 32 1449.89 32H1447.82ZM1455.11 26.528C1455.23 26.528 1455.29 26.48 1455.29 26.384C1455.29 26.312 1455.29 26.258 1455.28 26.222L1453.76 22.01C1453.73 21.938 1453.69 21.902 1453.64 21.902C1453.6 21.902 1453.57 21.944 1453.53 22.028L1452 26.222C1451.98 26.294 1451.96 26.348 1451.96 26.384C1451.96 26.48 1452.03 26.528 1452.16 26.528H1455.11ZM1473.02 18.644C1473.17 18.644 1473.25 18.734 1473.25 18.914V31.712C1473.25 31.796 1473.21 31.868 1473.14 31.928C1473.08 31.976 1473 32 1472.91 32H1471.09C1470.98 32 1470.9 31.988 1470.84 31.964C1470.78 31.94 1470.71 31.88 1470.64 31.784L1464.9 23.72C1464.85 23.66 1464.8 23.636 1464.75 23.648C1464.72 23.66 1464.7 23.696 1464.7 23.756V31.676V31.73C1464.7 31.826 1464.67 31.898 1464.61 31.946C1464.56 31.982 1464.47 32 1464.34 32H1462.47C1462.23 32 1462.11 31.898 1462.11 31.694V18.986C1462.11 18.758 1462.22 18.644 1462.43 18.644H1464.61C1464.75 18.644 1464.86 18.662 1464.92 18.698C1464.98 18.722 1465.05 18.794 1465.13 18.914L1470.42 26.456C1470.5 26.552 1470.56 26.6 1470.6 26.6C1470.66 26.6 1470.69 26.534 1470.69 26.402V18.968C1470.69 18.752 1470.8 18.644 1471.02 18.644H1473.02ZM1479.87 18.644C1481.85 18.644 1483.19 18.65 1483.88 18.662C1486.26 18.734 1488.03 19.34 1489.19 20.48C1490.36 21.62 1490.94 23.216 1490.94 25.268C1490.94 27.38 1490.33 29.03 1489.12 30.218C1487.91 31.406 1486.13 32 1483.79 32H1479.89C1479.74 32 1479.64 31.97 1479.56 31.91C1479.5 31.838 1479.47 31.724 1479.47 31.568V19.004C1479.47 18.872 1479.5 18.782 1479.56 18.734C1479.62 18.674 1479.73 18.644 1479.87 18.644ZM1482.79 20.876C1482.68 20.876 1482.62 20.96 1482.62 21.128V29.534C1482.62 29.63 1482.64 29.696 1482.66 29.732C1482.7 29.768 1482.76 29.786 1482.86 29.786H1483.2C1484.71 29.786 1485.83 29.438 1486.55 28.742C1487.28 28.034 1487.65 26.87 1487.65 25.25C1487.65 23.75 1487.34 22.67 1486.73 22.01C1486.12 21.35 1485.17 20.984 1483.88 20.912L1482.79 20.876ZM1498.72 32.18C1497.46 32.18 1496.36 31.91 1495.42 31.37C1494.5 30.818 1493.78 30.032 1493.28 29.012C1492.79 27.992 1492.54 26.78 1492.54 25.376C1492.54 23.96 1492.79 22.736 1493.3 21.704C1493.8 20.66 1494.52 19.862 1495.44 19.31C1496.38 18.746 1497.47 18.464 1498.72 18.464C1499.95 18.464 1501.03 18.746 1501.96 19.31C1502.88 19.862 1503.59 20.66 1504.1 21.704C1504.6 22.736 1504.85 23.954 1504.85 25.358C1504.85 26.75 1504.6 27.962 1504.1 28.994C1503.61 30.014 1502.9 30.8 1501.97 31.352C1501.05 31.904 1499.96 32.18 1498.72 32.18ZM1498.72 29.966C1499.71 29.966 1500.43 29.606 1500.88 28.886C1501.33 28.166 1501.56 27.002 1501.56 25.394C1501.56 23.75 1501.33 22.55 1500.86 21.794C1500.4 21.038 1499.69 20.66 1498.72 20.66C1497.72 20.66 1496.99 21.038 1496.52 21.794C1496.06 22.55 1495.84 23.75 1495.84 25.394C1495.84 27.002 1496.06 28.166 1496.52 28.886C1496.98 29.606 1497.71 29.966 1498.72 29.966Z" fill="#00FF19"/>
</svg>
