<svg width="1440" height="1024" viewBox="0 0 1440 1024" fill="none" xmlns="http://www.w3.org/2000/svg">
<rect width="1440" height="1024" fill="white"/>
<path d="M1330.5 104L1216 16L1230.2 0H1440V1024H1310.19L1330.5 1002L1216 912.5L1330.5 780.5L1216 683.5L1330.5 558.5L1216 444L1330.5 330.5L1216 230.5L1330.5 104Z" fill="#7000FF"/>
<path d="M1217.74 748L1340.41 847L1440 765.24V1024L112 1024V784.278L208.819 847L306.54 748L439.087 847L556.5 748L661.039 847L755.641 748L881.951 847L984.87 748L1091.43 847L1217.74 748Z" fill="#00FF19"/>
</svg>
