<svg width="1448" height="48" viewBox="0 0 1448 48" fill="none" xmlns="http://www.w3.org/2000/svg">
<rect x="26" width="1328" height="48" fill="black"/>
<path d="M0.558 19.022C0.558 18.914 0.588 18.824 0.648 18.752C0.72 18.68 0.822 18.644 0.954 18.644H11.52C11.652 18.644 11.748 18.68 11.808 18.752C11.88 18.824 11.916 18.914 11.916 19.022V20.93C11.916 21.134 11.796 21.236 11.556 21.236H8.28C8.148 21.236 8.082 21.296 8.082 21.416V31.64C8.082 31.88 7.974 32 7.758 32H4.734C4.53 32 4.428 31.886 4.428 31.658V21.488C4.428 21.392 4.416 21.326 4.392 21.29C4.368 21.254 4.32 21.236 4.248 21.236H0.936C0.684 21.236 0.558 21.134 0.558 20.93V19.022ZM17.4665 26.492C17.3945 26.492 17.3345 26.516 17.2865 26.564C17.2385 26.6 17.2145 26.654 17.2145 26.726V31.532C17.2145 31.7 17.1725 31.82 17.0885 31.892C17.0045 31.964 16.8665 32 16.6745 32H14.0105C13.8425 32 13.7285 31.97 13.6685 31.91C13.6085 31.838 13.5785 31.73 13.5785 31.586V19.022C13.5785 18.902 13.6025 18.812 13.6505 18.752C13.7105 18.68 13.7885 18.644 13.8845 18.644H16.9085C17.0045 18.644 17.0765 18.674 17.1245 18.734C17.1845 18.794 17.2145 18.878 17.2145 18.986V23.378C17.2145 23.606 17.3105 23.72 17.5025 23.72H21.0845C21.2765 23.72 21.3725 23.606 21.3725 23.378V18.986C21.3725 18.878 21.3965 18.794 21.4445 18.734C21.5045 18.674 21.5825 18.644 21.6785 18.644H24.7025C24.7985 18.644 24.8705 18.68 24.9185 18.752C24.9785 18.812 25.0085 18.902 25.0085 19.022V31.586C25.0085 31.73 24.9785 31.838 24.9185 31.91C24.8585 31.97 24.7445 32 24.5765 32H21.9125C21.7205 32 21.5825 31.964 21.4985 31.892C21.4145 31.82 21.3725 31.7 21.3725 31.532V26.726C21.3725 26.654 21.3485 26.6 21.3005 26.564C21.2645 26.516 21.2045 26.492 21.1205 26.492H17.4665ZM27.2015 19.022C27.2015 18.77 27.3035 18.644 27.5075 18.644H36.9215C37.1135 18.644 37.2095 18.758 37.2095 18.986V20.858C37.2095 20.99 37.1735 21.098 37.1015 21.182C37.0295 21.254 36.9215 21.29 36.7775 21.29H31.2155C30.9635 21.29 30.8375 21.398 30.8375 21.614V23.648C30.8375 23.756 30.8615 23.84 30.9095 23.9C30.9695 23.96 31.0415 23.99 31.1255 23.99H34.6355C34.8635 23.99 34.9775 24.098 34.9775 24.314V26.312C34.9775 26.492 34.8815 26.582 34.6895 26.582H31.1075C30.9275 26.582 30.8375 26.666 30.8375 26.834V29.12C30.8375 29.204 30.8495 29.264 30.8735 29.3C30.9095 29.336 30.9635 29.354 31.0355 29.354H37.0295C37.1495 29.354 37.2395 29.378 37.2995 29.426C37.3595 29.474 37.3895 29.552 37.3895 29.66V31.64C37.3895 31.88 37.2635 32 37.0115 32H27.6335C27.4775 32 27.3635 31.97 27.2915 31.91C27.2315 31.838 27.2015 31.73 27.2015 31.586V19.022ZM50.6053 22.01C50.3053 21.686 49.9693 21.434 49.5973 21.254C49.2373 21.062 48.7393 20.966 48.1033 20.966C47.4313 20.966 46.9213 21.08 46.5733 21.308C46.2373 21.524 46.0693 21.8 46.0693 22.136C46.0693 22.364 46.1653 22.58 46.3573 22.784C46.5493 22.988 46.8853 23.15 47.3653 23.27L50.2813 24.062C51.3613 24.35 52.1713 24.83 52.7113 25.502C53.2513 26.174 53.5213 26.978 53.5213 27.914C53.5213 28.778 53.2933 29.534 52.8373 30.182C52.3933 30.818 51.7513 31.31 50.9113 31.658C50.0713 32.006 49.0873 32.18 47.9593 32.18C46.6873 32.18 45.5293 31.97 44.4853 31.55C43.4533 31.118 42.7213 30.542 42.2893 29.822C42.2293 29.702 42.1993 29.612 42.1993 29.552C42.1993 29.456 42.2653 29.36 42.3973 29.264L44.0173 28.148C44.1493 28.064 44.2633 28.022 44.3593 28.022C44.4793 28.022 44.5753 28.07 44.6473 28.166C45.0793 28.718 45.5113 29.108 45.9433 29.336C46.3873 29.564 46.9693 29.678 47.6893 29.678C48.4213 29.678 48.9973 29.57 49.4173 29.354C49.8493 29.138 50.0653 28.826 50.0653 28.418C50.0653 27.866 49.6273 27.47 48.7513 27.23L46.0153 26.51C44.9593 26.234 44.1313 25.748 43.5313 25.052C42.9313 24.344 42.6313 23.534 42.6313 22.622C42.6313 21.842 42.8533 21.14 43.2973 20.516C43.7413 19.88 44.3653 19.382 45.1693 19.022C45.9853 18.65 46.9273 18.464 47.9953 18.464C49.0273 18.464 49.9873 18.638 50.8753 18.986C51.7633 19.334 52.4233 19.796 52.8553 20.372C52.9393 20.516 52.9813 20.618 52.9813 20.678C52.9813 20.738 52.9393 20.804 52.8553 20.876L51.0913 22.154C51.0433 22.202 50.9893 22.226 50.9293 22.226C50.8573 22.226 50.7493 22.154 50.6053 22.01ZM54.681 19.022C54.681 18.914 54.711 18.824 54.771 18.752C54.843 18.68 54.945 18.644 55.077 18.644H65.643C65.775 18.644 65.871 18.68 65.931 18.752C66.003 18.824 66.039 18.914 66.039 19.022V20.93C66.039 21.134 65.919 21.236 65.679 21.236H62.403C62.271 21.236 62.205 21.296 62.205 21.416V31.64C62.205 31.88 62.097 32 61.881 32H58.857C58.653 32 58.551 31.886 58.551 31.658V21.488C58.551 21.392 58.539 21.326 58.515 21.29C58.491 21.254 58.443 21.236 58.371 21.236H55.059C54.807 21.236 54.681 21.134 54.681 20.93V19.022ZM65.2866 32C65.1906 32 65.1126 31.97 65.0526 31.91C65.0046 31.85 64.9806 31.766 64.9806 31.658C64.9806 31.574 64.9986 31.49 65.0346 31.406L69.4626 19.022C69.5106 18.878 69.5706 18.782 69.6426 18.734C69.7146 18.674 69.8226 18.644 69.9666 18.644H73.0986C73.3866 18.644 73.5906 18.794 73.7106 19.094L78.0846 31.442C78.0966 31.478 78.1026 31.538 78.1026 31.622C78.1026 31.73 78.0786 31.82 78.0306 31.892C77.9946 31.964 77.9346 32 77.8506 32H74.7366C74.5446 32 74.4186 31.904 74.3586 31.712L73.5666 29.372C73.5306 29.3 73.4946 29.252 73.4586 29.228C73.4346 29.192 73.3806 29.174 73.2966 29.174H69.2106C69.0786 29.174 68.9946 29.24 68.9586 29.372L68.1126 31.748C68.0526 31.916 67.9206 32 67.7166 32H65.2866ZM72.4866 26.438C72.6066 26.438 72.6666 26.378 72.6666 26.258C72.6666 26.186 72.6606 26.132 72.6486 26.096L71.3526 22.478C71.3406 22.406 71.3046 22.37 71.2446 22.37C71.1966 22.37 71.1606 22.406 71.1366 22.478L69.8226 26.096C69.7986 26.144 69.7866 26.204 69.7866 26.276C69.7866 26.384 69.8586 26.438 70.0026 26.438H72.4866ZM77.0404 19.022C77.0404 18.914 77.0704 18.824 77.1304 18.752C77.2024 18.68 77.3044 18.644 77.4364 18.644H88.0024C88.1344 18.644 88.2304 18.68 88.2904 18.752C88.3624 18.824 88.3984 18.914 88.3984 19.022V20.93C88.3984 21.134 88.2784 21.236 88.0384 21.236H84.7624C84.6304 21.236 84.5644 21.296 84.5644 21.416V31.64C84.5644 31.88 84.4564 32 84.2404 32H81.2164C81.0124 32 80.9104 31.886 80.9104 31.658V21.488C80.9104 21.392 80.8984 21.326 80.8744 21.29C80.8504 21.254 80.8024 21.236 80.7304 21.236H77.4184C77.1664 21.236 77.0404 21.134 77.0404 20.93V19.022ZM97.8729 22.01C97.5729 21.686 97.2369 21.434 96.8649 21.254C96.5049 21.062 96.0069 20.966 95.3709 20.966C94.6989 20.966 94.1889 21.08 93.8409 21.308C93.5049 21.524 93.3369 21.8 93.3369 22.136C93.3369 22.364 93.4329 22.58 93.6249 22.784C93.8169 22.988 94.1529 23.15 94.6329 23.27L97.5489 24.062C98.6289 24.35 99.4389 24.83 99.9789 25.502C100.519 26.174 100.789 26.978 100.789 27.914C100.789 28.778 100.561 29.534 100.105 30.182C99.6609 30.818 99.0189 31.31 98.1789 31.658C97.3389 32.006 96.3549 32.18 95.2269 32.18C93.9549 32.18 92.7969 31.97 91.7529 31.55C90.7209 31.118 89.9889 30.542 89.5569 29.822C89.4969 29.702 89.4669 29.612 89.4669 29.552C89.4669 29.456 89.5329 29.36 89.6649 29.264L91.2849 28.148C91.4169 28.064 91.5309 28.022 91.6269 28.022C91.7469 28.022 91.8429 28.07 91.9149 28.166C92.3469 28.718 92.7789 29.108 93.2109 29.336C93.6549 29.564 94.2369 29.678 94.9569 29.678C95.6889 29.678 96.2649 29.57 96.6849 29.354C97.1169 29.138 97.3329 28.826 97.3329 28.418C97.3329 27.866 96.8949 27.47 96.0189 27.23L93.2829 26.51C92.2269 26.234 91.3989 25.748 90.7989 25.052C90.1989 24.344 89.8989 23.534 89.8989 22.622C89.8989 21.842 90.1209 21.14 90.5649 20.516C91.0089 19.88 91.6329 19.382 92.4369 19.022C93.2529 18.65 94.1949 18.464 95.2629 18.464C96.2949 18.464 97.2549 18.638 98.1429 18.986C99.0309 19.334 99.6909 19.796 100.123 20.372C100.207 20.516 100.249 20.618 100.249 20.678C100.249 20.738 100.207 20.804 100.123 20.876L98.3589 22.154C98.3109 22.202 98.2569 22.226 98.1969 22.226C98.1249 22.226 98.0169 22.154 97.8729 22.01ZM248.903 18.968C248.903 18.872 248.933 18.794 248.993 18.734C249.065 18.674 249.155 18.644 249.263 18.644H259.595C259.835 18.644 259.955 18.752 259.955 18.968V20.642C259.955 20.822 259.847 20.912 259.631 20.912H256.265C256.133 20.912 256.067 20.972 256.067 21.092V31.658C256.067 31.886 255.965 32 255.761 32H253.187C253.007 32 252.917 31.898 252.917 31.694V21.146C252.917 21.062 252.899 21.002 252.863 20.966C252.839 20.93 252.791 20.912 252.719 20.912H249.245C249.017 20.912 248.903 20.822 248.903 20.642V18.968ZM265.205 26.294C265.133 26.294 265.073 26.318 265.025 26.366C264.989 26.414 264.971 26.468 264.971 26.528V31.586C264.971 31.73 264.929 31.838 264.845 31.91C264.773 31.97 264.653 32 264.485 32H262.217C262.073 32 261.971 31.97 261.911 31.91C261.851 31.85 261.821 31.754 261.821 31.622V18.986C261.821 18.758 261.917 18.644 262.109 18.644H264.683C264.875 18.644 264.971 18.752 264.971 18.968V23.576C264.971 23.78 265.061 23.882 265.241 23.882H269.399C269.591 23.882 269.687 23.786 269.687 23.594V18.968C269.687 18.752 269.777 18.644 269.957 18.644H272.531C272.735 18.644 272.837 18.758 272.837 18.986V31.622C272.837 31.874 272.705 32 272.441 32H270.155C269.987 32 269.867 31.97 269.795 31.91C269.723 31.85 269.687 31.742 269.687 31.586V26.528C269.687 26.456 269.663 26.402 269.615 26.366C269.579 26.318 269.519 26.294 269.435 26.294H265.205ZM275.338 18.986C275.338 18.758 275.434 18.644 275.626 18.644H284.698C284.878 18.644 284.968 18.746 284.968 18.95L284.95 20.57C284.95 20.822 284.824 20.948 284.572 20.948H278.83C278.602 20.948 278.488 21.044 278.488 21.236V23.846C278.488 24.05 278.578 24.152 278.758 24.152H282.574C282.778 24.152 282.88 24.248 282.88 24.44V26.168C282.88 26.336 282.784 26.42 282.592 26.42H278.74C278.572 26.42 278.488 26.492 278.488 26.636V29.462C278.488 29.546 278.5 29.606 278.524 29.642C278.56 29.678 278.614 29.696 278.686 29.696H284.842C285.058 29.696 285.166 29.786 285.166 29.966V31.676C285.166 31.892 285.046 32 284.806 32H275.734C275.59 32 275.488 31.97 275.428 31.91C275.368 31.85 275.338 31.754 275.338 31.622V18.986ZM298.492 21.794C298.18 21.446 297.82 21.176 297.412 20.984C297.016 20.78 296.494 20.678 295.846 20.678C295.114 20.678 294.556 20.81 294.172 21.074C293.788 21.338 293.596 21.686 293.596 22.118C293.596 22.742 294.082 23.198 295.054 23.486L297.898 24.296C298.966 24.596 299.758 25.07 300.274 25.718C300.802 26.366 301.066 27.146 301.066 28.058C301.066 28.898 300.85 29.63 300.418 30.254C299.986 30.866 299.362 31.34 298.546 31.676C297.742 32.012 296.794 32.18 295.702 32.18C294.478 32.18 293.374 31.976 292.39 31.568C291.406 31.148 290.686 30.578 290.23 29.858C290.182 29.774 290.158 29.696 290.158 29.624C290.158 29.528 290.218 29.426 290.338 29.318L291.724 28.364C291.844 28.292 291.952 28.256 292.048 28.256C292.156 28.256 292.246 28.304 292.318 28.4C292.762 28.976 293.212 29.384 293.668 29.624C294.124 29.864 294.73 29.984 295.486 29.984C296.29 29.984 296.92 29.858 297.376 29.606C297.832 29.354 298.06 28.976 298.06 28.472C298.06 28.148 297.946 27.872 297.718 27.644C297.49 27.416 297.106 27.218 296.566 27.05L293.848 26.276C292.816 25.988 292.018 25.508 291.454 24.836C290.89 24.152 290.608 23.378 290.608 22.514C290.608 21.746 290.818 21.056 291.238 20.444C291.67 19.832 292.276 19.352 293.056 19.004C293.836 18.644 294.736 18.464 295.756 18.464C296.764 18.464 297.688 18.638 298.528 18.986C299.368 19.322 300.01 19.778 300.454 20.354C300.526 20.45 300.562 20.534 300.562 20.606C300.562 20.678 300.526 20.744 300.454 20.804L298.942 21.92C298.87 21.968 298.816 21.992 298.78 21.992C298.72 21.992 298.624 21.926 298.492 21.794ZM302.34 18.968C302.34 18.872 302.37 18.794 302.43 18.734C302.502 18.674 302.592 18.644 302.7 18.644H313.032C313.272 18.644 313.392 18.752 313.392 18.968V20.642C313.392 20.822 313.284 20.912 313.068 20.912H309.702C309.57 20.912 309.504 20.972 309.504 21.092V31.658C309.504 31.886 309.402 32 309.198 32H306.624C306.444 32 306.354 31.898 306.354 31.694V21.146C306.354 21.062 306.336 21.002 306.3 20.966C306.276 20.93 306.228 20.912 306.156 20.912H302.682C302.454 20.912 302.34 20.822 302.34 20.642V18.968ZM312.788 32C312.608 32 312.518 31.898 312.518 31.694C312.518 31.598 312.53 31.526 312.554 31.478L317.036 19.004C317.084 18.872 317.138 18.782 317.198 18.734C317.27 18.674 317.372 18.644 317.504 18.644H320.204C320.336 18.644 320.45 18.68 320.546 18.752C320.642 18.824 320.708 18.92 320.744 19.04L325.19 31.514C325.214 31.586 325.226 31.64 325.226 31.676C325.226 31.772 325.202 31.85 325.154 31.91C325.118 31.97 325.058 32 324.974 32H322.328C322.148 32 322.034 31.916 321.986 31.748L321.05 29.12C321.026 29.048 320.996 29 320.96 28.976C320.936 28.94 320.888 28.922 320.816 28.922H316.424C316.304 28.922 316.226 28.982 316.19 29.102L315.236 31.766C315.164 31.922 315.038 32 314.858 32H312.788ZM320.078 26.528C320.198 26.528 320.258 26.48 320.258 26.384C320.258 26.312 320.252 26.258 320.24 26.222L318.728 22.01C318.692 21.938 318.65 21.902 318.602 21.902C318.566 21.902 318.53 21.944 318.494 22.028L316.964 26.222C316.94 26.294 316.928 26.348 316.928 26.384C316.928 26.48 316.994 26.528 317.126 26.528H320.078ZM324.33 18.968C324.33 18.872 324.36 18.794 324.42 18.734C324.492 18.674 324.582 18.644 324.69 18.644H335.022C335.262 18.644 335.382 18.752 335.382 18.968V20.642C335.382 20.822 335.274 20.912 335.058 20.912H331.692C331.56 20.912 331.494 20.972 331.494 21.092V31.658C331.494 31.886 331.392 32 331.188 32H328.614C328.434 32 328.344 31.898 328.344 31.694V21.146C328.344 21.062 328.326 21.002 328.29 20.966C328.266 20.93 328.218 20.912 328.146 20.912H324.672C324.444 20.912 324.33 20.822 324.33 20.642V18.968ZM344.916 21.794C344.604 21.446 344.244 21.176 343.836 20.984C343.44 20.78 342.918 20.678 342.27 20.678C341.538 20.678 340.98 20.81 340.596 21.074C340.212 21.338 340.02 21.686 340.02 22.118C340.02 22.742 340.506 23.198 341.478 23.486L344.322 24.296C345.39 24.596 346.182 25.07 346.698 25.718C347.226 26.366 347.49 27.146 347.49 28.058C347.49 28.898 347.274 29.63 346.842 30.254C346.41 30.866 345.786 31.34 344.97 31.676C344.166 32.012 343.218 32.18 342.126 32.18C340.902 32.18 339.798 31.976 338.814 31.568C337.83 31.148 337.11 30.578 336.654 29.858C336.606 29.774 336.582 29.696 336.582 29.624C336.582 29.528 336.642 29.426 336.762 29.318L338.148 28.364C338.268 28.292 338.376 28.256 338.472 28.256C338.58 28.256 338.67 28.304 338.742 28.4C339.186 28.976 339.636 29.384 340.092 29.624C340.548 29.864 341.154 29.984 341.91 29.984C342.714 29.984 343.344 29.858 343.8 29.606C344.256 29.354 344.484 28.976 344.484 28.472C344.484 28.148 344.37 27.872 344.142 27.644C343.914 27.416 343.53 27.218 342.99 27.05L340.272 26.276C339.24 25.988 338.442 25.508 337.878 24.836C337.314 24.152 337.032 23.378 337.032 22.514C337.032 21.746 337.242 21.056 337.662 20.444C338.094 19.832 338.7 19.352 339.48 19.004C340.26 18.644 341.16 18.464 342.18 18.464C343.188 18.464 344.112 18.638 344.952 18.986C345.792 19.322 346.434 19.778 346.878 20.354C346.95 20.45 346.986 20.534 346.986 20.606C346.986 20.678 346.95 20.744 346.878 20.804L345.366 21.92C345.294 21.968 345.24 21.992 345.204 21.992C345.144 21.992 345.048 21.926 344.916 21.794ZM499.391 18.968C499.391 18.872 499.421 18.794 499.481 18.734C499.553 18.674 499.643 18.644 499.751 18.644H510.083C510.323 18.644 510.443 18.752 510.443 18.968V20.642C510.443 20.822 510.335 20.912 510.119 20.912H506.753C506.621 20.912 506.555 20.972 506.555 21.092V31.658C506.555 31.886 506.453 32 506.249 32H503.675C503.495 32 503.405 31.898 503.405 31.694V21.146C503.405 21.062 503.387 21.002 503.351 20.966C503.327 20.93 503.279 20.912 503.207 20.912H499.733C499.505 20.912 499.391 20.822 499.391 20.642V18.968ZM515.693 26.294C515.621 26.294 515.561 26.318 515.513 26.366C515.477 26.414 515.459 26.468 515.459 26.528V31.586C515.459 31.73 515.417 31.838 515.333 31.91C515.261 31.97 515.141 32 514.973 32H512.705C512.561 32 512.459 31.97 512.399 31.91C512.339 31.85 512.309 31.754 512.309 31.622V18.986C512.309 18.758 512.405 18.644 512.597 18.644H515.171C515.363 18.644 515.459 18.752 515.459 18.968V23.576C515.459 23.78 515.549 23.882 515.729 23.882H519.887C520.079 23.882 520.175 23.786 520.175 23.594V18.968C520.175 18.752 520.265 18.644 520.445 18.644H523.019C523.223 18.644 523.325 18.758 523.325 18.986V31.622C523.325 31.874 523.193 32 522.929 32H520.643C520.475 32 520.355 31.97 520.283 31.91C520.211 31.85 520.175 31.742 520.175 31.586V26.528C520.175 26.456 520.151 26.402 520.103 26.366C520.067 26.318 520.007 26.294 519.923 26.294H515.693ZM525.826 18.986C525.826 18.758 525.922 18.644 526.114 18.644H535.186C535.366 18.644 535.456 18.746 535.456 18.95L535.438 20.57C535.438 20.822 535.312 20.948 535.06 20.948H529.318C529.09 20.948 528.976 21.044 528.976 21.236V23.846C528.976 24.05 529.066 24.152 529.246 24.152H533.062C533.266 24.152 533.368 24.248 533.368 24.44V26.168C533.368 26.336 533.272 26.42 533.08 26.42H529.228C529.06 26.42 528.976 26.492 528.976 26.636V29.462C528.976 29.546 528.988 29.606 529.012 29.642C529.048 29.678 529.102 29.696 529.174 29.696H535.33C535.546 29.696 535.654 29.786 535.654 29.966V31.676C535.654 31.892 535.534 32 535.294 32H526.222C526.078 32 525.976 31.97 525.916 31.91C525.856 31.85 525.826 31.754 525.826 31.622V18.986ZM548.981 21.794C548.669 21.446 548.309 21.176 547.901 20.984C547.505 20.78 546.983 20.678 546.335 20.678C545.603 20.678 545.045 20.81 544.661 21.074C544.277 21.338 544.085 21.686 544.085 22.118C544.085 22.742 544.571 23.198 545.543 23.486L548.387 24.296C549.455 24.596 550.247 25.07 550.763 25.718C551.291 26.366 551.555 27.146 551.555 28.058C551.555 28.898 551.339 29.63 550.907 30.254C550.475 30.866 549.851 31.34 549.035 31.676C548.231 32.012 547.283 32.18 546.191 32.18C544.967 32.18 543.863 31.976 542.879 31.568C541.895 31.148 541.175 30.578 540.719 29.858C540.671 29.774 540.647 29.696 540.647 29.624C540.647 29.528 540.707 29.426 540.827 29.318L542.213 28.364C542.333 28.292 542.441 28.256 542.537 28.256C542.645 28.256 542.735 28.304 542.807 28.4C543.251 28.976 543.701 29.384 544.157 29.624C544.613 29.864 545.219 29.984 545.975 29.984C546.779 29.984 547.409 29.858 547.865 29.606C548.321 29.354 548.549 28.976 548.549 28.472C548.549 28.148 548.435 27.872 548.207 27.644C547.979 27.416 547.595 27.218 547.055 27.05L544.337 26.276C543.305 25.988 542.507 25.508 541.943 24.836C541.379 24.152 541.097 23.378 541.097 22.514C541.097 21.746 541.307 21.056 541.727 20.444C542.159 19.832 542.765 19.352 543.545 19.004C544.325 18.644 545.225 18.464 546.245 18.464C547.253 18.464 548.177 18.638 549.017 18.986C549.857 19.322 550.499 19.778 550.943 20.354C551.015 20.45 551.051 20.534 551.051 20.606C551.051 20.678 551.015 20.744 550.943 20.804L549.431 21.92C549.359 21.968 549.305 21.992 549.269 21.992C549.209 21.992 549.113 21.926 548.981 21.794ZM552.828 18.968C552.828 18.872 552.858 18.794 552.918 18.734C552.99 18.674 553.08 18.644 553.188 18.644H563.52C563.76 18.644 563.88 18.752 563.88 18.968V20.642C563.88 20.822 563.772 20.912 563.556 20.912H560.19C560.058 20.912 559.992 20.972 559.992 21.092V31.658C559.992 31.886 559.89 32 559.686 32H557.112C556.932 32 556.842 31.898 556.842 31.694V21.146C556.842 21.062 556.824 21.002 556.788 20.966C556.764 20.93 556.716 20.912 556.644 20.912H553.17C552.942 20.912 552.828 20.822 552.828 20.642V18.968ZM563.276 32C563.096 32 563.006 31.898 563.006 31.694C563.006 31.598 563.018 31.526 563.042 31.478L567.524 19.004C567.572 18.872 567.626 18.782 567.686 18.734C567.758 18.674 567.86 18.644 567.992 18.644H570.692C570.824 18.644 570.938 18.68 571.034 18.752C571.13 18.824 571.196 18.92 571.232 19.04L575.678 31.514C575.702 31.586 575.714 31.64 575.714 31.676C575.714 31.772 575.69 31.85 575.642 31.91C575.606 31.97 575.546 32 575.462 32H572.816C572.636 32 572.522 31.916 572.474 31.748L571.538 29.12C571.514 29.048 571.484 29 571.448 28.976C571.424 28.94 571.376 28.922 571.304 28.922H566.912C566.792 28.922 566.714 28.982 566.678 29.102L565.724 31.766C565.652 31.922 565.526 32 565.346 32H563.276ZM570.566 26.528C570.686 26.528 570.746 26.48 570.746 26.384C570.746 26.312 570.74 26.258 570.728 26.222L569.216 22.01C569.18 21.938 569.138 21.902 569.09 21.902C569.054 21.902 569.018 21.944 568.982 22.028L567.452 26.222C567.428 26.294 567.416 26.348 567.416 26.384C567.416 26.48 567.482 26.528 567.614 26.528H570.566ZM574.819 18.968C574.819 18.872 574.849 18.794 574.909 18.734C574.981 18.674 575.071 18.644 575.179 18.644H585.511C585.751 18.644 585.871 18.752 585.871 18.968V20.642C585.871 20.822 585.763 20.912 585.547 20.912H582.181C582.049 20.912 581.983 20.972 581.983 21.092V31.658C581.983 31.886 581.881 32 581.677 32H579.103C578.923 32 578.833 31.898 578.833 31.694V21.146C578.833 21.062 578.815 21.002 578.779 20.966C578.755 20.93 578.707 20.912 578.635 20.912H575.161C574.933 20.912 574.819 20.822 574.819 20.642V18.968ZM595.405 21.794C595.093 21.446 594.733 21.176 594.325 20.984C593.929 20.78 593.407 20.678 592.759 20.678C592.027 20.678 591.469 20.81 591.085 21.074C590.701 21.338 590.509 21.686 590.509 22.118C590.509 22.742 590.995 23.198 591.967 23.486L594.811 24.296C595.879 24.596 596.671 25.07 597.187 25.718C597.715 26.366 597.979 27.146 597.979 28.058C597.979 28.898 597.763 29.63 597.331 30.254C596.899 30.866 596.275 31.34 595.459 31.676C594.655 32.012 593.707 32.18 592.615 32.18C591.391 32.18 590.287 31.976 589.303 31.568C588.319 31.148 587.599 30.578 587.143 29.858C587.095 29.774 587.071 29.696 587.071 29.624C587.071 29.528 587.131 29.426 587.251 29.318L588.637 28.364C588.757 28.292 588.865 28.256 588.961 28.256C589.069 28.256 589.159 28.304 589.231 28.4C589.675 28.976 590.125 29.384 590.581 29.624C591.037 29.864 591.643 29.984 592.399 29.984C593.203 29.984 593.833 29.858 594.289 29.606C594.745 29.354 594.973 28.976 594.973 28.472C594.973 28.148 594.859 27.872 594.631 27.644C594.403 27.416 594.019 27.218 593.479 27.05L590.761 26.276C589.729 25.988 588.931 25.508 588.367 24.836C587.803 24.152 587.521 23.378 587.521 22.514C587.521 21.746 587.731 21.056 588.151 20.444C588.583 19.832 589.189 19.352 589.969 19.004C590.749 18.644 591.649 18.464 592.669 18.464C593.677 18.464 594.601 18.638 595.441 18.986C596.281 19.322 596.923 19.778 597.367 20.354C597.439 20.45 597.475 20.534 597.475 20.606C597.475 20.678 597.439 20.744 597.367 20.804L595.855 21.92C595.783 21.968 595.729 21.992 595.693 21.992C595.633 21.992 595.537 21.926 595.405 21.794ZM749.879 18.968C749.879 18.872 749.909 18.794 749.969 18.734C750.041 18.674 750.131 18.644 750.239 18.644H760.571C760.811 18.644 760.931 18.752 760.931 18.968V20.642C760.931 20.822 760.823 20.912 760.607 20.912H757.241C757.109 20.912 757.043 20.972 757.043 21.092V31.658C757.043 31.886 756.941 32 756.737 32H754.163C753.983 32 753.893 31.898 753.893 31.694V21.146C753.893 21.062 753.875 21.002 753.839 20.966C753.815 20.93 753.767 20.912 753.695 20.912H750.221C749.993 20.912 749.879 20.822 749.879 20.642V18.968ZM766.181 26.294C766.109 26.294 766.049 26.318 766.001 26.366C765.965 26.414 765.947 26.468 765.947 26.528V31.586C765.947 31.73 765.905 31.838 765.821 31.91C765.749 31.97 765.629 32 765.461 32H763.193C763.049 32 762.947 31.97 762.887 31.91C762.827 31.85 762.797 31.754 762.797 31.622V18.986C762.797 18.758 762.893 18.644 763.085 18.644H765.659C765.851 18.644 765.947 18.752 765.947 18.968V23.576C765.947 23.78 766.037 23.882 766.217 23.882H770.375C770.567 23.882 770.663 23.786 770.663 23.594V18.968C770.663 18.752 770.753 18.644 770.933 18.644H773.507C773.711 18.644 773.813 18.758 773.813 18.986V31.622C773.813 31.874 773.681 32 773.417 32H771.131C770.963 32 770.843 31.97 770.771 31.91C770.699 31.85 770.663 31.742 770.663 31.586V26.528C770.663 26.456 770.639 26.402 770.591 26.366C770.555 26.318 770.495 26.294 770.411 26.294H766.181ZM776.315 18.986C776.315 18.758 776.411 18.644 776.603 18.644H785.675C785.855 18.644 785.945 18.746 785.945 18.95L785.927 20.57C785.927 20.822 785.801 20.948 785.549 20.948H779.807C779.579 20.948 779.465 21.044 779.465 21.236V23.846C779.465 24.05 779.555 24.152 779.735 24.152H783.551C783.755 24.152 783.857 24.248 783.857 24.44V26.168C783.857 26.336 783.761 26.42 783.569 26.42H779.717C779.549 26.42 779.465 26.492 779.465 26.636V29.462C779.465 29.546 779.477 29.606 779.501 29.642C779.537 29.678 779.591 29.696 779.663 29.696H785.819C786.035 29.696 786.143 29.786 786.143 29.966V31.676C786.143 31.892 786.023 32 785.783 32H776.711C776.567 32 776.465 31.97 776.405 31.91C776.345 31.85 776.315 31.754 776.315 31.622V18.986ZM799.469 21.794C799.157 21.446 798.797 21.176 798.389 20.984C797.993 20.78 797.471 20.678 796.823 20.678C796.091 20.678 795.533 20.81 795.149 21.074C794.765 21.338 794.573 21.686 794.573 22.118C794.573 22.742 795.059 23.198 796.031 23.486L798.875 24.296C799.943 24.596 800.735 25.07 801.251 25.718C801.779 26.366 802.043 27.146 802.043 28.058C802.043 28.898 801.827 29.63 801.395 30.254C800.963 30.866 800.339 31.34 799.523 31.676C798.719 32.012 797.771 32.18 796.679 32.18C795.455 32.18 794.351 31.976 793.367 31.568C792.383 31.148 791.663 30.578 791.207 29.858C791.159 29.774 791.135 29.696 791.135 29.624C791.135 29.528 791.195 29.426 791.315 29.318L792.701 28.364C792.821 28.292 792.929 28.256 793.025 28.256C793.133 28.256 793.223 28.304 793.295 28.4C793.739 28.976 794.189 29.384 794.645 29.624C795.101 29.864 795.707 29.984 796.463 29.984C797.267 29.984 797.897 29.858 798.353 29.606C798.809 29.354 799.037 28.976 799.037 28.472C799.037 28.148 798.923 27.872 798.695 27.644C798.467 27.416 798.083 27.218 797.543 27.05L794.825 26.276C793.793 25.988 792.995 25.508 792.431 24.836C791.867 24.152 791.585 23.378 791.585 22.514C791.585 21.746 791.795 21.056 792.215 20.444C792.647 19.832 793.253 19.352 794.033 19.004C794.813 18.644 795.713 18.464 796.733 18.464C797.741 18.464 798.665 18.638 799.505 18.986C800.345 19.322 800.987 19.778 801.431 20.354C801.503 20.45 801.539 20.534 801.539 20.606C801.539 20.678 801.503 20.744 801.431 20.804L799.919 21.92C799.847 21.968 799.793 21.992 799.757 21.992C799.697 21.992 799.601 21.926 799.469 21.794ZM803.317 18.968C803.317 18.872 803.347 18.794 803.407 18.734C803.479 18.674 803.569 18.644 803.677 18.644H814.009C814.249 18.644 814.369 18.752 814.369 18.968V20.642C814.369 20.822 814.261 20.912 814.045 20.912H810.679C810.547 20.912 810.481 20.972 810.481 21.092V31.658C810.481 31.886 810.379 32 810.175 32H807.601C807.421 32 807.331 31.898 807.331 31.694V21.146C807.331 21.062 807.313 21.002 807.277 20.966C807.253 20.93 807.205 20.912 807.133 20.912H803.659C803.431 20.912 803.317 20.822 803.317 20.642V18.968ZM813.764 32C813.584 32 813.494 31.898 813.494 31.694C813.494 31.598 813.506 31.526 813.53 31.478L818.012 19.004C818.06 18.872 818.114 18.782 818.174 18.734C818.246 18.674 818.348 18.644 818.48 18.644H821.18C821.312 18.644 821.426 18.68 821.522 18.752C821.618 18.824 821.684 18.92 821.72 19.04L826.166 31.514C826.19 31.586 826.202 31.64 826.202 31.676C826.202 31.772 826.178 31.85 826.13 31.91C826.094 31.97 826.034 32 825.95 32H823.304C823.124 32 823.01 31.916 822.962 31.748L822.026 29.12C822.002 29.048 821.972 29 821.936 28.976C821.912 28.94 821.864 28.922 821.792 28.922H817.4C817.28 28.922 817.202 28.982 817.166 29.102L816.212 31.766C816.14 31.922 816.014 32 815.834 32H813.764ZM821.054 26.528C821.174 26.528 821.234 26.48 821.234 26.384C821.234 26.312 821.228 26.258 821.216 26.222L819.704 22.01C819.668 21.938 819.626 21.902 819.578 21.902C819.542 21.902 819.506 21.944 819.47 22.028L817.94 26.222C817.916 26.294 817.904 26.348 817.904 26.384C817.904 26.48 817.97 26.528 818.102 26.528H821.054ZM825.307 18.968C825.307 18.872 825.337 18.794 825.397 18.734C825.469 18.674 825.559 18.644 825.667 18.644H835.999C836.239 18.644 836.359 18.752 836.359 18.968V20.642C836.359 20.822 836.251 20.912 836.035 20.912H832.669C832.537 20.912 832.471 20.972 832.471 21.092V31.658C832.471 31.886 832.369 32 832.165 32H829.591C829.411 32 829.321 31.898 829.321 31.694V21.146C829.321 21.062 829.303 21.002 829.267 20.966C829.243 20.93 829.195 20.912 829.123 20.912H825.649C825.421 20.912 825.307 20.822 825.307 20.642V18.968ZM845.893 21.794C845.581 21.446 845.221 21.176 844.813 20.984C844.417 20.78 843.895 20.678 843.247 20.678C842.515 20.678 841.957 20.81 841.573 21.074C841.189 21.338 840.997 21.686 840.997 22.118C840.997 22.742 841.483 23.198 842.455 23.486L845.299 24.296C846.367 24.596 847.159 25.07 847.675 25.718C848.203 26.366 848.467 27.146 848.467 28.058C848.467 28.898 848.251 29.63 847.819 30.254C847.387 30.866 846.763 31.34 845.947 31.676C845.143 32.012 844.195 32.18 843.103 32.18C841.879 32.18 840.775 31.976 839.791 31.568C838.807 31.148 838.087 30.578 837.631 29.858C837.583 29.774 837.559 29.696 837.559 29.624C837.559 29.528 837.619 29.426 837.739 29.318L839.125 28.364C839.245 28.292 839.353 28.256 839.449 28.256C839.557 28.256 839.647 28.304 839.719 28.4C840.163 28.976 840.613 29.384 841.069 29.624C841.525 29.864 842.131 29.984 842.887 29.984C843.691 29.984 844.321 29.858 844.777 29.606C845.233 29.354 845.461 28.976 845.461 28.472C845.461 28.148 845.347 27.872 845.119 27.644C844.891 27.416 844.507 27.218 843.967 27.05L841.249 26.276C840.217 25.988 839.419 25.508 838.855 24.836C838.291 24.152 838.009 23.378 838.009 22.514C838.009 21.746 838.219 21.056 838.639 20.444C839.071 19.832 839.677 19.352 840.457 19.004C841.237 18.644 842.137 18.464 843.157 18.464C844.165 18.464 845.089 18.638 845.929 18.986C846.769 19.322 847.411 19.778 847.855 20.354C847.927 20.45 847.963 20.534 847.963 20.606C847.963 20.678 847.927 20.744 847.855 20.804L846.343 21.92C846.271 21.968 846.217 21.992 846.181 21.992C846.121 21.992 846.025 21.926 845.893 21.794ZM1000.37 18.968C1000.37 18.872 1000.4 18.794 1000.46 18.734C1000.53 18.674 1000.62 18.644 1000.73 18.644H1011.06C1011.3 18.644 1011.42 18.752 1011.42 18.968V20.642C1011.42 20.822 1011.31 20.912 1011.1 20.912H1007.73C1007.6 20.912 1007.53 20.972 1007.53 21.092V31.658C1007.53 31.886 1007.43 32 1007.23 32H1004.65C1004.47 32 1004.38 31.898 1004.38 31.694V21.146C1004.38 21.062 1004.36 21.002 1004.33 20.966C1004.3 20.93 1004.26 20.912 1004.18 20.912H1000.71C1000.48 20.912 1000.37 20.822 1000.37 20.642V18.968ZM1016.67 26.294C1016.6 26.294 1016.54 26.318 1016.49 26.366C1016.45 26.414 1016.44 26.468 1016.44 26.528V31.586C1016.44 31.73 1016.39 31.838 1016.31 31.91C1016.24 31.97 1016.12 32 1015.95 32H1013.68C1013.54 32 1013.44 31.97 1013.38 31.91C1013.32 31.85 1013.29 31.754 1013.29 31.622V18.986C1013.29 18.758 1013.38 18.644 1013.57 18.644H1016.15C1016.34 18.644 1016.44 18.752 1016.44 18.968V23.576C1016.44 23.78 1016.53 23.882 1016.71 23.882H1020.86C1021.06 23.882 1021.15 23.786 1021.15 23.594V18.968C1021.15 18.752 1021.24 18.644 1021.42 18.644H1024C1024.2 18.644 1024.3 18.758 1024.3 18.986V31.622C1024.3 31.874 1024.17 32 1023.91 32H1021.62C1021.45 32 1021.33 31.97 1021.26 31.91C1021.19 31.85 1021.15 31.742 1021.15 31.586V26.528C1021.15 26.456 1021.13 26.402 1021.08 26.366C1021.04 26.318 1020.98 26.294 1020.9 26.294H1016.67ZM1026.8 18.986C1026.8 18.758 1026.9 18.644 1027.09 18.644H1036.16C1036.34 18.644 1036.43 18.746 1036.43 18.95L1036.41 20.57C1036.41 20.822 1036.29 20.948 1036.04 20.948H1030.29C1030.07 20.948 1029.95 21.044 1029.95 21.236V23.846C1029.95 24.05 1030.04 24.152 1030.22 24.152H1034.04C1034.24 24.152 1034.34 24.248 1034.34 24.44V26.168C1034.34 26.336 1034.25 26.42 1034.06 26.42H1030.2C1030.04 26.42 1029.95 26.492 1029.95 26.636V29.462C1029.95 29.546 1029.96 29.606 1029.99 29.642C1030.02 29.678 1030.08 29.696 1030.15 29.696H1036.31C1036.52 29.696 1036.63 29.786 1036.63 29.966V31.676C1036.63 31.892 1036.51 32 1036.27 32H1027.2C1027.05 32 1026.95 31.97 1026.89 31.91C1026.83 31.85 1026.8 31.754 1026.8 31.622V18.986ZM1049.96 21.794C1049.65 21.446 1049.29 21.176 1048.88 20.984C1048.48 20.78 1047.96 20.678 1047.31 20.678C1046.58 20.678 1046.02 20.81 1045.64 21.074C1045.25 21.338 1045.06 21.686 1045.06 22.118C1045.06 22.742 1045.55 23.198 1046.52 23.486L1049.36 24.296C1050.43 24.596 1051.22 25.07 1051.74 25.718C1052.27 26.366 1052.53 27.146 1052.53 28.058C1052.53 28.898 1052.32 29.63 1051.88 30.254C1051.45 30.866 1050.83 31.34 1050.01 31.676C1049.21 32.012 1048.26 32.18 1047.17 32.18C1045.94 32.18 1044.84 31.976 1043.86 31.568C1042.87 31.148 1042.15 30.578 1041.7 29.858C1041.65 29.774 1041.62 29.696 1041.62 29.624C1041.62 29.528 1041.68 29.426 1041.8 29.318L1043.19 28.364C1043.31 28.292 1043.42 28.256 1043.51 28.256C1043.62 28.256 1043.71 28.304 1043.78 28.4C1044.23 28.976 1044.68 29.384 1045.13 29.624C1045.59 29.864 1046.2 29.984 1046.95 29.984C1047.76 29.984 1048.39 29.858 1048.84 29.606C1049.3 29.354 1049.53 28.976 1049.53 28.472C1049.53 28.148 1049.41 27.872 1049.18 27.644C1048.96 27.416 1048.57 27.218 1048.03 27.05L1045.31 26.276C1044.28 25.988 1043.48 25.508 1042.92 24.836C1042.36 24.152 1042.07 23.378 1042.07 22.514C1042.07 21.746 1042.28 21.056 1042.7 20.444C1043.14 19.832 1043.74 19.352 1044.52 19.004C1045.3 18.644 1046.2 18.464 1047.22 18.464C1048.23 18.464 1049.15 18.638 1049.99 18.986C1050.83 19.322 1051.48 19.778 1051.92 20.354C1051.99 20.45 1052.03 20.534 1052.03 20.606C1052.03 20.678 1051.99 20.744 1051.92 20.804L1050.41 21.92C1050.34 21.968 1050.28 21.992 1050.25 21.992C1050.19 21.992 1050.09 21.926 1049.96 21.794ZM1053.8 18.968C1053.8 18.872 1053.83 18.794 1053.89 18.734C1053.97 18.674 1054.06 18.644 1054.16 18.644H1064.5C1064.74 18.644 1064.86 18.752 1064.86 18.968V20.642C1064.86 20.822 1064.75 20.912 1064.53 20.912H1061.17C1061.03 20.912 1060.97 20.972 1060.97 21.092V31.658C1060.97 31.886 1060.87 32 1060.66 32H1058.09C1057.91 32 1057.82 31.898 1057.82 31.694V21.146C1057.82 21.062 1057.8 21.002 1057.76 20.966C1057.74 20.93 1057.69 20.912 1057.62 20.912H1054.15C1053.92 20.912 1053.8 20.822 1053.8 20.642V18.968ZM1064.25 32C1064.07 32 1063.98 31.898 1063.98 31.694C1063.98 31.598 1063.99 31.526 1064.02 31.478L1068.5 19.004C1068.55 18.872 1068.6 18.782 1068.66 18.734C1068.73 18.674 1068.84 18.644 1068.97 18.644H1071.67C1071.8 18.644 1071.91 18.68 1072.01 18.752C1072.11 18.824 1072.17 18.92 1072.21 19.04L1076.65 31.514C1076.68 31.586 1076.69 31.64 1076.69 31.676C1076.69 31.772 1076.67 31.85 1076.62 31.91C1076.58 31.97 1076.52 32 1076.44 32H1073.79C1073.61 32 1073.5 31.916 1073.45 31.748L1072.51 29.12C1072.49 29.048 1072.46 29 1072.42 28.976C1072.4 28.94 1072.35 28.922 1072.28 28.922H1067.89C1067.77 28.922 1067.69 28.982 1067.65 29.102L1066.7 31.766C1066.63 31.922 1066.5 32 1066.32 32H1064.25ZM1071.54 26.528C1071.66 26.528 1071.72 26.48 1071.72 26.384C1071.72 26.312 1071.72 26.258 1071.7 26.222L1070.19 22.01C1070.16 21.938 1070.11 21.902 1070.07 21.902C1070.03 21.902 1069.99 21.944 1069.96 22.028L1068.43 26.222C1068.4 26.294 1068.39 26.348 1068.39 26.384C1068.39 26.48 1068.46 26.528 1068.59 26.528H1071.54ZM1075.8 18.968C1075.8 18.872 1075.83 18.794 1075.89 18.734C1075.96 18.674 1076.05 18.644 1076.16 18.644H1086.49C1086.73 18.644 1086.85 18.752 1086.85 18.968V20.642C1086.85 20.822 1086.74 20.912 1086.52 20.912H1083.16C1083.03 20.912 1082.96 20.972 1082.96 21.092V31.658C1082.96 31.886 1082.86 32 1082.65 32H1080.08C1079.9 32 1079.81 31.898 1079.81 31.694V21.146C1079.81 21.062 1079.79 21.002 1079.76 20.966C1079.73 20.93 1079.68 20.912 1079.61 20.912H1076.14C1075.91 20.912 1075.8 20.822 1075.8 20.642V18.968ZM1096.38 21.794C1096.07 21.446 1095.71 21.176 1095.3 20.984C1094.91 20.78 1094.38 20.678 1093.74 20.678C1093 20.678 1092.45 20.81 1092.06 21.074C1091.68 21.338 1091.49 21.686 1091.49 22.118C1091.49 22.742 1091.97 23.198 1092.94 23.486L1095.79 24.296C1096.86 24.596 1097.65 25.07 1098.16 25.718C1098.69 26.366 1098.96 27.146 1098.96 28.058C1098.96 28.898 1098.74 29.63 1098.31 30.254C1097.88 30.866 1097.25 31.34 1096.44 31.676C1095.63 32.012 1094.68 32.18 1093.59 32.18C1092.37 32.18 1091.26 31.976 1090.28 31.568C1089.3 31.148 1088.58 30.578 1088.12 29.858C1088.07 29.774 1088.05 29.696 1088.05 29.624C1088.05 29.528 1088.11 29.426 1088.23 29.318L1089.61 28.364C1089.73 28.292 1089.84 28.256 1089.94 28.256C1090.05 28.256 1090.14 28.304 1090.21 28.4C1090.65 28.976 1091.1 29.384 1091.56 29.624C1092.01 29.864 1092.62 29.984 1093.38 29.984C1094.18 29.984 1094.81 29.858 1095.27 29.606C1095.72 29.354 1095.95 28.976 1095.95 28.472C1095.95 28.148 1095.84 27.872 1095.61 27.644C1095.38 27.416 1095 27.218 1094.46 27.05L1091.74 26.276C1090.71 25.988 1089.91 25.508 1089.34 24.836C1088.78 24.152 1088.5 23.378 1088.5 22.514C1088.5 21.746 1088.71 21.056 1089.13 20.444C1089.56 19.832 1090.17 19.352 1090.95 19.004C1091.73 18.644 1092.63 18.464 1093.65 18.464C1094.65 18.464 1095.58 18.638 1096.42 18.986C1097.26 19.322 1097.9 19.778 1098.34 20.354C1098.42 20.45 1098.45 20.534 1098.45 20.606C1098.45 20.678 1098.42 20.744 1098.34 20.804L1096.83 21.92C1096.76 21.968 1096.71 21.992 1096.67 21.992C1096.61 21.992 1096.51 21.926 1096.38 21.794ZM1250.86 18.968C1250.86 18.872 1250.89 18.794 1250.95 18.734C1251.02 18.674 1251.11 18.644 1251.22 18.644H1261.55C1261.79 18.644 1261.91 18.752 1261.91 18.968V20.642C1261.91 20.822 1261.8 20.912 1261.58 20.912H1258.22C1258.09 20.912 1258.02 20.972 1258.02 21.092V31.658C1258.02 31.886 1257.92 32 1257.71 32H1255.14C1254.96 32 1254.87 31.898 1254.87 31.694V21.146C1254.87 21.062 1254.85 21.002 1254.82 20.966C1254.79 20.93 1254.74 20.912 1254.67 20.912H1251.2C1250.97 20.912 1250.86 20.822 1250.86 20.642V18.968ZM1267.16 26.294C1267.09 26.294 1267.03 26.318 1266.98 26.366C1266.94 26.414 1266.92 26.468 1266.92 26.528V31.586C1266.92 31.73 1266.88 31.838 1266.8 31.91C1266.73 31.97 1266.61 32 1266.44 32H1264.17C1264.03 32 1263.92 31.97 1263.86 31.91C1263.8 31.85 1263.77 31.754 1263.77 31.622V18.986C1263.77 18.758 1263.87 18.644 1264.06 18.644H1266.64C1266.83 18.644 1266.92 18.752 1266.92 18.968V23.576C1266.92 23.78 1267.01 23.882 1267.19 23.882H1271.35C1271.54 23.882 1271.64 23.786 1271.64 23.594V18.968C1271.64 18.752 1271.73 18.644 1271.91 18.644H1274.48C1274.69 18.644 1274.79 18.758 1274.79 18.986V31.622C1274.79 31.874 1274.66 32 1274.39 32H1272.11C1271.94 32 1271.82 31.97 1271.75 31.91C1271.68 31.85 1271.64 31.742 1271.64 31.586V26.528C1271.64 26.456 1271.62 26.402 1271.57 26.366C1271.53 26.318 1271.47 26.294 1271.39 26.294H1267.16ZM1277.29 18.986C1277.29 18.758 1277.39 18.644 1277.58 18.644H1286.65C1286.83 18.644 1286.92 18.746 1286.92 18.95L1286.9 20.57C1286.9 20.822 1286.78 20.948 1286.53 20.948H1280.78C1280.56 20.948 1280.44 21.044 1280.44 21.236V23.846C1280.44 24.05 1280.53 24.152 1280.71 24.152H1284.53C1284.73 24.152 1284.83 24.248 1284.83 24.44V26.168C1284.83 26.336 1284.74 26.42 1284.55 26.42H1280.69C1280.53 26.42 1280.44 26.492 1280.44 26.636V29.462C1280.44 29.546 1280.45 29.606 1280.48 29.642C1280.51 29.678 1280.57 29.696 1280.64 29.696H1286.8C1287.01 29.696 1287.12 29.786 1287.12 29.966V31.676C1287.12 31.892 1287 32 1286.76 32H1277.69C1277.54 32 1277.44 31.97 1277.38 31.91C1277.32 31.85 1277.29 31.754 1277.29 31.622V18.986ZM1300.45 21.794C1300.13 21.446 1299.77 21.176 1299.37 20.984C1298.97 20.78 1298.45 20.678 1297.8 20.678C1297.07 20.678 1296.51 20.81 1296.13 21.074C1295.74 21.338 1295.55 21.686 1295.55 22.118C1295.55 22.742 1296.04 23.198 1297.01 23.486L1299.85 24.296C1300.92 24.596 1301.71 25.07 1302.23 25.718C1302.76 26.366 1303.02 27.146 1303.02 28.058C1303.02 28.898 1302.8 29.63 1302.37 30.254C1301.94 30.866 1301.32 31.34 1300.5 31.676C1299.7 32.012 1298.75 32.18 1297.66 32.18C1296.43 32.18 1295.33 31.976 1294.34 31.568C1293.36 31.148 1292.64 30.578 1292.18 29.858C1292.14 29.774 1292.11 29.696 1292.11 29.624C1292.11 29.528 1292.17 29.426 1292.29 29.318L1293.68 28.364C1293.8 28.292 1293.91 28.256 1294 28.256C1294.11 28.256 1294.2 28.304 1294.27 28.4C1294.72 28.976 1295.17 29.384 1295.62 29.624C1296.08 29.864 1296.68 29.984 1297.44 29.984C1298.24 29.984 1298.87 29.858 1299.33 29.606C1299.79 29.354 1300.01 28.976 1300.01 28.472C1300.01 28.148 1299.9 27.872 1299.67 27.644C1299.44 27.416 1299.06 27.218 1298.52 27.05L1295.8 26.276C1294.77 25.988 1293.97 25.508 1293.41 24.836C1292.84 24.152 1292.56 23.378 1292.56 22.514C1292.56 21.746 1292.77 21.056 1293.19 20.444C1293.62 19.832 1294.23 19.352 1295.01 19.004C1295.79 18.644 1296.69 18.464 1297.71 18.464C1298.72 18.464 1299.64 18.638 1300.48 18.986C1301.32 19.322 1301.96 19.778 1302.41 20.354C1302.48 20.45 1302.52 20.534 1302.52 20.606C1302.52 20.678 1302.48 20.744 1302.41 20.804L1300.9 21.92C1300.82 21.968 1300.77 21.992 1300.73 21.992C1300.67 21.992 1300.58 21.926 1300.45 21.794ZM1304.29 18.968C1304.29 18.872 1304.32 18.794 1304.38 18.734C1304.46 18.674 1304.55 18.644 1304.65 18.644H1314.99C1315.23 18.644 1315.35 18.752 1315.35 18.968V20.642C1315.35 20.822 1315.24 20.912 1315.02 20.912H1311.66C1311.52 20.912 1311.46 20.972 1311.46 21.092V31.658C1311.46 31.886 1311.36 32 1311.15 32H1308.58C1308.4 32 1308.31 31.898 1308.31 31.694V21.146C1308.31 21.062 1308.29 21.002 1308.25 20.966C1308.23 20.93 1308.18 20.912 1308.11 20.912H1304.64C1304.41 20.912 1304.29 20.822 1304.29 20.642V18.968ZM1314.74 32C1314.56 32 1314.47 31.898 1314.47 31.694C1314.47 31.598 1314.48 31.526 1314.51 31.478L1318.99 19.004C1319.04 18.872 1319.09 18.782 1319.15 18.734C1319.22 18.674 1319.32 18.644 1319.46 18.644H1322.16C1322.29 18.644 1322.4 18.68 1322.5 18.752C1322.59 18.824 1322.66 18.92 1322.7 19.04L1327.14 31.514C1327.17 31.586 1327.18 31.64 1327.18 31.676C1327.18 31.772 1327.15 31.85 1327.11 31.91C1327.07 31.97 1327.01 32 1326.93 32H1324.28C1324.1 32 1323.99 31.916 1323.94 31.748L1323 29.12C1322.98 29.048 1322.95 29 1322.91 28.976C1322.89 28.94 1322.84 28.922 1322.77 28.922H1318.38C1318.26 28.922 1318.18 28.982 1318.14 29.102L1317.19 31.766C1317.12 31.922 1316.99 32 1316.81 32H1314.74ZM1322.03 26.528C1322.15 26.528 1322.21 26.48 1322.21 26.384C1322.21 26.312 1322.2 26.258 1322.19 26.222L1320.68 22.01C1320.64 21.938 1320.6 21.902 1320.55 21.902C1320.52 21.902 1320.48 21.944 1320.45 22.028L1318.92 26.222C1318.89 26.294 1318.88 26.348 1318.88 26.384C1318.88 26.48 1318.95 26.528 1319.08 26.528H1322.03ZM1326.28 18.968C1326.28 18.872 1326.31 18.794 1326.37 18.734C1326.45 18.674 1326.54 18.644 1326.64 18.644H1336.98C1337.22 18.644 1337.34 18.752 1337.34 18.968V20.642C1337.34 20.822 1337.23 20.912 1337.01 20.912H1333.65C1333.51 20.912 1333.45 20.972 1333.45 21.092V31.658C1333.45 31.886 1333.35 32 1333.14 32H1330.57C1330.39 32 1330.3 31.898 1330.3 31.694V21.146C1330.3 21.062 1330.28 21.002 1330.24 20.966C1330.22 20.93 1330.17 20.912 1330.1 20.912H1326.63C1326.4 20.912 1326.28 20.822 1326.28 20.642V18.968ZM1346.87 21.794C1346.56 21.446 1346.2 21.176 1345.79 20.984C1345.39 20.78 1344.87 20.678 1344.22 20.678C1343.49 20.678 1342.93 20.81 1342.55 21.074C1342.17 21.338 1341.97 21.686 1341.97 22.118C1341.97 22.742 1342.46 23.198 1343.43 23.486L1346.28 24.296C1347.34 24.596 1348.14 25.07 1348.65 25.718C1349.18 26.366 1349.44 27.146 1349.44 28.058C1349.44 28.898 1349.23 29.63 1348.8 30.254C1348.36 30.866 1347.74 31.34 1346.92 31.676C1346.12 32.012 1345.17 32.18 1344.08 32.18C1342.86 32.18 1341.75 31.976 1340.77 31.568C1339.78 31.148 1339.06 30.578 1338.61 29.858C1338.56 29.774 1338.54 29.696 1338.54 29.624C1338.54 29.528 1338.6 29.426 1338.72 29.318L1340.1 28.364C1340.22 28.292 1340.33 28.256 1340.43 28.256C1340.53 28.256 1340.62 28.304 1340.7 28.4C1341.14 28.976 1341.59 29.384 1342.05 29.624C1342.5 29.864 1343.11 29.984 1343.86 29.984C1344.67 29.984 1345.3 29.858 1345.75 29.606C1346.21 29.354 1346.44 28.976 1346.44 28.472C1346.44 28.148 1346.32 27.872 1346.1 27.644C1345.87 27.416 1345.48 27.218 1344.94 27.05L1342.23 26.276C1341.19 25.988 1340.4 25.508 1339.83 24.836C1339.27 24.152 1338.99 23.378 1338.99 22.514C1338.99 21.746 1339.2 21.056 1339.62 20.444C1340.05 19.832 1340.65 19.352 1341.43 19.004C1342.21 18.644 1343.11 18.464 1344.13 18.464C1345.14 18.464 1346.07 18.638 1346.91 18.986C1347.75 19.322 1348.39 19.778 1348.83 20.354C1348.9 20.45 1348.94 20.534 1348.94 20.606C1348.94 20.678 1348.9 20.744 1348.83 20.804L1347.32 21.92C1347.25 21.968 1347.19 21.992 1347.16 21.992C1347.1 21.992 1347 21.926 1346.87 21.794Z" fill="#7000FF"/>
<path d="M114.767 27.86C114.767 28.124 114.611 28.256 114.299 28.256H110.069C109.925 28.256 109.823 28.232 109.763 28.184C109.715 28.124 109.691 28.028 109.691 27.896V26.582C109.691 26.366 109.781 26.258 109.961 26.258H114.497C114.581 26.258 114.647 26.282 114.695 26.33C114.743 26.378 114.767 26.444 114.767 26.528V27.86ZM240.011 27.86C240.011 28.124 239.855 28.256 239.543 28.256H235.313C235.169 28.256 235.067 28.232 235.007 28.184C234.959 28.124 234.935 28.028 234.935 27.896V26.582C234.935 26.366 235.025 26.258 235.205 26.258H239.741C239.825 26.258 239.891 26.282 239.939 26.33C239.987 26.378 240.011 26.444 240.011 26.528V27.86ZM365.255 27.86C365.255 28.124 365.099 28.256 364.787 28.256H360.557C360.413 28.256 360.311 28.232 360.251 28.184C360.203 28.124 360.179 28.028 360.179 27.896V26.582C360.179 26.366 360.269 26.258 360.449 26.258H364.985C365.069 26.258 365.135 26.282 365.183 26.33C365.231 26.378 365.255 26.444 365.255 26.528V27.86ZM490.499 27.86C490.499 28.124 490.343 28.256 490.031 28.256H485.801C485.657 28.256 485.555 28.232 485.495 28.184C485.447 28.124 485.423 28.028 485.423 27.896V26.582C485.423 26.366 485.513 26.258 485.693 26.258H490.229C490.313 26.258 490.379 26.282 490.427 26.33C490.475 26.378 490.499 26.444 490.499 26.528V27.86ZM615.743 27.86C615.743 28.124 615.587 28.256 615.275 28.256H611.045C610.901 28.256 610.799 28.232 610.739 28.184C610.691 28.124 610.667 28.028 610.667 27.896V26.582C610.667 26.366 610.757 26.258 610.937 26.258H615.473C615.557 26.258 615.623 26.282 615.671 26.33C615.719 26.378 615.743 26.444 615.743 26.528V27.86ZM740.987 27.86C740.987 28.124 740.831 28.256 740.519 28.256H736.289C736.145 28.256 736.043 28.232 735.983 28.184C735.935 28.124 735.911 28.028 735.911 27.896V26.582C735.911 26.366 736.001 26.258 736.181 26.258H740.717C740.801 26.258 740.867 26.282 740.915 26.33C740.963 26.378 740.987 26.444 740.987 26.528V27.86ZM866.231 27.86C866.231 28.124 866.075 28.256 865.763 28.256H861.533C861.389 28.256 861.287 28.232 861.227 28.184C861.179 28.124 861.155 28.028 861.155 27.896V26.582C861.155 26.366 861.245 26.258 861.425 26.258H865.961C866.045 26.258 866.111 26.282 866.159 26.33C866.207 26.378 866.231 26.444 866.231 26.528V27.86ZM991.476 27.86C991.476 28.124 991.32 28.256 991.008 28.256H986.778C986.634 28.256 986.532 28.232 986.472 28.184C986.424 28.124 986.4 28.028 986.4 27.896V26.582C986.4 26.366 986.49 26.258 986.67 26.258H991.206C991.29 26.258 991.356 26.282 991.404 26.33C991.452 26.378 991.476 26.444 991.476 26.528V27.86ZM1116.72 27.86C1116.72 28.124 1116.56 28.256 1116.25 28.256H1112.02C1111.88 28.256 1111.78 28.232 1111.72 28.184C1111.67 28.124 1111.64 28.028 1111.64 27.896V26.582C1111.64 26.366 1111.73 26.258 1111.91 26.258H1116.45C1116.53 26.258 1116.6 26.282 1116.65 26.33C1116.7 26.378 1116.72 26.444 1116.72 26.528V27.86ZM1241.96 27.86C1241.96 28.124 1241.81 28.256 1241.5 28.256H1237.27C1237.12 28.256 1237.02 28.232 1236.96 28.184C1236.91 28.124 1236.89 28.028 1236.89 27.896V26.582C1236.89 26.366 1236.98 26.258 1237.16 26.258H1241.69C1241.78 26.258 1241.84 26.282 1241.89 26.33C1241.94 26.378 1241.96 26.444 1241.96 26.528V27.86ZM1367.21 27.86C1367.21 28.124 1367.05 28.256 1366.74 28.256H1362.51C1362.37 28.256 1362.26 28.232 1362.2 28.184C1362.16 28.124 1362.13 28.028 1362.13 27.896V26.582C1362.13 26.366 1362.22 26.258 1362.4 26.258H1366.94C1367.02 26.258 1367.09 26.282 1367.14 26.33C1367.18 26.378 1367.21 26.444 1367.21 26.528V27.86Z" fill="white"/>
<path d="M123.658 18.968C123.658 18.872 123.688 18.794 123.748 18.734C123.82 18.674 123.91 18.644 124.018 18.644H134.35C134.59 18.644 134.71 18.752 134.71 18.968V20.642C134.71 20.822 134.602 20.912 134.386 20.912H131.02C130.888 20.912 130.822 20.972 130.822 21.092V31.658C130.822 31.886 130.72 32 130.516 32H127.942C127.762 32 127.672 31.898 127.672 31.694V21.146C127.672 21.062 127.654 21.002 127.618 20.966C127.594 20.93 127.546 20.912 127.474 20.912H124C123.772 20.912 123.658 20.822 123.658 20.642V18.968ZM139.96 26.294C139.888 26.294 139.828 26.318 139.78 26.366C139.744 26.414 139.726 26.468 139.726 26.528V31.586C139.726 31.73 139.684 31.838 139.6 31.91C139.528 31.97 139.408 32 139.24 32H136.972C136.828 32 136.726 31.97 136.666 31.91C136.606 31.85 136.576 31.754 136.576 31.622V18.986C136.576 18.758 136.672 18.644 136.864 18.644H139.438C139.63 18.644 139.726 18.752 139.726 18.968V23.576C139.726 23.78 139.816 23.882 139.996 23.882H144.154C144.346 23.882 144.442 23.786 144.442 23.594V18.968C144.442 18.752 144.532 18.644 144.712 18.644H147.286C147.49 18.644 147.592 18.758 147.592 18.986V31.622C147.592 31.874 147.46 32 147.196 32H144.91C144.742 32 144.622 31.97 144.55 31.91C144.478 31.85 144.442 31.742 144.442 31.586V26.528C144.442 26.456 144.418 26.402 144.37 26.366C144.334 26.318 144.274 26.294 144.19 26.294H139.96ZM150.094 18.986C150.094 18.758 150.19 18.644 150.382 18.644H159.454C159.634 18.644 159.724 18.746 159.724 18.95L159.706 20.57C159.706 20.822 159.58 20.948 159.328 20.948H153.586C153.358 20.948 153.244 21.044 153.244 21.236V23.846C153.244 24.05 153.334 24.152 153.514 24.152H157.33C157.534 24.152 157.636 24.248 157.636 24.44V26.168C157.636 26.336 157.54 26.42 157.348 26.42H153.496C153.328 26.42 153.244 26.492 153.244 26.636V29.462C153.244 29.546 153.256 29.606 153.28 29.642C153.316 29.678 153.37 29.696 153.442 29.696H159.598C159.814 29.696 159.922 29.786 159.922 29.966V31.676C159.922 31.892 159.802 32 159.562 32H150.49C150.346 32 150.244 31.97 150.184 31.91C150.124 31.85 150.094 31.754 150.094 31.622V18.986ZM173.248 21.794C172.936 21.446 172.576 21.176 172.168 20.984C171.772 20.78 171.25 20.678 170.602 20.678C169.87 20.678 169.312 20.81 168.928 21.074C168.544 21.338 168.352 21.686 168.352 22.118C168.352 22.742 168.838 23.198 169.81 23.486L172.654 24.296C173.722 24.596 174.514 25.07 175.03 25.718C175.558 26.366 175.822 27.146 175.822 28.058C175.822 28.898 175.606 29.63 175.174 30.254C174.742 30.866 174.118 31.34 173.302 31.676C172.498 32.012 171.55 32.18 170.458 32.18C169.234 32.18 168.13 31.976 167.146 31.568C166.162 31.148 165.442 30.578 164.986 29.858C164.938 29.774 164.914 29.696 164.914 29.624C164.914 29.528 164.974 29.426 165.094 29.318L166.48 28.364C166.6 28.292 166.708 28.256 166.804 28.256C166.912 28.256 167.002 28.304 167.074 28.4C167.518 28.976 167.968 29.384 168.424 29.624C168.88 29.864 169.486 29.984 170.242 29.984C171.046 29.984 171.676 29.858 172.132 29.606C172.588 29.354 172.816 28.976 172.816 28.472C172.816 28.148 172.702 27.872 172.474 27.644C172.246 27.416 171.862 27.218 171.322 27.05L168.604 26.276C167.572 25.988 166.774 25.508 166.21 24.836C165.646 24.152 165.364 23.378 165.364 22.514C165.364 21.746 165.574 21.056 165.994 20.444C166.426 19.832 167.032 19.352 167.812 19.004C168.592 18.644 169.492 18.464 170.512 18.464C171.52 18.464 172.444 18.638 173.284 18.986C174.124 19.322 174.766 19.778 175.21 20.354C175.282 20.45 175.318 20.534 175.318 20.606C175.318 20.678 175.282 20.744 175.21 20.804L173.698 21.92C173.626 21.968 173.572 21.992 173.536 21.992C173.476 21.992 173.38 21.926 173.248 21.794ZM177.096 18.968C177.096 18.872 177.126 18.794 177.186 18.734C177.258 18.674 177.348 18.644 177.456 18.644H187.788C188.028 18.644 188.148 18.752 188.148 18.968V20.642C188.148 20.822 188.04 20.912 187.824 20.912H184.458C184.326 20.912 184.26 20.972 184.26 21.092V31.658C184.26 31.886 184.158 32 183.954 32H181.38C181.2 32 181.11 31.898 181.11 31.694V21.146C181.11 21.062 181.092 21.002 181.056 20.966C181.032 20.93 180.984 20.912 180.912 20.912H177.438C177.21 20.912 177.096 20.822 177.096 20.642V18.968ZM187.544 32C187.364 32 187.274 31.898 187.274 31.694C187.274 31.598 187.286 31.526 187.31 31.478L191.792 19.004C191.84 18.872 191.894 18.782 191.954 18.734C192.026 18.674 192.128 18.644 192.26 18.644H194.96C195.092 18.644 195.206 18.68 195.302 18.752C195.398 18.824 195.464 18.92 195.5 19.04L199.946 31.514C199.97 31.586 199.982 31.64 199.982 31.676C199.982 31.772 199.958 31.85 199.91 31.91C199.874 31.97 199.814 32 199.73 32H197.084C196.904 32 196.79 31.916 196.742 31.748L195.806 29.12C195.782 29.048 195.752 29 195.716 28.976C195.692 28.94 195.644 28.922 195.572 28.922H191.18C191.06 28.922 190.982 28.982 190.946 29.102L189.992 31.766C189.92 31.922 189.794 32 189.614 32H187.544ZM194.834 26.528C194.954 26.528 195.014 26.48 195.014 26.384C195.014 26.312 195.008 26.258 194.996 26.222L193.484 22.01C193.448 21.938 193.406 21.902 193.358 21.902C193.322 21.902 193.286 21.944 193.25 22.028L191.72 26.222C191.696 26.294 191.684 26.348 191.684 26.384C191.684 26.48 191.75 26.528 191.882 26.528H194.834ZM199.086 18.968C199.086 18.872 199.116 18.794 199.176 18.734C199.248 18.674 199.338 18.644 199.446 18.644H209.778C210.018 18.644 210.138 18.752 210.138 18.968V20.642C210.138 20.822 210.03 20.912 209.814 20.912H206.448C206.316 20.912 206.25 20.972 206.25 21.092V31.658C206.25 31.886 206.148 32 205.944 32H203.37C203.19 32 203.1 31.898 203.1 31.694V21.146C203.1 21.062 203.082 21.002 203.046 20.966C203.022 20.93 202.974 20.912 202.902 20.912H199.428C199.2 20.912 199.086 20.822 199.086 20.642V18.968ZM219.672 21.794C219.36 21.446 219 21.176 218.592 20.984C218.196 20.78 217.674 20.678 217.026 20.678C216.294 20.678 215.736 20.81 215.352 21.074C214.968 21.338 214.776 21.686 214.776 22.118C214.776 22.742 215.262 23.198 216.234 23.486L219.078 24.296C220.146 24.596 220.938 25.07 221.454 25.718C221.982 26.366 222.246 27.146 222.246 28.058C222.246 28.898 222.03 29.63 221.598 30.254C221.166 30.866 220.542 31.34 219.726 31.676C218.922 32.012 217.974 32.18 216.882 32.18C215.658 32.18 214.554 31.976 213.57 31.568C212.586 31.148 211.866 30.578 211.41 29.858C211.362 29.774 211.338 29.696 211.338 29.624C211.338 29.528 211.398 29.426 211.518 29.318L212.904 28.364C213.024 28.292 213.132 28.256 213.228 28.256C213.336 28.256 213.426 28.304 213.498 28.4C213.942 28.976 214.392 29.384 214.848 29.624C215.304 29.864 215.91 29.984 216.666 29.984C217.47 29.984 218.1 29.858 218.556 29.606C219.012 29.354 219.24 28.976 219.24 28.472C219.24 28.148 219.126 27.872 218.898 27.644C218.67 27.416 218.286 27.218 217.746 27.05L215.028 26.276C213.996 25.988 213.198 25.508 212.634 24.836C212.07 24.152 211.788 23.378 211.788 22.514C211.788 21.746 211.998 21.056 212.418 20.444C212.85 19.832 213.456 19.352 214.236 19.004C215.016 18.644 215.916 18.464 216.936 18.464C217.944 18.464 218.868 18.638 219.708 18.986C220.548 19.322 221.19 19.778 221.634 20.354C221.706 20.45 221.742 20.534 221.742 20.606C221.742 20.678 221.706 20.744 221.634 20.804L220.122 21.92C220.05 21.968 219.996 21.992 219.96 21.992C219.9 21.992 219.804 21.926 219.672 21.794ZM374.147 18.968C374.147 18.872 374.177 18.794 374.237 18.734C374.309 18.674 374.399 18.644 374.507 18.644H384.839C385.079 18.644 385.199 18.752 385.199 18.968V20.642C385.199 20.822 385.091 20.912 384.875 20.912H381.509C381.377 20.912 381.311 20.972 381.311 21.092V31.658C381.311 31.886 381.209 32 381.005 32H378.431C378.251 32 378.161 31.898 378.161 31.694V21.146C378.161 21.062 378.143 21.002 378.107 20.966C378.083 20.93 378.035 20.912 377.963 20.912H374.489C374.261 20.912 374.147 20.822 374.147 20.642V18.968ZM390.449 26.294C390.377 26.294 390.317 26.318 390.269 26.366C390.233 26.414 390.215 26.468 390.215 26.528V31.586C390.215 31.73 390.173 31.838 390.089 31.91C390.017 31.97 389.897 32 389.729 32H387.461C387.317 32 387.215 31.97 387.155 31.91C387.095 31.85 387.065 31.754 387.065 31.622V18.986C387.065 18.758 387.161 18.644 387.353 18.644H389.927C390.119 18.644 390.215 18.752 390.215 18.968V23.576C390.215 23.78 390.305 23.882 390.485 23.882H394.643C394.835 23.882 394.931 23.786 394.931 23.594V18.968C394.931 18.752 395.021 18.644 395.201 18.644H397.775C397.979 18.644 398.081 18.758 398.081 18.986V31.622C398.081 31.874 397.949 32 397.685 32H395.399C395.231 32 395.111 31.97 395.039 31.91C394.967 31.85 394.931 31.742 394.931 31.586V26.528C394.931 26.456 394.907 26.402 394.859 26.366C394.823 26.318 394.763 26.294 394.679 26.294H390.449ZM400.582 18.986C400.582 18.758 400.678 18.644 400.87 18.644H409.942C410.122 18.644 410.212 18.746 410.212 18.95L410.194 20.57C410.194 20.822 410.068 20.948 409.816 20.948H404.074C403.846 20.948 403.732 21.044 403.732 21.236V23.846C403.732 24.05 403.822 24.152 404.002 24.152H407.818C408.022 24.152 408.124 24.248 408.124 24.44V26.168C408.124 26.336 408.028 26.42 407.836 26.42H403.984C403.816 26.42 403.732 26.492 403.732 26.636V29.462C403.732 29.546 403.744 29.606 403.768 29.642C403.804 29.678 403.858 29.696 403.93 29.696H410.086C410.302 29.696 410.41 29.786 410.41 29.966V31.676C410.41 31.892 410.29 32 410.05 32H400.978C400.834 32 400.732 31.97 400.672 31.91C400.612 31.85 400.582 31.754 400.582 31.622V18.986ZM423.737 21.794C423.425 21.446 423.065 21.176 422.657 20.984C422.261 20.78 421.739 20.678 421.091 20.678C420.359 20.678 419.801 20.81 419.417 21.074C419.033 21.338 418.841 21.686 418.841 22.118C418.841 22.742 419.327 23.198 420.299 23.486L423.143 24.296C424.211 24.596 425.003 25.07 425.519 25.718C426.047 26.366 426.311 27.146 426.311 28.058C426.311 28.898 426.095 29.63 425.663 30.254C425.231 30.866 424.607 31.34 423.791 31.676C422.987 32.012 422.039 32.18 420.947 32.18C419.723 32.18 418.619 31.976 417.635 31.568C416.651 31.148 415.931 30.578 415.475 29.858C415.427 29.774 415.403 29.696 415.403 29.624C415.403 29.528 415.463 29.426 415.583 29.318L416.969 28.364C417.089 28.292 417.197 28.256 417.293 28.256C417.401 28.256 417.491 28.304 417.563 28.4C418.007 28.976 418.457 29.384 418.913 29.624C419.369 29.864 419.975 29.984 420.731 29.984C421.535 29.984 422.165 29.858 422.621 29.606C423.077 29.354 423.305 28.976 423.305 28.472C423.305 28.148 423.191 27.872 422.963 27.644C422.735 27.416 422.351 27.218 421.811 27.05L419.093 26.276C418.061 25.988 417.263 25.508 416.699 24.836C416.135 24.152 415.853 23.378 415.853 22.514C415.853 21.746 416.063 21.056 416.483 20.444C416.915 19.832 417.521 19.352 418.301 19.004C419.081 18.644 419.981 18.464 421.001 18.464C422.009 18.464 422.933 18.638 423.773 18.986C424.613 19.322 425.255 19.778 425.699 20.354C425.771 20.45 425.807 20.534 425.807 20.606C425.807 20.678 425.771 20.744 425.699 20.804L424.187 21.92C424.115 21.968 424.061 21.992 424.025 21.992C423.965 21.992 423.869 21.926 423.737 21.794ZM427.584 18.968C427.584 18.872 427.614 18.794 427.674 18.734C427.746 18.674 427.836 18.644 427.944 18.644H438.276C438.516 18.644 438.636 18.752 438.636 18.968V20.642C438.636 20.822 438.528 20.912 438.312 20.912H434.946C434.814 20.912 434.748 20.972 434.748 21.092V31.658C434.748 31.886 434.646 32 434.442 32H431.868C431.688 32 431.598 31.898 431.598 31.694V21.146C431.598 21.062 431.58 21.002 431.544 20.966C431.52 20.93 431.472 20.912 431.4 20.912H427.926C427.698 20.912 427.584 20.822 427.584 20.642V18.968ZM438.032 32C437.852 32 437.762 31.898 437.762 31.694C437.762 31.598 437.774 31.526 437.798 31.478L442.28 19.004C442.328 18.872 442.382 18.782 442.442 18.734C442.514 18.674 442.616 18.644 442.748 18.644H445.448C445.58 18.644 445.694 18.68 445.79 18.752C445.886 18.824 445.952 18.92 445.988 19.04L450.434 31.514C450.458 31.586 450.47 31.64 450.47 31.676C450.47 31.772 450.446 31.85 450.398 31.91C450.362 31.97 450.302 32 450.218 32H447.572C447.392 32 447.278 31.916 447.23 31.748L446.294 29.12C446.27 29.048 446.24 29 446.204 28.976C446.18 28.94 446.132 28.922 446.06 28.922H441.668C441.548 28.922 441.47 28.982 441.434 29.102L440.48 31.766C440.408 31.922 440.282 32 440.102 32H438.032ZM445.322 26.528C445.442 26.528 445.502 26.48 445.502 26.384C445.502 26.312 445.496 26.258 445.484 26.222L443.972 22.01C443.936 21.938 443.894 21.902 443.846 21.902C443.81 21.902 443.774 21.944 443.738 22.028L442.208 26.222C442.184 26.294 442.172 26.348 442.172 26.384C442.172 26.48 442.238 26.528 442.37 26.528H445.322ZM449.574 18.968C449.574 18.872 449.604 18.794 449.664 18.734C449.736 18.674 449.826 18.644 449.934 18.644H460.266C460.506 18.644 460.626 18.752 460.626 18.968V20.642C460.626 20.822 460.518 20.912 460.302 20.912H456.936C456.804 20.912 456.738 20.972 456.738 21.092V31.658C456.738 31.886 456.636 32 456.432 32H453.858C453.678 32 453.588 31.898 453.588 31.694V21.146C453.588 21.062 453.57 21.002 453.534 20.966C453.51 20.93 453.462 20.912 453.39 20.912H449.916C449.688 20.912 449.574 20.822 449.574 20.642V18.968ZM470.16 21.794C469.848 21.446 469.488 21.176 469.08 20.984C468.684 20.78 468.162 20.678 467.514 20.678C466.782 20.678 466.224 20.81 465.84 21.074C465.456 21.338 465.264 21.686 465.264 22.118C465.264 22.742 465.75 23.198 466.722 23.486L469.566 24.296C470.634 24.596 471.426 25.07 471.942 25.718C472.47 26.366 472.734 27.146 472.734 28.058C472.734 28.898 472.518 29.63 472.086 30.254C471.654 30.866 471.03 31.34 470.214 31.676C469.41 32.012 468.462 32.18 467.37 32.18C466.146 32.18 465.042 31.976 464.058 31.568C463.074 31.148 462.354 30.578 461.898 29.858C461.85 29.774 461.826 29.696 461.826 29.624C461.826 29.528 461.886 29.426 462.006 29.318L463.392 28.364C463.512 28.292 463.62 28.256 463.716 28.256C463.824 28.256 463.914 28.304 463.986 28.4C464.43 28.976 464.88 29.384 465.336 29.624C465.792 29.864 466.398 29.984 467.154 29.984C467.958 29.984 468.588 29.858 469.044 29.606C469.5 29.354 469.728 28.976 469.728 28.472C469.728 28.148 469.614 27.872 469.386 27.644C469.158 27.416 468.774 27.218 468.234 27.05L465.516 26.276C464.484 25.988 463.686 25.508 463.122 24.836C462.558 24.152 462.276 23.378 462.276 22.514C462.276 21.746 462.486 21.056 462.906 20.444C463.338 19.832 463.944 19.352 464.724 19.004C465.504 18.644 466.404 18.464 467.424 18.464C468.432 18.464 469.356 18.638 470.196 18.986C471.036 19.322 471.678 19.778 472.122 20.354C472.194 20.45 472.23 20.534 472.23 20.606C472.23 20.678 472.194 20.744 472.122 20.804L470.61 21.92C470.538 21.968 470.484 21.992 470.448 21.992C470.388 21.992 470.292 21.926 470.16 21.794ZM624.635 18.968C624.635 18.872 624.665 18.794 624.725 18.734C624.797 18.674 624.887 18.644 624.995 18.644H635.327C635.567 18.644 635.687 18.752 635.687 18.968V20.642C635.687 20.822 635.579 20.912 635.363 20.912H631.997C631.865 20.912 631.799 20.972 631.799 21.092V31.658C631.799 31.886 631.697 32 631.493 32H628.919C628.739 32 628.649 31.898 628.649 31.694V21.146C628.649 21.062 628.631 21.002 628.595 20.966C628.571 20.93 628.523 20.912 628.451 20.912H624.977C624.749 20.912 624.635 20.822 624.635 20.642V18.968ZM640.937 26.294C640.865 26.294 640.805 26.318 640.757 26.366C640.721 26.414 640.703 26.468 640.703 26.528V31.586C640.703 31.73 640.661 31.838 640.577 31.91C640.505 31.97 640.385 32 640.217 32H637.949C637.805 32 637.703 31.97 637.643 31.91C637.583 31.85 637.553 31.754 637.553 31.622V18.986C637.553 18.758 637.649 18.644 637.841 18.644H640.415C640.607 18.644 640.703 18.752 640.703 18.968V23.576C640.703 23.78 640.793 23.882 640.973 23.882H645.131C645.323 23.882 645.419 23.786 645.419 23.594V18.968C645.419 18.752 645.509 18.644 645.689 18.644H648.263C648.467 18.644 648.569 18.758 648.569 18.986V31.622C648.569 31.874 648.437 32 648.173 32H645.887C645.719 32 645.599 31.97 645.527 31.91C645.455 31.85 645.419 31.742 645.419 31.586V26.528C645.419 26.456 645.395 26.402 645.347 26.366C645.311 26.318 645.251 26.294 645.167 26.294H640.937ZM651.071 18.986C651.071 18.758 651.167 18.644 651.359 18.644H660.431C660.611 18.644 660.701 18.746 660.701 18.95L660.683 20.57C660.683 20.822 660.557 20.948 660.305 20.948H654.563C654.335 20.948 654.221 21.044 654.221 21.236V23.846C654.221 24.05 654.311 24.152 654.491 24.152H658.307C658.511 24.152 658.613 24.248 658.613 24.44V26.168C658.613 26.336 658.517 26.42 658.325 26.42H654.473C654.305 26.42 654.221 26.492 654.221 26.636V29.462C654.221 29.546 654.233 29.606 654.257 29.642C654.293 29.678 654.347 29.696 654.419 29.696H660.575C660.791 29.696 660.899 29.786 660.899 29.966V31.676C660.899 31.892 660.779 32 660.539 32H651.467C651.323 32 651.221 31.97 651.161 31.91C651.101 31.85 651.071 31.754 651.071 31.622V18.986ZM674.225 21.794C673.913 21.446 673.553 21.176 673.145 20.984C672.749 20.78 672.227 20.678 671.579 20.678C670.847 20.678 670.289 20.81 669.905 21.074C669.521 21.338 669.329 21.686 669.329 22.118C669.329 22.742 669.815 23.198 670.787 23.486L673.631 24.296C674.699 24.596 675.491 25.07 676.007 25.718C676.535 26.366 676.799 27.146 676.799 28.058C676.799 28.898 676.583 29.63 676.151 30.254C675.719 30.866 675.095 31.34 674.279 31.676C673.475 32.012 672.527 32.18 671.435 32.18C670.211 32.18 669.107 31.976 668.123 31.568C667.139 31.148 666.419 30.578 665.963 29.858C665.915 29.774 665.891 29.696 665.891 29.624C665.891 29.528 665.951 29.426 666.071 29.318L667.457 28.364C667.577 28.292 667.685 28.256 667.781 28.256C667.889 28.256 667.979 28.304 668.051 28.4C668.495 28.976 668.945 29.384 669.401 29.624C669.857 29.864 670.463 29.984 671.219 29.984C672.023 29.984 672.653 29.858 673.109 29.606C673.565 29.354 673.793 28.976 673.793 28.472C673.793 28.148 673.679 27.872 673.451 27.644C673.223 27.416 672.839 27.218 672.299 27.05L669.581 26.276C668.549 25.988 667.751 25.508 667.187 24.836C666.623 24.152 666.341 23.378 666.341 22.514C666.341 21.746 666.551 21.056 666.971 20.444C667.403 19.832 668.009 19.352 668.789 19.004C669.569 18.644 670.469 18.464 671.489 18.464C672.497 18.464 673.421 18.638 674.261 18.986C675.101 19.322 675.743 19.778 676.187 20.354C676.259 20.45 676.295 20.534 676.295 20.606C676.295 20.678 676.259 20.744 676.187 20.804L674.675 21.92C674.603 21.968 674.549 21.992 674.513 21.992C674.453 21.992 674.357 21.926 674.225 21.794ZM678.073 18.968C678.073 18.872 678.103 18.794 678.163 18.734C678.235 18.674 678.325 18.644 678.433 18.644H688.765C689.005 18.644 689.125 18.752 689.125 18.968V20.642C689.125 20.822 689.017 20.912 688.801 20.912H685.435C685.303 20.912 685.237 20.972 685.237 21.092V31.658C685.237 31.886 685.135 32 684.931 32H682.357C682.177 32 682.087 31.898 682.087 31.694V21.146C682.087 21.062 682.069 21.002 682.033 20.966C682.009 20.93 681.961 20.912 681.889 20.912H678.415C678.187 20.912 678.073 20.822 678.073 20.642V18.968ZM688.52 32C688.34 32 688.25 31.898 688.25 31.694C688.25 31.598 688.262 31.526 688.286 31.478L692.768 19.004C692.816 18.872 692.87 18.782 692.93 18.734C693.002 18.674 693.104 18.644 693.236 18.644H695.936C696.068 18.644 696.182 18.68 696.278 18.752C696.374 18.824 696.44 18.92 696.476 19.04L700.922 31.514C700.946 31.586 700.958 31.64 700.958 31.676C700.958 31.772 700.934 31.85 700.886 31.91C700.85 31.97 700.79 32 700.706 32H698.06C697.88 32 697.766 31.916 697.718 31.748L696.782 29.12C696.758 29.048 696.728 29 696.692 28.976C696.668 28.94 696.62 28.922 696.548 28.922H692.156C692.036 28.922 691.958 28.982 691.922 29.102L690.968 31.766C690.896 31.922 690.77 32 690.59 32H688.52ZM695.81 26.528C695.93 26.528 695.99 26.48 695.99 26.384C695.99 26.312 695.984 26.258 695.972 26.222L694.46 22.01C694.424 21.938 694.382 21.902 694.334 21.902C694.298 21.902 694.262 21.944 694.226 22.028L692.696 26.222C692.672 26.294 692.66 26.348 692.66 26.384C692.66 26.48 692.726 26.528 692.858 26.528H695.81ZM700.063 18.968C700.063 18.872 700.093 18.794 700.153 18.734C700.225 18.674 700.315 18.644 700.423 18.644H710.755C710.995 18.644 711.115 18.752 711.115 18.968V20.642C711.115 20.822 711.007 20.912 710.791 20.912H707.425C707.293 20.912 707.227 20.972 707.227 21.092V31.658C707.227 31.886 707.125 32 706.921 32H704.347C704.167 32 704.077 31.898 704.077 31.694V21.146C704.077 21.062 704.059 21.002 704.023 20.966C703.999 20.93 703.951 20.912 703.879 20.912H700.405C700.177 20.912 700.063 20.822 700.063 20.642V18.968ZM720.649 21.794C720.337 21.446 719.977 21.176 719.569 20.984C719.173 20.78 718.651 20.678 718.003 20.678C717.271 20.678 716.713 20.81 716.329 21.074C715.945 21.338 715.753 21.686 715.753 22.118C715.753 22.742 716.239 23.198 717.211 23.486L720.055 24.296C721.123 24.596 721.915 25.07 722.431 25.718C722.959 26.366 723.223 27.146 723.223 28.058C723.223 28.898 723.007 29.63 722.575 30.254C722.143 30.866 721.519 31.34 720.703 31.676C719.899 32.012 718.951 32.18 717.859 32.18C716.635 32.18 715.531 31.976 714.547 31.568C713.563 31.148 712.843 30.578 712.387 29.858C712.339 29.774 712.315 29.696 712.315 29.624C712.315 29.528 712.375 29.426 712.495 29.318L713.881 28.364C714.001 28.292 714.109 28.256 714.205 28.256C714.313 28.256 714.403 28.304 714.475 28.4C714.919 28.976 715.369 29.384 715.825 29.624C716.281 29.864 716.887 29.984 717.643 29.984C718.447 29.984 719.077 29.858 719.533 29.606C719.989 29.354 720.217 28.976 720.217 28.472C720.217 28.148 720.103 27.872 719.875 27.644C719.647 27.416 719.263 27.218 718.723 27.05L716.005 26.276C714.973 25.988 714.175 25.508 713.611 24.836C713.047 24.152 712.765 23.378 712.765 22.514C712.765 21.746 712.975 21.056 713.395 20.444C713.827 19.832 714.433 19.352 715.213 19.004C715.993 18.644 716.893 18.464 717.913 18.464C718.921 18.464 719.845 18.638 720.685 18.986C721.525 19.322 722.167 19.778 722.611 20.354C722.683 20.45 722.719 20.534 722.719 20.606C722.719 20.678 722.683 20.744 722.611 20.804L721.099 21.92C721.027 21.968 720.973 21.992 720.937 21.992C720.877 21.992 720.781 21.926 720.649 21.794ZM875.123 18.968C875.123 18.872 875.153 18.794 875.213 18.734C875.285 18.674 875.375 18.644 875.483 18.644H885.815C886.055 18.644 886.175 18.752 886.175 18.968V20.642C886.175 20.822 886.067 20.912 885.851 20.912H882.485C882.353 20.912 882.287 20.972 882.287 21.092V31.658C882.287 31.886 882.185 32 881.981 32H879.407C879.227 32 879.137 31.898 879.137 31.694V21.146C879.137 21.062 879.119 21.002 879.083 20.966C879.059 20.93 879.011 20.912 878.939 20.912H875.465C875.237 20.912 875.123 20.822 875.123 20.642V18.968ZM891.425 26.294C891.353 26.294 891.293 26.318 891.245 26.366C891.209 26.414 891.191 26.468 891.191 26.528V31.586C891.191 31.73 891.149 31.838 891.065 31.91C890.993 31.97 890.873 32 890.705 32H888.437C888.293 32 888.191 31.97 888.131 31.91C888.071 31.85 888.041 31.754 888.041 31.622V18.986C888.041 18.758 888.137 18.644 888.329 18.644H890.903C891.095 18.644 891.191 18.752 891.191 18.968V23.576C891.191 23.78 891.281 23.882 891.461 23.882H895.619C895.811 23.882 895.907 23.786 895.907 23.594V18.968C895.907 18.752 895.997 18.644 896.177 18.644H898.751C898.955 18.644 899.057 18.758 899.057 18.986V31.622C899.057 31.874 898.925 32 898.661 32H896.375C896.207 32 896.087 31.97 896.015 31.91C895.943 31.85 895.907 31.742 895.907 31.586V26.528C895.907 26.456 895.883 26.402 895.835 26.366C895.799 26.318 895.739 26.294 895.655 26.294H891.425ZM901.559 18.986C901.559 18.758 901.655 18.644 901.847 18.644H910.919C911.099 18.644 911.189 18.746 911.189 18.95L911.171 20.57C911.171 20.822 911.045 20.948 910.793 20.948H905.051C904.823 20.948 904.709 21.044 904.709 21.236V23.846C904.709 24.05 904.799 24.152 904.979 24.152H908.795C908.999 24.152 909.101 24.248 909.101 24.44V26.168C909.101 26.336 909.005 26.42 908.813 26.42H904.961C904.793 26.42 904.709 26.492 904.709 26.636V29.462C904.709 29.546 904.721 29.606 904.745 29.642C904.781 29.678 904.835 29.696 904.907 29.696H911.063C911.279 29.696 911.387 29.786 911.387 29.966V31.676C911.387 31.892 911.267 32 911.027 32H901.955C901.811 32 901.709 31.97 901.649 31.91C901.589 31.85 901.559 31.754 901.559 31.622V18.986ZM924.713 21.794C924.401 21.446 924.041 21.176 923.633 20.984C923.237 20.78 922.715 20.678 922.067 20.678C921.335 20.678 920.777 20.81 920.393 21.074C920.009 21.338 919.817 21.686 919.817 22.118C919.817 22.742 920.303 23.198 921.275 23.486L924.119 24.296C925.187 24.596 925.979 25.07 926.495 25.718C927.023 26.366 927.287 27.146 927.287 28.058C927.287 28.898 927.071 29.63 926.639 30.254C926.207 30.866 925.583 31.34 924.767 31.676C923.963 32.012 923.015 32.18 921.923 32.18C920.699 32.18 919.595 31.976 918.611 31.568C917.627 31.148 916.907 30.578 916.451 29.858C916.403 29.774 916.379 29.696 916.379 29.624C916.379 29.528 916.439 29.426 916.559 29.318L917.945 28.364C918.065 28.292 918.173 28.256 918.269 28.256C918.377 28.256 918.467 28.304 918.539 28.4C918.983 28.976 919.433 29.384 919.889 29.624C920.345 29.864 920.951 29.984 921.707 29.984C922.511 29.984 923.141 29.858 923.597 29.606C924.053 29.354 924.281 28.976 924.281 28.472C924.281 28.148 924.167 27.872 923.939 27.644C923.711 27.416 923.327 27.218 922.787 27.05L920.069 26.276C919.037 25.988 918.239 25.508 917.675 24.836C917.111 24.152 916.829 23.378 916.829 22.514C916.829 21.746 917.039 21.056 917.459 20.444C917.891 19.832 918.497 19.352 919.277 19.004C920.057 18.644 920.957 18.464 921.977 18.464C922.985 18.464 923.909 18.638 924.749 18.986C925.589 19.322 926.231 19.778 926.675 20.354C926.747 20.45 926.783 20.534 926.783 20.606C926.783 20.678 926.747 20.744 926.675 20.804L925.163 21.92C925.091 21.968 925.037 21.992 925.001 21.992C924.941 21.992 924.845 21.926 924.713 21.794ZM928.561 18.968C928.561 18.872 928.591 18.794 928.651 18.734C928.723 18.674 928.813 18.644 928.921 18.644H939.253C939.493 18.644 939.613 18.752 939.613 18.968V20.642C939.613 20.822 939.505 20.912 939.289 20.912H935.923C935.791 20.912 935.725 20.972 935.725 21.092V31.658C935.725 31.886 935.623 32 935.419 32H932.845C932.665 32 932.575 31.898 932.575 31.694V21.146C932.575 21.062 932.557 21.002 932.521 20.966C932.497 20.93 932.449 20.912 932.377 20.912H928.903C928.675 20.912 928.561 20.822 928.561 20.642V18.968ZM939.009 32C938.829 32 938.739 31.898 938.739 31.694C938.739 31.598 938.751 31.526 938.775 31.478L943.257 19.004C943.305 18.872 943.359 18.782 943.419 18.734C943.491 18.674 943.593 18.644 943.725 18.644H946.425C946.557 18.644 946.671 18.68 946.767 18.752C946.863 18.824 946.929 18.92 946.965 19.04L951.411 31.514C951.435 31.586 951.447 31.64 951.447 31.676C951.447 31.772 951.423 31.85 951.375 31.91C951.339 31.97 951.279 32 951.195 32H948.549C948.369 32 948.255 31.916 948.207 31.748L947.271 29.12C947.247 29.048 947.217 29 947.181 28.976C947.157 28.94 947.109 28.922 947.037 28.922H942.645C942.525 28.922 942.447 28.982 942.411 29.102L941.457 31.766C941.385 31.922 941.259 32 941.079 32H939.009ZM946.299 26.528C946.419 26.528 946.479 26.48 946.479 26.384C946.479 26.312 946.473 26.258 946.461 26.222L944.949 22.01C944.913 21.938 944.871 21.902 944.823 21.902C944.787 21.902 944.751 21.944 944.715 22.028L943.185 26.222C943.161 26.294 943.149 26.348 943.149 26.384C943.149 26.48 943.215 26.528 943.347 26.528H946.299ZM950.551 18.968C950.551 18.872 950.581 18.794 950.641 18.734C950.713 18.674 950.803 18.644 950.911 18.644H961.243C961.483 18.644 961.603 18.752 961.603 18.968V20.642C961.603 20.822 961.495 20.912 961.279 20.912H957.913C957.781 20.912 957.715 20.972 957.715 21.092V31.658C957.715 31.886 957.613 32 957.409 32H954.835C954.655 32 954.565 31.898 954.565 31.694V21.146C954.565 21.062 954.547 21.002 954.511 20.966C954.487 20.93 954.439 20.912 954.367 20.912H950.893C950.665 20.912 950.551 20.822 950.551 20.642V18.968ZM971.137 21.794C970.825 21.446 970.465 21.176 970.057 20.984C969.661 20.78 969.139 20.678 968.491 20.678C967.759 20.678 967.201 20.81 966.817 21.074C966.433 21.338 966.241 21.686 966.241 22.118C966.241 22.742 966.727 23.198 967.699 23.486L970.543 24.296C971.611 24.596 972.403 25.07 972.919 25.718C973.447 26.366 973.711 27.146 973.711 28.058C973.711 28.898 973.495 29.63 973.063 30.254C972.631 30.866 972.007 31.34 971.191 31.676C970.387 32.012 969.439 32.18 968.347 32.18C967.123 32.18 966.019 31.976 965.035 31.568C964.051 31.148 963.331 30.578 962.875 29.858C962.827 29.774 962.803 29.696 962.803 29.624C962.803 29.528 962.863 29.426 962.983 29.318L964.369 28.364C964.489 28.292 964.597 28.256 964.693 28.256C964.801 28.256 964.891 28.304 964.963 28.4C965.407 28.976 965.857 29.384 966.313 29.624C966.769 29.864 967.375 29.984 968.131 29.984C968.935 29.984 969.565 29.858 970.021 29.606C970.477 29.354 970.705 28.976 970.705 28.472C970.705 28.148 970.591 27.872 970.363 27.644C970.135 27.416 969.751 27.218 969.211 27.05L966.493 26.276C965.461 25.988 964.663 25.508 964.099 24.836C963.535 24.152 963.253 23.378 963.253 22.514C963.253 21.746 963.463 21.056 963.883 20.444C964.315 19.832 964.921 19.352 965.701 19.004C966.481 18.644 967.381 18.464 968.401 18.464C969.409 18.464 970.333 18.638 971.173 18.986C972.013 19.322 972.655 19.778 973.099 20.354C973.171 20.45 973.207 20.534 973.207 20.606C973.207 20.678 973.171 20.744 973.099 20.804L971.587 21.92C971.515 21.968 971.461 21.992 971.425 21.992C971.365 21.992 971.269 21.926 971.137 21.794ZM1125.61 18.968C1125.61 18.872 1125.64 18.794 1125.7 18.734C1125.77 18.674 1125.86 18.644 1125.97 18.644H1136.3C1136.54 18.644 1136.66 18.752 1136.66 18.968V20.642C1136.66 20.822 1136.56 20.912 1136.34 20.912H1132.97C1132.84 20.912 1132.78 20.972 1132.78 21.092V31.658C1132.78 31.886 1132.67 32 1132.47 32H1129.9C1129.72 32 1129.63 31.898 1129.63 31.694V21.146C1129.63 21.062 1129.61 21.002 1129.57 20.966C1129.55 20.93 1129.5 20.912 1129.43 20.912H1125.95C1125.73 20.912 1125.61 20.822 1125.61 20.642V18.968ZM1141.91 26.294C1141.84 26.294 1141.78 26.318 1141.73 26.366C1141.7 26.414 1141.68 26.468 1141.68 26.528V31.586C1141.68 31.73 1141.64 31.838 1141.55 31.91C1141.48 31.97 1141.36 32 1141.19 32H1138.93C1138.78 32 1138.68 31.97 1138.62 31.91C1138.56 31.85 1138.53 31.754 1138.53 31.622V18.986C1138.53 18.758 1138.63 18.644 1138.82 18.644H1141.39C1141.58 18.644 1141.68 18.752 1141.68 18.968V23.576C1141.68 23.78 1141.77 23.882 1141.95 23.882H1146.11C1146.3 23.882 1146.4 23.786 1146.4 23.594V18.968C1146.4 18.752 1146.49 18.644 1146.67 18.644H1149.24C1149.44 18.644 1149.55 18.758 1149.55 18.986V31.622C1149.55 31.874 1149.41 32 1149.15 32H1146.86C1146.7 32 1146.58 31.97 1146.5 31.91C1146.43 31.85 1146.4 31.742 1146.4 31.586V26.528C1146.4 26.456 1146.37 26.402 1146.32 26.366C1146.29 26.318 1146.23 26.294 1146.14 26.294H1141.91ZM1152.05 18.986C1152.05 18.758 1152.14 18.644 1152.34 18.644H1161.41C1161.59 18.644 1161.68 18.746 1161.68 18.95L1161.66 20.57C1161.66 20.822 1161.53 20.948 1161.28 20.948H1155.54C1155.31 20.948 1155.2 21.044 1155.2 21.236V23.846C1155.2 24.05 1155.29 24.152 1155.47 24.152H1159.28C1159.49 24.152 1159.59 24.248 1159.59 24.44V26.168C1159.59 26.336 1159.49 26.42 1159.3 26.42H1155.45C1155.28 26.42 1155.2 26.492 1155.2 26.636V29.462C1155.2 29.546 1155.21 29.606 1155.23 29.642C1155.27 29.678 1155.32 29.696 1155.4 29.696H1161.55C1161.77 29.696 1161.88 29.786 1161.88 29.966V31.676C1161.88 31.892 1161.76 32 1161.52 32H1152.44C1152.3 32 1152.2 31.97 1152.14 31.91C1152.08 31.85 1152.05 31.754 1152.05 31.622V18.986ZM1175.2 21.794C1174.89 21.446 1174.53 21.176 1174.12 20.984C1173.73 20.78 1173.2 20.678 1172.56 20.678C1171.82 20.678 1171.27 20.81 1170.88 21.074C1170.5 21.338 1170.31 21.686 1170.31 22.118C1170.31 22.742 1170.79 23.198 1171.76 23.486L1174.61 24.296C1175.68 24.596 1176.47 25.07 1176.98 25.718C1177.51 26.366 1177.78 27.146 1177.78 28.058C1177.78 28.898 1177.56 29.63 1177.13 30.254C1176.7 30.866 1176.07 31.34 1175.26 31.676C1174.45 32.012 1173.5 32.18 1172.41 32.18C1171.19 32.18 1170.08 31.976 1169.1 31.568C1168.12 31.148 1167.4 30.578 1166.94 29.858C1166.89 29.774 1166.87 29.696 1166.87 29.624C1166.87 29.528 1166.93 29.426 1167.05 29.318L1168.43 28.364C1168.55 28.292 1168.66 28.256 1168.76 28.256C1168.87 28.256 1168.96 28.304 1169.03 28.4C1169.47 28.976 1169.92 29.384 1170.38 29.624C1170.83 29.864 1171.44 29.984 1172.2 29.984C1173 29.984 1173.63 29.858 1174.09 29.606C1174.54 29.354 1174.77 28.976 1174.77 28.472C1174.77 28.148 1174.66 27.872 1174.43 27.644C1174.2 27.416 1173.82 27.218 1173.28 27.05L1170.56 26.276C1169.53 25.988 1168.73 25.508 1168.16 24.836C1167.6 24.152 1167.32 23.378 1167.32 22.514C1167.32 21.746 1167.53 21.056 1167.95 20.444C1168.38 19.832 1168.99 19.352 1169.77 19.004C1170.55 18.644 1171.45 18.464 1172.47 18.464C1173.47 18.464 1174.4 18.638 1175.24 18.986C1176.08 19.322 1176.72 19.778 1177.16 20.354C1177.24 20.45 1177.27 20.534 1177.27 20.606C1177.27 20.678 1177.24 20.744 1177.16 20.804L1175.65 21.92C1175.58 21.968 1175.53 21.992 1175.49 21.992C1175.43 21.992 1175.33 21.926 1175.2 21.794ZM1179.05 18.968C1179.05 18.872 1179.08 18.794 1179.14 18.734C1179.21 18.674 1179.3 18.644 1179.41 18.644H1189.74C1189.98 18.644 1190.1 18.752 1190.1 18.968V20.642C1190.1 20.822 1189.99 20.912 1189.78 20.912H1186.41C1186.28 20.912 1186.21 20.972 1186.21 21.092V31.658C1186.21 31.886 1186.11 32 1185.91 32H1183.33C1183.15 32 1183.06 31.898 1183.06 31.694V21.146C1183.06 21.062 1183.05 21.002 1183.01 20.966C1182.99 20.93 1182.94 20.912 1182.87 20.912H1179.39C1179.16 20.912 1179.05 20.822 1179.05 20.642V18.968ZM1189.5 32C1189.32 32 1189.23 31.898 1189.23 31.694C1189.23 31.598 1189.24 31.526 1189.26 31.478L1193.74 19.004C1193.79 18.872 1193.85 18.782 1193.91 18.734C1193.98 18.674 1194.08 18.644 1194.21 18.644H1196.91C1197.04 18.644 1197.16 18.68 1197.25 18.752C1197.35 18.824 1197.42 18.92 1197.45 19.04L1201.9 31.514C1201.92 31.586 1201.93 31.64 1201.93 31.676C1201.93 31.772 1201.91 31.85 1201.86 31.91C1201.83 31.97 1201.77 32 1201.68 32H1199.04C1198.86 32 1198.74 31.916 1198.69 31.748L1197.76 29.12C1197.73 29.048 1197.7 29 1197.67 28.976C1197.64 28.94 1197.6 28.922 1197.52 28.922H1193.13C1193.01 28.922 1192.93 28.982 1192.9 29.102L1191.94 31.766C1191.87 31.922 1191.75 32 1191.57 32H1189.5ZM1196.79 26.528C1196.91 26.528 1196.97 26.48 1196.97 26.384C1196.97 26.312 1196.96 26.258 1196.95 26.222L1195.44 22.01C1195.4 21.938 1195.36 21.902 1195.31 21.902C1195.27 21.902 1195.24 21.944 1195.2 22.028L1193.67 26.222C1193.65 26.294 1193.64 26.348 1193.64 26.384C1193.64 26.48 1193.7 26.528 1193.83 26.528H1196.79ZM1201.04 18.968C1201.04 18.872 1201.07 18.794 1201.13 18.734C1201.2 18.674 1201.29 18.644 1201.4 18.644H1211.73C1211.97 18.644 1212.09 18.752 1212.09 18.968V20.642C1212.09 20.822 1211.98 20.912 1211.77 20.912H1208.4C1208.27 20.912 1208.2 20.972 1208.2 21.092V31.658C1208.2 31.886 1208.1 32 1207.9 32H1205.32C1205.14 32 1205.05 31.898 1205.05 31.694V21.146C1205.05 21.062 1205.04 21.002 1205 20.966C1204.98 20.93 1204.93 20.912 1204.86 20.912H1201.38C1201.15 20.912 1201.04 20.822 1201.04 20.642V18.968ZM1221.63 21.794C1221.31 21.446 1220.95 21.176 1220.55 20.984C1220.15 20.78 1219.63 20.678 1218.98 20.678C1218.25 20.678 1217.69 20.81 1217.31 21.074C1216.92 21.338 1216.73 21.686 1216.73 22.118C1216.73 22.742 1217.22 23.198 1218.19 23.486L1221.03 24.296C1222.1 24.596 1222.89 25.07 1223.41 25.718C1223.94 26.366 1224.2 27.146 1224.2 28.058C1224.2 28.898 1223.98 29.63 1223.55 30.254C1223.12 30.866 1222.5 31.34 1221.68 31.676C1220.88 32.012 1219.93 32.18 1218.84 32.18C1217.61 32.18 1216.51 31.976 1215.52 31.568C1214.54 31.148 1213.82 30.578 1213.36 29.858C1213.32 29.774 1213.29 29.696 1213.29 29.624C1213.29 29.528 1213.35 29.426 1213.47 29.318L1214.86 28.364C1214.98 28.292 1215.09 28.256 1215.18 28.256C1215.29 28.256 1215.38 28.304 1215.45 28.4C1215.9 28.976 1216.35 29.384 1216.8 29.624C1217.26 29.864 1217.86 29.984 1218.62 29.984C1219.42 29.984 1220.05 29.858 1220.51 29.606C1220.97 29.354 1221.19 28.976 1221.19 28.472C1221.19 28.148 1221.08 27.872 1220.85 27.644C1220.62 27.416 1220.24 27.218 1219.7 27.05L1216.98 26.276C1215.95 25.988 1215.15 25.508 1214.59 24.836C1214.02 24.152 1213.74 23.378 1213.74 22.514C1213.74 21.746 1213.95 21.056 1214.37 20.444C1214.8 19.832 1215.41 19.352 1216.19 19.004C1216.97 18.644 1217.87 18.464 1218.89 18.464C1219.9 18.464 1220.82 18.638 1221.66 18.986C1222.5 19.322 1223.14 19.778 1223.59 20.354C1223.66 20.45 1223.7 20.534 1223.7 20.606C1223.7 20.678 1223.66 20.744 1223.59 20.804L1222.08 21.92C1222 21.968 1221.95 21.992 1221.91 21.992C1221.85 21.992 1221.76 21.926 1221.63 21.794Z" fill="#00FF19"/>
</svg>
