<svg width="1448" height="48" viewBox="0 0 1448 48" fill="none" xmlns="http://www.w3.org/2000/svg">
<rect x="26" width="1328" height="48" fill="black"/>
<path d="M0.558 19.022C0.558 18.914 0.588 18.824 0.648 18.752C0.72 18.68 0.822 18.644 0.954 18.644H11.52C11.652 18.644 11.748 18.68 11.808 18.752C11.88 18.824 11.916 18.914 11.916 19.022V20.93C11.916 21.134 11.796 21.236 11.556 21.236H8.28C8.148 21.236 8.082 21.296 8.082 21.416V31.64C8.082 31.88 7.974 32 7.758 32H4.734C4.53 32 4.428 31.886 4.428 31.658V21.488C4.428 21.392 4.416 21.326 4.392 21.29C4.368 21.254 4.32 21.236 4.248 21.236H0.936C0.684 21.236 0.558 21.134 0.558 20.93V19.022ZM17.4665 26.492C17.3945 26.492 17.3345 26.516 17.2865 26.564C17.2385 26.6 17.2145 26.654 17.2145 26.726V31.532C17.2145 31.7 17.1725 31.82 17.0885 31.892C17.0045 31.964 16.8665 32 16.6745 32H14.0105C13.8425 32 13.7285 31.97 13.6685 31.91C13.6085 31.838 13.5785 31.73 13.5785 31.586V19.022C13.5785 18.902 13.6025 18.812 13.6505 18.752C13.7105 18.68 13.7885 18.644 13.8845 18.644H16.9085C17.0045 18.644 17.0765 18.674 17.1245 18.734C17.1845 18.794 17.2145 18.878 17.2145 18.986V23.378C17.2145 23.606 17.3105 23.72 17.5025 23.72H21.0845C21.2765 23.72 21.3725 23.606 21.3725 23.378V18.986C21.3725 18.878 21.3965 18.794 21.4445 18.734C21.5045 18.674 21.5825 18.644 21.6785 18.644H24.7025C24.7985 18.644 24.8705 18.68 24.9185 18.752C24.9785 18.812 25.0085 18.902 25.0085 19.022V31.586C25.0085 31.73 24.9785 31.838 24.9185 31.91C24.8585 31.97 24.7445 32 24.5765 32H21.9125C21.7205 32 21.5825 31.964 21.4985 31.892C21.4145 31.82 21.3725 31.7 21.3725 31.532V26.726C21.3725 26.654 21.3485 26.6 21.3005 26.564C21.2645 26.516 21.2045 26.492 21.1205 26.492H17.4665ZM27.2015 19.022C27.2015 18.77 27.3035 18.644 27.5075 18.644H36.9215C37.1135 18.644 37.2095 18.758 37.2095 18.986V20.858C37.2095 20.99 37.1735 21.098 37.1015 21.182C37.0295 21.254 36.9215 21.29 36.7775 21.29H31.2155C30.9635 21.29 30.8375 21.398 30.8375 21.614V23.648C30.8375 23.756 30.8615 23.84 30.9095 23.9C30.9695 23.96 31.0415 23.99 31.1255 23.99H34.6355C34.8635 23.99 34.9775 24.098 34.9775 24.314V26.312C34.9775 26.492 34.8815 26.582 34.6895 26.582H31.1075C30.9275 26.582 30.8375 26.666 30.8375 26.834V29.12C30.8375 29.204 30.8495 29.264 30.8735 29.3C30.9095 29.336 30.9635 29.354 31.0355 29.354H37.0295C37.1495 29.354 37.2395 29.378 37.2995 29.426C37.3595 29.474 37.3895 29.552 37.3895 29.66V31.64C37.3895 31.88 37.2635 32 37.0115 32H27.6335C27.4775 32 27.3635 31.97 27.2915 31.91C27.2315 31.838 27.2015 31.73 27.2015 31.586V19.022ZM50.6053 22.01C50.3053 21.686 49.9693 21.434 49.5973 21.254C49.2373 21.062 48.7393 20.966 48.1033 20.966C47.4313 20.966 46.9213 21.08 46.5733 21.308C46.2373 21.524 46.0693 21.8 46.0693 22.136C46.0693 22.364 46.1653 22.58 46.3573 22.784C46.5493 22.988 46.8853 23.15 47.3653 23.27L50.2813 24.062C51.3613 24.35 52.1713 24.83 52.7113 25.502C53.2513 26.174 53.5213 26.978 53.5213 27.914C53.5213 28.778 53.2933 29.534 52.8373 30.182C52.3933 30.818 51.7513 31.31 50.9113 31.658C50.0713 32.006 49.0873 32.18 47.9593 32.18C46.6873 32.18 45.5293 31.97 44.4853 31.55C43.4533 31.118 42.7213 30.542 42.2893 29.822C42.2293 29.702 42.1993 29.612 42.1993 29.552C42.1993 29.456 42.2653 29.36 42.3973 29.264L44.0173 28.148C44.1493 28.064 44.2633 28.022 44.3593 28.022C44.4793 28.022 44.5753 28.07 44.6473 28.166C45.0793 28.718 45.5113 29.108 45.9433 29.336C46.3873 29.564 46.9693 29.678 47.6893 29.678C48.4213 29.678 48.9973 29.57 49.4173 29.354C49.8493 29.138 50.0653 28.826 50.0653 28.418C50.0653 27.866 49.6273 27.47 48.7513 27.23L46.0153 26.51C44.9593 26.234 44.1313 25.748 43.5313 25.052C42.9313 24.344 42.6313 23.534 42.6313 22.622C42.6313 21.842 42.8533 21.14 43.2973 20.516C43.7413 19.88 44.3653 19.382 45.1693 19.022C45.9853 18.65 46.9273 18.464 47.9953 18.464C49.0273 18.464 49.9873 18.638 50.8753 18.986C51.7633 19.334 52.4233 19.796 52.8553 20.372C52.9393 20.516 52.9813 20.618 52.9813 20.678C52.9813 20.738 52.9393 20.804 52.8553 20.876L51.0913 22.154C51.0433 22.202 50.9893 22.226 50.9293 22.226C50.8573 22.226 50.7493 22.154 50.6053 22.01ZM54.681 19.022C54.681 18.914 54.711 18.824 54.771 18.752C54.843 18.68 54.945 18.644 55.077 18.644H65.643C65.775 18.644 65.871 18.68 65.931 18.752C66.003 18.824 66.039 18.914 66.039 19.022V20.93C66.039 21.134 65.919 21.236 65.679 21.236H62.403C62.271 21.236 62.205 21.296 62.205 21.416V31.64C62.205 31.88 62.097 32 61.881 32H58.857C58.653 32 58.551 31.886 58.551 31.658V21.488C58.551 21.392 58.539 21.326 58.515 21.29C58.491 21.254 58.443 21.236 58.371 21.236H55.059C54.807 21.236 54.681 21.134 54.681 20.93V19.022ZM65.2866 32C65.1906 32 65.1126 31.97 65.0526 31.91C65.0046 31.85 64.9806 31.766 64.9806 31.658C64.9806 31.574 64.9986 31.49 65.0346 31.406L69.4626 19.022C69.5106 18.878 69.5706 18.782 69.6426 18.734C69.7146 18.674 69.8226 18.644 69.9666 18.644H73.0986C73.3866 18.644 73.5906 18.794 73.7106 19.094L78.0846 31.442C78.0966 31.478 78.1026 31.538 78.1026 31.622C78.1026 31.73 78.0786 31.82 78.0306 31.892C77.9946 31.964 77.9346 32 77.8506 32H74.7366C74.5446 32 74.4186 31.904 74.3586 31.712L73.5666 29.372C73.5306 29.3 73.4946 29.252 73.4586 29.228C73.4346 29.192 73.3806 29.174 73.2966 29.174H69.2106C69.0786 29.174 68.9946 29.24 68.9586 29.372L68.1126 31.748C68.0526 31.916 67.9206 32 67.7166 32H65.2866ZM72.4866 26.438C72.6066 26.438 72.6666 26.378 72.6666 26.258C72.6666 26.186 72.6606 26.132 72.6486 26.096L71.3526 22.478C71.3406 22.406 71.3046 22.37 71.2446 22.37C71.1966 22.37 71.1606 22.406 71.1366 22.478L69.8226 26.096C69.7986 26.144 69.7866 26.204 69.7866 26.276C69.7866 26.384 69.8586 26.438 70.0026 26.438H72.4866ZM77.0404 19.022C77.0404 18.914 77.0704 18.824 77.1304 18.752C77.2024 18.68 77.3044 18.644 77.4364 18.644H88.0024C88.1344 18.644 88.2304 18.68 88.2904 18.752C88.3624 18.824 88.3984 18.914 88.3984 19.022V20.93C88.3984 21.134 88.2784 21.236 88.0384 21.236H84.7624C84.6304 21.236 84.5644 21.296 84.5644 21.416V31.64C84.5644 31.88 84.4564 32 84.2404 32H81.2164C81.0124 32 80.9104 31.886 80.9104 31.658V21.488C80.9104 21.392 80.8984 21.326 80.8744 21.29C80.8504 21.254 80.8024 21.236 80.7304 21.236H77.4184C77.1664 21.236 77.0404 21.134 77.0404 20.93V19.022ZM97.8729 22.01C97.5729 21.686 97.2369 21.434 96.8649 21.254C96.5049 21.062 96.0069 20.966 95.3709 20.966C94.6989 20.966 94.1889 21.08 93.8409 21.308C93.5049 21.524 93.3369 21.8 93.3369 22.136C93.3369 22.364 93.4329 22.58 93.6249 22.784C93.8169 22.988 94.1529 23.15 94.6329 23.27L97.5489 24.062C98.6289 24.35 99.4389 24.83 99.9789 25.502C100.519 26.174 100.789 26.978 100.789 27.914C100.789 28.778 100.561 29.534 100.105 30.182C99.6609 30.818 99.0189 31.31 98.1789 31.658C97.3389 32.006 96.3549 32.18 95.2269 32.18C93.9549 32.18 92.7969 31.97 91.7529 31.55C90.7209 31.118 89.9889 30.542 89.5569 29.822C89.4969 29.702 89.4669 29.612 89.4669 29.552C89.4669 29.456 89.5329 29.36 89.6649 29.264L91.2849 28.148C91.4169 28.064 91.5309 28.022 91.6269 28.022C91.7469 28.022 91.8429 28.07 91.9149 28.166C92.3469 28.718 92.7789 29.108 93.2109 29.336C93.6549 29.564 94.2369 29.678 94.9569 29.678C95.6889 29.678 96.2649 29.57 96.6849 29.354C97.1169 29.138 97.3329 28.826 97.3329 28.418C97.3329 27.866 96.8949 27.47 96.0189 27.23L93.2829 26.51C92.2269 26.234 91.3989 25.748 90.7989 25.052C90.1989 24.344 89.8989 23.534 89.8989 22.622C89.8989 21.842 90.1209 21.14 90.5649 20.516C91.0089 19.88 91.6329 19.382 92.4369 19.022C93.2529 18.65 94.1949 18.464 95.2629 18.464C96.2949 18.464 97.2549 18.638 98.1429 18.986C99.0309 19.334 99.6909 19.796 100.123 20.372C100.207 20.516 100.249 20.618 100.249 20.678C100.249 20.738 100.207 20.804 100.123 20.876L98.3589 22.154C98.3109 22.202 98.2569 22.226 98.1969 22.226C98.1249 22.226 98.0169 22.154 97.8729 22.01ZM248.903 18.968C248.903 18.872 248.933 18.794 248.993 18.734C249.065 18.674 249.155 18.644 249.263 18.644H259.595C259.835 18.644 259.955 18.752 259.955 18.968V20.642C259.955 20.822 259.847 20.912 259.631 20.912H256.265C256.133 20.912 256.067 20.972 256.067 21.092V31.658C256.067 31.886 255.965 32 255.761 32H253.187C253.007 32 252.917 31.898 252.917 31.694V21.146C252.917 21.062 252.899 21.002 252.863 20.966C252.839 20.93 252.791 20.912 252.719 20.912H249.245C249.017 20.912 248.903 20.822 248.903 20.642V18.968ZM265.205 26.294C265.133 26.294 265.073 26.318 265.025 26.366C264.989 26.414 264.971 26.468 264.971 26.528V31.586C264.971 31.73 264.929 31.838 264.845 31.91C264.773 31.97 264.653 32 264.485 32H262.217C262.073 32 261.971 31.97 261.911 31.91C261.851 31.85 261.821 31.754 261.821 31.622V18.986C261.821 18.758 261.917 18.644 262.109 18.644H264.683C264.875 18.644 264.971 18.752 264.971 18.968V23.576C264.971 23.78 265.061 23.882 265.241 23.882H269.399C269.591 23.882 269.687 23.786 269.687 23.594V18.968C269.687 18.752 269.777 18.644 269.957 18.644H272.531C272.735 18.644 272.837 18.758 272.837 18.986V31.622C272.837 31.874 272.705 32 272.441 32H270.155C269.987 32 269.867 31.97 269.795 31.91C269.723 31.85 269.687 31.742 269.687 31.586V26.528C269.687 26.456 269.663 26.402 269.615 26.366C269.579 26.318 269.519 26.294 269.435 26.294H265.205ZM275.338 18.986C275.338 18.758 275.434 18.644 275.626 18.644H284.698C284.878 18.644 284.968 18.746 284.968 18.95L284.95 20.57C284.95 20.822 284.824 20.948 284.572 20.948H278.83C278.602 20.948 278.488 21.044 278.488 21.236V23.846C278.488 24.05 278.578 24.152 278.758 24.152H282.574C282.778 24.152 282.88 24.248 282.88 24.44V26.168C282.88 26.336 282.784 26.42 282.592 26.42H278.74C278.572 26.42 278.488 26.492 278.488 26.636V29.462C278.488 29.546 278.5 29.606 278.524 29.642C278.56 29.678 278.614 29.696 278.686 29.696H284.842C285.058 29.696 285.166 29.786 285.166 29.966V31.676C285.166 31.892 285.046 32 284.806 32H275.734C275.59 32 275.488 31.97 275.428 31.91C275.368 31.85 275.338 31.754 275.338 31.622V18.986ZM298.492 21.794C298.18 21.446 297.82 21.176 297.412 20.984C297.016 20.78 296.494 20.678 295.846 20.678C295.114 20.678 294.556 20.81 294.172 21.074C293.788 21.338 293.596 21.686 293.596 22.118C293.596 22.742 294.082 23.198 295.054 23.486L297.898 24.296C298.966 24.596 299.758 25.07 300.274 25.718C300.802 26.366 301.066 27.146 301.066 28.058C301.066 28.898 300.85 29.63 300.418 30.254C299.986 30.866 299.362 31.34 298.546 31.676C297.742 32.012 296.794 32.18 295.702 32.18C294.478 32.18 293.374 31.976 292.39 31.568C291.406 31.148 290.686 30.578 290.23 29.858C290.182 29.774 290.158 29.696 290.158 29.624C290.158 29.528 290.218 29.426 290.338 29.318L291.724 28.364C291.844 28.292 291.952 28.256 292.048 28.256C292.156 28.256 292.246 28.304 292.318 28.4C292.762 28.976 293.212 29.384 293.668 29.624C294.124 29.864 294.73 29.984 295.486 29.984C296.29 29.984 296.92 29.858 297.376 29.606C297.832 29.354 298.06 28.976 298.06 28.472C298.06 28.148 297.946 27.872 297.718 27.644C297.49 27.416 297.106 27.218 296.566 27.05L293.848 26.276C292.816 25.988 292.018 25.508 291.454 24.836C290.89 24.152 290.608 23.378 290.608 22.514C290.608 21.746 290.818 21.056 291.238 20.444C291.67 19.832 292.276 19.352 293.056 19.004C293.836 18.644 294.736 18.464 295.756 18.464C296.764 18.464 297.688 18.638 298.528 18.986C299.368 19.322 300.01 19.778 300.454 20.354C300.526 20.45 300.562 20.534 300.562 20.606C300.562 20.678 300.526 20.744 300.454 20.804L298.942 21.92C298.87 21.968 298.816 21.992 298.78 21.992C298.72 21.992 298.624 21.926 298.492 21.794ZM302.34 18.968C302.34 18.872 302.37 18.794 302.43 18.734C302.502 18.674 302.592 18.644 302.7 18.644H313.032C313.272 18.644 313.392 18.752 313.392 18.968V20.642C313.392 20.822 313.284 20.912 313.068 20.912H309.702C309.57 20.912 309.504 20.972 309.504 21.092V31.658C309.504 31.886 309.402 32 309.198 32H306.624C306.444 32 306.354 31.898 306.354 31.694V21.146C306.354 21.062 306.336 21.002 306.3 20.966C306.276 20.93 306.228 20.912 306.156 20.912H302.682C302.454 20.912 302.34 20.822 302.34 20.642V18.968ZM312.788 32C312.608 32 312.518 31.898 312.518 31.694C312.518 31.598 312.53 31.526 312.554 31.478L317.036 19.004C317.084 18.872 317.138 18.782 317.198 18.734C317.27 18.674 317.372 18.644 317.504 18.644H320.204C320.336 18.644 320.45 18.68 320.546 18.752C320.642 18.824 320.708 18.92 320.744 19.04L325.19 31.514C325.214 31.586 325.226 31.64 325.226 31.676C325.226 31.772 325.202 31.85 325.154 31.91C325.118 31.97 325.058 32 324.974 32H322.328C322.148 32 322.034 31.916 321.986 31.748L321.05 29.12C321.026 29.048 320.996 29 320.96 28.976C320.936 28.94 320.888 28.922 320.816 28.922H316.424C316.304 28.922 316.226 28.982 316.19 29.102L315.236 31.766C315.164 31.922 315.038 32 314.858 32H312.788ZM320.078 26.528C320.198 26.528 320.258 26.48 320.258 26.384C320.258 26.312 320.252 26.258 320.24 26.222L318.728 22.01C318.692 21.938 318.65 21.902 318.602 21.902C318.566 21.902 318.53 21.944 318.494 22.028L316.964 26.222C316.94 26.294 316.928 26.348 316.928 26.384C316.928 26.48 316.994 26.528 317.126 26.528H320.078ZM324.33 18.968C324.33 18.872 324.36 18.794 324.42 18.734C324.492 18.674 324.582 18.644 324.69 18.644H335.022C335.262 18.644 335.382 18.752 335.382 18.968V20.642C335.382 20.822 335.274 20.912 335.058 20.912H331.692C331.56 20.912 331.494 20.972 331.494 21.092V31.658C331.494 31.886 331.392 32 331.188 32H328.614C328.434 32 328.344 31.898 328.344 31.694V21.146C328.344 21.062 328.326 21.002 328.29 20.966C328.266 20.93 328.218 20.912 328.146 20.912H324.672C324.444 20.912 324.33 20.822 324.33 20.642V18.968ZM344.916 21.794C344.604 21.446 344.244 21.176 343.836 20.984C343.44 20.78 342.918 20.678 342.27 20.678C341.538 20.678 340.98 20.81 340.596 21.074C340.212 21.338 340.02 21.686 340.02 22.118C340.02 22.742 340.506 23.198 341.478 23.486L344.322 24.296C345.39 24.596 346.182 25.07 346.698 25.718C347.226 26.366 347.49 27.146 347.49 28.058C347.49 28.898 347.274 29.63 346.842 30.254C346.41 30.866 345.786 31.34 344.97 31.676C344.166 32.012 343.218 32.18 342.126 32.18C340.902 32.18 339.798 31.976 338.814 31.568C337.83 31.148 337.11 30.578 336.654 29.858C336.606 29.774 336.582 29.696 336.582 29.624C336.582 29.528 336.642 29.426 336.762 29.318L338.148 28.364C338.268 28.292 338.376 28.256 338.472 28.256C338.58 28.256 338.67 28.304 338.742 28.4C339.186 28.976 339.636 29.384 340.092 29.624C340.548 29.864 341.154 29.984 341.91 29.984C342.714 29.984 343.344 29.858 343.8 29.606C344.256 29.354 344.484 28.976 344.484 28.472C344.484 28.148 344.37 27.872 344.142 27.644C343.914 27.416 343.53 27.218 342.99 27.05L340.272 26.276C339.24 25.988 338.442 25.508 337.878 24.836C337.314 24.152 337.032 23.378 337.032 22.514C337.032 21.746 337.242 21.056 337.662 20.444C338.094 19.832 338.7 19.352 339.48 19.004C340.26 18.644 341.16 18.464 342.18 18.464C343.188 18.464 344.112 18.638 344.952 18.986C345.792 19.322 346.434 19.778 346.878 20.354C346.95 20.45 346.986 20.534 346.986 20.606C346.986 20.678 346.95 20.744 346.878 20.804L345.366 21.92C345.294 21.968 345.24 21.992 345.204 21.992C345.144 21.992 345.048 21.926 344.916 21.794ZM499.391 18.968C499.391 18.872 499.421 18.794 499.481 18.734C499.553 18.674 499.643 18.644 499.751 18.644H510.083C510.323 18.644 510.443 18.752 510.443 18.968V20.642C510.443 20.822 510.335 20.912 510.119 20.912H506.753C506.621 20.912 506.555 20.972 506.555 21.092V31.658C506.555 31.886 506.453 32 506.249 32H503.675C503.495 32 503.405 31.898 503.405 31.694V21.146C503.405 21.062 503.387 21.002 503.351 20.966C503.327 20.93 503.279 20.912 503.207 20.912H499.733C499.505 20.912 499.391 20.822 499.391 20.642V18.968ZM515.693 26.294C515.621 26.294 515.561 26.318 515.513 26.366C515.477 26.414 515.459 26.468 515.459 26.528V31.586C515.459 31.73 515.417 31.838 515.333 31.91C515.261 31.97 515.141 32 514.973 32H512.705C512.561 32 512.459 31.97 512.399 31.91C512.339 31.85 512.309 31.754 512.309 31.622V18.986C512.309 18.758 512.405 18.644 512.597 18.644H515.171C515.363 18.644 515.459 18.752 515.459 18.968V23.576C515.459 23.78 515.549 23.882 515.729 23.882H519.887C520.079 23.882 520.175 23.786 520.175 23.594V18.968C520.175 18.752 520.265 18.644 520.445 18.644H523.019C523.223 18.644 523.325 18.758 523.325 18.986V31.622C523.325 31.874 523.193 32 522.929 32H520.643C520.475 32 520.355 31.97 520.283 31.91C520.211 31.85 520.175 31.742 520.175 31.586V26.528C520.175 26.456 520.151 26.402 520.103 26.366C520.067 26.318 520.007 26.294 519.923 26.294H515.693ZM525.826 18.986C525.826 18.758 525.922 18.644 526.114 18.644H535.186C535.366 18.644 535.456 18.746 535.456 18.95L535.438 20.57C535.438 20.822 535.312 20.948 535.06 20.948H529.318C529.09 20.948 528.976 21.044 528.976 21.236V23.846C528.976 24.05 529.066 24.152 529.246 24.152H533.062C533.266 24.152 533.368 24.248 533.368 24.44V26.168C533.368 26.336 533.272 26.42 533.08 26.42H529.228C529.06 26.42 528.976 26.492 528.976 26.636V29.462C528.976 29.546 528.988 29.606 529.012 29.642C529.048 29.678 529.102 29.696 529.174 29.696H535.33C535.546 29.696 535.654 29.786 535.654 29.966V31.676C535.654 31.892 535.534 32 535.294 32H526.222C526.078 32 525.976 31.97 525.916 31.91C525.856 31.85 525.826 31.754 525.826 31.622V18.986ZM548.981 21.794C548.669 21.446 548.309 21.176 547.901 20.984C547.505 20.78 546.983 20.678 546.335 20.678C545.603 20.678 545.045 20.81 544.661 21.074C544.277 21.338 544.085 21.686 544.085 22.118C544.085 22.742 544.571 23.198 545.543 23.486L548.387 24.296C549.455 24.596 550.247 25.07 550.763 25.718C551.291 26.366 551.555 27.146 551.555 28.058C551.555 28.898 551.339 29.63 550.907 30.254C550.475 30.866 549.851 31.34 549.035 31.676C548.231 32.012 547.283 32.18 546.191 32.18C544.967 32.18 543.863 31.976 542.879 31.568C541.895 31.148 541.175 30.578 540.719 29.858C540.671 29.774 540.647 29.696 540.647 29.624C540.647 29.528 540.707 29.426 540.827 29.318L542.213 28.364C542.333 28.292 542.441 28.256 542.537 28.256C542.645 28.256 542.735 28.304 542.807 28.4C543.251 28.976 543.701 29.384 544.157 29.624C544.613 29.864 545.219 29.984 545.975 29.984C546.779 29.984 547.409 29.858 547.865 29.606C548.321 29.354 548.549 28.976 548.549 28.472C548.549 28.148 548.435 27.872 548.207 27.644C547.979 27.416 547.595 27.218 547.055 27.05L544.337 26.276C543.305 25.988 542.507 25.508 541.943 24.836C541.379 24.152 541.097 23.378 541.097 22.514C541.097 21.746 541.307 21.056 541.727 20.444C542.159 19.832 542.765 19.352 543.545 19.004C544.325 18.644 545.225 18.464 546.245 18.464C547.253 18.464 548.177 18.638 549.017 18.986C549.857 19.322 550.499 19.778 550.943 20.354C551.015 20.45 551.051 20.534 551.051 20.606C551.051 20.678 551.015 20.744 550.943 20.804L549.431 21.92C549.359 21.968 549.305 21.992 549.269 21.992C549.209 21.992 549.113 21.926 548.981 21.794ZM552.828 18.968C552.828 18.872 552.858 18.794 552.918 18.734C552.99 18.674 553.08 18.644 553.188 18.644H563.52C563.76 18.644 563.88 18.752 563.88 18.968V20.642C563.88 20.822 563.772 20.912 563.556 20.912H560.19C560.058 20.912 559.992 20.972 559.992 21.092V31.658C559.992 31.886 559.89 32 559.686 32H557.112C556.932 32 556.842 31.898 556.842 31.694V21.146C556.842 21.062 556.824 21.002 556.788 20.966C556.764 20.93 556.716 20.912 556.644 20.912H553.17C552.942 20.912 552.828 20.822 552.828 20.642V18.968ZM563.276 32C563.096 32 563.006 31.898 563.006 31.694C563.006 31.598 563.018 31.526 563.042 31.478L567.524 19.004C567.572 18.872 567.626 18.782 567.686 18.734C567.758 18.674 567.86 18.644 567.992 18.644H570.692C570.824 18.644 570.938 18.68 571.034 18.752C571.13 18.824 571.196 18.92 571.232 19.04L575.678 31.514C575.702 31.586 575.714 31.64 575.714 31.676C575.714 31.772 575.69 31.85 575.642 31.91C575.606 31.97 575.546 32 575.462 32H572.816C572.636 32 572.522 31.916 572.474 31.748L571.538 29.12C571.514 29.048 571.484 29 571.448 28.976C571.424 28.94 571.376 28.922 571.304 28.922H566.912C566.792 28.922 566.714 28.982 566.678 29.102L565.724 31.766C565.652 31.922 565.526 32 565.346 32H563.276ZM570.566 26.528C570.686 26.528 570.746 26.48 570.746 26.384C570.746 26.312 570.74 26.258 570.728 26.222L569.216 22.01C569.18 21.938 569.138 21.902 569.09 21.902C569.054 21.902 569.018 21.944 568.982 22.028L567.452 26.222C567.428 26.294 567.416 26.348 567.416 26.384C567.416 26.48 567.482 26.528 567.614 26.528H570.566ZM574.819 18.968C574.819 18.872 574.849 18.794 574.909 18.734C574.981 18.674 575.071 18.644 575.179 18.644H585.511C585.751 18.644 585.871 18.752 585.871 18.968V20.642C585.871 20.822 585.763 20.912 585.547 20.912H582.181C582.049 20.912 581.983 20.972 581.983 21.092V31.658C581.983 31.886 581.881 32 581.677 32H579.103C578.923 32 578.833 31.898 578.833 31.694V21.146C578.833 21.062 578.815 21.002 578.779 20.966C578.755 20.93 578.707 20.912 578.635 20.912H575.161C574.933 20.912 574.819 20.822 574.819 20.642V18.968ZM585.266 32C585.086 32 584.996 31.898 584.996 31.694C584.996 31.598 585.008 31.526 585.032 31.478L589.514 19.004C589.562 18.872 589.616 18.782 589.676 18.734C589.748 18.674 589.85 18.644 589.982 18.644H592.682C592.814 18.644 592.928 18.68 593.024 18.752C593.12 18.824 593.186 18.92 593.222 19.04L597.668 31.514C597.692 31.586 597.704 31.64 597.704 31.676C597.704 31.772 597.68 31.85 597.632 31.91C597.596 31.97 597.536 32 597.452 32H594.806C594.626 32 594.512 31.916 594.464 31.748L593.528 29.12C593.504 29.048 593.474 29 593.438 28.976C593.414 28.94 593.366 28.922 593.294 28.922H588.902C588.782 28.922 588.704 28.982 588.668 29.102L587.714 31.766C587.642 31.922 587.516 32 587.336 32H585.266ZM592.556 26.528C592.676 26.528 592.736 26.48 592.736 26.384C592.736 26.312 592.73 26.258 592.718 26.222L591.206 22.01C591.17 21.938 591.128 21.902 591.08 21.902C591.044 21.902 591.008 21.944 590.972 22.028L589.442 26.222C589.418 26.294 589.406 26.348 589.406 26.384C589.406 26.48 589.472 26.528 589.604 26.528H592.556ZM607.094 21.794C606.782 21.446 606.422 21.176 606.014 20.984C605.618 20.78 605.096 20.678 604.448 20.678C603.716 20.678 603.158 20.81 602.774 21.074C602.39 21.338 602.198 21.686 602.198 22.118C602.198 22.742 602.684 23.198 603.656 23.486L606.5 24.296C607.568 24.596 608.36 25.07 608.876 25.718C609.404 26.366 609.668 27.146 609.668 28.058C609.668 28.898 609.452 29.63 609.02 30.254C608.588 30.866 607.964 31.34 607.148 31.676C606.344 32.012 605.396 32.18 604.304 32.18C603.08 32.18 601.976 31.976 600.992 31.568C600.008 31.148 599.288 30.578 598.832 29.858C598.784 29.774 598.76 29.696 598.76 29.624C598.76 29.528 598.82 29.426 598.94 29.318L600.326 28.364C600.446 28.292 600.554 28.256 600.65 28.256C600.758 28.256 600.848 28.304 600.92 28.4C601.364 28.976 601.814 29.384 602.27 29.624C602.726 29.864 603.332 29.984 604.088 29.984C604.892 29.984 605.522 29.858 605.978 29.606C606.434 29.354 606.662 28.976 606.662 28.472C606.662 28.148 606.548 27.872 606.32 27.644C606.092 27.416 605.708 27.218 605.168 27.05L602.45 26.276C601.418 25.988 600.62 25.508 600.056 24.836C599.492 24.152 599.21 23.378 599.21 22.514C599.21 21.746 599.42 21.056 599.84 20.444C600.272 19.832 600.878 19.352 601.658 19.004C602.438 18.644 603.338 18.464 604.358 18.464C605.366 18.464 606.29 18.638 607.13 18.986C607.97 19.322 608.612 19.778 609.056 20.354C609.128 20.45 609.164 20.534 609.164 20.606C609.164 20.678 609.128 20.744 609.056 20.804L607.544 21.92C607.472 21.968 607.418 21.992 607.382 21.992C607.322 21.992 607.226 21.926 607.094 21.794ZM761.569 18.968C761.569 18.872 761.599 18.794 761.659 18.734C761.731 18.674 761.821 18.644 761.929 18.644H772.261C772.501 18.644 772.621 18.752 772.621 18.968V20.642C772.621 20.822 772.513 20.912 772.297 20.912H768.931C768.799 20.912 768.733 20.972 768.733 21.092V31.658C768.733 31.886 768.631 32 768.427 32H765.853C765.673 32 765.583 31.898 765.583 31.694V21.146C765.583 21.062 765.565 21.002 765.529 20.966C765.505 20.93 765.457 20.912 765.385 20.912H761.911C761.683 20.912 761.569 20.822 761.569 20.642V18.968ZM777.871 26.294C777.799 26.294 777.739 26.318 777.691 26.366C777.655 26.414 777.637 26.468 777.637 26.528V31.586C777.637 31.73 777.595 31.838 777.511 31.91C777.439 31.97 777.319 32 777.151 32H774.883C774.739 32 774.637 31.97 774.577 31.91C774.517 31.85 774.487 31.754 774.487 31.622V18.986C774.487 18.758 774.583 18.644 774.775 18.644H777.349C777.541 18.644 777.637 18.752 777.637 18.968V23.576C777.637 23.78 777.727 23.882 777.907 23.882H782.065C782.257 23.882 782.353 23.786 782.353 23.594V18.968C782.353 18.752 782.443 18.644 782.623 18.644H785.197C785.401 18.644 785.503 18.758 785.503 18.986V31.622C785.503 31.874 785.371 32 785.107 32H782.821C782.653 32 782.533 31.97 782.461 31.91C782.389 31.85 782.353 31.742 782.353 31.586V26.528C782.353 26.456 782.329 26.402 782.281 26.366C782.245 26.318 782.185 26.294 782.101 26.294H777.871ZM788.004 18.986C788.004 18.758 788.1 18.644 788.292 18.644H797.364C797.544 18.644 797.634 18.746 797.634 18.95L797.616 20.57C797.616 20.822 797.49 20.948 797.238 20.948H791.496C791.268 20.948 791.154 21.044 791.154 21.236V23.846C791.154 24.05 791.244 24.152 791.424 24.152H795.24C795.444 24.152 795.546 24.248 795.546 24.44V26.168C795.546 26.336 795.45 26.42 795.258 26.42H791.406C791.238 26.42 791.154 26.492 791.154 26.636V29.462C791.154 29.546 791.166 29.606 791.19 29.642C791.226 29.678 791.28 29.696 791.352 29.696H797.508C797.724 29.696 797.832 29.786 797.832 29.966V31.676C797.832 31.892 797.712 32 797.472 32H788.4C788.256 32 788.154 31.97 788.094 31.91C788.034 31.85 788.004 31.754 788.004 31.622V18.986ZM811.158 21.794C810.846 21.446 810.486 21.176 810.078 20.984C809.682 20.78 809.16 20.678 808.512 20.678C807.78 20.678 807.222 20.81 806.838 21.074C806.454 21.338 806.262 21.686 806.262 22.118C806.262 22.742 806.748 23.198 807.72 23.486L810.564 24.296C811.632 24.596 812.424 25.07 812.94 25.718C813.468 26.366 813.732 27.146 813.732 28.058C813.732 28.898 813.516 29.63 813.084 30.254C812.652 30.866 812.028 31.34 811.212 31.676C810.408 32.012 809.46 32.18 808.368 32.18C807.144 32.18 806.04 31.976 805.056 31.568C804.072 31.148 803.352 30.578 802.896 29.858C802.848 29.774 802.824 29.696 802.824 29.624C802.824 29.528 802.884 29.426 803.004 29.318L804.39 28.364C804.51 28.292 804.618 28.256 804.714 28.256C804.822 28.256 804.912 28.304 804.984 28.4C805.428 28.976 805.878 29.384 806.334 29.624C806.79 29.864 807.396 29.984 808.152 29.984C808.956 29.984 809.586 29.858 810.042 29.606C810.498 29.354 810.726 28.976 810.726 28.472C810.726 28.148 810.612 27.872 810.384 27.644C810.156 27.416 809.772 27.218 809.232 27.05L806.514 26.276C805.482 25.988 804.684 25.508 804.12 24.836C803.556 24.152 803.274 23.378 803.274 22.514C803.274 21.746 803.484 21.056 803.904 20.444C804.336 19.832 804.942 19.352 805.722 19.004C806.502 18.644 807.402 18.464 808.422 18.464C809.43 18.464 810.354 18.638 811.194 18.986C812.034 19.322 812.676 19.778 813.12 20.354C813.192 20.45 813.228 20.534 813.228 20.606C813.228 20.678 813.192 20.744 813.12 20.804L811.608 21.92C811.536 21.968 811.482 21.992 811.446 21.992C811.386 21.992 811.29 21.926 811.158 21.794ZM815.006 18.968C815.006 18.872 815.036 18.794 815.096 18.734C815.168 18.674 815.258 18.644 815.366 18.644H825.698C825.938 18.644 826.058 18.752 826.058 18.968V20.642C826.058 20.822 825.95 20.912 825.734 20.912H822.368C822.236 20.912 822.17 20.972 822.17 21.092V31.658C822.17 31.886 822.068 32 821.864 32H819.29C819.11 32 819.02 31.898 819.02 31.694V21.146C819.02 21.062 819.002 21.002 818.966 20.966C818.942 20.93 818.894 20.912 818.822 20.912H815.348C815.12 20.912 815.006 20.822 815.006 20.642V18.968ZM825.454 32C825.274 32 825.184 31.898 825.184 31.694C825.184 31.598 825.196 31.526 825.22 31.478L829.702 19.004C829.75 18.872 829.804 18.782 829.864 18.734C829.936 18.674 830.038 18.644 830.17 18.644H832.87C833.002 18.644 833.116 18.68 833.212 18.752C833.308 18.824 833.374 18.92 833.41 19.04L837.856 31.514C837.88 31.586 837.892 31.64 837.892 31.676C837.892 31.772 837.868 31.85 837.82 31.91C837.784 31.97 837.724 32 837.64 32H834.994C834.814 32 834.7 31.916 834.652 31.748L833.716 29.12C833.692 29.048 833.662 29 833.626 28.976C833.602 28.94 833.554 28.922 833.482 28.922H829.09C828.97 28.922 828.892 28.982 828.856 29.102L827.902 31.766C827.83 31.922 827.704 32 827.524 32H825.454ZM832.744 26.528C832.864 26.528 832.924 26.48 832.924 26.384C832.924 26.312 832.918 26.258 832.906 26.222L831.394 22.01C831.358 21.938 831.316 21.902 831.268 21.902C831.232 21.902 831.196 21.944 831.16 22.028L829.63 26.222C829.606 26.294 829.594 26.348 829.594 26.384C829.594 26.48 829.66 26.528 829.792 26.528H832.744ZM836.996 18.968C836.996 18.872 837.026 18.794 837.086 18.734C837.158 18.674 837.248 18.644 837.356 18.644H847.688C847.928 18.644 848.048 18.752 848.048 18.968V20.642C848.048 20.822 847.94 20.912 847.724 20.912H844.358C844.226 20.912 844.16 20.972 844.16 21.092V31.658C844.16 31.886 844.058 32 843.854 32H841.28C841.1 32 841.01 31.898 841.01 31.694V21.146C841.01 21.062 840.992 21.002 840.956 20.966C840.932 20.93 840.884 20.912 840.812 20.912H837.338C837.11 20.912 836.996 20.822 836.996 20.642V18.968ZM857.582 21.794C857.27 21.446 856.91 21.176 856.502 20.984C856.106 20.78 855.584 20.678 854.936 20.678C854.204 20.678 853.646 20.81 853.262 21.074C852.878 21.338 852.686 21.686 852.686 22.118C852.686 22.742 853.172 23.198 854.144 23.486L856.988 24.296C858.056 24.596 858.848 25.07 859.364 25.718C859.892 26.366 860.156 27.146 860.156 28.058C860.156 28.898 859.94 29.63 859.508 30.254C859.076 30.866 858.452 31.34 857.636 31.676C856.832 32.012 855.884 32.18 854.792 32.18C853.568 32.18 852.464 31.976 851.48 31.568C850.496 31.148 849.776 30.578 849.32 29.858C849.272 29.774 849.248 29.696 849.248 29.624C849.248 29.528 849.308 29.426 849.428 29.318L850.814 28.364C850.934 28.292 851.042 28.256 851.138 28.256C851.246 28.256 851.336 28.304 851.408 28.4C851.852 28.976 852.302 29.384 852.758 29.624C853.214 29.864 853.82 29.984 854.576 29.984C855.38 29.984 856.01 29.858 856.466 29.606C856.922 29.354 857.15 28.976 857.15 28.472C857.15 28.148 857.036 27.872 856.808 27.644C856.58 27.416 856.196 27.218 855.656 27.05L852.938 26.276C851.906 25.988 851.108 25.508 850.544 24.836C849.98 24.152 849.698 23.378 849.698 22.514C849.698 21.746 849.908 21.056 850.328 20.444C850.76 19.832 851.366 19.352 852.146 19.004C852.926 18.644 853.826 18.464 854.846 18.464C855.854 18.464 856.778 18.638 857.618 18.986C858.458 19.322 859.1 19.778 859.544 20.354C859.616 20.45 859.652 20.534 859.652 20.606C859.652 20.678 859.616 20.744 859.544 20.804L858.032 21.92C857.96 21.968 857.906 21.992 857.87 21.992C857.81 21.992 857.714 21.926 857.582 21.794ZM1012.06 18.968C1012.06 18.872 1012.09 18.794 1012.15 18.734C1012.22 18.674 1012.31 18.644 1012.42 18.644H1022.75C1022.99 18.644 1023.11 18.752 1023.11 18.968V20.642C1023.11 20.822 1023 20.912 1022.78 20.912H1019.42C1019.29 20.912 1019.22 20.972 1019.22 21.092V31.658C1019.22 31.886 1019.12 32 1018.91 32H1016.34C1016.16 32 1016.07 31.898 1016.07 31.694V21.146C1016.07 21.062 1016.05 21.002 1016.02 20.966C1015.99 20.93 1015.94 20.912 1015.87 20.912H1012.4C1012.17 20.912 1012.06 20.822 1012.06 20.642V18.968ZM1028.36 26.294C1028.29 26.294 1028.23 26.318 1028.18 26.366C1028.14 26.414 1028.12 26.468 1028.12 26.528V31.586C1028.12 31.73 1028.08 31.838 1028 31.91C1027.93 31.97 1027.81 32 1027.64 32H1025.37C1025.23 32 1025.12 31.97 1025.06 31.91C1025 31.85 1024.97 31.754 1024.97 31.622V18.986C1024.97 18.758 1025.07 18.644 1025.26 18.644H1027.84C1028.03 18.644 1028.12 18.752 1028.12 18.968V23.576C1028.12 23.78 1028.21 23.882 1028.39 23.882H1032.55C1032.74 23.882 1032.84 23.786 1032.84 23.594V18.968C1032.84 18.752 1032.93 18.644 1033.11 18.644H1035.68C1035.89 18.644 1035.99 18.758 1035.99 18.986V31.622C1035.99 31.874 1035.86 32 1035.59 32H1033.31C1033.14 32 1033.02 31.97 1032.95 31.91C1032.88 31.85 1032.84 31.742 1032.84 31.586V26.528C1032.84 26.456 1032.82 26.402 1032.77 26.366C1032.73 26.318 1032.67 26.294 1032.59 26.294H1028.36ZM1038.49 18.986C1038.49 18.758 1038.59 18.644 1038.78 18.644H1047.85C1048.03 18.644 1048.12 18.746 1048.12 18.95L1048.1 20.57C1048.1 20.822 1047.98 20.948 1047.73 20.948H1041.98C1041.76 20.948 1041.64 21.044 1041.64 21.236V23.846C1041.64 24.05 1041.73 24.152 1041.91 24.152H1045.73C1045.93 24.152 1046.03 24.248 1046.03 24.44V26.168C1046.03 26.336 1045.94 26.42 1045.75 26.42H1041.89C1041.73 26.42 1041.64 26.492 1041.64 26.636V29.462C1041.64 29.546 1041.65 29.606 1041.68 29.642C1041.71 29.678 1041.77 29.696 1041.84 29.696H1048C1048.21 29.696 1048.32 29.786 1048.32 29.966V31.676C1048.32 31.892 1048.2 32 1047.96 32H1038.89C1038.74 32 1038.64 31.97 1038.58 31.91C1038.52 31.85 1038.49 31.754 1038.49 31.622V18.986ZM1061.65 21.794C1061.33 21.446 1060.97 21.176 1060.57 20.984C1060.17 20.78 1059.65 20.678 1059 20.678C1058.27 20.678 1057.71 20.81 1057.33 21.074C1056.94 21.338 1056.75 21.686 1056.75 22.118C1056.75 22.742 1057.24 23.198 1058.21 23.486L1061.05 24.296C1062.12 24.596 1062.91 25.07 1063.43 25.718C1063.96 26.366 1064.22 27.146 1064.22 28.058C1064.22 28.898 1064 29.63 1063.57 30.254C1063.14 30.866 1062.52 31.34 1061.7 31.676C1060.9 32.012 1059.95 32.18 1058.86 32.18C1057.63 32.18 1056.53 31.976 1055.54 31.568C1054.56 31.148 1053.84 30.578 1053.38 29.858C1053.34 29.774 1053.31 29.696 1053.31 29.624C1053.31 29.528 1053.37 29.426 1053.49 29.318L1054.88 28.364C1055 28.292 1055.11 28.256 1055.2 28.256C1055.31 28.256 1055.4 28.304 1055.47 28.4C1055.92 28.976 1056.37 29.384 1056.82 29.624C1057.28 29.864 1057.88 29.984 1058.64 29.984C1059.44 29.984 1060.07 29.858 1060.53 29.606C1060.99 29.354 1061.21 28.976 1061.21 28.472C1061.21 28.148 1061.1 27.872 1060.87 27.644C1060.64 27.416 1060.26 27.218 1059.72 27.05L1057 26.276C1055.97 25.988 1055.17 25.508 1054.61 24.836C1054.04 24.152 1053.76 23.378 1053.76 22.514C1053.76 21.746 1053.97 21.056 1054.39 20.444C1054.82 19.832 1055.43 19.352 1056.21 19.004C1056.99 18.644 1057.89 18.464 1058.91 18.464C1059.92 18.464 1060.84 18.638 1061.68 18.986C1062.52 19.322 1063.16 19.778 1063.61 20.354C1063.68 20.45 1063.72 20.534 1063.72 20.606C1063.72 20.678 1063.68 20.744 1063.61 20.804L1062.1 21.92C1062.02 21.968 1061.97 21.992 1061.93 21.992C1061.87 21.992 1061.78 21.926 1061.65 21.794ZM1065.49 18.968C1065.49 18.872 1065.52 18.794 1065.58 18.734C1065.66 18.674 1065.75 18.644 1065.85 18.644H1076.19C1076.43 18.644 1076.55 18.752 1076.55 18.968V20.642C1076.55 20.822 1076.44 20.912 1076.22 20.912H1072.86C1072.72 20.912 1072.66 20.972 1072.66 21.092V31.658C1072.66 31.886 1072.56 32 1072.35 32H1069.78C1069.6 32 1069.51 31.898 1069.51 31.694V21.146C1069.51 21.062 1069.49 21.002 1069.45 20.966C1069.43 20.93 1069.38 20.912 1069.31 20.912H1065.84C1065.61 20.912 1065.49 20.822 1065.49 20.642V18.968ZM1075.94 32C1075.76 32 1075.67 31.898 1075.67 31.694C1075.67 31.598 1075.68 31.526 1075.71 31.478L1080.19 19.004C1080.24 18.872 1080.29 18.782 1080.35 18.734C1080.42 18.674 1080.53 18.644 1080.66 18.644H1083.36C1083.49 18.644 1083.6 18.68 1083.7 18.752C1083.8 18.824 1083.86 18.92 1083.9 19.04L1088.34 31.514C1088.37 31.586 1088.38 31.64 1088.38 31.676C1088.38 31.772 1088.36 31.85 1088.31 31.91C1088.27 31.97 1088.21 32 1088.13 32H1085.48C1085.3 32 1085.19 31.916 1085.14 31.748L1084.2 29.12C1084.18 29.048 1084.15 29 1084.11 28.976C1084.09 28.94 1084.04 28.922 1083.97 28.922H1079.58C1079.46 28.922 1079.38 28.982 1079.34 29.102L1078.39 31.766C1078.32 31.922 1078.19 32 1078.01 32H1075.94ZM1083.23 26.528C1083.35 26.528 1083.41 26.48 1083.41 26.384C1083.41 26.312 1083.41 26.258 1083.39 26.222L1081.88 22.01C1081.85 21.938 1081.8 21.902 1081.76 21.902C1081.72 21.902 1081.68 21.944 1081.65 22.028L1080.12 26.222C1080.09 26.294 1080.08 26.348 1080.08 26.384C1080.08 26.48 1080.15 26.528 1080.28 26.528H1083.23ZM1087.48 18.968C1087.48 18.872 1087.51 18.794 1087.57 18.734C1087.65 18.674 1087.74 18.644 1087.84 18.644H1098.18C1098.42 18.644 1098.54 18.752 1098.54 18.968V20.642C1098.54 20.822 1098.43 20.912 1098.21 20.912H1094.85C1094.71 20.912 1094.65 20.972 1094.65 21.092V31.658C1094.65 31.886 1094.55 32 1094.34 32H1091.77C1091.59 32 1091.5 31.898 1091.5 31.694V21.146C1091.5 21.062 1091.48 21.002 1091.44 20.966C1091.42 20.93 1091.37 20.912 1091.3 20.912H1087.83C1087.6 20.912 1087.48 20.822 1087.48 20.642V18.968ZM1108.07 21.794C1107.76 21.446 1107.4 21.176 1106.99 20.984C1106.59 20.78 1106.07 20.678 1105.42 20.678C1104.69 20.678 1104.13 20.81 1103.75 21.074C1103.37 21.338 1103.17 21.686 1103.17 22.118C1103.17 22.742 1103.66 23.198 1104.63 23.486L1107.48 24.296C1108.54 24.596 1109.34 25.07 1109.85 25.718C1110.38 26.366 1110.64 27.146 1110.64 28.058C1110.64 28.898 1110.43 29.63 1110 30.254C1109.56 30.866 1108.94 31.34 1108.12 31.676C1107.32 32.012 1106.37 32.18 1105.28 32.18C1104.06 32.18 1102.95 31.976 1101.97 31.568C1100.98 31.148 1100.26 30.578 1099.81 29.858C1099.76 29.774 1099.74 29.696 1099.74 29.624C1099.74 29.528 1099.8 29.426 1099.92 29.318L1101.3 28.364C1101.42 28.292 1101.53 28.256 1101.63 28.256C1101.73 28.256 1101.82 28.304 1101.9 28.4C1102.34 28.976 1102.79 29.384 1103.25 29.624C1103.7 29.864 1104.31 29.984 1105.06 29.984C1105.87 29.984 1106.5 29.858 1106.95 29.606C1107.41 29.354 1107.64 28.976 1107.64 28.472C1107.64 28.148 1107.52 27.872 1107.3 27.644C1107.07 27.416 1106.68 27.218 1106.14 27.05L1103.43 26.276C1102.39 25.988 1101.6 25.508 1101.03 24.836C1100.47 24.152 1100.19 23.378 1100.19 22.514C1100.19 21.746 1100.4 21.056 1100.82 20.444C1101.25 19.832 1101.85 19.352 1102.63 19.004C1103.41 18.644 1104.31 18.464 1105.33 18.464C1106.34 18.464 1107.27 18.638 1108.11 18.986C1108.95 19.322 1109.59 19.778 1110.03 20.354C1110.1 20.45 1110.14 20.534 1110.14 20.606C1110.14 20.678 1110.1 20.744 1110.03 20.804L1108.52 21.92C1108.45 21.968 1108.39 21.992 1108.36 21.992C1108.3 21.992 1108.2 21.926 1108.07 21.794ZM1262.55 18.968C1262.55 18.872 1262.58 18.794 1262.64 18.734C1262.71 18.674 1262.8 18.644 1262.91 18.644H1273.24C1273.48 18.644 1273.6 18.752 1273.6 18.968V20.642C1273.6 20.822 1273.49 20.912 1273.27 20.912H1269.91C1269.78 20.912 1269.71 20.972 1269.71 21.092V31.658C1269.71 31.886 1269.61 32 1269.4 32H1266.83C1266.65 32 1266.56 31.898 1266.56 31.694V21.146C1266.56 21.062 1266.54 21.002 1266.51 20.966C1266.48 20.93 1266.43 20.912 1266.36 20.912H1262.89C1262.66 20.912 1262.55 20.822 1262.55 20.642V18.968ZM1278.85 26.294C1278.78 26.294 1278.72 26.318 1278.67 26.366C1278.63 26.414 1278.61 26.468 1278.61 26.528V31.586C1278.61 31.73 1278.57 31.838 1278.49 31.91C1278.42 31.97 1278.3 32 1278.13 32H1275.86C1275.72 32 1275.61 31.97 1275.55 31.91C1275.49 31.85 1275.46 31.754 1275.46 31.622V18.986C1275.46 18.758 1275.56 18.644 1275.75 18.644H1278.33C1278.52 18.644 1278.61 18.752 1278.61 18.968V23.576C1278.61 23.78 1278.7 23.882 1278.88 23.882H1283.04C1283.23 23.882 1283.33 23.786 1283.33 23.594V18.968C1283.33 18.752 1283.42 18.644 1283.6 18.644H1286.17C1286.38 18.644 1286.48 18.758 1286.48 18.986V31.622C1286.48 31.874 1286.35 32 1286.08 32H1283.8C1283.63 32 1283.51 31.97 1283.44 31.91C1283.37 31.85 1283.33 31.742 1283.33 31.586V26.528C1283.33 26.456 1283.31 26.402 1283.26 26.366C1283.22 26.318 1283.16 26.294 1283.08 26.294H1278.85ZM1288.98 18.986C1288.98 18.758 1289.08 18.644 1289.27 18.644H1298.34C1298.52 18.644 1298.61 18.746 1298.61 18.95L1298.59 20.57C1298.59 20.822 1298.47 20.948 1298.21 20.948H1292.47C1292.24 20.948 1292.13 21.044 1292.13 21.236V23.846C1292.13 24.05 1292.22 24.152 1292.4 24.152H1296.22C1296.42 24.152 1296.52 24.248 1296.52 24.44V26.168C1296.52 26.336 1296.43 26.42 1296.23 26.42H1292.38C1292.21 26.42 1292.13 26.492 1292.13 26.636V29.462C1292.13 29.546 1292.14 29.606 1292.17 29.642C1292.2 29.678 1292.26 29.696 1292.33 29.696H1298.48C1298.7 29.696 1298.81 29.786 1298.81 29.966V31.676C1298.81 31.892 1298.69 32 1298.45 32H1289.38C1289.23 32 1289.13 31.97 1289.07 31.91C1289.01 31.85 1288.98 31.754 1288.98 31.622V18.986ZM1312.14 21.794C1311.82 21.446 1311.46 21.176 1311.06 20.984C1310.66 20.78 1310.14 20.678 1309.49 20.678C1308.76 20.678 1308.2 20.81 1307.82 21.074C1307.43 21.338 1307.24 21.686 1307.24 22.118C1307.24 22.742 1307.73 23.198 1308.7 23.486L1311.54 24.296C1312.61 24.596 1313.4 25.07 1313.92 25.718C1314.45 26.366 1314.71 27.146 1314.71 28.058C1314.71 28.898 1314.49 29.63 1314.06 30.254C1313.63 30.866 1313.01 31.34 1312.19 31.676C1311.39 32.012 1310.44 32.18 1309.35 32.18C1308.12 32.18 1307.02 31.976 1306.03 31.568C1305.05 31.148 1304.33 30.578 1303.87 29.858C1303.83 29.774 1303.8 29.696 1303.8 29.624C1303.8 29.528 1303.86 29.426 1303.98 29.318L1305.37 28.364C1305.49 28.292 1305.6 28.256 1305.69 28.256C1305.8 28.256 1305.89 28.304 1305.96 28.4C1306.41 28.976 1306.86 29.384 1307.31 29.624C1307.77 29.864 1308.37 29.984 1309.13 29.984C1309.93 29.984 1310.56 29.858 1311.02 29.606C1311.48 29.354 1311.7 28.976 1311.7 28.472C1311.7 28.148 1311.59 27.872 1311.36 27.644C1311.13 27.416 1310.75 27.218 1310.21 27.05L1307.49 26.276C1306.46 25.988 1305.66 25.508 1305.1 24.836C1304.53 24.152 1304.25 23.378 1304.25 22.514C1304.25 21.746 1304.46 21.056 1304.88 20.444C1305.31 19.832 1305.92 19.352 1306.7 19.004C1307.48 18.644 1308.38 18.464 1309.4 18.464C1310.41 18.464 1311.33 18.638 1312.17 18.986C1313.01 19.322 1313.65 19.778 1314.1 20.354C1314.17 20.45 1314.21 20.534 1314.21 20.606C1314.21 20.678 1314.17 20.744 1314.1 20.804L1312.59 21.92C1312.51 21.968 1312.46 21.992 1312.42 21.992C1312.36 21.992 1312.27 21.926 1312.14 21.794ZM1315.98 18.968C1315.98 18.872 1316.01 18.794 1316.07 18.734C1316.14 18.674 1316.23 18.644 1316.34 18.644H1326.67C1326.91 18.644 1327.03 18.752 1327.03 18.968V20.642C1327.03 20.822 1326.93 20.912 1326.71 20.912H1323.34C1323.21 20.912 1323.15 20.972 1323.15 21.092V31.658C1323.15 31.886 1323.04 32 1322.84 32H1320.27C1320.09 32 1320 31.898 1320 31.694V21.146C1320 21.062 1319.98 21.002 1319.94 20.966C1319.92 20.93 1319.87 20.912 1319.8 20.912H1316.32C1316.1 20.912 1315.98 20.822 1315.98 20.642V18.968ZM1326.43 32C1326.25 32 1326.16 31.898 1326.16 31.694C1326.16 31.598 1326.17 31.526 1326.2 31.478L1330.68 19.004C1330.73 18.872 1330.78 18.782 1330.84 18.734C1330.91 18.674 1331.01 18.644 1331.15 18.644H1333.85C1333.98 18.644 1334.09 18.68 1334.19 18.752C1334.28 18.824 1334.35 18.92 1334.39 19.04L1338.83 31.514C1338.86 31.586 1338.87 31.64 1338.87 31.676C1338.87 31.772 1338.84 31.85 1338.8 31.91C1338.76 31.97 1338.7 32 1338.62 32H1335.97C1335.79 32 1335.68 31.916 1335.63 31.748L1334.69 29.12C1334.67 29.048 1334.64 29 1334.6 28.976C1334.58 28.94 1334.53 28.922 1334.46 28.922H1330.07C1329.95 28.922 1329.87 28.982 1329.83 29.102L1328.88 31.766C1328.81 31.922 1328.68 32 1328.5 32H1326.43ZM1333.72 26.528C1333.84 26.528 1333.9 26.48 1333.9 26.384C1333.9 26.312 1333.89 26.258 1333.88 26.222L1332.37 22.01C1332.33 21.938 1332.29 21.902 1332.24 21.902C1332.21 21.902 1332.17 21.944 1332.14 22.028L1330.61 26.222C1330.58 26.294 1330.57 26.348 1330.57 26.384C1330.57 26.48 1330.64 26.528 1330.77 26.528H1333.72ZM1337.97 18.968C1337.97 18.872 1338 18.794 1338.06 18.734C1338.13 18.674 1338.22 18.644 1338.33 18.644H1348.66C1348.9 18.644 1349.02 18.752 1349.02 18.968V20.642C1349.02 20.822 1348.92 20.912 1348.7 20.912H1345.33C1345.2 20.912 1345.14 20.972 1345.14 21.092V31.658C1345.14 31.886 1345.03 32 1344.83 32H1342.26C1342.08 32 1341.99 31.898 1341.99 31.694V21.146C1341.99 21.062 1341.97 21.002 1341.93 20.966C1341.91 20.93 1341.86 20.912 1341.79 20.912H1338.31C1338.09 20.912 1337.97 20.822 1337.97 20.642V18.968ZM1358.56 21.794C1358.25 21.446 1357.89 21.176 1357.48 20.984C1357.08 20.78 1356.56 20.678 1355.91 20.678C1355.18 20.678 1354.62 20.81 1354.24 21.074C1353.85 21.338 1353.66 21.686 1353.66 22.118C1353.66 22.742 1354.15 23.198 1355.12 23.486L1357.96 24.296C1359.03 24.596 1359.82 25.07 1360.34 25.718C1360.87 26.366 1361.13 27.146 1361.13 28.058C1361.13 28.898 1360.92 29.63 1360.48 30.254C1360.05 30.866 1359.43 31.34 1358.61 31.676C1357.81 32.012 1356.86 32.18 1355.77 32.18C1354.54 32.18 1353.44 31.976 1352.46 31.568C1351.47 31.148 1350.75 30.578 1350.3 29.858C1350.25 29.774 1350.22 29.696 1350.22 29.624C1350.22 29.528 1350.28 29.426 1350.4 29.318L1351.79 28.364C1351.91 28.292 1352.02 28.256 1352.11 28.256C1352.22 28.256 1352.31 28.304 1352.38 28.4C1352.83 28.976 1353.28 29.384 1353.73 29.624C1354.19 29.864 1354.8 29.984 1355.55 29.984C1356.36 29.984 1356.99 29.858 1357.44 29.606C1357.9 29.354 1358.13 28.976 1358.13 28.472C1358.13 28.148 1358.01 27.872 1357.78 27.644C1357.56 27.416 1357.17 27.218 1356.63 27.05L1353.91 26.276C1352.88 25.988 1352.08 25.508 1351.52 24.836C1350.96 24.152 1350.67 23.378 1350.67 22.514C1350.67 21.746 1350.88 21.056 1351.3 20.444C1351.74 19.832 1352.34 19.352 1353.12 19.004C1353.9 18.644 1354.8 18.464 1355.82 18.464C1356.83 18.464 1357.75 18.638 1358.59 18.986C1359.43 19.322 1360.08 19.778 1360.52 20.354C1360.59 20.45 1360.63 20.534 1360.63 20.606C1360.63 20.678 1360.59 20.744 1360.52 20.804L1359.01 21.92C1358.94 21.968 1358.88 21.992 1358.85 21.992C1358.79 21.992 1358.69 21.926 1358.56 21.794Z" fill="#7000FF"/>
<path d="M114.767 27.86C114.767 28.124 114.611 28.256 114.299 28.256H110.069C109.925 28.256 109.823 28.232 109.763 28.184C109.715 28.124 109.691 28.028 109.691 27.896V26.582C109.691 26.366 109.781 26.258 109.961 26.258H114.497C114.581 26.258 114.647 26.282 114.695 26.33C114.743 26.378 114.767 26.444 114.767 26.528V27.86ZM240.011 27.86C240.011 28.124 239.855 28.256 239.543 28.256H235.313C235.169 28.256 235.067 28.232 235.007 28.184C234.959 28.124 234.935 28.028 234.935 27.896V26.582C234.935 26.366 235.025 26.258 235.205 26.258H239.741C239.825 26.258 239.891 26.282 239.939 26.33C239.987 26.378 240.011 26.444 240.011 26.528V27.86ZM365.255 27.86C365.255 28.124 365.099 28.256 364.787 28.256H360.557C360.413 28.256 360.311 28.232 360.251 28.184C360.203 28.124 360.179 28.028 360.179 27.896V26.582C360.179 26.366 360.269 26.258 360.449 26.258H364.985C365.069 26.258 365.135 26.282 365.183 26.33C365.231 26.378 365.255 26.444 365.255 26.528V27.86ZM490.499 27.86C490.499 28.124 490.343 28.256 490.031 28.256H485.801C485.657 28.256 485.555 28.232 485.495 28.184C485.447 28.124 485.423 28.028 485.423 27.896V26.582C485.423 26.366 485.513 26.258 485.693 26.258H490.229C490.313 26.258 490.379 26.282 490.427 26.33C490.475 26.378 490.499 26.444 490.499 26.528V27.86ZM627.433 27.86C627.433 28.124 627.277 28.256 626.965 28.256H622.735C622.591 28.256 622.489 28.232 622.429 28.184C622.381 28.124 622.357 28.028 622.357 27.896V26.582C622.357 26.366 622.447 26.258 622.627 26.258H627.163C627.247 26.258 627.313 26.282 627.361 26.33C627.409 26.378 627.433 26.444 627.433 26.528V27.86ZM752.677 27.86C752.677 28.124 752.521 28.256 752.209 28.256H747.979C747.835 28.256 747.733 28.232 747.673 28.184C747.625 28.124 747.601 28.028 747.601 27.896V26.582C747.601 26.366 747.691 26.258 747.871 26.258H752.407C752.491 26.258 752.557 26.282 752.605 26.33C752.653 26.378 752.677 26.444 752.677 26.528V27.86ZM877.921 27.86C877.921 28.124 877.765 28.256 877.453 28.256H873.223C873.079 28.256 872.977 28.232 872.917 28.184C872.869 28.124 872.845 28.028 872.845 27.896V26.582C872.845 26.366 872.935 26.258 873.115 26.258H877.651C877.735 26.258 877.801 26.282 877.849 26.33C877.897 26.378 877.921 26.444 877.921 26.528V27.86ZM1003.17 27.86C1003.17 28.124 1003.01 28.256 1002.7 28.256H998.467C998.323 28.256 998.221 28.232 998.161 28.184C998.113 28.124 998.089 28.028 998.089 27.896V26.582C998.089 26.366 998.179 26.258 998.359 26.258H1002.9C1002.98 26.258 1003.05 26.282 1003.09 26.33C1003.14 26.378 1003.17 26.444 1003.17 26.528V27.86ZM1128.41 27.86C1128.41 28.124 1128.25 28.256 1127.94 28.256H1123.71C1123.57 28.256 1123.47 28.232 1123.41 28.184C1123.36 28.124 1123.33 28.028 1123.33 27.896V26.582C1123.33 26.366 1123.42 26.258 1123.6 26.258H1128.14C1128.22 26.258 1128.29 26.282 1128.34 26.33C1128.39 26.378 1128.41 26.444 1128.41 26.528V27.86ZM1253.65 27.86C1253.65 28.124 1253.5 28.256 1253.19 28.256H1248.96C1248.81 28.256 1248.71 28.232 1248.65 28.184C1248.6 28.124 1248.58 28.028 1248.58 27.896V26.582C1248.58 26.366 1248.67 26.258 1248.85 26.258H1253.38C1253.47 26.258 1253.53 26.282 1253.58 26.33C1253.63 26.378 1253.65 26.444 1253.65 26.528V27.86ZM1378.9 27.86C1378.9 28.124 1378.74 28.256 1378.43 28.256H1374.2C1374.06 28.256 1373.95 28.232 1373.89 28.184C1373.85 28.124 1373.82 28.028 1373.82 27.896V26.582C1373.82 26.366 1373.91 26.258 1374.09 26.258H1378.63C1378.71 26.258 1378.78 26.282 1378.83 26.33C1378.87 26.378 1378.9 26.444 1378.9 26.528V27.86Z" fill="white"/>
<path d="M123.658 18.968C123.658 18.872 123.688 18.794 123.748 18.734C123.82 18.674 123.91 18.644 124.018 18.644H134.35C134.59 18.644 134.71 18.752 134.71 18.968V20.642C134.71 20.822 134.602 20.912 134.386 20.912H131.02C130.888 20.912 130.822 20.972 130.822 21.092V31.658C130.822 31.886 130.72 32 130.516 32H127.942C127.762 32 127.672 31.898 127.672 31.694V21.146C127.672 21.062 127.654 21.002 127.618 20.966C127.594 20.93 127.546 20.912 127.474 20.912H124C123.772 20.912 123.658 20.822 123.658 20.642V18.968ZM139.96 26.294C139.888 26.294 139.828 26.318 139.78 26.366C139.744 26.414 139.726 26.468 139.726 26.528V31.586C139.726 31.73 139.684 31.838 139.6 31.91C139.528 31.97 139.408 32 139.24 32H136.972C136.828 32 136.726 31.97 136.666 31.91C136.606 31.85 136.576 31.754 136.576 31.622V18.986C136.576 18.758 136.672 18.644 136.864 18.644H139.438C139.63 18.644 139.726 18.752 139.726 18.968V23.576C139.726 23.78 139.816 23.882 139.996 23.882H144.154C144.346 23.882 144.442 23.786 144.442 23.594V18.968C144.442 18.752 144.532 18.644 144.712 18.644H147.286C147.49 18.644 147.592 18.758 147.592 18.986V31.622C147.592 31.874 147.46 32 147.196 32H144.91C144.742 32 144.622 31.97 144.55 31.91C144.478 31.85 144.442 31.742 144.442 31.586V26.528C144.442 26.456 144.418 26.402 144.37 26.366C144.334 26.318 144.274 26.294 144.19 26.294H139.96ZM150.094 18.986C150.094 18.758 150.19 18.644 150.382 18.644H159.454C159.634 18.644 159.724 18.746 159.724 18.95L159.706 20.57C159.706 20.822 159.58 20.948 159.328 20.948H153.586C153.358 20.948 153.244 21.044 153.244 21.236V23.846C153.244 24.05 153.334 24.152 153.514 24.152H157.33C157.534 24.152 157.636 24.248 157.636 24.44V26.168C157.636 26.336 157.54 26.42 157.348 26.42H153.496C153.328 26.42 153.244 26.492 153.244 26.636V29.462C153.244 29.546 153.256 29.606 153.28 29.642C153.316 29.678 153.37 29.696 153.442 29.696H159.598C159.814 29.696 159.922 29.786 159.922 29.966V31.676C159.922 31.892 159.802 32 159.562 32H150.49C150.346 32 150.244 31.97 150.184 31.91C150.124 31.85 150.094 31.754 150.094 31.622V18.986ZM173.248 21.794C172.936 21.446 172.576 21.176 172.168 20.984C171.772 20.78 171.25 20.678 170.602 20.678C169.87 20.678 169.312 20.81 168.928 21.074C168.544 21.338 168.352 21.686 168.352 22.118C168.352 22.742 168.838 23.198 169.81 23.486L172.654 24.296C173.722 24.596 174.514 25.07 175.03 25.718C175.558 26.366 175.822 27.146 175.822 28.058C175.822 28.898 175.606 29.63 175.174 30.254C174.742 30.866 174.118 31.34 173.302 31.676C172.498 32.012 171.55 32.18 170.458 32.18C169.234 32.18 168.13 31.976 167.146 31.568C166.162 31.148 165.442 30.578 164.986 29.858C164.938 29.774 164.914 29.696 164.914 29.624C164.914 29.528 164.974 29.426 165.094 29.318L166.48 28.364C166.6 28.292 166.708 28.256 166.804 28.256C166.912 28.256 167.002 28.304 167.074 28.4C167.518 28.976 167.968 29.384 168.424 29.624C168.88 29.864 169.486 29.984 170.242 29.984C171.046 29.984 171.676 29.858 172.132 29.606C172.588 29.354 172.816 28.976 172.816 28.472C172.816 28.148 172.702 27.872 172.474 27.644C172.246 27.416 171.862 27.218 171.322 27.05L168.604 26.276C167.572 25.988 166.774 25.508 166.21 24.836C165.646 24.152 165.364 23.378 165.364 22.514C165.364 21.746 165.574 21.056 165.994 20.444C166.426 19.832 167.032 19.352 167.812 19.004C168.592 18.644 169.492 18.464 170.512 18.464C171.52 18.464 172.444 18.638 173.284 18.986C174.124 19.322 174.766 19.778 175.21 20.354C175.282 20.45 175.318 20.534 175.318 20.606C175.318 20.678 175.282 20.744 175.21 20.804L173.698 21.92C173.626 21.968 173.572 21.992 173.536 21.992C173.476 21.992 173.38 21.926 173.248 21.794ZM177.096 18.968C177.096 18.872 177.126 18.794 177.186 18.734C177.258 18.674 177.348 18.644 177.456 18.644H187.788C188.028 18.644 188.148 18.752 188.148 18.968V20.642C188.148 20.822 188.04 20.912 187.824 20.912H184.458C184.326 20.912 184.26 20.972 184.26 21.092V31.658C184.26 31.886 184.158 32 183.954 32H181.38C181.2 32 181.11 31.898 181.11 31.694V21.146C181.11 21.062 181.092 21.002 181.056 20.966C181.032 20.93 180.984 20.912 180.912 20.912H177.438C177.21 20.912 177.096 20.822 177.096 20.642V18.968ZM187.544 32C187.364 32 187.274 31.898 187.274 31.694C187.274 31.598 187.286 31.526 187.31 31.478L191.792 19.004C191.84 18.872 191.894 18.782 191.954 18.734C192.026 18.674 192.128 18.644 192.26 18.644H194.96C195.092 18.644 195.206 18.68 195.302 18.752C195.398 18.824 195.464 18.92 195.5 19.04L199.946 31.514C199.97 31.586 199.982 31.64 199.982 31.676C199.982 31.772 199.958 31.85 199.91 31.91C199.874 31.97 199.814 32 199.73 32H197.084C196.904 32 196.79 31.916 196.742 31.748L195.806 29.12C195.782 29.048 195.752 29 195.716 28.976C195.692 28.94 195.644 28.922 195.572 28.922H191.18C191.06 28.922 190.982 28.982 190.946 29.102L189.992 31.766C189.92 31.922 189.794 32 189.614 32H187.544ZM194.834 26.528C194.954 26.528 195.014 26.48 195.014 26.384C195.014 26.312 195.008 26.258 194.996 26.222L193.484 22.01C193.448 21.938 193.406 21.902 193.358 21.902C193.322 21.902 193.286 21.944 193.25 22.028L191.72 26.222C191.696 26.294 191.684 26.348 191.684 26.384C191.684 26.48 191.75 26.528 191.882 26.528H194.834ZM199.086 18.968C199.086 18.872 199.116 18.794 199.176 18.734C199.248 18.674 199.338 18.644 199.446 18.644H209.778C210.018 18.644 210.138 18.752 210.138 18.968V20.642C210.138 20.822 210.03 20.912 209.814 20.912H206.448C206.316 20.912 206.25 20.972 206.25 21.092V31.658C206.25 31.886 206.148 32 205.944 32H203.37C203.19 32 203.1 31.898 203.1 31.694V21.146C203.1 21.062 203.082 21.002 203.046 20.966C203.022 20.93 202.974 20.912 202.902 20.912H199.428C199.2 20.912 199.086 20.822 199.086 20.642V18.968ZM219.672 21.794C219.36 21.446 219 21.176 218.592 20.984C218.196 20.78 217.674 20.678 217.026 20.678C216.294 20.678 215.736 20.81 215.352 21.074C214.968 21.338 214.776 21.686 214.776 22.118C214.776 22.742 215.262 23.198 216.234 23.486L219.078 24.296C220.146 24.596 220.938 25.07 221.454 25.718C221.982 26.366 222.246 27.146 222.246 28.058C222.246 28.898 222.03 29.63 221.598 30.254C221.166 30.866 220.542 31.34 219.726 31.676C218.922 32.012 217.974 32.18 216.882 32.18C215.658 32.18 214.554 31.976 213.57 31.568C212.586 31.148 211.866 30.578 211.41 29.858C211.362 29.774 211.338 29.696 211.338 29.624C211.338 29.528 211.398 29.426 211.518 29.318L212.904 28.364C213.024 28.292 213.132 28.256 213.228 28.256C213.336 28.256 213.426 28.304 213.498 28.4C213.942 28.976 214.392 29.384 214.848 29.624C215.304 29.864 215.91 29.984 216.666 29.984C217.47 29.984 218.1 29.858 218.556 29.606C219.012 29.354 219.24 28.976 219.24 28.472C219.24 28.148 219.126 27.872 218.898 27.644C218.67 27.416 218.286 27.218 217.746 27.05L215.028 26.276C213.996 25.988 213.198 25.508 212.634 24.836C212.07 24.152 211.788 23.378 211.788 22.514C211.788 21.746 211.998 21.056 212.418 20.444C212.85 19.832 213.456 19.352 214.236 19.004C215.016 18.644 215.916 18.464 216.936 18.464C217.944 18.464 218.868 18.638 219.708 18.986C220.548 19.322 221.19 19.778 221.634 20.354C221.706 20.45 221.742 20.534 221.742 20.606C221.742 20.678 221.706 20.744 221.634 20.804L220.122 21.92C220.05 21.968 219.996 21.992 219.96 21.992C219.9 21.992 219.804 21.926 219.672 21.794ZM374.147 18.968C374.147 18.872 374.177 18.794 374.237 18.734C374.309 18.674 374.399 18.644 374.507 18.644H384.839C385.079 18.644 385.199 18.752 385.199 18.968V20.642C385.199 20.822 385.091 20.912 384.875 20.912H381.509C381.377 20.912 381.311 20.972 381.311 21.092V31.658C381.311 31.886 381.209 32 381.005 32H378.431C378.251 32 378.161 31.898 378.161 31.694V21.146C378.161 21.062 378.143 21.002 378.107 20.966C378.083 20.93 378.035 20.912 377.963 20.912H374.489C374.261 20.912 374.147 20.822 374.147 20.642V18.968ZM390.449 26.294C390.377 26.294 390.317 26.318 390.269 26.366C390.233 26.414 390.215 26.468 390.215 26.528V31.586C390.215 31.73 390.173 31.838 390.089 31.91C390.017 31.97 389.897 32 389.729 32H387.461C387.317 32 387.215 31.97 387.155 31.91C387.095 31.85 387.065 31.754 387.065 31.622V18.986C387.065 18.758 387.161 18.644 387.353 18.644H389.927C390.119 18.644 390.215 18.752 390.215 18.968V23.576C390.215 23.78 390.305 23.882 390.485 23.882H394.643C394.835 23.882 394.931 23.786 394.931 23.594V18.968C394.931 18.752 395.021 18.644 395.201 18.644H397.775C397.979 18.644 398.081 18.758 398.081 18.986V31.622C398.081 31.874 397.949 32 397.685 32H395.399C395.231 32 395.111 31.97 395.039 31.91C394.967 31.85 394.931 31.742 394.931 31.586V26.528C394.931 26.456 394.907 26.402 394.859 26.366C394.823 26.318 394.763 26.294 394.679 26.294H390.449ZM400.582 18.986C400.582 18.758 400.678 18.644 400.87 18.644H409.942C410.122 18.644 410.212 18.746 410.212 18.95L410.194 20.57C410.194 20.822 410.068 20.948 409.816 20.948H404.074C403.846 20.948 403.732 21.044 403.732 21.236V23.846C403.732 24.05 403.822 24.152 404.002 24.152H407.818C408.022 24.152 408.124 24.248 408.124 24.44V26.168C408.124 26.336 408.028 26.42 407.836 26.42H403.984C403.816 26.42 403.732 26.492 403.732 26.636V29.462C403.732 29.546 403.744 29.606 403.768 29.642C403.804 29.678 403.858 29.696 403.93 29.696H410.086C410.302 29.696 410.41 29.786 410.41 29.966V31.676C410.41 31.892 410.29 32 410.05 32H400.978C400.834 32 400.732 31.97 400.672 31.91C400.612 31.85 400.582 31.754 400.582 31.622V18.986ZM423.737 21.794C423.425 21.446 423.065 21.176 422.657 20.984C422.261 20.78 421.739 20.678 421.091 20.678C420.359 20.678 419.801 20.81 419.417 21.074C419.033 21.338 418.841 21.686 418.841 22.118C418.841 22.742 419.327 23.198 420.299 23.486L423.143 24.296C424.211 24.596 425.003 25.07 425.519 25.718C426.047 26.366 426.311 27.146 426.311 28.058C426.311 28.898 426.095 29.63 425.663 30.254C425.231 30.866 424.607 31.34 423.791 31.676C422.987 32.012 422.039 32.18 420.947 32.18C419.723 32.18 418.619 31.976 417.635 31.568C416.651 31.148 415.931 30.578 415.475 29.858C415.427 29.774 415.403 29.696 415.403 29.624C415.403 29.528 415.463 29.426 415.583 29.318L416.969 28.364C417.089 28.292 417.197 28.256 417.293 28.256C417.401 28.256 417.491 28.304 417.563 28.4C418.007 28.976 418.457 29.384 418.913 29.624C419.369 29.864 419.975 29.984 420.731 29.984C421.535 29.984 422.165 29.858 422.621 29.606C423.077 29.354 423.305 28.976 423.305 28.472C423.305 28.148 423.191 27.872 422.963 27.644C422.735 27.416 422.351 27.218 421.811 27.05L419.093 26.276C418.061 25.988 417.263 25.508 416.699 24.836C416.135 24.152 415.853 23.378 415.853 22.514C415.853 21.746 416.063 21.056 416.483 20.444C416.915 19.832 417.521 19.352 418.301 19.004C419.081 18.644 419.981 18.464 421.001 18.464C422.009 18.464 422.933 18.638 423.773 18.986C424.613 19.322 425.255 19.778 425.699 20.354C425.771 20.45 425.807 20.534 425.807 20.606C425.807 20.678 425.771 20.744 425.699 20.804L424.187 21.92C424.115 21.968 424.061 21.992 424.025 21.992C423.965 21.992 423.869 21.926 423.737 21.794ZM427.584 18.968C427.584 18.872 427.614 18.794 427.674 18.734C427.746 18.674 427.836 18.644 427.944 18.644H438.276C438.516 18.644 438.636 18.752 438.636 18.968V20.642C438.636 20.822 438.528 20.912 438.312 20.912H434.946C434.814 20.912 434.748 20.972 434.748 21.092V31.658C434.748 31.886 434.646 32 434.442 32H431.868C431.688 32 431.598 31.898 431.598 31.694V21.146C431.598 21.062 431.58 21.002 431.544 20.966C431.52 20.93 431.472 20.912 431.4 20.912H427.926C427.698 20.912 427.584 20.822 427.584 20.642V18.968ZM438.032 32C437.852 32 437.762 31.898 437.762 31.694C437.762 31.598 437.774 31.526 437.798 31.478L442.28 19.004C442.328 18.872 442.382 18.782 442.442 18.734C442.514 18.674 442.616 18.644 442.748 18.644H445.448C445.58 18.644 445.694 18.68 445.79 18.752C445.886 18.824 445.952 18.92 445.988 19.04L450.434 31.514C450.458 31.586 450.47 31.64 450.47 31.676C450.47 31.772 450.446 31.85 450.398 31.91C450.362 31.97 450.302 32 450.218 32H447.572C447.392 32 447.278 31.916 447.23 31.748L446.294 29.12C446.27 29.048 446.24 29 446.204 28.976C446.18 28.94 446.132 28.922 446.06 28.922H441.668C441.548 28.922 441.47 28.982 441.434 29.102L440.48 31.766C440.408 31.922 440.282 32 440.102 32H438.032ZM445.322 26.528C445.442 26.528 445.502 26.48 445.502 26.384C445.502 26.312 445.496 26.258 445.484 26.222L443.972 22.01C443.936 21.938 443.894 21.902 443.846 21.902C443.81 21.902 443.774 21.944 443.738 22.028L442.208 26.222C442.184 26.294 442.172 26.348 442.172 26.384C442.172 26.48 442.238 26.528 442.37 26.528H445.322ZM449.574 18.968C449.574 18.872 449.604 18.794 449.664 18.734C449.736 18.674 449.826 18.644 449.934 18.644H460.266C460.506 18.644 460.626 18.752 460.626 18.968V20.642C460.626 20.822 460.518 20.912 460.302 20.912H456.936C456.804 20.912 456.738 20.972 456.738 21.092V31.658C456.738 31.886 456.636 32 456.432 32H453.858C453.678 32 453.588 31.898 453.588 31.694V21.146C453.588 21.062 453.57 21.002 453.534 20.966C453.51 20.93 453.462 20.912 453.39 20.912H449.916C449.688 20.912 449.574 20.822 449.574 20.642V18.968ZM470.16 21.794C469.848 21.446 469.488 21.176 469.08 20.984C468.684 20.78 468.162 20.678 467.514 20.678C466.782 20.678 466.224 20.81 465.84 21.074C465.456 21.338 465.264 21.686 465.264 22.118C465.264 22.742 465.75 23.198 466.722 23.486L469.566 24.296C470.634 24.596 471.426 25.07 471.942 25.718C472.47 26.366 472.734 27.146 472.734 28.058C472.734 28.898 472.518 29.63 472.086 30.254C471.654 30.866 471.03 31.34 470.214 31.676C469.41 32.012 468.462 32.18 467.37 32.18C466.146 32.18 465.042 31.976 464.058 31.568C463.074 31.148 462.354 30.578 461.898 29.858C461.85 29.774 461.826 29.696 461.826 29.624C461.826 29.528 461.886 29.426 462.006 29.318L463.392 28.364C463.512 28.292 463.62 28.256 463.716 28.256C463.824 28.256 463.914 28.304 463.986 28.4C464.43 28.976 464.88 29.384 465.336 29.624C465.792 29.864 466.398 29.984 467.154 29.984C467.958 29.984 468.588 29.858 469.044 29.606C469.5 29.354 469.728 28.976 469.728 28.472C469.728 28.148 469.614 27.872 469.386 27.644C469.158 27.416 468.774 27.218 468.234 27.05L465.516 26.276C464.484 25.988 463.686 25.508 463.122 24.836C462.558 24.152 462.276 23.378 462.276 22.514C462.276 21.746 462.486 21.056 462.906 20.444C463.338 19.832 463.944 19.352 464.724 19.004C465.504 18.644 466.404 18.464 467.424 18.464C468.432 18.464 469.356 18.638 470.196 18.986C471.036 19.322 471.678 19.778 472.122 20.354C472.194 20.45 472.23 20.534 472.23 20.606C472.23 20.678 472.194 20.744 472.122 20.804L470.61 21.92C470.538 21.968 470.484 21.992 470.448 21.992C470.388 21.992 470.292 21.926 470.16 21.794ZM636.324 18.968C636.324 18.872 636.354 18.794 636.414 18.734C636.486 18.674 636.576 18.644 636.684 18.644H647.016C647.256 18.644 647.376 18.752 647.376 18.968V20.642C647.376 20.822 647.268 20.912 647.052 20.912H643.686C643.554 20.912 643.488 20.972 643.488 21.092V31.658C643.488 31.886 643.386 32 643.182 32H640.608C640.428 32 640.338 31.898 640.338 31.694V21.146C640.338 21.062 640.32 21.002 640.284 20.966C640.26 20.93 640.212 20.912 640.14 20.912H636.666C636.438 20.912 636.324 20.822 636.324 20.642V18.968ZM652.626 26.294C652.554 26.294 652.494 26.318 652.446 26.366C652.41 26.414 652.392 26.468 652.392 26.528V31.586C652.392 31.73 652.35 31.838 652.266 31.91C652.194 31.97 652.074 32 651.906 32H649.638C649.494 32 649.392 31.97 649.332 31.91C649.272 31.85 649.242 31.754 649.242 31.622V18.986C649.242 18.758 649.338 18.644 649.53 18.644H652.104C652.296 18.644 652.392 18.752 652.392 18.968V23.576C652.392 23.78 652.482 23.882 652.662 23.882H656.82C657.012 23.882 657.108 23.786 657.108 23.594V18.968C657.108 18.752 657.198 18.644 657.378 18.644H659.952C660.156 18.644 660.258 18.758 660.258 18.986V31.622C660.258 31.874 660.126 32 659.862 32H657.576C657.408 32 657.288 31.97 657.216 31.91C657.144 31.85 657.108 31.742 657.108 31.586V26.528C657.108 26.456 657.084 26.402 657.036 26.366C657 26.318 656.94 26.294 656.856 26.294H652.626ZM662.76 18.986C662.76 18.758 662.856 18.644 663.048 18.644H672.12C672.3 18.644 672.39 18.746 672.39 18.95L672.372 20.57C672.372 20.822 672.246 20.948 671.994 20.948H666.252C666.024 20.948 665.91 21.044 665.91 21.236V23.846C665.91 24.05 666 24.152 666.18 24.152H669.996C670.2 24.152 670.302 24.248 670.302 24.44V26.168C670.302 26.336 670.206 26.42 670.014 26.42H666.162C665.994 26.42 665.91 26.492 665.91 26.636V29.462C665.91 29.546 665.922 29.606 665.946 29.642C665.982 29.678 666.036 29.696 666.108 29.696H672.264C672.48 29.696 672.588 29.786 672.588 29.966V31.676C672.588 31.892 672.468 32 672.228 32H663.156C663.012 32 662.91 31.97 662.85 31.91C662.79 31.85 662.76 31.754 662.76 31.622V18.986ZM685.914 21.794C685.602 21.446 685.242 21.176 684.834 20.984C684.438 20.78 683.916 20.678 683.268 20.678C682.536 20.678 681.978 20.81 681.594 21.074C681.21 21.338 681.018 21.686 681.018 22.118C681.018 22.742 681.504 23.198 682.476 23.486L685.32 24.296C686.388 24.596 687.18 25.07 687.696 25.718C688.224 26.366 688.488 27.146 688.488 28.058C688.488 28.898 688.272 29.63 687.84 30.254C687.408 30.866 686.784 31.34 685.968 31.676C685.164 32.012 684.216 32.18 683.124 32.18C681.9 32.18 680.796 31.976 679.812 31.568C678.828 31.148 678.108 30.578 677.652 29.858C677.604 29.774 677.58 29.696 677.58 29.624C677.58 29.528 677.64 29.426 677.76 29.318L679.146 28.364C679.266 28.292 679.374 28.256 679.47 28.256C679.578 28.256 679.668 28.304 679.74 28.4C680.184 28.976 680.634 29.384 681.09 29.624C681.546 29.864 682.152 29.984 682.908 29.984C683.712 29.984 684.342 29.858 684.798 29.606C685.254 29.354 685.482 28.976 685.482 28.472C685.482 28.148 685.368 27.872 685.14 27.644C684.912 27.416 684.528 27.218 683.988 27.05L681.27 26.276C680.238 25.988 679.44 25.508 678.876 24.836C678.312 24.152 678.03 23.378 678.03 22.514C678.03 21.746 678.24 21.056 678.66 20.444C679.092 19.832 679.698 19.352 680.478 19.004C681.258 18.644 682.158 18.464 683.178 18.464C684.186 18.464 685.11 18.638 685.95 18.986C686.79 19.322 687.432 19.778 687.876 20.354C687.948 20.45 687.984 20.534 687.984 20.606C687.984 20.678 687.948 20.744 687.876 20.804L686.364 21.92C686.292 21.968 686.238 21.992 686.202 21.992C686.142 21.992 686.046 21.926 685.914 21.794ZM689.762 18.968C689.762 18.872 689.792 18.794 689.852 18.734C689.924 18.674 690.014 18.644 690.122 18.644H700.454C700.694 18.644 700.814 18.752 700.814 18.968V20.642C700.814 20.822 700.706 20.912 700.49 20.912H697.124C696.992 20.912 696.926 20.972 696.926 21.092V31.658C696.926 31.886 696.824 32 696.62 32H694.046C693.866 32 693.776 31.898 693.776 31.694V21.146C693.776 21.062 693.758 21.002 693.722 20.966C693.698 20.93 693.65 20.912 693.578 20.912H690.104C689.876 20.912 689.762 20.822 689.762 20.642V18.968ZM700.21 32C700.03 32 699.94 31.898 699.94 31.694C699.94 31.598 699.952 31.526 699.976 31.478L704.458 19.004C704.506 18.872 704.56 18.782 704.62 18.734C704.692 18.674 704.794 18.644 704.926 18.644H707.626C707.758 18.644 707.872 18.68 707.968 18.752C708.064 18.824 708.13 18.92 708.166 19.04L712.612 31.514C712.636 31.586 712.648 31.64 712.648 31.676C712.648 31.772 712.624 31.85 712.576 31.91C712.54 31.97 712.48 32 712.396 32H709.75C709.57 32 709.456 31.916 709.408 31.748L708.472 29.12C708.448 29.048 708.418 29 708.382 28.976C708.358 28.94 708.31 28.922 708.238 28.922H703.846C703.726 28.922 703.648 28.982 703.612 29.102L702.658 31.766C702.586 31.922 702.46 32 702.28 32H700.21ZM707.5 26.528C707.62 26.528 707.68 26.48 707.68 26.384C707.68 26.312 707.674 26.258 707.662 26.222L706.15 22.01C706.114 21.938 706.072 21.902 706.024 21.902C705.988 21.902 705.952 21.944 705.916 22.028L704.386 26.222C704.362 26.294 704.35 26.348 704.35 26.384C704.35 26.48 704.416 26.528 704.548 26.528H707.5ZM711.752 18.968C711.752 18.872 711.782 18.794 711.842 18.734C711.914 18.674 712.004 18.644 712.112 18.644H722.444C722.684 18.644 722.804 18.752 722.804 18.968V20.642C722.804 20.822 722.696 20.912 722.48 20.912H719.114C718.982 20.912 718.916 20.972 718.916 21.092V31.658C718.916 31.886 718.814 32 718.61 32H716.036C715.856 32 715.766 31.898 715.766 31.694V21.146C715.766 21.062 715.748 21.002 715.712 20.966C715.688 20.93 715.64 20.912 715.568 20.912H712.094C711.866 20.912 711.752 20.822 711.752 20.642V18.968ZM732.338 21.794C732.026 21.446 731.666 21.176 731.258 20.984C730.862 20.78 730.34 20.678 729.692 20.678C728.96 20.678 728.402 20.81 728.018 21.074C727.634 21.338 727.442 21.686 727.442 22.118C727.442 22.742 727.928 23.198 728.9 23.486L731.744 24.296C732.812 24.596 733.604 25.07 734.12 25.718C734.648 26.366 734.912 27.146 734.912 28.058C734.912 28.898 734.696 29.63 734.264 30.254C733.832 30.866 733.208 31.34 732.392 31.676C731.588 32.012 730.64 32.18 729.548 32.18C728.324 32.18 727.22 31.976 726.236 31.568C725.252 31.148 724.532 30.578 724.076 29.858C724.028 29.774 724.004 29.696 724.004 29.624C724.004 29.528 724.064 29.426 724.184 29.318L725.57 28.364C725.69 28.292 725.798 28.256 725.894 28.256C726.002 28.256 726.092 28.304 726.164 28.4C726.608 28.976 727.058 29.384 727.514 29.624C727.97 29.864 728.576 29.984 729.332 29.984C730.136 29.984 730.766 29.858 731.222 29.606C731.678 29.354 731.906 28.976 731.906 28.472C731.906 28.148 731.792 27.872 731.564 27.644C731.336 27.416 730.952 27.218 730.412 27.05L727.694 26.276C726.662 25.988 725.864 25.508 725.3 24.836C724.736 24.152 724.454 23.378 724.454 22.514C724.454 21.746 724.664 21.056 725.084 20.444C725.516 19.832 726.122 19.352 726.902 19.004C727.682 18.644 728.582 18.464 729.602 18.464C730.61 18.464 731.534 18.638 732.374 18.986C733.214 19.322 733.856 19.778 734.3 20.354C734.372 20.45 734.408 20.534 734.408 20.606C734.408 20.678 734.372 20.744 734.3 20.804L732.788 21.92C732.716 21.968 732.662 21.992 732.626 21.992C732.566 21.992 732.47 21.926 732.338 21.794ZM886.813 18.968C886.813 18.872 886.843 18.794 886.903 18.734C886.975 18.674 887.065 18.644 887.173 18.644H897.505C897.745 18.644 897.865 18.752 897.865 18.968V20.642C897.865 20.822 897.757 20.912 897.541 20.912H894.175C894.043 20.912 893.977 20.972 893.977 21.092V31.658C893.977 31.886 893.875 32 893.671 32H891.097C890.917 32 890.827 31.898 890.827 31.694V21.146C890.827 21.062 890.809 21.002 890.773 20.966C890.749 20.93 890.701 20.912 890.629 20.912H887.155C886.927 20.912 886.813 20.822 886.813 20.642V18.968ZM903.115 26.294C903.043 26.294 902.983 26.318 902.935 26.366C902.899 26.414 902.881 26.468 902.881 26.528V31.586C902.881 31.73 902.839 31.838 902.755 31.91C902.683 31.97 902.563 32 902.395 32H900.127C899.983 32 899.881 31.97 899.821 31.91C899.761 31.85 899.731 31.754 899.731 31.622V18.986C899.731 18.758 899.827 18.644 900.019 18.644H902.593C902.785 18.644 902.881 18.752 902.881 18.968V23.576C902.881 23.78 902.971 23.882 903.151 23.882H907.309C907.501 23.882 907.597 23.786 907.597 23.594V18.968C907.597 18.752 907.687 18.644 907.867 18.644H910.441C910.645 18.644 910.747 18.758 910.747 18.986V31.622C910.747 31.874 910.615 32 910.351 32H908.065C907.897 32 907.777 31.97 907.705 31.91C907.633 31.85 907.597 31.742 907.597 31.586V26.528C907.597 26.456 907.573 26.402 907.525 26.366C907.489 26.318 907.429 26.294 907.345 26.294H903.115ZM913.248 18.986C913.248 18.758 913.344 18.644 913.536 18.644H922.608C922.788 18.644 922.878 18.746 922.878 18.95L922.86 20.57C922.86 20.822 922.734 20.948 922.482 20.948H916.74C916.512 20.948 916.398 21.044 916.398 21.236V23.846C916.398 24.05 916.488 24.152 916.668 24.152H920.484C920.688 24.152 920.79 24.248 920.79 24.44V26.168C920.79 26.336 920.694 26.42 920.502 26.42H916.65C916.482 26.42 916.398 26.492 916.398 26.636V29.462C916.398 29.546 916.41 29.606 916.434 29.642C916.47 29.678 916.524 29.696 916.596 29.696H922.752C922.968 29.696 923.076 29.786 923.076 29.966V31.676C923.076 31.892 922.956 32 922.716 32H913.644C913.5 32 913.398 31.97 913.338 31.91C913.278 31.85 913.248 31.754 913.248 31.622V18.986ZM936.403 21.794C936.091 21.446 935.731 21.176 935.323 20.984C934.927 20.78 934.405 20.678 933.757 20.678C933.025 20.678 932.467 20.81 932.083 21.074C931.699 21.338 931.507 21.686 931.507 22.118C931.507 22.742 931.993 23.198 932.965 23.486L935.809 24.296C936.877 24.596 937.669 25.07 938.185 25.718C938.713 26.366 938.977 27.146 938.977 28.058C938.977 28.898 938.761 29.63 938.329 30.254C937.897 30.866 937.273 31.34 936.457 31.676C935.653 32.012 934.705 32.18 933.613 32.18C932.389 32.18 931.285 31.976 930.301 31.568C929.317 31.148 928.597 30.578 928.141 29.858C928.093 29.774 928.069 29.696 928.069 29.624C928.069 29.528 928.129 29.426 928.249 29.318L929.635 28.364C929.755 28.292 929.863 28.256 929.959 28.256C930.067 28.256 930.157 28.304 930.229 28.4C930.673 28.976 931.123 29.384 931.579 29.624C932.035 29.864 932.641 29.984 933.397 29.984C934.201 29.984 934.831 29.858 935.287 29.606C935.743 29.354 935.971 28.976 935.971 28.472C935.971 28.148 935.857 27.872 935.629 27.644C935.401 27.416 935.017 27.218 934.477 27.05L931.759 26.276C930.727 25.988 929.929 25.508 929.365 24.836C928.801 24.152 928.519 23.378 928.519 22.514C928.519 21.746 928.729 21.056 929.149 20.444C929.581 19.832 930.187 19.352 930.967 19.004C931.747 18.644 932.647 18.464 933.667 18.464C934.675 18.464 935.599 18.638 936.439 18.986C937.279 19.322 937.921 19.778 938.365 20.354C938.437 20.45 938.473 20.534 938.473 20.606C938.473 20.678 938.437 20.744 938.365 20.804L936.853 21.92C936.781 21.968 936.727 21.992 936.691 21.992C936.631 21.992 936.535 21.926 936.403 21.794ZM940.25 18.968C940.25 18.872 940.28 18.794 940.34 18.734C940.412 18.674 940.502 18.644 940.61 18.644H950.942C951.182 18.644 951.302 18.752 951.302 18.968V20.642C951.302 20.822 951.194 20.912 950.978 20.912H947.612C947.48 20.912 947.414 20.972 947.414 21.092V31.658C947.414 31.886 947.312 32 947.108 32H944.534C944.354 32 944.264 31.898 944.264 31.694V21.146C944.264 21.062 944.246 21.002 944.21 20.966C944.186 20.93 944.138 20.912 944.066 20.912H940.592C940.364 20.912 940.25 20.822 940.25 20.642V18.968ZM950.698 32C950.518 32 950.428 31.898 950.428 31.694C950.428 31.598 950.44 31.526 950.464 31.478L954.946 19.004C954.994 18.872 955.048 18.782 955.108 18.734C955.18 18.674 955.282 18.644 955.414 18.644H958.114C958.246 18.644 958.36 18.68 958.456 18.752C958.552 18.824 958.618 18.92 958.654 19.04L963.1 31.514C963.124 31.586 963.136 31.64 963.136 31.676C963.136 31.772 963.112 31.85 963.064 31.91C963.028 31.97 962.968 32 962.884 32H960.238C960.058 32 959.944 31.916 959.896 31.748L958.96 29.12C958.936 29.048 958.906 29 958.87 28.976C958.846 28.94 958.798 28.922 958.726 28.922H954.334C954.214 28.922 954.136 28.982 954.1 29.102L953.146 31.766C953.074 31.922 952.948 32 952.768 32H950.698ZM957.988 26.528C958.108 26.528 958.168 26.48 958.168 26.384C958.168 26.312 958.162 26.258 958.15 26.222L956.638 22.01C956.602 21.938 956.56 21.902 956.512 21.902C956.476 21.902 956.44 21.944 956.404 22.028L954.874 26.222C954.85 26.294 954.838 26.348 954.838 26.384C954.838 26.48 954.904 26.528 955.036 26.528H957.988ZM962.24 18.968C962.24 18.872 962.27 18.794 962.33 18.734C962.402 18.674 962.492 18.644 962.6 18.644H972.932C973.172 18.644 973.292 18.752 973.292 18.968V20.642C973.292 20.822 973.184 20.912 972.968 20.912H969.602C969.47 20.912 969.404 20.972 969.404 21.092V31.658C969.404 31.886 969.302 32 969.098 32H966.524C966.344 32 966.254 31.898 966.254 31.694V21.146C966.254 21.062 966.236 21.002 966.2 20.966C966.176 20.93 966.128 20.912 966.056 20.912H962.582C962.354 20.912 962.24 20.822 962.24 20.642V18.968ZM982.826 21.794C982.514 21.446 982.154 21.176 981.746 20.984C981.35 20.78 980.828 20.678 980.18 20.678C979.448 20.678 978.89 20.81 978.506 21.074C978.122 21.338 977.93 21.686 977.93 22.118C977.93 22.742 978.416 23.198 979.388 23.486L982.232 24.296C983.3 24.596 984.092 25.07 984.608 25.718C985.136 26.366 985.4 27.146 985.4 28.058C985.4 28.898 985.184 29.63 984.752 30.254C984.32 30.866 983.696 31.34 982.88 31.676C982.076 32.012 981.128 32.18 980.036 32.18C978.812 32.18 977.708 31.976 976.724 31.568C975.74 31.148 975.02 30.578 974.564 29.858C974.516 29.774 974.492 29.696 974.492 29.624C974.492 29.528 974.552 29.426 974.672 29.318L976.058 28.364C976.178 28.292 976.286 28.256 976.382 28.256C976.49 28.256 976.58 28.304 976.652 28.4C977.096 28.976 977.546 29.384 978.002 29.624C978.458 29.864 979.064 29.984 979.82 29.984C980.624 29.984 981.254 29.858 981.71 29.606C982.166 29.354 982.394 28.976 982.394 28.472C982.394 28.148 982.28 27.872 982.052 27.644C981.824 27.416 981.44 27.218 980.9 27.05L978.182 26.276C977.15 25.988 976.352 25.508 975.788 24.836C975.224 24.152 974.942 23.378 974.942 22.514C974.942 21.746 975.152 21.056 975.572 20.444C976.004 19.832 976.61 19.352 977.39 19.004C978.17 18.644 979.07 18.464 980.09 18.464C981.098 18.464 982.022 18.638 982.862 18.986C983.702 19.322 984.344 19.778 984.788 20.354C984.86 20.45 984.896 20.534 984.896 20.606C984.896 20.678 984.86 20.744 984.788 20.804L983.276 21.92C983.204 21.968 983.15 21.992 983.114 21.992C983.054 21.992 982.958 21.926 982.826 21.794ZM1137.3 18.968C1137.3 18.872 1137.33 18.794 1137.39 18.734C1137.46 18.674 1137.55 18.644 1137.66 18.644H1147.99C1148.23 18.644 1148.35 18.752 1148.35 18.968V20.642C1148.35 20.822 1148.25 20.912 1148.03 20.912H1144.66C1144.53 20.912 1144.47 20.972 1144.47 21.092V31.658C1144.47 31.886 1144.36 32 1144.16 32H1141.59C1141.41 32 1141.32 31.898 1141.32 31.694V21.146C1141.32 21.062 1141.3 21.002 1141.26 20.966C1141.24 20.93 1141.19 20.912 1141.12 20.912H1137.64C1137.42 20.912 1137.3 20.822 1137.3 20.642V18.968ZM1153.6 26.294C1153.53 26.294 1153.47 26.318 1153.42 26.366C1153.39 26.414 1153.37 26.468 1153.37 26.528V31.586C1153.37 31.73 1153.33 31.838 1153.24 31.91C1153.17 31.97 1153.05 32 1152.88 32H1150.61C1150.47 32 1150.37 31.97 1150.31 31.91C1150.25 31.85 1150.22 31.754 1150.22 31.622V18.986C1150.22 18.758 1150.31 18.644 1150.51 18.644H1153.08C1153.27 18.644 1153.37 18.752 1153.37 18.968V23.576C1153.37 23.78 1153.46 23.882 1153.64 23.882H1157.8C1157.99 23.882 1158.08 23.786 1158.08 23.594V18.968C1158.08 18.752 1158.17 18.644 1158.35 18.644H1160.93C1161.13 18.644 1161.23 18.758 1161.23 18.986V31.622C1161.23 31.874 1161.1 32 1160.84 32H1158.55C1158.38 32 1158.26 31.97 1158.19 31.91C1158.12 31.85 1158.08 31.742 1158.08 31.586V26.528C1158.08 26.456 1158.06 26.402 1158.01 26.366C1157.98 26.318 1157.92 26.294 1157.83 26.294H1153.6ZM1163.74 18.986C1163.74 18.758 1163.83 18.644 1164.02 18.644H1173.1C1173.28 18.644 1173.37 18.746 1173.37 18.95L1173.35 20.57C1173.35 20.822 1173.22 20.948 1172.97 20.948H1167.23C1167 20.948 1166.89 21.044 1166.89 21.236V23.846C1166.89 24.05 1166.98 24.152 1167.16 24.152H1170.97C1171.18 24.152 1171.28 24.248 1171.28 24.44V26.168C1171.28 26.336 1171.18 26.42 1170.99 26.42H1167.14C1166.97 26.42 1166.89 26.492 1166.89 26.636V29.462C1166.89 29.546 1166.9 29.606 1166.92 29.642C1166.96 29.678 1167.01 29.696 1167.08 29.696H1173.24C1173.46 29.696 1173.56 29.786 1173.56 29.966V31.676C1173.56 31.892 1173.44 32 1173.2 32H1164.13C1163.99 32 1163.89 31.97 1163.83 31.91C1163.77 31.85 1163.74 31.754 1163.74 31.622V18.986ZM1186.89 21.794C1186.58 21.446 1186.22 21.176 1185.81 20.984C1185.41 20.78 1184.89 20.678 1184.24 20.678C1183.51 20.678 1182.95 20.81 1182.57 21.074C1182.19 21.338 1181.99 21.686 1181.99 22.118C1181.99 22.742 1182.48 23.198 1183.45 23.486L1186.3 24.296C1187.36 24.596 1188.16 25.07 1188.67 25.718C1189.2 26.366 1189.46 27.146 1189.46 28.058C1189.46 28.898 1189.25 29.63 1188.82 30.254C1188.38 30.866 1187.76 31.34 1186.94 31.676C1186.14 32.012 1185.19 32.18 1184.1 32.18C1182.88 32.18 1181.77 31.976 1180.79 31.568C1179.8 31.148 1179.08 30.578 1178.63 29.858C1178.58 29.774 1178.56 29.696 1178.56 29.624C1178.56 29.528 1178.62 29.426 1178.74 29.318L1180.12 28.364C1180.24 28.292 1180.35 28.256 1180.45 28.256C1180.55 28.256 1180.64 28.304 1180.72 28.4C1181.16 28.976 1181.61 29.384 1182.07 29.624C1182.52 29.864 1183.13 29.984 1183.88 29.984C1184.69 29.984 1185.32 29.858 1185.77 29.606C1186.23 29.354 1186.46 28.976 1186.46 28.472C1186.46 28.148 1186.34 27.872 1186.12 27.644C1185.89 27.416 1185.5 27.218 1184.96 27.05L1182.25 26.276C1181.21 25.988 1180.42 25.508 1179.85 24.836C1179.29 24.152 1179.01 23.378 1179.01 22.514C1179.01 21.746 1179.22 21.056 1179.64 20.444C1180.07 19.832 1180.67 19.352 1181.45 19.004C1182.23 18.644 1183.13 18.464 1184.15 18.464C1185.16 18.464 1186.09 18.638 1186.93 18.986C1187.77 19.322 1188.41 19.778 1188.85 20.354C1188.92 20.45 1188.96 20.534 1188.96 20.606C1188.96 20.678 1188.92 20.744 1188.85 20.804L1187.34 21.92C1187.27 21.968 1187.21 21.992 1187.18 21.992C1187.12 21.992 1187.02 21.926 1186.89 21.794ZM1190.74 18.968C1190.74 18.872 1190.77 18.794 1190.83 18.734C1190.9 18.674 1190.99 18.644 1191.1 18.644H1201.43C1201.67 18.644 1201.79 18.752 1201.79 18.968V20.642C1201.79 20.822 1201.68 20.912 1201.47 20.912H1198.1C1197.97 20.912 1197.9 20.972 1197.9 21.092V31.658C1197.9 31.886 1197.8 32 1197.6 32H1195.02C1194.84 32 1194.75 31.898 1194.75 31.694V21.146C1194.75 21.062 1194.73 21.002 1194.7 20.966C1194.67 20.93 1194.63 20.912 1194.55 20.912H1191.08C1190.85 20.912 1190.74 20.822 1190.74 20.642V18.968ZM1201.19 32C1201.01 32 1200.92 31.898 1200.92 31.694C1200.92 31.598 1200.93 31.526 1200.95 31.478L1205.43 19.004C1205.48 18.872 1205.54 18.782 1205.6 18.734C1205.67 18.674 1205.77 18.644 1205.9 18.644H1208.6C1208.73 18.644 1208.85 18.68 1208.94 18.752C1209.04 18.824 1209.11 18.92 1209.14 19.04L1213.59 31.514C1213.61 31.586 1213.62 31.64 1213.62 31.676C1213.62 31.772 1213.6 31.85 1213.55 31.91C1213.52 31.97 1213.46 32 1213.37 32H1210.73C1210.55 32 1210.43 31.916 1210.38 31.748L1209.45 29.12C1209.42 29.048 1209.39 29 1209.36 28.976C1209.33 28.94 1209.29 28.922 1209.21 28.922H1204.82C1204.7 28.922 1204.62 28.982 1204.59 29.102L1203.63 31.766C1203.56 31.922 1203.44 32 1203.26 32H1201.19ZM1208.48 26.528C1208.6 26.528 1208.66 26.48 1208.66 26.384C1208.66 26.312 1208.65 26.258 1208.64 26.222L1207.13 22.01C1207.09 21.938 1207.05 21.902 1207 21.902C1206.96 21.902 1206.93 21.944 1206.89 22.028L1205.36 26.222C1205.34 26.294 1205.33 26.348 1205.33 26.384C1205.33 26.48 1205.39 26.528 1205.52 26.528H1208.48ZM1212.73 18.968C1212.73 18.872 1212.76 18.794 1212.82 18.734C1212.89 18.674 1212.98 18.644 1213.09 18.644H1223.42C1223.66 18.644 1223.78 18.752 1223.78 18.968V20.642C1223.78 20.822 1223.67 20.912 1223.46 20.912H1220.09C1219.96 20.912 1219.89 20.972 1219.89 21.092V31.658C1219.89 31.886 1219.79 32 1219.59 32H1217.01C1216.83 32 1216.74 31.898 1216.74 31.694V21.146C1216.74 21.062 1216.72 21.002 1216.69 20.966C1216.66 20.93 1216.62 20.912 1216.54 20.912H1213.07C1212.84 20.912 1212.73 20.822 1212.73 20.642V18.968ZM1233.31 21.794C1233 21.446 1232.64 21.176 1232.23 20.984C1231.84 20.78 1231.32 20.678 1230.67 20.678C1229.94 20.678 1229.38 20.81 1228.99 21.074C1228.61 21.338 1228.42 21.686 1228.42 22.118C1228.42 22.742 1228.9 23.198 1229.88 23.486L1232.72 24.296C1233.79 24.596 1234.58 25.07 1235.1 25.718C1235.62 26.366 1235.89 27.146 1235.89 28.058C1235.89 28.898 1235.67 29.63 1235.24 30.254C1234.81 30.866 1234.18 31.34 1233.37 31.676C1232.56 32.012 1231.62 32.18 1230.52 32.18C1229.3 32.18 1228.2 31.976 1227.21 31.568C1226.23 31.148 1225.51 30.578 1225.05 29.858C1225 29.774 1224.98 29.696 1224.98 29.624C1224.98 29.528 1225.04 29.426 1225.16 29.318L1226.55 28.364C1226.67 28.292 1226.77 28.256 1226.87 28.256C1226.98 28.256 1227.07 28.304 1227.14 28.4C1227.58 28.976 1228.03 29.384 1228.49 29.624C1228.95 29.864 1229.55 29.984 1230.31 29.984C1231.11 29.984 1231.74 29.858 1232.2 29.606C1232.65 29.354 1232.88 28.976 1232.88 28.472C1232.88 28.148 1232.77 27.872 1232.54 27.644C1232.31 27.416 1231.93 27.218 1231.39 27.05L1228.67 26.276C1227.64 25.988 1226.84 25.508 1226.28 24.836C1225.71 24.152 1225.43 23.378 1225.43 22.514C1225.43 21.746 1225.64 21.056 1226.06 20.444C1226.49 19.832 1227.1 19.352 1227.88 19.004C1228.66 18.644 1229.56 18.464 1230.58 18.464C1231.59 18.464 1232.51 18.638 1233.35 18.986C1234.19 19.322 1234.83 19.778 1235.28 20.354C1235.35 20.45 1235.38 20.534 1235.38 20.606C1235.38 20.678 1235.35 20.744 1235.28 20.804L1233.76 21.92C1233.69 21.968 1233.64 21.992 1233.6 21.992C1233.54 21.992 1233.45 21.926 1233.31 21.794Z" fill="#00FF19"/>
</svg>
